<svg width="414" height="142" viewBox="0 0 414 142" fill="none" xmlns="http://www.w3.org/2000/svg">
<path d="M120.528 5.66601C122.518 3.74793 124.275 1.56148 126.579 0C126.72 20.3817 126.554 40.7705 126.66 61.1559C128.788 61.2373 130.919 61.2654 133.054 61.2691C133.114 67.4061 132.757 68.7154 133.555 70.1248C135.86 74.5271 134.034 75.6451 134.828 85.6708C137.542 85.706 140.259 85.7025 142.979 85.6885C143.064 79.7329 142.915 73.7739 143.05 67.8146C144.066 67.7476 145.085 67.6909 146.109 67.6273C146.176 66.6029 146.232 65.5786 146.306 64.5613C148.226 64.4413 150.152 64.4482 152.075 64.5613C152.096 63.1871 152.118 61.8167 152.146 60.4462C153.525 60.4144 154.905 60.3755 156.288 60.3331C156.352 59.4747 156.415 58.6235 156.486 57.772C158.278 57.7686 160.152 57.4469 161.891 58.0192C163.973 59.2874 165.204 61.548 167.187 62.9503C168.055 63.4306 169.1 63.3882 170.063 63.5509C170.105 70.9193 170 78.288 170.112 85.6565C172.378 85.6848 174.65 85.6811 176.919 85.6387C177.205 79.5912 176.901 73.5368 177.116 67.4893C178.122 67.4363 179.135 67.3974 180.147 67.3481C180.26 66.5674 180.377 65.7938 180.497 65.0202C182.275 64.9884 184.057 64.9918 185.842 65.0236C185.888 65.949 185.934 66.8816 185.987 67.8141C186.939 67.8954 187.896 67.9731 188.855 68.0544C188.901 71.2937 188.816 74.5364 188.919 77.7754C192.656 74.3936 192.639 77.1019 192.303 56.1432C193.975 56.1292 195.662 55.9914 197.334 56.2034C200.995 56.6074 199.576 61.641 199.85 66.6874C199.744 69.1459 203.174 69.8207 203.061 72.311C203.163 76.7546 203.025 81.2054 203.085 85.6527C205.301 85.6811 207.52 85.6811 209.743 85.6562C209.853 74.3914 209.754 63.1233 209.789 51.8586C212.555 51.809 215.322 51.8127 218.088 51.848C218.169 56.8392 217.947 61.8376 218.211 66.8251C219.503 66.8641 220.798 66.8993 222.096 66.9417C222.149 68.9763 221.983 71.0181 222.146 73.0528C222.206 74.4256 224.931 76.9687 225.963 77.4964C228.211 78.3937 230.952 76.5037 230.956 74.1019C231.051 71.8871 230.907 69.6689 230.963 67.4541C233.363 67.4151 235.762 67.4151 238.165 67.4506C238.182 69.1568 237.946 70.9053 238.387 72.5762C239.445 74.5014 241.601 75.5256 242.702 77.4262C243.14 78.5813 243.076 79.8529 243.171 81.0682C246.354 81.1423 249.536 81.1318 252.723 81.1106C252.79 76.9176 252.634 72.7211 252.807 68.5318C255.358 68.4822 257.906 68.4966 260.457 68.4682C260.481 65.5294 260.443 62.5903 260.485 59.6549C261.388 59.6125 262.295 59.5735 263.206 59.5348C265.661 56.6386 265.701 56.7157 268.95 55.6351C269.035 55.1087 269.105 54.5788 269.26 54.0702C269.811 53.7099 270.453 53.5226 271.063 53.2682C271.296 49.6334 271.822 46.0233 272.661 42.4804C271.589 41.4419 270.417 40.4105 269.849 38.9905C268.699 36.2776 269.461 32.8476 271.747 30.965C273.088 29.9901 274.623 29.3225 276.109 28.5984C276.931 28.1216 277.845 28.6374 278.684 28.8032C281.122 25.2744 283.892 21.9964 286.986 19.0292C286.969 17.1146 286.926 15.0413 288.07 13.3987C289.414 11.1874 292.021 10.1454 294.505 9.9687C295.903 9.91572 297.063 10.8448 298.245 11.4629C302.518 9.50958 307.003 7.92346 311.678 7.29108C315.406 6.84282 313.65 5.95478 320.125 3.10866C328.645 7.059 323.026 6.32489 329.637 7.74304C333.37 8.45305 336.945 9.80233 340.381 11.4096C342.149 12.3811 343.61 10.5407 345.152 9.95069C350.873 12.5213 351.981 14.2984 352.251 18.3084C352.228 20.604 353.99 19.9255 360.641 29.6049C361.566 29.1103 362.497 28.6194 363.436 28.139C364.847 29.0575 366.417 29.6862 367.878 30.5234C370.782 32.3249 371.738 36.4506 370.196 39.4496C369.413 41.1239 367.808 42.1413 366.329 43.1268C366.555 44.2361 366.792 45.345 367.031 46.4577C367.684 46.4577 368.351 46.4612 369.021 46.4649C369.057 45.5641 369.099 44.6668 369.145 43.7698C370.331 43.7663 371.523 43.7663 372.716 43.7663C372.772 44.448 372.832 45.1299 372.903 45.815C373.665 45.8786 374.43 45.9387 375.207 46.0058C375.511 59.4668 374.628 55.7249 376.04 61.5199C376.399 63.0353 375.973 64.5719 375.63 66.0521C377.638 66.0733 379.649 66.0733 381.664 66.0415C381.868 63.8585 380.962 61.1456 382.705 59.4111C384.261 57.638 386.843 58.3972 388.904 58.2984C389.027 66.6966 388.729 77.2124 389.126 80.9198C389.825 80.8562 390.541 80.7961 391.254 80.7362C391.3 79.3975 391.173 78.0093 391.6 76.7199C393.135 73.5943 395.68 73.8653 396.959 73.7103C397.113 52.4449 396.035 55.4022 399.535 51.8239C401.596 49.9659 400.91 50.1657 406.556 50.2308C406.803 63.2266 406.434 81.7533 406.81 85.6641C409.513 85.6782 412.223 85.6819 414.929 85.6535C414.975 79.5814 414.894 73.5127 414.968 67.4406C417.459 67.4265 419.954 67.4299 422.448 67.4371V159.543C339.621 159.577 370.497 159.568 -255 159.568V85.7412C-254.206 85.6954 -253.409 85.6565 -252.615 85.6175C-252.527 78.687 -252.622 71.7599 -252.565 64.8294C-251.814 64.7764 -251.062 64.7235 -250.311 64.6739C-250.163 63.9745 -250.014 63.2751 -249.863 62.5791C-248.452 62.5685 -247.04 62.5651 -245.629 62.5757C-245.526 70.2869 -245.752 78.0016 -245.512 85.7126C-244.239 85.688 -242.965 85.6631 -241.691 85.6313C-241.49 79.5697 -241.656 73.501 -241.571 67.4395C-239.701 67.4361 -237.831 67.4323 -235.961 67.4149C-235.901 61.3393 -236.003 55.2634 -235.915 49.1913C-234.987 49.1383 -234.059 49.0924 -233.131 49.0395C-233.071 48.1882 -233.008 47.3405 -232.948 46.4962C-230.951 46.4397 -228.947 46.4538 -226.95 46.5351C-226.886 47.284 -226.823 48.0364 -226.756 48.7888C-226.17 48.8524 -225.581 48.9194 -224.995 48.9902C-224.879 58.5453 -225.059 68.1002 -224.903 77.6519C-221.703 77.7825 -218.499 77.6731 -215.299 77.7473C-215.296 80.3788 -215.327 83.0106 -215.193 85.6422C-212.826 85.6986 -210.458 85.7129 -208.087 85.6845C-208.01 79.1745 -208.179 72.6641 -207.985 66.1575C-207.593 65.9986 -207.202 65.8467 -206.806 65.6984C-206.757 64.8154 -206.704 63.9358 -206.651 63.0597C-205.818 62.9254 -204.989 62.7948 -204.156 62.6676C-204.104 61.7491 -204.054 60.8378 -204.001 59.9264C-202.103 59.8451 -200.198 59.8594 -198.299 59.9794C-198.214 60.9721 -198.144 61.9682 -198.063 62.9678C-197.551 63.0666 -197.043 63.1726 -196.531 63.2822C-196.503 70.7426 -196.581 78.203 -196.5 85.6633C-192.502 85.6739 -188.508 85.6739 -184.51 85.6633C-184.471 84.6248 -184.443 83.5898 -184.401 82.5584C-183.459 82.4702 -182.513 82.3888 -181.571 82.3006C-181.469 75.9071 -181.536 69.5171 -181.547 63.1233C-179.68 63.0843 -177.807 63.2293 -175.947 63.0457C-174.299 62.8515 -173.576 60.9546 -172.034 60.5307C-170.213 60.2658 -168.361 60.4388 -166.526 60.4213C-166.452 64.2646 -166.547 68.1113 -166.473 71.9544C-164.889 71.9684 -163.305 71.9722 -161.721 71.965C-161.65 68.588 -161.714 65.2146 -161.685 61.8413C-160.267 61.7989 -158.845 61.76 -157.423 61.7247C-157.377 61.0113 -157.331 60.3013 -157.282 59.5947C-155.024 59.4429 -152.762 59.4392 -150.504 59.5701C-150.423 60.7217 -150.345 61.8731 -150.257 63.0247C-149.34 63.0883 -148.419 63.1485 -147.498 63.2155C-147.47 64.6003 -147.438 65.9848 -147.406 67.373C-146.446 67.4082 -145.483 67.4437 -144.52 67.4824C-144.446 70.9371 -144.52 74.3883 -144.477 77.8429C-143.631 77.8819 -142.784 77.9243 -141.937 77.9701C-141.866 80.5346 -141.881 83.0991 -141.754 85.6636C-139.654 85.6882 -137.559 85.6814 -135.459 85.6284C-135.413 84.0494 -135.395 82.4739 -135.409 80.8986C-134.425 80.8634 -133.441 80.835 -132.453 80.8032C-132.393 66.5819 -132.442 52.3606 -132.432 38.1393C-131.556 38.0473 -130.682 37.9591 -129.807 37.8743C-129.768 36.7299 -129.725 35.5854 -129.683 34.4443C-125.689 34.3489 -121.691 34.3842 -117.693 34.4231C-117.64 48.7221 -117.697 63.0247 -117.665 77.3237C-114.641 77.3944 -111.614 77.3838 -108.586 77.3377C-108.53 74.0598 -108.661 70.7781 -108.477 67.5036C-106.367 67.5108 -104.254 67.4964 -102.144 67.4506C-102.084 61.3043 -102.13 55.1545 -102.144 49.0082C-102.278 46.8816 -100.609 44.5609 -98.3684 44.5715C-90.1004 44.3677 -91.6154 44.5603 -89.1488 46.9275C-88.0302 46.9733 -86.9118 47.0088 -85.7898 47.0512C-85.7298 51.9966 -85.8427 56.9454 -85.7335 61.8943C-85.1478 62.0003 -84.5585 62.1168 -83.9657 62.2334C-83.807 65.469 -83.8988 68.7154 -83.8671 71.9544C-81.8453 71.9933 -79.8201 71.9756 -77.7983 71.8942C-77.6814 68.0721 -77.7422 25.0635 -77.7631 21.4486C-77.608 15.8909 -78.8544 19.1262 -69.3374 9.1665C-68.3707 8.12799 -67.2698 7.22723 -66.1018 6.42529C-65.9358 8.61545 -65.9536 10.8125 -66.0771 13.0061C-63.2827 13.2252 -60.4742 13.1261 -57.6725 13.1261C-57.5172 25.0831 -57.662 37.0438 -57.6019 49.0045C-56.0001 49.1245 -54.3946 49.1669 -52.7857 49.1494C-52.5345 36.5773 -53.8495 36.888 -50.2524 33.9073C-49.1872 32.9957 -48.2613 33.3486 -39.9708 33.2998C-39.8049 46.4474 -39.9848 59.6019 -39.8827 72.7494C-37.9384 72.7706 -35.9908 72.7778 -34.0397 72.7778C-33.9621 77.0556 -34.096 81.3331 -33.9409 85.6075C-31.0266 85.7063 -28.112 85.6782 -25.1976 85.6604C-25.1659 83.5762 -25.1553 81.4958 -25.1659 79.4116C-24.2908 79.3374 -23.4053 79.3196 -22.5479 79.1043C-21.4717 78.6698 -20.759 77.6241 -19.6616 77.2286C-18.3948 76.9284 -17.0788 77.0556 -15.7875 77.0307C-15.6925 54.2206 -17.1183 57.2755 -11.1935 51.8167C-10.3893 51.0116 -9.72034 50.8108 -0.326035 51.1207C-0.262512 52.3924 -0.19902 53.6675 -0.128372 54.9428C2.32394 55.0806 4.78659 55.0947 7.24603 55.0735C7.40137 65.1089 7.13306 75.1478 7.38022 85.1799C14.5326 78.7903 13.0424 80.262 13.2303 72.8271C14.2219 72.7741 15.2169 72.7351 16.2119 72.6859C16.5752 67.7299 16.1979 62.7704 16.2789 57.811C17.0939 57.7686 17.9161 57.7262 18.7346 57.6909C18.7769 56.8291 18.8227 55.9708 18.8688 55.1124C20.7987 55.0666 22.7323 55.056 24.6622 55.0841C24.7186 55.9496 24.7753 56.8185 24.8351 57.6909C26.077 57.7333 27.3192 57.7829 28.5645 57.8359C28.6563 58.9486 28.6351 60.093 28.9738 61.174C29.7325 62.6575 31.3415 63.4595 32.1952 64.8795C32.6855 66.2749 32.315 67.8467 32.8409 69.2421C33.5572 70.4642 34.7004 71.3543 35.6565 72.386C38.5717 75.1709 37.0021 74.4365 46.4322 74.463C46.4533 72.7568 46.4673 71.0507 46.4816 69.3446C47.3391 69.2951 48.1999 69.2492 49.0644 69.2034C49.0716 68.451 49.0856 67.7057 49.1033 66.9602C50.631 66.9531 52.159 66.9708 53.6902 67.0132C53.669 69.4646 53.6584 71.9197 53.6973 74.3782C55.659 74.41 57.6244 74.4029 59.5898 74.343C59.6427 69.1893 59.558 64.0354 59.6286 58.8818C60.472 58.8428 61.3223 58.8076 62.1762 58.7758C62.2326 57.8043 62.2821 56.8366 62.3456 55.8688C64.2721 55.8441 66.1985 55.8404 68.1285 55.8547C68.1743 56.8225 68.2061 57.794 68.2555 58.7655C69.0211 58.815 69.7904 58.868 70.5596 58.9244C70.6091 67.6636 70.4996 76.4062 70.6126 85.1451C76.6858 80.0191 73.7111 80.084 79.3805 79.2815C79.4194 77.6707 79.4474 76.0634 79.4758 74.4564C80.5237 74.4246 81.5751 74.4034 82.6267 74.3787C82.6725 66.6394 82.5915 58.8998 82.6619 51.1639C83.3428 51.0757 84.0274 50.9944 84.7154 50.913C84.7649 49.1679 84.8001 47.4231 84.8318 45.6781C85.3471 45.5085 85.8692 45.3461 86.3913 45.1834C86.4337 43.237 86.4583 41.2943 86.4794 39.3479C88.2861 39.2136 90.103 39.1749 91.9167 39.2136C92.026 41.1316 92.0789 43.0569 92.0932 44.9818C92.6013 45.07 93.1166 45.162 93.6315 45.2574C93.6527 47.225 93.6562 49.196 93.6421 51.1634C94.4289 51.2694 95.2159 51.3719 96.006 51.4779C96.045 52.9932 96.0767 54.5121 96.1013 56.0346C96.8177 56.0876 97.5375 56.144 98.2607 56.2076C98.6545 59.9577 98.4499 72.7606 98.4441 73.0287C98.5039 77.3581 98.2924 75.2464 105.868 83.3503C108.172 85.5984 107.608 85.3483 111.322 85.4344C111.375 80.7116 111.351 75.9924 111.315 71.2696C111.372 67.648 113.089 67.4448 112.984 65.2716C112.751 10.0402 112.696 13.297 113.979 12.1729C116.153 9.99679 118.368 7.85961 120.528 5.66601ZM300.334 13.6422C301.202 15.6485 300.676 17.9375 301.523 19.9191C304.095 24.3029 306.6 28.7288 309.183 33.1125C312.271 31.5688 315.612 30.601 319.052 30.2831C319.077 26.1786 319.08 22.0703 319.049 17.9621C315.092 16.55 313.285 15.1258 312.951 9.87306C308.597 10.5513 304.331 11.7877 300.334 13.6422ZM122.214 10.2334C121.477 10.8552 121.551 12.7907 122.86 12.6424C123.439 12.6283 124.247 12.8048 124.596 12.1901C124.691 11.5403 124.847 10.6782 124.268 10.2119C123.587 10.0744 122.881 10.0638 122.214 10.2334ZM327.298 10.1134C326.857 14.348 325.925 16.3993 321.204 17.9552C321.162 22.0491 321.18 26.1433 321.19 30.2407C324.694 30.3962 328.12 31.2615 331.32 32.6886C343.19 12.3976 335.658 23.5772 339.15 13.9707C335.409 12.1231 331.394 10.8657 327.298 10.1134ZM122.229 15.5142C121.611 16.0369 121.59 17.3157 122.218 17.8421C122.977 17.9375 124.039 18.2058 124.592 17.5101C124.709 16.9591 124.698 16.3834 124.6 15.8358C123.996 15.2069 122.994 15.4013 122.229 15.5142ZM-74.5844 18.107C-75.223 18.4602 -75.1772 19.5024 -74.5704 19.8767C-73.6725 20.0903 -73.9564 20.0802 -62.3551 20.0534C-61.6989 19.9758 -60.891 20.1136 -60.3757 19.6049C-59.2008 17.2018 -63.4279 18.0599 -69.4014 17.92C-71.1265 17.9621 -72.8871 17.7221 -74.5844 18.107ZM122.25 21.1802C121.541 21.5617 121.84 22.5332 121.883 23.1865C122.476 23.794 123.464 23.6281 124.222 23.4904C124.939 23.116 124.625 22.1268 124.614 21.4769C123.979 20.9012 123.015 21.0178 122.25 21.1802ZM294.371 24.2674C292.06 24.4828 290.013 23.1936 288.372 21.7135C285.613 24.3238 283.157 27.2486 281.09 30.4349C283.355 31.9212 297.549 40.0799 300.193 41.5441C302.059 38.6405 304.561 36.2209 307.338 34.1969C304.885 29.9156 302.401 25.6556 299.942 21.385C298.411 22.8474 296.587 24.2533 294.371 24.2674ZM350.956 22.1835C347.198 25.982 343.442 25.844 339.64 22.5403C337.495 26.2671 335.314 29.9723 333.197 33.7168C336.207 35.6667 338.789 38.1994 340.893 41.1065C346.647 37.7755 352.427 34.4761 358.146 31.0816C356.124 27.8317 353.708 24.8396 350.956 22.1835ZM-74.5807 23.7375C-75.1735 24.1262 -75.223 25.1575 -74.5773 25.5144C-73.5823 25.7687 -72.5378 25.7017 -71.5182 25.7123C-62.8969 25.5531 -61.2146 26.0278 -60.3543 25.246C-59.5123 22.8246 -62.8021 23.7341 -68.3426 23.5751C-70.4208 23.6387 -72.5272 23.3632 -74.5807 23.7375ZM122.246 26.825C121.452 27.4219 121.561 29.4247 122.881 29.2517C123.453 29.234 124.233 29.3861 124.596 28.8067C124.709 28.2662 124.709 27.7011 124.585 27.1676C124.067 26.4504 122.987 26.7331 122.246 26.825ZM-74.5913 29.7604C-75.2828 30.149 -75.17 31.4737 -74.3373 31.5865C-72.9368 31.7606 -62.3268 31.7558 -60.9436 31.5865C-60.0299 31.4488 -60.0015 29.7885 -60.9648 29.6897C-63.4171 29.3929 -65.894 29.6544 -68.3567 29.5802C-70.4313 29.6544 -72.5449 29.3471 -74.5913 29.7604ZM309.928 34.3172C312.867 39.6404 315.982 44.8647 319.024 50.1281C319.108 43.9889 319.066 37.8494 319.045 31.7103C315.876 32.0282 312.789 32.9218 309.928 34.3172ZM321.201 31.6679C321.18 37.8248 321.144 43.9817 321.222 50.1386C324.359 44.7765 327.443 39.386 330.561 34.0133C327.668 32.5191 324.429 31.8586 321.201 31.6679ZM122.257 32.141C121.544 32.5543 121.622 33.9425 122.221 34.4406C122.984 34.5466 124.039 34.8009 124.6 34.1087C124.684 33.4516 124.847 32.5967 124.279 32.113C123.612 31.9821 122.906 31.9503 122.257 32.141ZM283.228 34.2006C284.142 39.1786 281.628 43.1891 275.364 43.4659C274.527 46.7757 274.055 50.1704 273.91 53.5827C281.425 53.6073 288.938 53.6039 296.449 53.5862C296.643 50.0467 297.631 46.6344 299.035 43.3952C293.785 40.2974 288.479 37.2912 283.228 34.2006ZM341.983 42.9713C343.648 46.2776 344.629 49.8878 344.855 53.5862C351.545 53.6039 358.234 53.6073 364.928 53.5862C364.779 50.1773 364.31 46.7862 363.477 43.4799C358.154 42.2523 356.214 38.9396 357.024 34.2003C352.028 37.1535 346.961 39.9866 341.983 42.9713ZM326.797 44.7588C325.572 46.9171 324.221 49.0082 323.163 51.2582C324.937 50.4338 338.816 42.3111 339.594 41.8551C337.749 39.0821 335.29 36.7545 332.464 34.9988C330.533 38.2275 328.684 41.5054 326.797 44.7588ZM-74.5807 35.7584C-75.2759 36.147 -75.1841 37.4679 -74.3338 37.5882C-72.9469 37.7652 -62.343 37.7678 -60.9365 37.5848C-60.0084 37.4611 -60.0367 35.8291 -60.933 35.695C-63.5087 35.4055 -66.1126 35.6598 -68.6991 35.5819C-70.6573 35.6452 -72.6508 35.3697 -74.5807 35.7584ZM301.555 42.1625C302.52 43.0916 315.083 50.2597 317.087 51.2654C316.182 49.3208 308.503 36.2159 308.079 35.504C305.503 37.2632 303.156 39.4636 301.555 42.1625ZM-46.3539 37.1784C-47.2007 38.0757 -46.8691 39.6298 -46.6608 40.753C-45.7328 41.5831 -44.2051 41.2969 -43.0796 41.0569C-42.2188 40.1527 -42.5538 38.5843 -42.7621 37.4573C-43.7251 36.6626 -45.2213 36.9135 -46.3539 37.1784ZM-126.198 37.3196C-126.832 38.8278 -126.466 36.2877 -126.586 84.6958C-126.575 85.4199 -126.504 86.1654 -126.201 86.8399C-124.667 86.9973 -125.145 88.3007 -125.157 42.6465C-125.199 39.0024 -124.797 37.2165 -126.198 37.3196ZM-123.406 37.2984C-123.894 38.6858 -123.728 35.6868 -123.752 85.0243C-123.671 85.6991 -123.77 87.1085 -122.697 86.7729C-122.135 85.5553 -122.359 88.3521 -122.323 39.1317C-122.313 38.3653 -122.366 37.2594 -123.406 37.2984ZM-120.679 37.2949C-120.932 39.1259 -121.266 85.0871 -120.573 86.7729C-119.046 87.2839 -119.511 86.2706 -119.511 61.7141C-119.578 53.6638 -119.377 45.6065 -119.614 37.5562C-119.878 37.4926 -120.411 37.3585 -120.679 37.2949ZM122.221 37.4184C121.611 37.8775 121.805 38.7642 121.879 39.4247C122.373 40.0216 123.262 39.8592 123.951 39.799C124.938 39.6896 124.709 38.4673 124.572 37.7821C124.106 37.0088 122.962 37.362 122.221 37.4184ZM-74.5879 41.7669C-75.2865 42.1556 -75.1772 43.512 -74.3092 43.5968C-73.0705 43.7677 -62.5213 43.7449 -61.2543 43.6463C-60.4393 43.7489 -59.9557 42.682 -60.4181 42.0674C-60.8592 41.2307 -62.6581 41.7463 -71.1691 41.5693C-72.3086 41.5762 -73.4764 41.4842 -74.5879 41.7669ZM122.211 43.0561C121.512 43.7343 121.537 45.6312 122.86 45.4934C123.79 45.4534 125.082 45.9234 124.596 43.3917C124 42.7419 122.976 42.975 122.211 43.0561ZM-46.3679 43.8863C-47.1795 44.8189 -46.8794 46.3414 -46.6608 47.4716C-45.7222 48.291 -44.2016 48.0121 -43.0725 47.7683C-42.2257 46.857 -42.5467 45.2992 -42.7655 44.1759C-43.697 43.3459 -45.2387 43.6495 -46.3679 43.8863ZM331.221 49.1706C328.914 50.5482 326.511 51.7669 324.306 53.3069C327.497 53.757 342.174 53.5936 343.43 53.5824C343.236 50.1418 342.29 46.7862 340.766 43.7025C337.534 45.4335 334.404 47.3516 331.221 49.1706ZM297.878 53.5827C298.143 53.5851 314.028 53.7181 316.032 53.3708C314.364 52.1706 301.68 44.9127 300.341 44.1725C298.887 47.1042 298.079 50.3185 297.878 53.5827ZM86.2002 46.525C86.1896 47.8213 86.1896 49.1213 86.2002 50.4176C86.373 50.4176 86.7189 50.4211 86.8917 50.4211C86.8989 49.1248 86.8989 47.8282 86.8917 46.5354C86.7189 46.5319 86.373 46.5285 86.2002 46.525ZM87.6081 46.5497C87.5975 47.8354 87.5975 49.1248 87.6046 50.4176C87.7811 50.4176 88.1304 50.4176 88.3033 50.4176C88.3104 49.1176 88.3104 47.8142 88.3033 46.5179C88.1302 46.525 87.7809 46.5391 87.6081 46.5497ZM89.023 46.5285C89.0124 47.8213 89.009 49.1176 89.0196 50.4142C89.1924 50.4142 89.5417 50.4176 89.7182 50.4213C89.7217 49.1213 89.7216 47.8285 89.7148 46.5322C89.5417 46.5319 89.1958 46.5319 89.023 46.5285ZM90.4309 46.5319C90.4203 47.8248 90.4237 49.1211 90.4343 50.4176C90.6071 50.4176 90.9529 50.4176 91.1258 50.4176C91.1329 49.1213 91.1329 47.8248 91.1258 46.5319C90.9529 46.5319 90.6037 46.5319 90.4309 46.5319ZM91.8493 46.5144C91.8352 47.8144 91.8315 49.1142 91.8421 50.4176C92.0149 50.4176 92.3608 50.4211 92.5336 50.4211C92.5442 49.1282 92.5476 47.8388 92.5476 46.5497C92.3714 46.5425 92.0221 46.5213 91.8493 46.5144ZM-74.5913 48.1252C-75.251 48.5279 -75.2087 49.8313 -74.3513 49.9445C-72.1284 50.2446 -69.8738 49.994 -67.6369 50.061C-63.5989 49.9394 -59.1952 50.7395 -60.386 48.4468C-60.8584 47.5959 -62.7965 48.0855 -70.8301 47.931C-72.0826 47.9413 -73.3634 47.8248 -74.5913 48.1252ZM122.197 48.7186C121.516 49.4146 121.544 51.2903 122.871 51.1488C123.446 51.1348 124.222 51.2794 124.6 50.7109C124.706 50.167 124.713 49.5982 124.578 49.0683C124.053 48.3371 122.955 48.6585 122.197 48.7186ZM367.754 48.6585C367.751 49.5945 367.751 50.5307 367.754 51.4739C368.693 51.4739 369.635 51.4739 370.58 51.4773C370.577 50.5307 370.573 49.5876 370.577 48.6479C369.631 48.6479 368.689 48.6513 367.754 48.6585ZM-99.731 49.3791C-99.7344 50.0679 -99.7344 50.7602 -99.7344 51.4561C-99.0429 51.4561 -98.3512 51.4633 -97.6597 51.4667C-97.6597 50.7639 -97.6597 50.0645 -97.6597 49.3685C-98.3515 49.3685 -99.0429 49.3719 -99.731 49.3791ZM-96.5626 49.3791C-96.5626 50.0714 -96.5626 50.7639 -96.5554 51.4596C-95.864 51.4561 -95.1688 51.4524 -94.4736 51.4561C-94.477 50.7602 -94.4771 50.0645 -94.4771 49.3757C-95.1759 49.3719 -95.8711 49.3757 -96.5626 49.3791ZM-93.3836 49.3791C-93.3871 50.0679 -93.3871 50.7602 -93.3836 51.4561C-92.6921 51.4561 -91.9969 51.4561 -91.3018 51.4596C-91.3052 50.7602 -91.3052 50.0642 -91.3052 49.3719C-92.0004 49.3719 -92.6919 49.3719 -93.3836 49.3791ZM-90.215 49.3825C-90.2115 50.0748 -90.2078 50.7673 -90.1972 51.4667C-89.5092 51.4596 -88.8212 51.4596 -88.1297 51.4596C-88.1297 50.7602 -88.1297 50.0642 -88.1297 49.3719C-88.8249 49.3719 -89.52 49.3757 -90.215 49.3825ZM-229.201 50.4952C-229.872 51.0357 -229.628 52.0777 -229.516 52.8266C-229.021 53.5544 -227.924 53.247 -227.18 53.1729C-226.495 52.6324 -226.742 51.5833 -226.851 50.8415C-227.36 50.1069 -228.45 50.407 -229.201 50.4952ZM-46.3713 50.9403C-47.1335 51.9576 -47.0099 53.5896 -46.5089 54.7057C-45.5068 55.2639 -44.145 55.0732 -43.0405 54.84C-42.2749 53.8545 -42.5184 52.3887 -42.7653 51.2511C-43.6933 50.3999 -45.2387 50.7249 -46.3713 50.9403ZM318.068 52.173C317.207 53.6071 317.545 55.239 318.025 56.7332C318.318 56.7862 318.904 56.8887 319.2 56.938C319.197 55.8007 319.197 54.6668 319.197 53.5329C320.301 53.4977 321.409 53.4728 322.524 53.4587C322.4 53.0348 322.266 52.6038 322.16 52.1871C320.823 51.7033 319.401 51.7139 318.068 52.173ZM84.0832 52.1802C84.0726 53.4802 84.0726 54.7836 84.0867 56.0871C84.2595 56.0765 84.6053 56.0624 84.7818 56.0518C84.7853 54.7624 84.7818 53.4696 84.7747 52.1839C84.6019 52.1839 84.256 52.1839 84.0832 52.1802ZM85.4911 52.1873C85.4805 53.4802 85.4805 54.773 85.4911 56.0659C85.6638 56.0693 86.0132 56.073 86.1862 56.0765C86.1934 54.773 86.1934 53.473 86.1862 52.1767C86.0132 52.1802 85.6638 52.1839 85.4911 52.1873ZM86.8989 52.1945C86.8917 53.4873 86.8954 54.7767 86.9095 56.073C87.0788 56.073 87.4247 56.0696 87.5975 56.0696C87.6046 54.7696 87.6046 53.4699 87.5975 52.1733C87.4247 52.1802 87.0754 52.1908 86.8989 52.1945ZM88.3138 52.1908C88.3033 53.4802 88.3032 54.7693 88.3173 56.0622C88.4901 56.0656 88.836 56.0762 89.0088 56.0799C89.0159 54.7765 89.0159 53.4765 89.0088 52.1767C88.836 52.1802 88.4866 52.1873 88.3138 52.1908ZM89.7285 52.1839C89.718 53.4802 89.718 54.7802 89.7285 56.0802C89.9013 56.0767 90.2506 56.0661 90.4237 56.0624C90.4271 54.7696 90.4272 53.4733 90.4203 52.1839C90.2472 52.1839 89.9016 52.1839 89.7285 52.1839ZM91.14 52.1839C91.1295 53.4767 91.126 54.773 91.1366 56.073C91.3131 56.0696 91.6624 56.0659 91.8387 56.0624C91.8421 54.7696 91.8387 53.4733 91.8281 52.1804C91.655 52.1802 91.3128 52.1839 91.14 52.1839ZM92.5479 52.1945C92.5373 53.4802 92.5373 54.7696 92.5444 56.0624C92.7209 56.0659 93.0703 56.073 93.2465 56.0765C93.2499 54.773 93.2499 53.473 93.2431 52.1733C93.07 52.1767 92.7207 52.1873 92.5479 52.1945ZM93.9591 52.1873C93.9485 53.4802 93.952 54.7765 93.9663 56.073C94.1391 56.073 94.485 56.0696 94.6577 56.0696C94.6612 54.7696 94.6612 53.4733 94.6543 52.177C94.4778 52.1802 94.132 52.1839 93.9591 52.1873ZM-99.7241 52.5476C-99.7347 53.2399 -99.7381 53.9359 -99.7418 54.6353C-99.0466 54.6318 -98.348 54.6318 -97.6494 54.6353C-97.6529 53.9393 -97.6566 53.247 -97.6566 52.5582C-98.348 52.5511 -99.0361 52.5476 -99.7241 52.5476ZM-96.5592 52.5582C-96.5626 53.247 -96.5626 53.9393 -96.5592 54.6353C-95.8677 54.6353 -95.1759 54.6353 -94.481 54.6424C-94.481 53.943 -94.4776 53.2508 -94.4739 52.5582C-95.1725 52.5548 -95.8674 52.5548 -96.5592 52.5582ZM-93.3693 52.5442C-93.3799 53.2402 -93.3871 53.9359 -93.3905 54.6353C-92.699 54.6353 -92.0038 54.6353 -91.3052 54.6387C-91.3052 53.9427 -91.3018 53.2505 -91.2981 52.5617C-91.9898 52.5511 -92.6813 52.5476 -93.3693 52.5442ZM-90.2043 52.5582C-90.2115 53.247 -90.215 53.9359 -90.215 54.6318C-89.5198 54.6318 -88.8212 54.6318 -88.1225 54.639C-88.126 53.9396 -88.1297 53.2436 -88.1297 52.5548C-88.8249 52.5511 -89.5163 52.5511 -90.2043 52.5582ZM367.758 52.8902C367.75 53.8299 367.754 54.773 367.761 55.7162C368.693 55.7162 369.631 55.7162 370.577 55.7196C370.573 54.7765 370.577 53.8333 370.587 52.8936C369.638 52.8902 368.696 52.8902 367.758 52.8902ZM-229.191 54.0347C-229.903 54.5399 -229.6 55.6242 -229.53 56.3766C-228.976 57.0302 -227.949 56.8111 -227.197 56.7051C-226.478 56.193 -226.76 55.1121 -226.841 54.3666C-227.377 53.6603 -228.439 53.9218 -229.191 54.0347ZM122.267 54.0347C121.558 54.448 121.597 55.8645 122.232 56.3377C122.987 56.4508 124.049 56.7052 124.596 56.0057C124.705 55.4618 124.709 54.8965 124.592 54.3597C124.056 53.6744 123.008 53.9041 122.267 54.0347ZM211.8 53.9499C211.8 54.6565 211.803 55.3628 211.811 56.0765C212.509 56.0693 213.215 56.0659 213.924 56.0659C213.917 55.3559 213.914 54.6493 213.917 53.9465C213.208 53.9465 212.502 53.9465 211.8 53.9499ZM-74.595 54.4869C-75.2865 54.865 -75.1595 56.2071 -74.3444 56.3168C-72.0051 56.5888 -69.6412 56.3557 -67.2913 56.4193C-63.8635 56.3215 -58.956 57.0474 -60.4038 54.7873C-60.8949 53.9552 -63.0188 54.4482 -70.8267 54.2893C-72.0826 54.2996 -73.3671 54.1796 -74.595 54.4869ZM401.63 54.3033C401.623 55.243 401.623 56.1824 401.63 57.1293C402.565 57.1259 403.507 57.1259 404.453 57.1293C404.449 56.1862 404.449 55.2465 404.456 54.307C403.507 54.3033 402.565 54.2996 401.63 54.3033ZM-99.7347 55.7339C-99.7381 56.4227 -99.7381 57.115 -99.7347 57.811C-99.0466 57.8144 -98.3552 57.8181 -97.66 57.825C-97.6566 57.1256 -97.6529 56.4296 -97.6494 55.7374C-98.3443 55.7339 -99.0395 55.7302 -99.7347 55.7339ZM-96.5626 55.7374C-96.5626 56.4296 -96.5591 57.1221 -96.552 57.8216C-95.864 57.8181 -95.1759 57.8181 -94.4808 57.8216C-94.4808 57.1221 -94.4808 56.4262 -94.4773 55.7305C-95.1759 55.7302 -95.8711 55.7302 -96.5626 55.7374ZM-93.3871 55.7408C-93.3871 56.4296 -93.3871 57.1184 -93.3836 57.8144C-92.6921 57.811 -91.9935 57.8144 -91.2949 57.8178C-91.302 57.115 -91.3089 56.419 -91.3126 55.7268C-92.0038 55.7268 -92.6956 55.7302 -93.3871 55.7408ZM-90.2043 55.7268C-90.2078 56.4227 -90.2044 57.1221 -90.2009 57.825C-89.5129 57.8178 -88.8248 57.8144 -88.1334 57.8144C-88.1299 57.1221 -88.1228 56.4296 -88.1156 55.7445C-88.8143 55.7339 -89.5129 55.7302 -90.2043 55.7268ZM273.716 55.748C274.16 58.424 278.492 60.1993 275.97 65.9212C275.275 67.3306 276.055 68.8214 276.443 70.199C277.361 69.3017 278.123 68.1927 279.241 67.5391C281.08 67.2 282.974 67.6734 284.816 67.3237C285.861 66.7939 286.581 65.8224 287.41 65.017C289.396 64.9924 291.386 64.9924 293.38 64.9958C293.415 66.2534 293.44 67.5145 293.454 68.7755C295.338 67.7476 297.194 66.6633 299.035 65.5574C297.68 62.4313 296.707 59.139 296.467 55.7305C288.884 55.7162 281.298 55.6844 273.716 55.748ZM297.892 55.7374C298.146 58.8741 298.944 61.9544 300.334 64.7839C301.627 64.0768 313.897 57.0599 315.753 55.7623C309.801 55.6666 303.845 55.7162 297.892 55.7374ZM325.922 55.7692C326.186 56.7793 326.959 57.4647 327.88 57.892C331.454 59.8525 334.912 62.0177 338.5 63.957C338.532 62.2543 338.539 60.5519 338.539 58.8527C340.025 58.828 341.514 58.8137 343.006 58.8068C343.144 57.7823 343.285 56.7616 343.422 55.7408C337.59 55.7162 331.754 55.6597 325.922 55.7692ZM344.82 55.7268C344.7 56.7441 344.587 57.7614 344.477 58.7822C345.501 58.8246 346.528 58.867 347.558 58.9165C347.702 62.3147 347.399 65.7339 347.681 69.125C348.305 69.7825 359.234 76.0099 359.66 76.2428C361.121 73.3108 362.666 70.2838 363.174 67.0233C362.673 65.1298 361.661 63.233 362.282 61.2267C362.571 59.0683 364.737 57.8708 365.104 55.748C358.344 55.6772 351.58 55.7233 344.82 55.7268ZM211.803 57.1256C211.8 57.8284 211.8 58.5384 211.803 59.2485C212.502 59.245 213.208 59.245 213.92 59.2485C213.917 58.5419 213.917 57.8356 213.92 57.1325C213.211 57.129 212.505 57.1256 211.803 57.1256ZM367.754 57.129C367.751 58.0687 367.751 59.0082 367.758 59.9513C368.693 59.9513 369.631 59.9548 370.577 59.9585C370.573 59.0119 370.573 58.0687 370.58 57.129C369.635 57.1256 368.693 57.1256 367.754 57.129ZM-229.173 57.5635C-229.917 58.0404 -229.596 59.1602 -229.522 59.9055C-228.873 60.6401 -227.695 60.1492 -226.82 60.2729C-226.806 59.4781 -226.749 58.6799 -226.851 57.892C-227.37 57.1892 -228.436 57.4507 -229.173 57.5635ZM-12.88 57.5635C-13.5328 57.892 -13.5151 59.3544 -12.9364 59.8877C-12.1602 59.9831 -11.1475 60.1985 -10.5335 59.5698C-10.4946 58.9128 -10.2194 57.9696 -10.8934 57.5635C-11.5428 57.3834 -12.2309 57.4329 -12.88 57.5635ZM-9.54938 57.6766C-9.35886 58.3866 -9.63062 59.3722 -8.98836 59.888C-8.34982 60.0364 -7.66867 60.0364 -7.02669 59.8774C-6.33522 59.4887 -6.6067 58.5316 -6.65964 57.8886C-7.37943 57.0726 -8.61789 57.6626 -9.54938 57.6766ZM-5.36456 57.394C-5.35054 58.1959 -5.90439 59.3014 -5.13881 59.8843C-4.38013 59.9797 -3.34279 60.2234 -2.78177 59.5452C-2.72169 58.9165 -2.45706 57.9874 -3.12048 57.5988C-3.86145 57.4469 -4.62016 57.4401 -5.36456 57.394ZM-46.3539 58.0051C-47.1795 58.9554 -46.8797 60.4883 -46.6537 61.6365C-45.5952 62.35 -43.8203 62.3465 -42.7549 61.6259C-42.5186 60.5061 -42.3456 59.178 -42.9103 58.1429C-43.9262 57.5953 -45.2565 57.7437 -46.3539 58.0051ZM307.634 63.0883C308.763 63.1167 309.899 63.1447 311.039 63.1696C311.12 64.7203 311.201 66.2712 311.321 67.8218C313.269 64.4765 315.347 61.1986 317.059 57.7193C313.816 59.3226 310.75 61.2619 307.634 63.0883ZM-99.7381 58.5634C-99.7416 59.2522 -99.7416 59.941 -99.7381 60.6369C-99.0429 60.6369 -98.348 60.6369 -97.6529 60.6441C-97.6529 59.9481 -97.6529 59.2559 -97.6494 58.5671C-98.348 58.5596 -99.0429 58.5596 -99.7381 58.5634ZM-96.5626 58.5634C-96.5626 59.2556 -96.5591 59.9481 -96.5554 60.6438C-95.864 60.6404 -95.1722 60.6404 -94.4773 60.6438C-94.4808 59.9444 -94.4808 59.2485 -94.4808 58.5562C-95.1759 58.5562 -95.8711 58.5562 -96.5626 58.5634ZM-93.3871 58.5634C-93.3871 59.2522 -93.387 59.9444 -93.3799 60.6404C-92.6953 60.6404 -92.0038 60.6475 -91.3124 60.6544C-91.3089 59.9516 -91.3018 59.2556 -91.2946 58.5634C-91.9932 58.5596 -92.6919 58.5596 -93.3871 58.5634ZM-90.1975 58.5528C-90.2046 59.245 -90.2081 59.941 -90.2115 60.6404C-89.5163 60.6404 -88.8214 60.6404 -88.1263 60.6438C-88.1297 59.9444 -88.1297 59.2522 -88.1297 58.5596C-88.8214 58.5527 -89.5094 58.5528 -90.1975 58.5528ZM83.3705 58.5422C83.3671 59.2416 83.3634 59.9481 83.3672 60.6544C84.0692 60.6544 84.7784 60.6579 85.4876 60.665C85.4841 59.955 85.4841 59.2485 85.4876 58.5422C84.7784 58.5384 84.0726 58.5384 83.3705 58.5422ZM86.553 58.5384C86.5459 59.245 86.5424 59.9513 86.5424 60.6613C87.2444 60.6579 87.9537 60.6579 88.6629 60.6613C88.6594 59.9513 88.6594 59.2447 88.6629 58.5419C87.9539 58.5384 87.2516 58.5384 86.553 58.5384ZM89.7216 58.5422C89.7182 59.245 89.7182 59.9516 89.7216 60.6581C90.4237 60.6581 91.1295 60.6581 91.8387 60.6616C91.8352 59.9516 91.8352 59.245 91.8387 58.5422C91.1295 58.5384 90.4237 58.5384 89.7216 58.5422ZM92.8972 58.5422C92.8937 59.245 92.8937 59.9516 92.8972 60.6616C93.5992 60.6581 94.305 60.6581 95.0142 60.6616C95.0108 59.955 95.0108 59.2487 95.0142 58.5422C94.305 58.5384 93.5992 58.5384 92.8972 58.5422ZM96.069 58.549C96.0656 59.2485 96.069 59.955 96.0724 60.6613C96.7816 60.6579 97.4943 60.6579 98.2141 60.6613C98.2069 59.9513 98.2001 59.2447 98.2001 58.5419C97.484 58.5384 96.7748 58.5422 96.069 58.549ZM401.63 58.5422C401.623 59.4818 401.623 60.425 401.63 61.3681C402.565 61.3647 403.507 61.3647 404.453 61.3681C404.446 60.4216 404.446 59.4784 404.449 58.5387C403.504 58.5384 402.565 58.5384 401.63 58.5422ZM312.246 70.4708C311.36 71.8238 310.771 73.4838 311.258 75.0983C313.05 76.2674 315.234 76.5641 317.291 77.0235C317.399 68.9996 317.457 72.7712 318.932 69.4394C319.219 68.3132 319.034 59.582 319.01 59.0153C316.596 62.7349 314.557 66.6876 312.246 70.4708ZM326.162 59.3014C326.183 64.1033 325.734 62.2628 328.988 67.9945C330.406 68.0663 334.296 67.479 334.947 72.2334C336.468 70.6896 339.072 69.2378 338.497 66.6876C337.838 65.9668 338.344 66.3438 326.162 59.3014ZM122.214 59.6689C121.604 60.2165 121.611 61.4492 122.214 62.0074C122.98 62.0922 124.035 62.3537 124.596 61.6649C124.705 61.1138 124.702 60.5381 124.596 59.994C124.007 59.3404 122.98 59.5701 122.214 59.6689ZM-74.5595 60.4955C-75.0464 60.6685 -75.0782 61.2513 -75.0041 61.6895C-74.6582 62.6856 -73.3986 62.3288 -72.5872 62.449C-68.8155 62.3571 -65.0329 62.541 -61.2612 62.3677C-60.1357 62.5407 -59.8499 60.5874 -60.9471 60.425C-62.3766 60.2557 -73.1284 60.1852 -74.5595 60.4955ZM211.807 60.3082C211.8 61.011 211.796 61.7176 211.8 62.4276C212.502 62.4204 213.211 62.4204 213.924 62.4241C213.917 61.7141 213.913 61.0076 213.917 60.3047C213.208 60.3047 212.505 60.3047 211.807 60.3082ZM-229.565 61.0643C-229.575 61.9261 -229.642 62.8056 -229.448 63.6571C-228.732 63.9149 -227.931 63.9573 -227.197 63.7525C-226.449 63.2756 -226.777 62.1558 -226.848 61.4211C-227.497 60.6685 -228.69 61.1771 -229.565 61.0643ZM-12.8977 61.0889C-13.6564 61.6858 -13.5929 63.6606 -12.2872 63.5122C-11.705 63.4982 -10.9289 63.6465 -10.5441 63.0849C-10.4277 62.5373 -10.4242 61.965 -10.5407 61.4283C-11.0805 60.7286 -12.1462 60.9901 -12.8977 61.0889ZM-9.04472 61.0643C-9.61633 61.5552 -9.4753 62.4136 -9.36574 63.0777C-8.82933 63.7665 -7.77452 63.5122 -7.01927 63.4097C-6.3876 62.8939 -6.68399 61.9083 -6.48659 61.2055C-7.3371 61.1067 -8.19447 60.9334 -9.04472 61.0643ZM-5.12109 61.0924C-5.91841 61.6468 -5.8197 63.678 -4.51773 63.5085C-3.56268 63.455 -2.33694 63.9605 -2.76776 61.4068C-3.36768 60.7816 -4.36267 60.9511 -5.12109 61.0924ZM340.593 61.3644C340.586 62.0673 340.582 62.7738 340.582 63.4804C341.284 63.4804 341.993 63.4839 342.706 63.4876C342.699 62.7776 342.699 62.071 342.706 61.3681C341.993 61.3644 341.291 61.3644 340.593 61.3644ZM343.765 61.3679C343.761 62.0707 343.761 62.7773 343.768 63.4907C344.467 63.4873 345.169 63.4873 345.878 63.4873C345.875 62.7773 345.875 62.0707 345.882 61.3679C345.169 61.3644 344.463 61.3644 343.765 61.3679ZM367.758 61.3644C367.754 62.3076 367.754 63.2507 367.761 64.1973C368.7 64.1939 369.638 64.1901 370.584 64.1901C370.577 63.247 370.573 62.3039 370.577 61.3679C369.631 61.3644 368.693 61.3644 367.758 61.3644ZM-99.7381 61.7388C-99.7381 62.431 -99.7381 63.127 -99.7347 63.823C-99.0432 63.8195 -98.3515 63.8195 -97.6566 63.823C-97.6531 63.127 -97.6531 62.4347 -97.6494 61.7425C-98.3443 61.7388 -99.0429 61.7388 -99.7381 61.7388ZM-96.5592 61.7388C-96.5626 62.431 -96.5626 63.1236 -96.5592 63.823C-95.8677 63.8195 -95.1759 63.8195 -94.481 63.823C-94.481 63.1236 -94.4776 62.4313 -94.4776 61.7425C-95.1725 61.7388 -95.8674 61.7353 -96.5592 61.7388ZM-93.3799 61.7319C-93.3833 62.4278 -93.3833 63.1236 -93.3799 63.8267C-92.6919 63.8232 -92.0004 63.8232 -91.3087 63.8267C-91.3052 63.1307 -91.3015 62.4385 -91.2909 61.7496C-91.9898 61.7388 -92.685 61.7353 -93.3799 61.7319ZM-90.2043 61.7353C-90.2078 62.4313 -90.2044 63.127 -90.2009 63.8301C-89.5129 63.823 -88.8177 63.8195 -88.1263 63.8195C-88.1297 63.1236 -88.1297 62.4279 -88.1297 61.739C-88.8249 61.7319 -89.5163 61.7319 -90.2043 61.7353ZM262.333 62.1486C261.645 62.6114 261.674 63.9748 262.316 64.4728C263.064 64.5648 264.129 64.8297 264.666 64.1337C264.782 63.5861 264.775 63.0104 264.68 62.4665C264.091 61.8342 263.085 62.0143 262.333 62.1486ZM266.567 62.1664C265.915 62.5407 265.879 64.0137 266.55 64.4694C267.308 64.5894 268.321 64.7944 268.91 64.1549C269.013 63.6039 269.016 63.0282 268.9 62.4877C268.36 61.7955 267.308 62.0249 266.567 62.1664ZM60.7888 62.781C60.7853 63.9607 60.7888 65.137 60.7959 66.3204C61.3781 66.3133 61.9637 66.3098 62.5531 66.3133C62.5531 65.1298 62.5531 63.9536 62.5459 62.7773C61.9569 62.7738 61.371 62.7773 60.7888 62.781ZM63.2623 62.781C63.2552 63.9573 63.2552 65.1336 63.2623 66.3133C63.8445 66.3098 64.4338 66.3098 65.0228 66.3098C65.0228 65.1301 65.0194 63.9538 65.0157 62.7776C64.4266 62.7738 63.8445 62.7738 63.2623 62.781ZM65.732 62.781C65.7249 63.9573 65.7249 65.1336 65.732 66.317C66.3142 66.3098 66.8998 66.3098 67.4926 66.3135C67.4926 65.1338 67.4926 63.9538 67.4892 62.7813C66.9001 62.7773 66.3142 62.7773 65.732 62.781ZM68.2055 62.7738C68.1949 63.9536 68.1949 65.1298 68.1984 66.3133C68.7805 66.3098 69.3699 66.3098 69.9589 66.3167C69.9624 65.137 69.9624 63.9607 69.9624 62.7844C69.3699 62.7773 68.7843 62.7738 68.2055 62.7738ZM401.634 62.781C401.627 63.717 401.623 64.6567 401.623 65.5998C402.562 65.5998 403.504 65.6033 404.453 65.6104C404.449 64.6638 404.449 63.7207 404.456 62.781C403.507 62.7773 402.569 62.7773 401.634 62.781ZM211.807 63.4839C211.8 64.1867 211.796 64.8933 211.8 65.6033C212.498 65.6033 213.207 65.6033 213.917 65.6104C213.913 64.9004 213.917 64.1976 213.924 63.4945C213.215 63.4873 212.505 63.4839 211.807 63.4839ZM-229.187 64.6318C-229.903 65.1299 -229.611 66.2179 -229.519 66.9597C-229.011 67.6732 -227.931 67.387 -227.19 67.2954C-226.474 66.7796 -226.759 65.6986 -226.851 64.9534C-227.374 64.2503 -228.443 64.5224 -229.187 64.6318ZM-46.3645 64.7097C-46.9855 65.2854 -46.8408 66.2497 -46.8654 67.0198C-46.8019 67.6167 -46.8866 68.5493 -46.0961 68.6836C-45.0694 68.8603 -43.838 69.0015 -42.9028 68.4857C-42.3913 67.4048 -42.3842 65.9318 -42.8994 64.858C-43.9227 64.2961 -45.2565 64.4659 -46.3645 64.7097ZM-13.4341 64.7484C-13.2507 65.4584 -13.487 66.4049 -12.8908 66.9526C-9.97966 67.577 -10.4094 66.0873 -10.5656 64.9743C-11.1864 64.0807 -12.5201 64.759 -13.4341 64.7484ZM-9.24242 64.4588C-9.22469 65.2607 -9.79283 66.3803 -9.02011 66.9526C-8.26857 67.0373 -7.19603 67.3057 -6.66678 66.5994C-6.5432 66.0518 -6.55748 65.4796 -6.65964 64.9357C-7.3511 64.3245 -8.4025 64.6106 -9.24242 64.4588ZM-5.14598 64.6283C-5.80569 65.1442 -5.72813 66.3803 -5.17056 66.9597C-4.405 67.0267 -3.35336 67.2988 -2.78548 66.6206C-2.6656 66.0624 -2.67619 65.4833 -2.76776 64.9322C-3.37827 64.307 -4.38014 64.494 -5.14598 64.6283ZM156.112 64.6246C155.427 65.1193 155.529 66.3697 156.069 66.956C156.849 67.0479 157.848 67.2562 158.479 66.6487C158.571 66.0799 158.574 65.4936 158.465 64.9354C157.883 64.2927 156.863 64.5012 156.112 64.6246ZM160.36 64.6283C159.65 64.9921 159.936 65.967 159.993 66.6134C160.546 67.3057 161.605 67.0267 162.374 66.9526C162.956 66.4828 162.794 65.6139 162.702 64.9675C162.17 64.268 161.104 64.5083 160.36 64.6283ZM164.248 64.6389C163.588 64.9746 163.584 66.4582 164.213 66.9526C164.964 67.0196 166.062 67.32 166.58 66.5957C166.661 65.9493 166.873 65.0273 166.228 64.6175C165.575 64.4447 164.89 64.4834 164.248 64.6389ZM340.589 64.547C340.582 65.2499 340.582 65.9599 340.589 66.6699C341.291 66.6627 341.997 66.6593 342.71 66.6593C342.703 65.9527 342.699 65.2499 342.706 64.547C341.993 64.5436 341.288 64.5436 340.589 64.547ZM343.761 64.547C343.758 65.2536 343.761 65.9599 343.772 66.6699C344.467 66.6664 345.169 66.6664 345.875 66.6699C345.871 65.9564 345.875 65.2499 345.885 64.547C345.169 64.5436 344.463 64.5436 343.761 64.547ZM-203.822 64.9251C-203.825 65.6104 -203.825 66.3027 -203.825 66.9949C-203.13 66.9949 -202.435 66.9984 -201.74 67.0021C-201.74 66.3027 -201.743 65.6067 -201.743 64.911C-202.438 64.911 -203.13 64.9179 -203.822 64.9251ZM-200.646 64.9216C-200.646 65.6139 -200.646 66.3064 -200.643 67.0058C-199.948 66.9986 -199.253 66.9986 -198.557 66.9986C-198.565 66.2992 -198.571 65.5998 -198.579 64.9076C-199.27 64.9073 -199.958 64.9145 -200.646 64.9216ZM-99.7381 64.9216C-99.7381 65.6139 -99.7347 66.3098 -99.7275 67.0093C-99.0395 67.0021 -98.348 66.9986 -97.6529 66.9986C-97.6563 66.3027 -97.6529 65.6104 -97.6529 64.9182C-98.348 64.9145 -99.0466 64.9145 -99.7381 64.9216ZM-96.5592 64.9179C-96.5626 65.6067 -96.5626 66.3027 -96.5626 66.9984C-95.8711 66.9984 -95.1794 67.0018 -94.4845 67.0055C-94.481 66.3096 -94.4739 65.6173 -94.4633 64.9285C-95.1653 64.9216 -95.864 64.9179 -96.5592 64.9179ZM-93.3764 64.9145C-93.3799 65.6067 -93.3836 66.3027 -93.3836 67.0021C-92.6921 66.9987 -91.9969 66.9987 -91.3018 67.0021C-91.3052 66.3027 -91.3052 65.6104 -91.3052 64.9179C-91.9969 64.9145 -92.6884 64.911 -93.3764 64.9145ZM-90.2115 64.9216C-90.2115 65.6139 -90.2081 66.3098 -90.2009 67.0058C-89.5094 67.0024 -88.8177 66.9987 -88.1263 67.0024C-88.1297 66.303 -88.1297 65.607 -88.1334 64.9147C-88.8283 64.9145 -89.52 64.9145 -90.2115 64.9216ZM301.982 66.4582C302.807 66.4298 303.64 66.3946 304.473 66.3557C304.459 65.8611 304.448 65.3701 304.445 64.8792C303.608 65.3807 302.783 65.9034 301.982 66.4582ZM17.3935 65.2501C17.3863 66.4264 17.3863 67.6061 17.3935 68.7861C17.9756 68.7861 18.5578 68.7861 19.1472 68.7896C19.1506 67.6098 19.1543 66.4298 19.1506 65.2536C18.5613 65.2501 17.9756 65.2464 17.3935 65.2501ZM19.8667 65.2464C19.8595 66.4261 19.8561 67.6061 19.8633 68.7893C20.4454 68.7822 21.031 68.7822 21.6204 68.7859C21.6238 67.6061 21.6238 66.4298 21.6204 65.2536C21.031 65.2464 20.4454 65.2464 19.8667 65.2464ZM22.3296 65.2536C22.3261 66.4298 22.3261 67.6061 22.3367 68.7859C22.9155 68.7824 23.5011 68.7859 24.0904 68.7893C24.0938 67.6096 24.0938 66.4296 24.0938 65.2533C23.5011 65.2501 22.9152 65.2501 22.3296 65.2536ZM24.8065 65.2501C24.7959 66.4264 24.7959 67.6061 24.7993 68.7861C25.3849 68.7827 25.9709 68.7827 26.5636 68.7861C26.5636 67.6064 26.5636 66.4301 26.5602 65.2538C25.9709 65.2501 25.3852 65.2464 24.8065 65.2501ZM27.2694 65.2607C27.2659 66.437 27.266 67.6133 27.2729 68.7896C27.8585 68.7824 28.4443 68.779 29.0371 68.779C29.0337 67.5992 29.03 66.423 29.0265 65.2467C28.4372 65.2464 27.8516 65.2501 27.2694 65.2607ZM29.7426 65.2536C29.7354 66.4298 29.7392 67.6096 29.746 68.793C30.3282 68.7859 30.9104 68.7824 31.4997 68.7859C31.5032 67.6061 31.5032 66.4261 31.4963 65.2499C30.9107 65.2464 30.3248 65.2464 29.7426 65.2536ZM367.761 65.6033C367.754 66.5464 367.754 67.4896 367.758 68.4361C368.696 68.4327 369.638 68.429 370.584 68.429C370.577 67.4858 370.577 66.5462 370.577 65.6067C369.635 65.6033 368.696 65.6033 367.761 65.6033ZM306.731 66.0378C306.149 66.5854 306.12 67.8499 306.766 68.3585C307.521 68.4751 308.534 68.673 309.134 68.0478C309.232 67.4933 309.243 66.921 309.134 66.3769C308.58 65.6634 307.496 65.9493 306.731 66.0378ZM262.323 66.3946C261.525 66.9385 261.642 68.9875 262.937 68.8108C263.505 68.7896 264.284 68.9557 264.659 68.3903C264.782 67.8321 264.775 67.253 264.68 66.6982C264.083 66.0695 263.078 66.2531 262.323 66.3946ZM266.525 66.3769C265.823 67.0373 265.84 68.9379 267.157 68.807C267.728 68.7787 268.551 68.9872 268.896 68.3726C268.988 67.7227 269.185 66.8254 268.568 66.3875C267.894 66.2285 267.188 66.2391 266.525 66.3769ZM-74.549 66.8609C-75.3251 67.0975 -75.1557 68.5776 -74.3444 68.6764C-72.9654 68.8497 -62.3324 68.8484 -60.9542 68.673C-59.8711 68.5175 -60.104 66.5607 -61.2366 66.7337C-64.0768 66.5358 -66.9242 66.7337 -69.7682 66.663C-71.3594 66.7054 -72.993 66.4688 -74.549 66.8609ZM211.807 66.6664C211.8 67.3693 211.796 68.0724 211.8 68.7824C212.502 68.779 213.208 68.7824 213.92 68.7859C213.917 68.0759 213.917 67.3693 213.92 66.6664C213.211 66.663 212.505 66.663 211.807 66.6664ZM401.623 67.0233C401.623 67.963 401.627 68.9024 401.634 69.8493C402.569 69.8458 403.507 69.8458 404.449 69.8493C404.446 68.9027 404.449 67.9595 404.453 67.0198C403.507 67.0161 402.561 67.0198 401.623 67.0233ZM340.589 67.7227C340.582 68.4293 340.586 69.1356 340.593 69.8493C341.291 69.8421 341.997 69.8421 342.706 69.8458C342.699 69.1358 342.699 68.4293 342.706 67.7299C341.993 67.7227 341.288 67.7227 340.589 67.7227ZM343.761 67.7299C343.758 68.4327 343.761 69.1393 343.772 69.8458C344.467 69.8458 345.169 69.8458 345.875 69.8493C345.871 69.1358 345.871 68.4293 345.882 67.7227C345.169 67.7227 344.46 67.7227 343.761 67.7299ZM-229.162 68.1678C-229.939 68.6163 -229.579 69.7679 -229.526 70.5132C-228.961 71.1736 -227.931 70.9265 -227.172 70.8383C-226.498 70.2626 -226.763 69.2134 -226.841 68.4433C-227.441 67.8499 -228.414 68.0088 -229.162 68.1678ZM-203.832 68.1042C-203.825 68.7965 -203.822 69.489 -203.815 70.1847C-203.123 70.1812 -202.435 70.1812 -201.743 70.1812C-201.74 69.4853 -201.74 68.7896 -201.736 68.097C-202.435 68.097 -203.134 68.1008 -203.832 68.1042ZM-200.643 68.0936C-200.646 68.7824 -200.646 69.4784 -200.65 70.1778C-199.958 70.1778 -199.263 70.1778 -198.572 70.1849C-198.568 69.4855 -198.565 68.7933 -198.561 68.1008C-199.256 68.0936 -199.948 68.0936 -200.643 68.0936ZM-99.731 68.0901C-99.7344 68.7824 -99.7344 69.4784 -99.7344 70.1778C-99.0429 70.1778 -98.3512 70.1778 -97.6597 70.1849C-97.6563 69.489 -97.6491 68.7967 -97.6457 68.1045C-98.3409 68.097 -99.0361 68.0936 -99.731 68.0901ZM-96.5554 68.0936C-96.5589 68.7896 -96.5589 69.4853 -96.5589 70.1847C-95.8674 70.1812 -95.1757 70.1775 -94.4808 70.1812C-94.4808 69.4818 -94.4808 68.7896 -94.4773 68.097C-95.1725 68.0936 -95.864 68.0901 -96.5554 68.0936ZM-93.3905 68.1114C-93.3905 68.7967 -93.3833 69.489 -93.3764 70.1812C-92.685 70.1778 -91.9932 70.1778 -91.2983 70.1778C-91.3018 69.4784 -91.3089 68.779 -91.3124 68.0867C-92.0075 68.0901 -92.699 68.097 -93.3905 68.1114ZM-90.2115 68.1042C-90.2115 68.793 -90.2115 69.489 -90.2043 70.1847C-89.5129 70.1775 -88.8177 70.1775 -88.1225 70.1775C-88.126 69.4781 -88.1297 68.7821 -88.1331 68.0899C-88.8283 68.0902 -89.52 68.097 -90.2115 68.1042ZM293.443 71.3186C293.429 73.9607 293.425 76.6031 293.443 79.2452C295.398 79.263 297.352 79.2629 299.314 79.2592C299.417 75.4761 299.378 71.6895 299.336 67.9097C297.335 68.9838 295.37 70.1176 293.443 71.3186ZM60.7959 68.4293C60.7853 69.6055 60.7853 70.7853 60.7888 71.9652C61.3744 71.9618 61.9603 71.9618 62.5531 71.9652C62.5531 70.7855 62.5531 69.6092 62.5496 68.433C61.9603 68.4256 61.3747 68.4256 60.7959 68.4293ZM63.2623 68.4327C63.2552 69.609 63.2552 70.7853 63.2623 71.965C63.841 71.9616 64.4266 71.965 65.016 71.9684C65.0194 70.7887 65.0194 69.6087 65.0194 68.429C64.4301 68.4255 63.8445 68.4256 63.2623 68.4327ZM65.732 68.4361C65.7249 69.609 65.7214 70.7816 65.7249 71.9578C66.3105 71.9578 66.8964 71.9613 67.4892 71.9719C67.4926 70.7884 67.4926 69.6087 67.4892 68.429C66.9001 68.4293 66.3142 68.4293 65.732 68.4361ZM68.2021 68.4327C68.1949 69.609 68.1949 70.7853 68.2021 71.965C68.7843 71.9616 69.3665 71.965 69.9558 71.9684C69.9592 70.7887 69.9592 69.6087 69.9592 68.429C69.3699 68.4255 68.7843 68.4256 68.2021 68.4327ZM156.136 68.8635C155.413 69.2344 155.716 70.2165 155.745 70.8735C156.355 71.4704 157.339 71.3292 158.108 71.1737C158.825 70.7922 158.482 69.7926 158.479 69.139C157.833 68.5986 156.895 68.6942 156.136 68.8635ZM160.346 68.8706C159.622 69.3229 159.908 70.3789 160.099 71.0677C160.896 71.308 162.078 71.5763 162.696 70.8523C162.812 70.3084 162.819 69.7396 162.699 69.2063C162.177 68.4857 161.09 68.7647 160.346 68.8706ZM164.22 68.8635C163.447 69.4463 163.564 71.4632 164.862 71.2831C165.43 71.2584 166.228 71.442 166.573 70.8414C166.697 70.2975 166.693 69.7287 166.587 69.1917C166.023 68.514 164.975 68.7472 164.22 68.8635ZM302.204 68.8743C301.371 69.4008 301.53 71.4706 302.832 71.2833C303.4 71.2621 304.197 71.4317 304.536 70.8242C304.656 70.2943 304.656 69.7327 304.543 69.21C304.021 68.4997 302.941 68.7435 302.204 68.8743ZM-5.14598 69.2169C-5.7951 69.7115 -5.76706 71.0218 -5.14598 71.5377C-4.3804 71.6471 -3.35364 71.8696 -2.77147 71.2091C-2.67276 70.6581 -2.6656 70.0893 -2.78918 69.5489C-3.32877 68.8494 -4.39442 69.1109 -5.14598 69.2169ZM-1.26122 69.2135C-1.9175 69.7399 -2.00218 71.4741 -0.936523 71.5978C-0.262512 71.6542 0.598312 71.792 1.10983 71.2269C1.18738 70.6017 1.3038 69.8811 0.951065 69.3266C0.263031 69.0049 -0.544861 69.0579 -1.26122 69.2135ZM2.6095 69.2029C1.93921 69.7327 2.18954 70.7394 2.38376 71.4566C3.10699 71.6579 3.89398 71.7215 4.63495 71.5379C5.29837 71.1034 5.02316 70.1637 5.00201 69.5067C4.34891 68.9414 3.38937 69.072 2.6095 69.2029ZM270.918 69.7751C270.907 71.1244 270.914 72.4739 270.939 73.8266C272.22 73.8338 273.501 73.8338 274.789 73.8232C274.245 72.2371 273.688 70.6618 273.137 69.0828C272.393 69.3123 271.652 69.542 270.918 69.7751ZM180.136 69.9304C179.466 70.3471 179.78 71.3045 179.67 71.965C179.776 75.7341 179.565 79.5173 179.766 83.2793C179.684 84.0176 180.866 84.339 180.969 83.5196C181.17 82.2633 181.216 71.6431 180.934 70.0223C180.793 69.9659 180.514 69.8493 180.373 69.7926L180.136 69.9304ZM182.934 69.9163C182.312 70.3113 182.571 70.4316 182.5 82.2055C182.497 82.9261 182.476 84.1872 183.555 84.0036C184.178 83.0053 183.919 71.1599 183.912 70.895C184.021 70.4072 183.432 69.4466 182.934 69.9163ZM185.732 69.7751C185.192 70.6406 185.344 71.7072 185.312 72.6787C185.497 79.5774 184.758 85.6912 186.579 83.781C186.843 82.2895 186.847 71.5247 186.579 70.04C186.367 69.9727 185.944 69.8421 185.732 69.7751ZM211.807 69.8421C211.8 70.545 211.796 71.2515 211.8 71.9581C212.502 71.9581 213.208 71.9615 213.92 71.9687C213.917 71.2587 213.917 70.5558 213.924 69.8527C213.215 69.8456 212.505 69.8421 211.807 69.8421ZM365.485 69.8069C364.586 72.5198 363.407 75.1195 362.186 77.6983C363.298 78.2846 364.332 79.0476 364.949 80.178C365.097 80.245 365.397 80.3794 365.545 80.4464C365.641 76.8998 365.591 73.3532 365.485 69.8069ZM367.761 69.8421C367.754 70.7818 367.754 71.725 367.758 72.6716C368.693 72.6681 369.631 72.6716 370.577 72.6716C370.573 71.7319 370.577 70.7887 370.587 69.8527C369.638 69.8456 368.696 69.8421 367.761 69.8421ZM262.319 70.2732C261.539 70.8738 261.634 72.8695 262.954 72.6999C263.519 72.6787 264.291 72.8305 264.669 72.2726C264.782 71.7287 264.789 71.1564 264.658 70.6229C264.157 69.8845 263.06 70.1812 262.319 70.2732ZM266.543 70.2766C265.865 70.7076 266.151 71.6542 266.186 72.3253C266.832 72.8445 267.763 72.7669 268.525 72.5725C269.288 72.2686 268.931 71.2338 268.892 70.6048C268.356 69.9057 267.287 70.1778 266.543 70.2766ZM306.77 70.2589C306.202 70.8311 306.403 71.7459 306.24 72.4736C307.07 72.555 307.92 72.7844 308.76 72.6008C309.472 72.2122 309.155 71.2232 309.144 70.5662C308.499 69.9976 307.542 70.1354 306.77 70.2589ZM334.742 74.2471C334.725 75.9074 334.495 77.7089 335.437 79.1853C336.316 80.6125 336.902 82.3785 338.447 83.2406C338.62 79.1183 338.518 74.9926 338.507 70.8703C337.276 72.0251 336.023 73.1484 334.742 74.2471ZM340.589 70.9018C340.582 71.6047 340.582 72.3112 340.586 73.0178C341.284 73.0178 341.99 73.025 342.699 73.0319C342.696 72.3184 342.699 71.6118 342.71 70.909C341.997 70.9053 341.291 70.9018 340.589 70.9018ZM343.768 70.9018C343.761 71.6084 343.761 72.3184 343.768 73.0284C344.467 73.025 345.173 73.0213 345.885 73.0213C345.875 72.3113 345.875 71.6084 345.878 70.9053C345.169 70.9018 344.467 70.9018 343.768 70.9018ZM-203.829 71.2799C-203.825 71.9721 -203.822 72.6647 -203.815 73.3641C-203.123 73.3569 -202.435 73.3569 -201.744 73.3569C-201.74 72.6647 -201.736 71.9721 -201.733 71.2833C-202.432 71.2799 -203.13 71.2762 -203.829 71.2799ZM-200.643 71.2727C-200.646 71.965 -200.643 72.6609 -200.643 73.3638C-199.951 73.3566 -199.256 73.3567 -198.565 73.3567C-198.565 72.6607 -198.565 71.9684 -198.565 71.2796C-199.256 71.2727 -199.951 71.2727 -200.643 71.2727ZM401.63 71.255C401.623 72.1981 401.627 73.1413 401.633 74.0844C402.568 74.0844 403.507 74.0844 404.453 74.0879C404.449 73.1447 404.449 72.2016 404.456 71.2619C403.511 71.2587 402.565 71.255 401.63 71.255ZM-229.162 71.7072C-229.78 71.8874 -229.568 72.8623 -229.625 73.385C-229.741 74.7592 -228.051 74.5435 -227.169 74.3528C-226.478 73.8229 -226.756 72.7632 -226.855 72.0249C-227.363 71.308 -228.429 71.5835 -229.162 71.7072ZM-5.12825 72.7598C-5.81284 73.1977 -5.77393 74.5896 -5.13167 75.0699C-4.37669 75.1653 -3.32877 75.4197 -2.77835 74.7343C-2.66534 74.1832 -2.66904 73.611 -2.78177 73.0705C-3.34279 72.3995 -4.38385 72.6257 -5.12825 72.7598ZM-1.26466 72.7351C-1.94211 73.2615 -1.6915 74.2683 -1.49753 74.9817C-0.668442 75.1865 0.425522 75.4196 1.11356 74.7663C1.16306 74.1022 1.39221 73.1945 0.764252 72.7457C0.0973969 72.5868 -0.601227 72.5939 -1.26466 72.7351ZM2.63779 72.7457C1.95691 73.2192 2.00613 74.5472 2.61319 75.0771C3.38248 75.1759 4.40555 75.3985 4.99142 74.7414C5.09384 74.1832 5.09015 73.611 4.98798 73.0636C4.39841 72.4278 3.39621 72.6151 2.63779 72.7457ZM156.101 72.7563C155.328 73.3357 155.445 75.3314 156.729 75.169C157.308 75.1513 158.105 75.3208 158.465 74.724C158.581 74.1835 158.581 73.6147 158.454 73.0848C157.939 72.3642 156.845 72.6538 156.101 72.7563ZM160.363 72.7492C159.654 73.1272 159.936 74.095 159.989 74.7486C160.48 75.3598 161.383 75.169 162.074 75.1229C163.073 74.9958 162.755 73.7275 162.71 73.0353C162.082 72.4668 161.122 72.5902 160.363 72.7492ZM164.248 72.7457C163.553 73.1413 163.814 74.0916 163.867 74.7451C164.364 75.3457 165.25 75.1796 165.941 75.1232C166.947 75.0066 166.665 73.7702 166.584 73.0708C166.009 72.4207 164.996 72.6186 164.248 72.7457ZM211.811 73.0178C211.8 73.7207 211.796 74.4307 211.796 75.1407C212.499 75.1372 213.208 75.1372 213.921 75.1407C213.917 74.4341 213.921 73.7347 213.924 73.0353C213.215 73.0247 212.513 73.0213 211.811 73.0178ZM302.19 73.1023C301.52 73.5898 301.565 74.8861 302.161 75.4265C302.92 75.5079 303.989 75.7903 304.54 75.084C304.653 74.5329 304.649 73.9572 304.529 73.4168C303.982 72.7386 302.931 73.0001 302.19 73.1023ZM262.34 73.8126C261.624 74.1763 261.899 75.1478 261.973 75.7908C262.51 76.5008 263.582 76.2075 264.355 76.1371C264.93 75.653 264.764 74.7806 264.658 74.1342C264.133 73.4417 263.071 73.7029 262.34 73.8126ZM266.557 73.816C265.749 74.3705 265.887 76.4123 267.188 76.2287C268.141 76.1681 269.306 76.6932 268.924 74.1165C268.303 73.5087 267.319 73.6605 266.557 73.816ZM-203.818 74.1021C-203.822 74.791 -203.825 75.4832 -203.829 76.1758C-203.134 76.1758 -202.435 76.1792 -201.736 76.1863C-201.74 75.4869 -201.744 74.791 -201.747 74.0987C-202.438 74.095 -203.127 74.0984 -203.818 74.1021ZM-200.646 74.1056C-200.65 74.7944 -200.65 75.4867 -200.653 76.1792C-199.955 76.1792 -199.256 76.1792 -198.557 76.1863C-198.565 75.4869 -198.568 74.791 -198.571 74.0987C-199.263 74.095 -199.955 74.0984 -200.646 74.1056ZM306.78 74.1657C305.976 74.724 306.096 76.7586 307.405 76.5819C307.966 76.5535 308.76 76.7443 309.109 76.1545C309.243 75.6106 309.24 75.0384 309.141 74.498C308.576 73.8195 307.532 74.0351 306.78 74.1657ZM340.589 74.081C340.582 74.7875 340.586 75.4938 340.596 76.2075C341.292 76.2041 341.994 76.2004 342.699 76.2041C342.699 75.4975 342.703 74.7947 342.713 74.0918C341.997 74.0844 341.291 74.081 340.589 74.081ZM343.772 74.081C343.761 74.7875 343.761 75.4938 343.765 76.2075C344.463 76.2041 345.172 76.2004 345.885 76.2041C345.874 75.4941 345.871 74.7841 345.874 74.0812C345.165 74.0775 344.467 74.0775 343.772 74.081ZM367.758 74.081C367.75 75.0207 367.75 75.9638 367.754 76.9104C368.693 76.907 369.635 76.907 370.584 76.907C370.577 75.9638 370.577 75.0241 370.58 74.0881C369.635 74.0844 368.693 74.081 367.758 74.081ZM347.999 74.791C347.995 75.8507 347.995 76.9104 348.002 77.9736C349.054 77.9701 350.112 77.9701 351.174 77.9701C351.171 76.907 351.171 75.8472 351.174 74.791C350.112 74.7875 349.054 74.7875 347.999 74.791ZM352.487 74.618C352.459 78.4011 352.325 82.1915 352.572 85.9675C355.077 83.781 356.887 80.9267 358.609 78.1116C356.576 76.9281 354.558 75.7201 352.487 74.618ZM-229.194 75.2183C-229.858 75.847 -229.837 77.2529 -229.198 77.9028C-228.443 77.9841 -227.416 78.2454 -226.855 77.5849C-226.7 76.9138 -226.7 76.2107 -226.834 75.5397C-227.419 74.8932 -228.429 75.1017 -229.194 75.2183ZM-5.1105 76.2992C-5.78081 76.6807 -5.91496 78.5741 -4.82814 78.6552C-4.15413 78.7116 -3.26157 78.8812 -2.77121 78.2772C-2.66879 77.719 -2.66878 77.1433 -2.78891 76.5957C-3.34648 75.932 -4.36955 76.158 -5.1105 76.2992ZM-1.49039 76.1191C-1.55046 76.9562 -1.60339 77.7969 -1.64917 78.6377C-0.745987 78.5495 0.369156 78.9522 1.117 78.2986C1.20883 77.7335 1.20883 77.1541 1.09583 76.6031C0.421814 75.9601 -0.650726 76.278 -1.49039 76.1191ZM2.6235 76.2958C1.99185 76.5853 2.21069 77.3979 2.22842 77.9524C2.33774 78.9731 3.61508 78.6941 4.33142 78.6589C5.34415 78.5529 5.05835 77.2813 4.99484 76.5853C4.3772 75.9813 3.38565 76.1334 2.6235 76.2958ZM156.129 76.2815C155.321 76.8219 155.438 78.8849 156.736 78.6976C157.563 78.6563 159.028 79.1321 158.461 76.6134C157.922 75.9283 156.874 76.1652 156.129 76.2815ZM160.339 76.2815C159.584 76.8889 159.647 78.8425 160.96 78.6976C161.538 78.6904 162.318 78.8388 162.703 78.2737C162.812 77.7227 162.812 77.1504 162.696 76.6065C162.145 75.9214 161.09 76.172 160.339 76.2815ZM164.252 76.2923C163.521 76.6243 163.814 77.6135 163.885 78.2493C164.297 78.931 165.261 78.6838 165.935 78.652C166.954 78.5566 166.654 77.3168 166.587 76.6174C166.037 75.9389 164.996 76.1508 164.252 76.2923ZM211.807 76.2004C211.8 76.9032 211.8 77.6133 211.803 78.327C212.502 78.3198 213.208 78.3198 213.92 78.3235C213.917 77.6135 213.917 76.9107 213.924 76.2112C213.215 76.2038 212.509 76.2004 211.807 76.2004ZM302.211 76.9846C301.512 77.4402 301.555 78.8001 302.179 79.3125C302.927 79.3973 304 79.6762 304.533 78.9699C304.656 78.4223 304.642 77.8501 304.55 77.3062C303.961 76.6667 302.963 76.8503 302.211 76.9846ZM311.124 76.8646C311.124 77.6453 311.127 78.4295 311.138 79.2171C317.272 79.268 316.209 79.4463 317.574 78.6131C315.407 78.0901 313.244 77.5462 311.124 76.8646ZM-203.822 77.2813C-203.822 77.9735 -203.822 78.6661 -203.818 79.3655C-203.13 79.3655 -202.439 79.3655 -201.747 79.3726C-201.744 78.6732 -201.744 77.9738 -201.74 77.2816C-202.435 77.2776 -203.127 77.2776 -203.822 77.2813ZM-200.643 77.2776C-200.646 77.9698 -200.646 78.6658 -200.65 79.3618C-199.955 79.3583 -199.26 79.3583 -198.561 79.3618C-198.561 78.6658 -198.561 77.9735 -198.561 77.2882C-199.256 77.2813 -199.951 77.2776 -200.643 77.2776ZM262.34 77.3412C261.628 77.7049 261.899 78.673 261.959 79.3194C262.418 79.9658 263.349 79.7504 264.041 79.7186C265.025 79.5949 264.736 78.3339 264.687 77.645C264.069 77.0516 263.095 77.1894 262.34 77.3412ZM266.564 77.3555C265.83 77.698 266.154 78.6979 266.207 79.3337C266.659 79.973 267.573 79.7541 268.25 79.7046C269.249 79.708 268.973 78.327 268.906 77.6559C268.335 77.0058 267.308 77.2037 266.564 77.3555ZM340.589 77.2635C340.582 77.9664 340.582 78.673 340.586 79.383C341.288 79.3795 341.994 79.3795 342.706 79.383C342.699 78.673 342.699 77.9664 342.706 77.2635C341.993 77.2601 341.288 77.2601 340.589 77.2635ZM343.761 77.2707C343.754 77.9701 343.754 78.673 343.761 79.3761C344.46 79.3761 345.166 79.3795 345.878 79.3867C345.871 78.6767 345.875 77.9667 345.882 77.2601C345.169 77.2601 344.463 77.2635 343.761 77.2707ZM367.758 78.327C367.75 79.263 367.75 80.2027 367.754 81.1424C368.689 81.1424 369.631 81.1458 370.58 81.1495C370.577 80.2064 370.577 79.2632 370.58 78.3235C369.635 78.3198 368.693 78.3233 367.758 78.327ZM211.803 79.3795C211.8 80.0861 211.8 80.7924 211.807 81.5024C212.505 81.499 213.211 81.499 213.92 81.5024C213.917 80.7924 213.917 80.0895 213.924 79.3901C213.211 79.383 212.505 79.3795 211.803 79.3795ZM348.002 79.3795C347.995 80.4358 347.995 81.4989 347.999 82.5621C349.05 82.5621 350.109 82.5621 351.167 82.5656C351.167 81.5024 351.171 80.4461 351.181 79.3864C350.116 79.3795 349.057 79.3795 348.002 79.3795ZM156.094 79.8106C155.342 80.4286 155.441 82.3997 156.743 82.2339C157.318 82.2127 158.102 82.3716 158.468 81.7959C158.581 81.2414 158.571 80.6692 158.472 80.1216C157.865 79.4961 156.859 79.6903 156.094 79.8106ZM160.346 79.8068C159.682 80.3015 159.718 81.6155 160.339 82.1417C161.093 82.223 162.163 82.4985 162.699 81.7885C162.812 81.2409 162.808 80.6687 162.702 80.1282C162.117 79.4783 161.104 79.6903 160.346 79.8068ZM164.234 79.8352C163.609 80.2201 163.535 81.718 164.248 82.1242C165.003 82.276 165.98 82.4209 166.598 81.8275C166.714 81.1845 166.668 80.5206 166.485 79.9022C165.755 79.6903 164.957 79.5915 164.234 79.8352ZM-203.822 80.4604C-203.822 81.1492 -203.825 81.8415 -203.825 82.5375C-203.134 82.5375 -202.438 82.5409 -201.747 82.548C-201.74 81.8521 -201.736 81.1564 -201.733 80.4676C-202.428 80.4604 -203.127 80.4604 -203.822 80.4604ZM-200.646 80.4533C-200.646 81.1492 -200.646 81.8449 -200.643 82.5443C-199.955 82.5409 -199.263 82.5444 -198.571 82.5478C-198.564 81.8518 -198.561 81.1596 -198.554 80.4708C-199.252 80.4639 -199.948 80.4567 -200.646 80.4533ZM340.589 80.4427C340.582 81.1455 340.582 81.8521 340.589 82.5621C341.288 82.5587 341.994 82.5587 342.706 82.5621C342.699 81.8521 342.699 81.1455 342.703 80.4392C341.993 80.4392 341.288 80.4392 340.589 80.4427ZM343.761 80.4498C343.758 81.1527 343.758 81.8558 343.768 82.5621C344.467 82.5587 345.173 82.5587 345.885 82.5587C345.875 81.8487 345.871 81.1421 345.878 80.4358C345.166 80.4392 344.46 80.4427 343.761 80.4498ZM262.312 80.8915C261.631 81.3294 261.684 82.7142 262.319 83.1945C263.071 83.297 264.115 83.5442 264.669 82.8588C264.757 82.2018 264.93 81.3294 264.344 80.8594C263.67 80.7216 262.965 80.7007 262.312 80.8915ZM266.581 80.8878C265.826 81.2976 265.971 82.6397 266.514 83.2014C267.287 83.2967 268.293 83.5087 268.91 82.8906C269.005 82.3324 269.023 81.7567 268.889 81.2163C268.402 80.4851 267.308 80.7643 266.581 80.8878ZM367.761 82.5587C367.754 83.4984 367.751 84.4415 367.754 85.3881C368.693 85.3846 369.635 85.3846 370.58 85.3881C370.573 84.4449 370.573 83.5018 370.577 82.5621C369.635 82.5587 368.696 82.5587 367.761 82.5587ZM156.112 83.35C155.445 83.8234 155.477 85.1621 156.108 85.6708C156.874 85.7908 157.858 85.964 158.479 85.3669C158.539 84.6958 158.73 83.8303 158.151 83.3357C157.477 83.1945 156.771 83.1804 156.112 83.35ZM160.367 83.3887C159.626 83.696 159.961 84.7168 159.989 85.3457C160.564 86.0027 161.591 85.7696 162.36 85.6671C163.119 85.0914 162.554 83.9821 162.579 83.1802C161.834 83.2297 161.09 83.2297 160.367 83.3887ZM163.835 83.3182C163.951 84.0778 163.539 85.1091 164.216 85.6636C165.278 85.9815 167.039 85.8862 166.668 84.3178C166.75 82.7494 164.795 83.4136 163.835 83.3182ZM-203.822 83.6467C-203.822 84.3321 -203.825 85.0243 -203.825 85.7166C-203.13 85.72 -202.438 85.7238 -201.747 85.7344C-201.747 85.0278 -201.747 84.3284 -201.747 83.629C-202.438 83.6324 -203.13 83.6359 -203.822 83.6467ZM-200.639 83.6358C-200.642 84.3281 -200.646 85.0241 -200.646 85.7235C-199.951 85.72 -199.26 85.72 -198.564 85.7235C-198.564 85.0241 -198.564 84.3318 -198.568 83.6393C-199.26 83.6359 -199.951 83.6324 -200.639 83.6358Z" fill="#3A6B7C"/>
</svg>
