<svg width="32" height="32" viewBox="0 0 32 32" fill="none" xmlns="http://www.w3.org/2000/svg">
<g clip-path="url(#clip0_2154_347)">
<path d="M7.67979 0C6.97979 0 6.39979 0.58 6.39979 1.28V2.56H2.55979C2.22479 2.56 1.88479 2.6825 1.64479 2.925C1.40228 3.165 1.27979 3.505 1.27979 3.84V29.44C1.27979 29.775 1.40228 30.115 1.64479 30.3575C1.88479 30.5975 2.22479 30.72 2.55979 30.72H21.7773C22.8448 31.52 24.1648 32 25.5998 32C29.1298 32 31.9998 29.13 31.9998 25.6C31.9998 24.165 31.5198 22.845 30.7198 21.7775V3.84C30.7198 3.505 30.5973 3.165 30.3573 2.925C30.1148 2.6825 29.7748 2.56 29.4398 2.56H25.5998V1.28C25.5998 0.58 25.0198 0 24.3198 0H23.0398C22.3398 0 21.7598 0.58 21.7598 1.28V2.56H10.2398V1.28C10.2398 0.58 9.65979 0 8.95979 0H7.67979ZM7.67979 1.28H8.95979V5.12H7.67979V1.28ZM23.0398 1.28H24.3198V5.12H23.0398V1.28ZM2.55979 3.84H6.39979V5.12C6.39979 5.82 6.97979 6.4 7.67979 6.4H8.95979C9.65979 6.4 10.2398 5.82 10.2398 5.12V3.84H21.7598V5.12C21.7598 5.82 22.3398 6.4 23.0398 6.4H24.3198C25.0198 6.4 25.5998 5.82 25.5998 5.12V3.84H29.4398V8.32H2.55979V3.84ZM2.55979 9.6H29.4398V20.4925C28.3698 19.685 27.0423 19.2 25.5998 19.2C22.7373 19.2 20.3098 21.0875 19.4923 23.685L19.3498 23.14L18.5598 20.1725L22.3998 17.05L17.4598 16.7825L15.6798 12.16L13.8998 16.7825L8.95979 17.05L12.7998 20.1725L11.5273 24.96L15.6798 22.27L19.2848 24.605C19.2348 24.93 19.1998 25.26 19.1998 25.6C19.1998 27.0425 19.6848 28.37 20.4923 29.44H2.55979V9.6ZM15.6798 15.72L16.2648 17.2425L16.5623 18.0175L17.3898 18.06L19.0198 18.15L17.7498 19.18L17.1098 19.7L17.3223 20.5L17.7423 22.08L16.3748 21.1925L15.6798 20.7425L14.9823 21.1925L13.6173 22.08L14.0373 20.5L14.2498 19.7L13.6073 19.18L12.3398 18.15L13.9698 18.06L14.7973 18.0175L15.0923 17.2425L15.6798 15.72ZM25.5998 20.48C28.4223 20.48 30.7198 22.7775 30.7198 25.6C30.7198 28.4225 28.4223 30.72 25.5998 30.72C22.7773 30.72 20.4798 28.4225 20.4798 25.6C20.4798 22.7775 22.7773 20.48 25.5998 20.48ZM28.3523 22.6575L24.8973 26.6875L22.7823 25.0875L22.0173 26.1125L25.0223 28.4175L29.3123 23.4875L28.3523 22.6575Z" fill="#F0F4F5"/>
</g>
<defs>
<clipPath id="clip0_2154_347">
<rect width="32" height="32" fill="white"/>
</clipPath>
</defs>
</svg>
