<svg width="48" height="48" viewBox="0 0 48 48" fill="none" xmlns="http://www.w3.org/2000/svg">
<g clip-path="url(#clip0_2154_2197)">
<path d="M16.2301 1.88996C16.1889 1.89746 16.1476 1.90871 16.1101 1.91996C15.6639 2.02121 15.3489 2.42246 15.3601 2.87996V7.67996C15.3564 8.02496 15.5364 8.34746 15.8364 8.52371C16.1364 8.69621 16.5039 8.69621 16.8039 8.52371C17.1039 8.34746 17.2838 8.02496 17.2801 7.67996V2.87996C17.2914 2.60246 17.1789 2.33621 16.9801 2.14871C16.7776 1.95746 16.5039 1.86371 16.2301 1.88996ZM5.3701 6.38996C5.32885 6.39746 5.2876 6.40871 5.2501 6.41996C4.8901 6.48371 4.60135 6.74621 4.5001 7.09496C4.39885 7.44746 4.50385 7.82246 4.7701 8.06996L8.1901 11.46C8.5726 11.8312 9.18385 11.8275 9.5551 11.445C9.92635 11.0625 9.9226 10.4512 9.5401 10.08L6.1501 6.68996C5.95135 6.47621 5.6626 6.36746 5.3701 6.38996ZM27.0901 6.38996C27.0488 6.39746 27.0076 6.40871 26.9701 6.41996C26.7864 6.46121 26.6213 6.55496 26.4901 6.68996L23.1001 10.08C22.7176 10.4625 22.7176 11.0775 23.1001 11.46C23.4826 11.8425 24.0976 11.8425 24.4801 11.46L27.8701 8.06996C28.2001 7.79246 28.3051 7.32371 28.1213 6.93371C27.9376 6.53996 27.5176 6.31871 27.0901 6.38996ZM16.2301 10.56C16.2001 10.5675 16.1701 10.5787 16.1401 10.59C16.0801 10.5937 16.0201 10.605 15.9601 10.62C15.9489 10.6312 15.9414 10.6387 15.9301 10.65C11.8951 10.8675 8.6401 14.1562 8.6401 18.24C8.6401 21.0862 10.1926 23.5762 12.5101 24.9C12.8063 25.1175 13.2001 25.1475 13.5264 24.9787C13.8526 24.8062 14.0513 24.465 14.0401 24.0975C14.0288 23.7262 13.8076 23.4 13.4701 23.25C11.7338 22.2562 10.5601 20.385 10.5601 18.24C10.5601 15.0787 13.1064 12.5137 16.2601 12.48C16.2789 12.48 16.3014 12.48 16.3201 12.48C16.3501 12.48 16.3801 12.48 16.4101 12.48C17.8014 12.5025 19.0539 13.02 20.0401 13.86C20.4451 14.2087 21.0564 14.16 21.4051 13.755C21.7538 13.35 21.7051 12.7387 21.3001 12.39C20.0701 11.34 18.4801 10.755 16.7701 10.65C16.7401 10.6387 16.7101 10.6275 16.6801 10.62C16.5826 10.5825 16.4813 10.5637 16.3801 10.56C16.3614 10.56 16.3389 10.56 16.3201 10.56C16.2901 10.56 16.2601 10.56 16.2301 10.56ZM27.8401 13.44C22.5488 13.44 18.2401 17.7487 18.2401 23.04C18.2401 23.43 18.3113 23.8012 18.3601 24.18C15.0751 24.615 12.4801 27.3187 12.4801 30.72C12.4801 34.4212 15.4989 37.44 19.2001 37.44H39.3601C44.1188 37.44 48.0001 33.5587 48.0001 28.8C48.0001 24.0412 44.1188 20.16 39.3601 20.16C38.5201 20.16 37.7588 20.415 36.9901 20.64C35.9063 16.5262 32.2876 13.44 27.8401 13.44ZM27.8401 15.36C31.6951 15.36 34.8638 18.1837 35.4301 21.87L35.6101 23.1L36.7501 22.62C37.5526 22.2787 38.4301 22.08 39.3601 22.08C43.0838 22.08 46.0801 25.0762 46.0801 28.8C46.0801 32.5237 43.0838 35.52 39.3601 35.52H19.2001C16.5376 35.52 14.4001 33.3825 14.4001 30.72C14.4001 28.0575 16.5376 25.92 19.2001 25.92C19.2038 25.92 19.2564 25.9162 19.3801 25.92L20.6401 25.98L20.3701 24.75C20.2426 24.1912 20.1601 23.625 20.1601 23.04C20.1601 18.7875 23.5876 15.36 27.8401 15.36ZM0.690101 17.28C0.161351 17.355 -0.209899 17.8462 -0.134899 18.375C-0.0598987 18.9037 0.431351 19.275 0.960101 19.2H5.7601C6.1051 19.2037 6.4276 19.0237 6.60385 18.7237C6.77635 18.4237 6.77635 18.0562 6.60385 17.7562C6.4276 17.4562 6.1051 17.2762 5.7601 17.28H0.960101C0.930101 17.28 0.900101 17.28 0.870101 17.28C0.840101 17.28 0.810101 17.28 0.780101 17.28C0.750101 17.28 0.720101 17.28 0.690101 17.28ZM8.7601 24.72C8.71885 24.7275 8.6776 24.7387 8.6401 24.75C8.4676 24.795 8.31385 24.8887 8.1901 25.02L4.7701 28.41C4.3876 28.7925 4.3876 29.4075 4.7701 29.79C5.1526 30.1725 5.7676 30.1725 6.1501 29.79L9.5401 26.37C9.8401 26.085 9.92635 25.6387 9.7501 25.2637C9.5701 24.885 9.1726 24.6675 8.7601 24.72ZM21.0001 39.36C20.7864 39.3825 20.5839 39.48 20.4301 39.63L18.5101 41.55C18.1276 41.9325 18.1276 42.5475 18.5101 42.93C18.8926 43.3125 19.5076 43.3125 19.8901 42.93L21.8101 41.01C22.1213 40.7212 22.2038 40.2637 22.0163 39.885C21.8326 39.5025 21.4163 39.2925 21.0001 39.36ZM39.2401 39.36C39.0263 39.3825 38.8238 39.48 38.6701 39.63L36.7501 41.55C36.3676 41.9325 36.3676 42.5475 36.7501 42.93C37.1326 43.3125 37.7476 43.3125 38.1301 42.93L40.0501 41.01C40.3613 40.7212 40.4438 40.2637 40.2563 39.885C40.0726 39.5025 39.6563 39.2925 39.2401 39.36ZM29.6401 43.2C29.4263 43.2225 29.2238 43.32 29.0701 43.47L27.1501 45.39C26.7676 45.7725 26.7676 46.3875 27.1501 46.77C27.5326 47.1525 28.1476 47.1525 28.5301 46.77L30.4501 44.85C30.7613 44.5612 30.8438 44.1037 30.6563 43.725C30.4726 43.3425 30.0563 43.1325 29.6401 43.2Z" fill="white"/>
</g>
<defs>
<clipPath id="clip0_2154_2197">
<rect width="48" height="48" fill="white"/>
</clipPath>
</defs>
</svg>
