<svg xmlns="http://www.w3.org/2000/svg" width="50" height="50" viewBox="0 0 70 70">
  <g id="Group_91" data-name="Group 91" transform="translate(-1217 -662)">
    <circle id="Ellipse_21" data-name="Ellipse 21" cx="35" cy="35" r="35" transform="translate(1217 662)" fill="#417689"/>
    <path id="Icon_awesome-whatsapp" data-name="Icon awesome-whatsapp" d="M29.08,7.22A16.954,16.954,0,0,0,2.4,27.673L0,36.453l8.986-2.359a16.9,16.9,0,0,0,8.1,2.061h.008A17.112,17.112,0,0,0,34.2,19.207,17.016,17.016,0,0,0,29.08,7.22ZM17.094,33.3a14.062,14.062,0,0,1-7.177-1.962l-.512-.305-5.329,1.4,1.42-5.2L5.161,26.7a14.115,14.115,0,1,1,26.179-7.49A14.245,14.245,0,0,1,17.094,33.3ZM24.82,22.749c-.42-.214-2.5-1.237-2.894-1.374s-.672-.214-.954.214-1.092,1.374-1.344,1.664-.5.321-.916.107c-2.489-1.244-4.123-2.222-5.764-5.039-.435-.748.435-.695,1.244-2.313a.785.785,0,0,0-.038-.741c-.107-.214-.954-2.3-1.306-3.145-.344-.825-.695-.71-.954-.725-.244-.015-.527-.015-.809-.015a1.569,1.569,0,0,0-1.13.527,4.759,4.759,0,0,0-1.481,3.535A8.3,8.3,0,0,0,10.2,19.825c.214.282,2.985,4.558,7.238,6.4,2.687,1.16,3.741,1.26,5.085,1.061a4.338,4.338,0,0,0,2.855-2.016,3.542,3.542,0,0,0,.244-2.016C25.523,23.062,25.24,22.955,24.82,22.749Z" transform="translate(1235.898 676.648)" fill="#fff"/>
  </g>
</svg>
