<svg width="414" height="181" viewBox="0 0 414 181" fill="none" xmlns="http://www.w3.org/2000/svg">
<path d="M85.1155 216.522H46.0622L41.1894 107.107L85.1155 116.227V216.522Z" fill="#3A6B7C"/>
<path d="M48.4846 71.6398C48.4846 48.0195 14.8378 51.1875 8.10844 42.2116C1.37908 33.2357 3.82611 2.61149 -0.456203 6.30797C-1.67972 8.94794 -0.456203 216.45 -0.456203 216.45H48.4846V71.6398Z" fill="#3A6B7C"/>
<path d="M61.7226 93.8978C61.7226 93.8978 51.3227 84.9219 12.7818 84.9219V222.2H61.7226V93.8978Z" fill="#345F6E"/>
<path d="M55.6043 98.2971L47.0397 96.5371V117.657H55.6043V98.2971Z" fill="#3A6B7C"/>
<path d="M43.3693 96.1848L34.8047 94.4248V117.657H43.3693V96.1848Z" fill="#3A6B7C"/>
<path d="M29.9104 94.0731L21.3458 93.3691V117.657H29.9104V94.0731Z" fill="#3A6B7C"/>
<rect width="8.56464" height="20.0638" transform="matrix(-1 0 0 1 55.6043 123.992)" fill="#3A6B7C"/>
<rect width="8.56464" height="20.0638" transform="matrix(-1 0 0 1 55.6042 150.393)" fill="#3A6B7C"/>
<rect width="8.56464" height="20.0638" transform="matrix(-1 0 0 1 55.6043 177.848)" fill="#3A6B7C"/>
<rect width="8.56464" height="20.0638" transform="matrix(-1 0 0 1 43.3693 123.992)" fill="#3A6B7C"/>
<rect width="8.56464" height="20.0638" transform="matrix(-1 0 0 1 43.3694 150.393)" fill="#3A6B7C"/>
<rect width="8.56464" height="20.0638" transform="matrix(-1 0 0 1 43.3693 177.848)" fill="#3A6B7C"/>
<rect width="8.56464" height="20.0638" transform="matrix(-1 0 0 1 29.9104 123.992)" fill="#3A6B7C"/>
<rect width="8.56464" height="20.0638" transform="matrix(-1 0 0 1 29.9104 150.393)" fill="#3A6B7C"/>
<rect width="8.56464" height="20.0638" transform="matrix(-1 0 0 1 29.9104 177.848)" fill="#3A6B7C"/>
<path d="M349.575 107.211V78.4446H341.608V67.4881H337.347V58.2901H335.85V42.5146H335.468V58.2901H333.971V67.4881H329.71V78.4446H321.803V107.211H320.16V159.451H307.907V218.992H320.16H332.414H351.158V107.211H349.575Z" fill="#3A6B7C"/>
<path d="M362.77 137.147V116.269H368.552V108.317H371.644V101.642H372.731V90.1924H373.008V101.642H374.095V108.317H377.187V116.269H382.926V137.147H384.118V175.06H393.011V218.273H384.118H375.225H361.621V137.147H362.77Z" fill="#3A6B7C"/>
<path fill-rule="evenodd" clip-rule="evenodd" d="M364.172 190.943L366.032 191.167L361.93 30.6059L356.708 27.2217L354.646 191.503L364.172 190.943Z" fill="#345F6E"/>
<path fill-rule="evenodd" clip-rule="evenodd" d="M357.007 26.0918L354.66 191.502L341.885 192.242L349.507 30.5918L357.007 26.0918Z" fill="#345F6E"/>
<path fill-rule="evenodd" clip-rule="evenodd" d="M350.985 16.0113C356.386 17.0199 359.479 17.0199 360.286 16.0113C360.106 13.0529 359.479 10.9013 358.403 9.55661C358.224 8.39118 358.179 7.53952 358.269 7.02404C358.022 6.88957 357.731 6.9568 357.372 7.24816C357.462 3.52774 357.058 1.17446 356.139 0.143498C355.96 -0.0806237 355.758 -0.0357939 355.512 0.233152C354.212 3.16915 353.472 5.70173 353.315 7.78606C353.338 9.08597 353.203 9.84797 352.979 10.1169C352.464 10.7445 352.24 11.5961 352.329 12.7391C351.119 13.7477 350.671 14.8459 350.985 16.0113Z" fill="#345F6E"/>
<path fill-rule="evenodd" clip-rule="evenodd" d="M356.389 15.138C356.971 14.376 355.716 12.3813 355.896 10.5659C355.985 9.69187 355.47 9.17639 355.649 7.31618C355.761 6.19557 355.985 5.79215 355.268 6.71105C355.089 6.93517 355.066 10.4987 354.909 11.1711C354.797 11.6417 354.439 15.2501 355.178 15.3173C355.761 15.3622 356.389 15.138 356.389 15.138Z" fill="#345F6E"/>
<path fill-rule="evenodd" clip-rule="evenodd" d="M353.979 15.7207C354.136 15.4069 353.441 14.6449 353.844 13.6587C353.912 13.4794 353.957 10.6107 353.912 10.3193C353.665 10.3193 353.463 11.2158 353.463 11.5296C353.463 12.5157 353.195 12.3588 352.926 13.3002C352.791 13.7708 352.814 15.4293 353.419 15.5638C353.755 15.631 353.576 15.6086 353.889 15.6534C353.912 15.6534 353.957 15.6983 353.934 15.7431L353.979 15.7207Z" fill="#345F6E"/>
<path fill-rule="evenodd" clip-rule="evenodd" d="M357.48 15.7207C357.323 15.4069 358.017 14.6449 357.614 13.6587C357.547 13.4794 357.48 10.6107 357.547 10.3193C357.793 10.3193 357.995 11.2158 357.995 11.5296C357.995 12.5157 358.264 12.3588 358.533 13.3002C358.667 13.7708 358.645 15.4293 358.062 15.5638C357.726 15.631 357.905 15.6086 357.592 15.6534C357.569 15.6534 357.524 15.6983 357.547 15.7431L357.48 15.7207Z" fill="#345F6E"/>
<path fill-rule="evenodd" clip-rule="evenodd" d="M356.209 27.2176L349.507 30.5918L343.12 27.6435L356.881 22.2197L356.209 27.2176Z" fill="#345F6E"/>
<path fill-rule="evenodd" clip-rule="evenodd" d="M356.201 27.2176L361.423 30.6019L367.519 29.5933L356.874 22.2197L356.201 27.2176Z" fill="#345F6E"/>
<path fill-rule="evenodd" clip-rule="evenodd" d="M356.877 22.2201L367.523 29.5937L369.405 26.5905L357.056 17.4463L356.877 22.2201Z" fill="#345F6E"/>
<path fill-rule="evenodd" clip-rule="evenodd" d="M357.021 18.679L357.066 17.4463L342.655 22.7804L341.355 24.663L357.021 18.679Z" fill="#345F6E"/>
<path fill-rule="evenodd" clip-rule="evenodd" d="M341.355 24.6608L357.021 18.6768L356.887 22.2179L343.126 27.6416L341.355 24.6608Z" fill="#345F6E"/>
<path fill-rule="evenodd" clip-rule="evenodd" d="M357.057 17.4461L365.664 23.8112L367.838 21.0321L356.968 13.7705L357.057 17.4461Z" fill="#345F6E"/>
<path fill-rule="evenodd" clip-rule="evenodd" d="M357.565 17.4461L357.475 13.7705L343.49 19.015L345.395 21.951L357.565 17.4461Z" fill="#345F6E"/>
<path d="M297.001 70.7832C297.481 70.7832 297.921 70.9443 298.276 71.2101C298.631 69.9332 299.8 68.9907 301.192 68.9907C301.402 68.9907 301.608 69.0108 301.809 69.0551C301.971 66.0622 304.443 63.6816 307.481 63.6816C308.957 63.6816 310.296 64.2456 311.304 65.168C312.2 61.8207 315.257 59.3555 318.892 59.3555C323.228 59.3555 326.745 62.868 326.745 67.1982C326.745 67.3271 326.741 67.4519 326.737 67.5768C327.487 66.9243 328.464 66.5295 329.532 66.5295C331.888 66.5295 333.796 68.4348 333.796 70.7872C333.796 70.8114 333.792 70.8355 333.792 70.8597C333.965 70.8114 334.151 70.7872 334.341 70.7872C335.454 70.7872 336.369 71.6412 336.462 72.7287H294.879C294.976 71.6412 295.888 70.7832 297.001 70.7832Z" fill="#3A6B7C"/>
<path d="M377.211 66.998C378.849 66.998 380.297 67.8017 381.187 69.0402C381.907 65.5893 384.974 62.9893 388.648 62.9893C392.463 62.9893 395.616 65.7973 396.165 69.4562C397.008 68.785 398.068 68.3879 399.223 68.3879C401.41 68.3879 403.256 69.8155 403.891 71.7915H382.115H381.121H372.307C372.373 69.1348 374.532 66.998 377.211 66.998Z" fill="#3A6B7C"/>
</svg>
