<svg width="104" height="62" viewBox="0 0 104 62" fill="none" xmlns="http://www.w3.org/2000/svg">
<rect width="104" height="62" fill="white"/>
<g clip-path="url(#clip0_1192_31540)">
<path d="M52.0001 30.7142C57.9174 30.7142 62.7143 25.9173 62.7143 19.9999C62.7143 14.0826 57.9174 9.28564 52.0001 9.28564C46.0827 9.28564 41.2858 14.0826 41.2858 19.9999C41.2858 25.9173 46.0827 30.7142 52.0001 30.7142Z" fill="#A0BBC5" stroke="#41778A" stroke-width="1.71429" stroke-linecap="round" stroke-linejoin="round"/>
<path d="M52 20.9941C54.0704 20.9941 55.7487 19.3157 55.7487 17.2453C55.7487 15.175 54.0704 13.4966 52 13.4966C49.9296 13.4966 48.2512 15.175 48.2512 17.2453C48.2512 19.3157 49.9296 20.9941 52 20.9941Z" fill="white" stroke="#41778A" stroke-width="1.71429" stroke-linecap="round" stroke-linejoin="round"/>
<path d="M58.3502 28.6305C56.5731 29.9402 54.3769 30.7142 52 30.7142C49.623 30.7142 47.4269 29.9402 45.6498 28.6305C46.0037 27.2976 46.7692 26.1066 47.8419 25.2297C49.0154 24.2705 50.4844 23.7466 52 23.7466C53.5156 23.7466 54.9845 24.2705 56.158 25.2297C57.2308 26.1066 57.9962 27.2976 58.3502 28.6305Z" fill="white" stroke="#41778A" stroke-width="1.71429" stroke-linecap="round" stroke-linejoin="round"/>
</g>
<path d="M43.332 45.4727L42.0254 41.6699L40.6367 45.4727H43.332ZM41.416 40.3926H42.7344L45.8574 49H44.5801L43.707 46.4219H40.3027L39.3711 49H38.1758L41.416 40.3926ZM46.9039 40.3926H47.9176V45.3906L50.6246 42.7246H51.9723L49.5699 45.0742L52.107 49H50.7594L48.8023 45.8359L47.9176 46.6445V49H46.9039V40.3926ZM54.132 42.7246V46.8906C54.132 47.2109 54.1828 47.4727 54.2844 47.6758C54.4719 48.0508 54.8215 48.2383 55.3332 48.2383C56.0676 48.2383 56.5676 47.9102 56.8332 47.2539C56.9777 46.9023 57.05 46.4199 57.05 45.8066V42.7246H58.1047V49H57.1086L57.1203 48.0742C56.9836 48.3125 56.8137 48.5137 56.6105 48.6777C56.2082 49.0059 55.7199 49.1699 55.1457 49.1699C54.2512 49.1699 53.6418 48.8711 53.3176 48.2734C53.1418 47.9531 53.0539 47.5254 53.0539 46.9902V42.7246H54.132ZM59.907 42.7246H60.909V43.6152C61.2059 43.248 61.5203 42.9844 61.8523 42.8242C62.1844 42.6641 62.5535 42.584 62.9598 42.584C63.8504 42.584 64.452 42.8945 64.7645 43.5156C64.9363 43.8555 65.0223 44.3418 65.0223 44.9746V49H63.95V45.0449C63.95 44.6621 63.8934 44.3535 63.7801 44.1191C63.5926 43.7285 63.2527 43.5332 62.7605 43.5332C62.5105 43.5332 62.3055 43.5586 62.1453 43.6094C61.8563 43.6953 61.6023 43.8672 61.3836 44.125C61.2078 44.332 61.0926 44.5469 61.0379 44.7695C60.9871 44.9883 60.9617 45.3027 60.9617 45.7129V49H59.907V42.7246Z" fill="#41778A"/>
<defs>
<clipPath id="clip0_1192_31540">
<rect width="24" height="24" fill="white" transform="translate(40 8)"/>
</clipPath>
</defs>
</svg>
