<svg width="104" height="63" viewBox="0 0 104 63" fill="none" xmlns="http://www.w3.org/2000/svg">
<rect width="104" height="62" transform="translate(0 0.735352)" fill="white"/>
<g clip-path="url(#clip0_1658_11971)">
<path d="M51.9999 31.4497C57.9173 31.4497 62.7142 26.6528 62.7142 20.7354C62.7142 14.8181 57.9173 10.0211 51.9999 10.0211C46.0826 10.0211 41.2856 14.8181 41.2856 20.7354C41.2856 26.6528 46.0826 31.4497 51.9999 31.4497Z" fill="white" stroke="#41778A" stroke-width="1.71429" stroke-linecap="round" stroke-linejoin="round"/>
<path d="M52 21.7296C54.0704 21.7296 55.7487 20.0512 55.7487 17.9808C55.7487 15.9104 54.0704 14.2321 52 14.2321C49.9296 14.2321 48.2512 15.9104 48.2512 17.9808C48.2512 20.0512 49.9296 21.7296 52 21.7296Z" fill="white" stroke="#41778A" stroke-width="1.71429" stroke-linecap="round" stroke-linejoin="round"/>
<path d="M58.3503 29.366C56.5732 30.6757 54.377 31.4497 52.0001 31.4497C49.6232 31.4497 47.427 30.6757 45.6499 29.366C46.0038 28.0331 46.7693 26.842 47.8421 25.9652C49.0155 25.006 50.4845 24.4821 52.0001 24.4821C53.5157 24.4821 54.9847 25.006 56.1581 25.9652C57.2309 26.842 57.9963 28.0331 58.3503 29.366Z" fill="white" stroke="#41778A" stroke-width="1.71429" stroke-linecap="round" stroke-linejoin="round"/>
</g>
<path d="M43.332 46.208L42.0254 42.4053L40.6367 46.208H43.332ZM41.416 41.1279H42.7344L45.8574 49.7354H44.5801L43.707 47.1572H40.3027L39.3711 49.7354H38.1758L41.416 41.1279ZM46.9039 41.1279H47.9176V46.126L50.6246 43.46H51.9723L49.5699 45.8096L52.107 49.7354H50.7594L48.8023 46.5713L47.9176 47.3799V49.7354H46.9039V41.1279ZM54.132 43.46V47.626C54.132 47.9463 54.1828 48.208 54.2844 48.4111C54.4719 48.7861 54.8215 48.9736 55.3332 48.9736C56.0676 48.9736 56.5676 48.6455 56.8332 47.9893C56.9777 47.6377 57.05 47.1553 57.05 46.542V43.46H58.1047V49.7354H57.1086L57.1203 48.8096C56.9836 49.0479 56.8137 49.249 56.6105 49.4131C56.2082 49.7412 55.7199 49.9053 55.1457 49.9053C54.2512 49.9053 53.6418 49.6064 53.3176 49.0088C53.1418 48.6885 53.0539 48.2607 53.0539 47.7256V43.46H54.132ZM59.907 43.46H60.909V44.3506C61.2059 43.9834 61.5203 43.7197 61.8523 43.5596C62.1844 43.3994 62.5535 43.3193 62.9598 43.3193C63.8504 43.3193 64.452 43.6299 64.7645 44.251C64.9363 44.5908 65.0223 45.0771 65.0223 45.71V49.7354H63.95V45.7803C63.95 45.3975 63.8934 45.0889 63.7801 44.8545C63.5926 44.4639 63.2527 44.2686 62.7605 44.2686C62.5105 44.2686 62.3055 44.2939 62.1453 44.3447C61.8563 44.4307 61.6023 44.6025 61.3836 44.8604C61.2078 45.0674 61.0926 45.2822 61.0379 45.5049C60.9871 45.7236 60.9617 46.0381 60.9617 46.4482V49.7354H59.907V43.46Z" fill="#9E9E9E"/>
<defs>
<clipPath id="clip0_1658_11971">
<rect width="24" height="24" fill="white" transform="translate(40 8.73535)"/>
</clipPath>
</defs>
</svg>
