<svg width="103" height="62" viewBox="0 0 103 62" fill="none" xmlns="http://www.w3.org/2000/svg">
<rect width="103" height="62" fill="white"/>
<path d="M53.9916 15.5616C54.0933 16.5115 54.8573 17.2755 55.8067 17.3813C56.5119 17.4599 57.236 17.5274 57.9742 17.5274C58.7124 17.5274 59.4365 17.4599 60.1416 17.3813C61.0911 17.2755 61.855 16.5115 61.9566 15.5616C62.0317 14.8604 62.095 14.1405 62.095 13.4065C62.095 12.6726 62.0317 11.9527 61.9566 11.2515C61.855 10.3016 61.0911 9.53759 60.1416 9.43176C59.4365 9.35316 58.7124 9.28564 57.9742 9.28564C57.236 9.28564 56.5119 9.35316 55.8067 9.43176C54.8573 9.53759 54.0933 10.3016 53.9916 11.2515C53.9166 11.9527 53.8533 12.6726 53.8533 13.4065C53.8533 14.1405 53.9166 14.8604 53.9916 15.5616Z" fill="white" stroke="#345F6E" stroke-width="1.71429"/>
<path d="M41.0434 15.5616C41.145 16.5115 41.909 17.2755 42.8584 17.3813C43.5636 17.4599 44.2877 17.5274 45.0259 17.5274C45.7641 17.5274 46.4882 17.4599 47.1934 17.3813C48.1428 17.2755 48.9068 16.5115 49.0084 15.5616C49.0834 14.8604 49.1468 14.1405 49.1468 13.4065C49.1468 12.6726 49.0834 11.9527 49.0084 11.2515C48.9068 10.3016 48.1428 9.53759 47.1934 9.43176C46.4882 9.35316 45.7641 9.28564 45.0259 9.28564C44.2877 9.28564 43.5636 9.35316 42.8584 9.43176C41.909 9.53759 41.145 10.3016 41.0434 11.2515C40.9684 11.9527 40.905 12.6726 40.905 13.4065C40.905 14.1405 40.9684 14.8604 41.0434 15.5616Z" fill="white" stroke="#345F6E" stroke-width="1.71429"/>
<path d="M41.0434 28.7486C41.145 29.6985 41.909 30.4624 42.8584 30.5683C43.5636 30.6469 44.2877 30.7144 45.0259 30.7144C45.7641 30.7144 46.4882 30.6469 47.1934 30.5683C48.1428 30.4624 48.9068 29.6985 49.0084 28.7486C49.0834 28.0475 49.1468 27.3275 49.1468 26.5936C49.1468 25.8595 49.0834 25.1397 49.0084 24.4385C48.9068 23.4886 48.1428 22.7246 47.1934 22.6188C46.4882 22.5402 45.7641 22.4727 45.0259 22.4727C44.2877 22.4727 43.5636 22.5402 42.8584 22.6188C41.909 22.7246 41.145 23.4886 41.0434 24.4385C40.9684 25.1397 40.905 25.8595 40.905 26.5936C40.905 27.3275 40.9684 28.0475 41.0434 28.7486Z" fill="white" stroke="#345F6E" stroke-width="1.71429"/>
<path d="M53.9916 28.7486C54.0933 29.6985 54.8573 30.4624 55.8067 30.5683C56.5119 30.6469 57.236 30.7144 57.9742 30.7144C58.7124 30.7144 59.4365 30.6469 60.1416 30.5683C61.0911 30.4624 61.855 29.6985 61.9566 28.7486C62.0317 28.0475 62.095 27.3275 62.095 26.5936C62.095 25.8595 62.0317 25.1397 61.9566 24.4385C61.855 23.4886 61.0911 22.7246 60.1416 22.6188C59.4365 22.5402 58.7124 22.4727 57.9742 22.4727C57.236 22.4727 56.5119 22.5402 55.8067 22.6188C54.8573 22.7246 54.0933 23.4886 53.9916 24.4385C53.9166 25.1397 53.8533 25.8595 53.8533 26.5936C53.8533 27.3275 53.9166 28.0475 53.9916 28.7486Z" fill="white" stroke="#345F6E" stroke-width="1.71429"/>
<path d="M32.1484 44.0312C32.6406 44.0312 33.0234 43.9629 33.2969 43.8262C33.7266 43.6113 33.9414 43.2246 33.9414 42.666C33.9414 42.1035 33.7129 41.7246 33.2559 41.5293C32.998 41.4199 32.6152 41.3652 32.1074 41.3652H30.0273V44.0312H32.1484ZM32.541 48.0039C33.2559 48.0039 33.7656 47.7969 34.0703 47.3828C34.2617 47.1211 34.3574 46.8047 34.3574 46.4336C34.3574 45.8086 34.0781 45.3828 33.5195 45.1562C33.2227 45.0352 32.8301 44.9746 32.3418 44.9746H30.0273V48.0039H32.541ZM28.8848 40.3926H32.582C33.5898 40.3926 34.3066 40.6934 34.7324 41.2949C34.9824 41.6504 35.1074 42.0605 35.1074 42.5254C35.1074 43.0684 34.9531 43.5137 34.6445 43.8613C34.4844 44.0449 34.2539 44.2129 33.9531 44.3652C34.3945 44.5332 34.7246 44.7227 34.9434 44.9336C35.3301 45.3086 35.5234 45.8262 35.5234 46.4863C35.5234 47.041 35.3496 47.543 35.002 47.9922C34.4824 48.6641 33.6562 49 32.5234 49H28.8848V40.3926ZM39.5406 42.584C39.9859 42.584 40.4176 42.6895 40.8355 42.9004C41.2535 43.1074 41.5719 43.377 41.7906 43.709C42.0016 44.0254 42.1422 44.3945 42.2125 44.8164C42.275 45.1055 42.3062 45.5664 42.3062 46.1992H37.7066C37.7262 46.8359 37.8766 47.3477 38.1578 47.7344C38.4391 48.1172 38.8746 48.3086 39.4645 48.3086C40.0152 48.3086 40.4547 48.127 40.7828 47.7637C40.9703 47.5527 41.1031 47.3086 41.1812 47.0312H42.2184C42.191 47.2617 42.0992 47.5195 41.943 47.8047C41.7906 48.0859 41.6187 48.3164 41.4273 48.4961C41.107 48.8086 40.7105 49.0195 40.2379 49.1289C39.984 49.1914 39.6969 49.2227 39.3766 49.2227C38.5953 49.2227 37.9332 48.9395 37.3902 48.373C36.8473 47.8027 36.5758 47.0059 36.5758 45.9824C36.5758 44.9746 36.8492 44.1562 37.3961 43.5273C37.943 42.8984 38.6578 42.584 39.5406 42.584ZM41.2223 45.3613C41.1793 44.9043 41.0797 44.5391 40.9234 44.2656C40.6344 43.7578 40.152 43.5039 39.4762 43.5039C38.9918 43.5039 38.5855 43.6797 38.2574 44.0312C37.9293 44.3789 37.7555 44.8223 37.7359 45.3613H41.2223ZM43.7863 42.7246H44.7883V43.8086C44.8703 43.5977 45.0715 43.3418 45.3918 43.041C45.7121 42.7363 46.0813 42.584 46.4992 42.584C46.5188 42.584 46.552 42.5859 46.5988 42.5898C46.6457 42.5938 46.7258 42.6016 46.8391 42.6133V43.7266C46.7766 43.7148 46.718 43.707 46.6633 43.7031C46.6125 43.6992 46.5559 43.6973 46.4934 43.6973C45.9621 43.6973 45.5539 43.8691 45.2688 44.2129C44.9836 44.5527 44.841 44.9453 44.841 45.3906V49H43.7863V42.7246ZM48.7117 47.3301C48.7117 47.6348 48.823 47.875 49.0457 48.0508C49.2684 48.2266 49.532 48.3145 49.8367 48.3145C50.2078 48.3145 50.5672 48.2285 50.9148 48.0566C51.5008 47.7715 51.7938 47.3047 51.7938 46.6562V45.8066C51.6648 45.8887 51.4988 45.957 51.2957 46.0117C51.0926 46.0664 50.8934 46.1055 50.698 46.1289L50.0594 46.2109C49.6766 46.2617 49.3895 46.3418 49.198 46.4512C48.8738 46.6348 48.7117 46.9277 48.7117 47.3301ZM51.2664 45.1973C51.5086 45.166 51.6707 45.0645 51.7527 44.8926C51.7996 44.7988 51.823 44.6641 51.823 44.4883C51.823 44.1289 51.6941 43.8691 51.4363 43.709C51.1824 43.5449 50.8172 43.4629 50.3406 43.4629C49.7898 43.4629 49.3992 43.6113 49.1688 43.9082C49.0398 44.0723 48.9559 44.3164 48.9168 44.6406H47.9324C47.952 43.8672 48.202 43.3301 48.6824 43.0293C49.1668 42.7246 49.7273 42.5723 50.3641 42.5723C51.1023 42.5723 51.702 42.7129 52.1629 42.9941C52.6199 43.2754 52.8484 43.7129 52.8484 44.3066V47.9219C52.8484 48.0312 52.8699 48.1191 52.9129 48.1855C52.9598 48.252 53.0555 48.2852 53.2 48.2852C53.2469 48.2852 53.2996 48.2832 53.3582 48.2793C53.4168 48.2715 53.4793 48.2617 53.5457 48.25V49.0293C53.3816 49.0762 53.2566 49.1055 53.1707 49.1172C53.0848 49.1289 52.9676 49.1348 52.8191 49.1348C52.4559 49.1348 52.1922 49.0059 52.0281 48.748C51.9422 48.6113 51.8816 48.418 51.8465 48.168C51.6316 48.4492 51.323 48.6934 50.9207 48.9004C50.5184 49.1074 50.075 49.2109 49.5906 49.2109C49.0086 49.2109 48.532 49.0352 48.1609 48.6836C47.7938 48.3281 47.6102 47.8848 47.6102 47.3535C47.6102 46.7715 47.7918 46.3203 48.1551 46C48.5184 45.6797 48.9949 45.4824 49.5848 45.4082L51.2664 45.1973ZM54.7328 42.7246H55.7348V43.6152C56.0316 43.248 56.3461 42.9844 56.6781 42.8242C57.0102 42.6641 57.3793 42.584 57.7855 42.584C58.6762 42.584 59.2777 42.8945 59.5902 43.5156C59.7621 43.8555 59.848 44.3418 59.848 44.9746V49H58.7758V45.0449C58.7758 44.6621 58.7191 44.3535 58.6059 44.1191C58.4184 43.7285 58.0785 43.5332 57.5863 43.5332C57.3363 43.5332 57.1313 43.5586 56.9711 43.6094C56.682 43.6953 56.4281 43.8672 56.2094 44.125C56.0336 44.332 55.9184 44.5469 55.8637 44.7695C55.8129 44.9883 55.7875 45.3027 55.7875 45.7129V49H54.7328V42.7246ZM62.2305 45.9355C62.2305 46.6074 62.373 47.1699 62.6582 47.623C62.9434 48.0762 63.4004 48.3027 64.0293 48.3027C64.5176 48.3027 64.918 48.0938 65.2305 47.6758C65.5469 47.2539 65.7051 46.6504 65.7051 45.8652C65.7051 45.0723 65.543 44.4863 65.2188 44.1074C64.8945 43.7246 64.4941 43.5332 64.0176 43.5332C63.4863 43.5332 63.0547 43.7363 62.7227 44.1426C62.3945 44.5488 62.2305 45.1465 62.2305 45.9355ZM63.8184 42.6133C64.2988 42.6133 64.7012 42.7148 65.0254 42.918C65.2129 43.0352 65.4258 43.2402 65.6641 43.5332V40.3633H66.6777V49H65.7285V48.127C65.4824 48.5137 65.1914 48.793 64.8555 48.9648C64.5195 49.1367 64.1348 49.2227 63.7012 49.2227C63.002 49.2227 62.3965 48.9297 61.8848 48.3438C61.373 47.7539 61.1172 46.9707 61.1172 45.9941C61.1172 45.0801 61.3496 44.2891 61.8145 43.6211C62.2832 42.9492 62.9512 42.6133 63.8184 42.6133ZM69.2008 47.3301C69.2008 47.6348 69.3121 47.875 69.5348 48.0508C69.7574 48.2266 70.0211 48.3145 70.3258 48.3145C70.6969 48.3145 71.0563 48.2285 71.4039 48.0566C71.9898 47.7715 72.2828 47.3047 72.2828 46.6562V45.8066C72.1539 45.8887 71.9879 45.957 71.7848 46.0117C71.5816 46.0664 71.3824 46.1055 71.1871 46.1289L70.5484 46.2109C70.1656 46.2617 69.8785 46.3418 69.6871 46.4512C69.3629 46.6348 69.2008 46.9277 69.2008 47.3301ZM71.7555 45.1973C71.9977 45.166 72.1598 45.0645 72.2418 44.8926C72.2887 44.7988 72.3121 44.6641 72.3121 44.4883C72.3121 44.1289 72.1832 43.8691 71.9254 43.709C71.6715 43.5449 71.3063 43.4629 70.8297 43.4629C70.2789 43.4629 69.8883 43.6113 69.6578 43.9082C69.5289 44.0723 69.4449 44.3164 69.4059 44.6406H68.4215C68.441 43.8672 68.691 43.3301 69.1715 43.0293C69.6559 42.7246 70.2164 42.5723 70.8531 42.5723C71.5914 42.5723 72.191 42.7129 72.652 42.9941C73.109 43.2754 73.3375 43.7129 73.3375 44.3066V47.9219C73.3375 48.0312 73.359 48.1191 73.402 48.1855C73.4488 48.252 73.5445 48.2852 73.6891 48.2852C73.7359 48.2852 73.7887 48.2832 73.8473 48.2793C73.9059 48.2715 73.9684 48.2617 74.0348 48.25V49.0293C73.8707 49.0762 73.7457 49.1055 73.6598 49.1172C73.5738 49.1289 73.4566 49.1348 73.3082 49.1348C72.9449 49.1348 72.6813 49.0059 72.5172 48.748C72.4313 48.6113 72.3707 48.418 72.3355 48.168C72.1207 48.4492 71.8121 48.6934 71.4098 48.9004C71.0074 49.1074 70.5641 49.2109 70.0797 49.2109C69.4977 49.2109 69.0211 49.0352 68.65 48.6836C68.2828 48.3281 68.0992 47.8848 68.0992 47.3535C68.0992 46.7715 68.2809 46.3203 68.6441 46C69.0074 45.6797 69.484 45.4824 70.0738 45.4082L71.7555 45.1973Z" fill="#9E9E9E"/>
</svg>
