<svg width="103" height="63" viewBox="0 0 103 63" fill="none" xmlns="http://www.w3.org/2000/svg">
<rect width="103" height="62" transform="translate(0 0.735352)" fill="white"/>
<g clip-path="url(#clip0_1658_11950)">
<path d="M53.9914 16.2971C54.093 17.247 54.857 18.0109 55.8064 18.1168C56.5116 18.1954 57.2358 18.2629 57.9739 18.2629C58.7121 18.2629 59.4362 18.1954 60.1413 18.1168C61.0909 18.0109 61.8547 17.247 61.9564 16.2971C62.0315 15.5959 62.0947 14.8759 62.0947 14.142C62.0947 13.408 62.0315 12.6881 61.9564 11.9869C61.8547 11.037 61.0909 10.2731 60.1413 10.1672C59.4362 10.0886 58.7121 10.0211 57.9739 10.0211C57.2358 10.0211 56.5116 10.0886 55.8064 10.1672C54.857 10.2731 54.093 11.037 53.9914 11.9869C53.9164 12.6881 53.853 13.408 53.853 14.142C53.853 14.8759 53.9164 15.5959 53.9914 16.2971Z" fill="#A0BBC5" stroke="#345F6E" stroke-width="1.71429"/>
<path d="M41.0432 16.2971C41.1448 17.247 41.9088 18.0109 42.8582 18.1168C43.5634 18.1954 44.2874 18.2629 45.0257 18.2629C45.7639 18.2629 46.488 18.1954 47.1931 18.1168C48.1426 18.0109 48.9066 17.247 49.0082 16.2971C49.0832 15.5959 49.1466 14.8759 49.1466 14.142C49.1466 13.408 49.0832 12.6881 49.0082 11.9869C48.9066 11.037 48.1426 10.2731 47.1931 10.1672C46.488 10.0886 45.7639 10.0211 45.0257 10.0211C44.2874 10.0211 43.5634 10.0886 42.8582 10.1672C41.9088 10.2731 41.1448 11.037 41.0432 11.9869C40.9681 12.6881 40.9048 13.408 40.9048 14.142C40.9048 14.8759 40.9681 15.5959 41.0432 16.2971Z" fill="#A0BBC5" stroke="#345F6E" stroke-width="1.71429"/>
<path d="M41.0432 29.4839C41.1448 30.4337 41.9088 31.1976 42.8582 31.3036C43.5634 31.3821 44.2874 31.4496 45.0257 31.4496C45.7639 31.4496 46.488 31.3821 47.1931 31.3036C48.1426 31.1976 48.9066 30.4337 49.0082 29.4839C49.0832 28.7827 49.1466 28.0627 49.1466 27.3288C49.1466 26.5948 49.0832 25.8749 49.0082 25.1737C48.9066 24.2238 48.1426 23.4598 47.1931 23.354C46.488 23.2754 45.7639 23.2079 45.0257 23.2079C44.2874 23.2079 43.5634 23.2754 42.8582 23.354C41.9088 23.4598 41.1448 24.2238 41.0432 25.1737C40.9681 25.8749 40.9048 26.5948 40.9048 27.3288C40.9048 28.0627 40.9681 28.7827 41.0432 29.4839Z" fill="#A0BBC5" stroke="#345F6E" stroke-width="1.71429"/>
<path d="M53.9914 29.4839C54.093 30.4337 54.857 31.1976 55.8064 31.3036C56.5116 31.3821 57.2358 31.4496 57.9739 31.4496C58.7121 31.4496 59.4362 31.3821 60.1413 31.3036C61.0909 31.1976 61.8547 30.4337 61.9564 29.4839C62.0315 28.7827 62.0947 28.0627 62.0947 27.3288C62.0947 26.5948 62.0315 25.8749 61.9564 25.1737C61.8547 24.2238 61.0909 23.4598 60.1413 23.354C59.4362 23.2754 58.7121 23.2079 57.9739 23.2079C57.2358 23.2079 56.5116 23.2754 55.8064 23.354C54.857 23.4598 54.093 24.2238 53.9914 25.1737C53.9164 25.8749 53.853 26.5948 53.853 27.3288C53.853 28.0627 53.9164 28.7827 53.9914 29.4839Z" fill="#A0BBC5" stroke="#345F6E" stroke-width="1.71429"/>
</g>
<path d="M32.1484 44.7666C32.6406 44.7666 33.0234 44.6982 33.2969 44.5615C33.7266 44.3467 33.9414 43.96 33.9414 43.4014C33.9414 42.8389 33.7129 42.46 33.2559 42.2646C32.998 42.1553 32.6152 42.1006 32.1074 42.1006H30.0273V44.7666H32.1484ZM32.541 48.7393C33.2559 48.7393 33.7656 48.5322 34.0703 48.1182C34.2617 47.8564 34.3574 47.54 34.3574 47.1689C34.3574 46.5439 34.0781 46.1182 33.5195 45.8916C33.2227 45.7705 32.8301 45.71 32.3418 45.71H30.0273V48.7393H32.541ZM28.8848 41.1279H32.582C33.5898 41.1279 34.3066 41.4287 34.7324 42.0303C34.9824 42.3857 35.1074 42.7959 35.1074 43.2607C35.1074 43.8037 34.9531 44.249 34.6445 44.5967C34.4844 44.7803 34.2539 44.9482 33.9531 45.1006C34.3945 45.2686 34.7246 45.458 34.9434 45.6689C35.3301 46.0439 35.5234 46.5615 35.5234 47.2217C35.5234 47.7764 35.3496 48.2783 35.002 48.7275C34.4824 49.3994 33.6562 49.7354 32.5234 49.7354H28.8848V41.1279ZM39.5406 43.3193C39.9859 43.3193 40.4176 43.4248 40.8355 43.6357C41.2535 43.8428 41.5719 44.1123 41.7906 44.4443C42.0016 44.7607 42.1422 45.1299 42.2125 45.5518C42.275 45.8408 42.3062 46.3018 42.3062 46.9346H37.7066C37.7262 47.5713 37.8766 48.083 38.1578 48.4697C38.4391 48.8525 38.8746 49.0439 39.4645 49.0439C40.0152 49.0439 40.4547 48.8623 40.7828 48.499C40.9703 48.2881 41.1031 48.0439 41.1812 47.7666H42.2184C42.191 47.9971 42.0992 48.2549 41.943 48.54C41.7906 48.8213 41.6187 49.0518 41.4273 49.2314C41.107 49.5439 40.7105 49.7549 40.2379 49.8643C39.984 49.9268 39.6969 49.958 39.3766 49.958C38.5953 49.958 37.9332 49.6748 37.3902 49.1084C36.8473 48.5381 36.5758 47.7412 36.5758 46.7178C36.5758 45.71 36.8492 44.8916 37.3961 44.2627C37.943 43.6338 38.6578 43.3193 39.5406 43.3193ZM41.2223 46.0967C41.1793 45.6396 41.0797 45.2744 40.9234 45.001C40.6344 44.4932 40.152 44.2393 39.4762 44.2393C38.9918 44.2393 38.5855 44.415 38.2574 44.7666C37.9293 45.1143 37.7555 45.5576 37.7359 46.0967H41.2223ZM43.7863 43.46H44.7883V44.5439C44.8703 44.333 45.0715 44.0771 45.3918 43.7764C45.7121 43.4717 46.0813 43.3193 46.4992 43.3193C46.5188 43.3193 46.552 43.3213 46.5988 43.3252C46.6457 43.3291 46.7258 43.3369 46.8391 43.3486V44.4619C46.7766 44.4502 46.718 44.4424 46.6633 44.4385C46.6125 44.4346 46.5559 44.4326 46.4934 44.4326C45.9621 44.4326 45.5539 44.6045 45.2688 44.9482C44.9836 45.2881 44.841 45.6807 44.841 46.126V49.7354H43.7863V43.46ZM48.7117 48.0654C48.7117 48.3701 48.823 48.6104 49.0457 48.7861C49.2684 48.9619 49.532 49.0498 49.8367 49.0498C50.2078 49.0498 50.5672 48.9639 50.9148 48.792C51.5008 48.5068 51.7938 48.04 51.7938 47.3916V46.542C51.6648 46.624 51.4988 46.6924 51.2957 46.7471C51.0926 46.8018 50.8934 46.8408 50.698 46.8643L50.0594 46.9463C49.6766 46.9971 49.3895 47.0771 49.198 47.1865C48.8738 47.3701 48.7117 47.6631 48.7117 48.0654ZM51.2664 45.9326C51.5086 45.9014 51.6707 45.7998 51.7527 45.6279C51.7996 45.5342 51.823 45.3994 51.823 45.2236C51.823 44.8643 51.6941 44.6045 51.4363 44.4443C51.1824 44.2803 50.8172 44.1982 50.3406 44.1982C49.7898 44.1982 49.3992 44.3467 49.1688 44.6436C49.0398 44.8076 48.9559 45.0518 48.9168 45.376H47.9324C47.952 44.6025 48.202 44.0654 48.6824 43.7646C49.1668 43.46 49.7273 43.3076 50.3641 43.3076C51.1023 43.3076 51.702 43.4482 52.1629 43.7295C52.6199 44.0107 52.8484 44.4482 52.8484 45.042V48.6572C52.8484 48.7666 52.8699 48.8545 52.9129 48.9209C52.9598 48.9873 53.0555 49.0205 53.2 49.0205C53.2469 49.0205 53.2996 49.0186 53.3582 49.0146C53.4168 49.0068 53.4793 48.9971 53.5457 48.9854V49.7646C53.3816 49.8115 53.2566 49.8408 53.1707 49.8525C53.0848 49.8643 52.9676 49.8701 52.8191 49.8701C52.4559 49.8701 52.1922 49.7412 52.0281 49.4834C51.9422 49.3467 51.8816 49.1533 51.8465 48.9033C51.6316 49.1846 51.323 49.4287 50.9207 49.6357C50.5184 49.8428 50.075 49.9463 49.5906 49.9463C49.0086 49.9463 48.532 49.7705 48.1609 49.4189C47.7938 49.0635 47.6102 48.6201 47.6102 48.0889C47.6102 47.5068 47.7918 47.0557 48.1551 46.7354C48.5184 46.415 48.9949 46.2178 49.5848 46.1436L51.2664 45.9326ZM54.7328 43.46H55.7348V44.3506C56.0316 43.9834 56.3461 43.7197 56.6781 43.5596C57.0102 43.3994 57.3793 43.3193 57.7855 43.3193C58.6762 43.3193 59.2777 43.6299 59.5902 44.251C59.7621 44.5908 59.848 45.0771 59.848 45.71V49.7354H58.7758V45.7803C58.7758 45.3975 58.7191 45.0889 58.6059 44.8545C58.4184 44.4639 58.0785 44.2686 57.5863 44.2686C57.3363 44.2686 57.1313 44.2939 56.9711 44.3447C56.682 44.4307 56.4281 44.6025 56.2094 44.8604C56.0336 45.0674 55.9184 45.2822 55.8637 45.5049C55.8129 45.7236 55.7875 46.0381 55.7875 46.4482V49.7354H54.7328V43.46ZM62.2305 46.6709C62.2305 47.3428 62.373 47.9053 62.6582 48.3584C62.9434 48.8115 63.4004 49.0381 64.0293 49.0381C64.5176 49.0381 64.918 48.8291 65.2305 48.4111C65.5469 47.9893 65.7051 47.3857 65.7051 46.6006C65.7051 45.8076 65.543 45.2217 65.2188 44.8428C64.8945 44.46 64.4941 44.2686 64.0176 44.2686C63.4863 44.2686 63.0547 44.4717 62.7227 44.8779C62.3945 45.2842 62.2305 45.8818 62.2305 46.6709ZM63.8184 43.3486C64.2988 43.3486 64.7012 43.4502 65.0254 43.6533C65.2129 43.7705 65.4258 43.9756 65.6641 44.2686V41.0986H66.6777V49.7354H65.7285V48.8623C65.4824 49.249 65.1914 49.5283 64.8555 49.7002C64.5195 49.8721 64.1348 49.958 63.7012 49.958C63.002 49.958 62.3965 49.665 61.8848 49.0791C61.373 48.4893 61.1172 47.7061 61.1172 46.7295C61.1172 45.8154 61.3496 45.0244 61.8145 44.3564C62.2832 43.6846 62.9512 43.3486 63.8184 43.3486ZM69.2008 48.0654C69.2008 48.3701 69.3121 48.6104 69.5348 48.7861C69.7574 48.9619 70.0211 49.0498 70.3258 49.0498C70.6969 49.0498 71.0563 48.9639 71.4039 48.792C71.9898 48.5068 72.2828 48.04 72.2828 47.3916V46.542C72.1539 46.624 71.9879 46.6924 71.7848 46.7471C71.5816 46.8018 71.3824 46.8408 71.1871 46.8643L70.5484 46.9463C70.1656 46.9971 69.8785 47.0771 69.6871 47.1865C69.3629 47.3701 69.2008 47.6631 69.2008 48.0654ZM71.7555 45.9326C71.9977 45.9014 72.1598 45.7998 72.2418 45.6279C72.2887 45.5342 72.3121 45.3994 72.3121 45.2236C72.3121 44.8643 72.1832 44.6045 71.9254 44.4443C71.6715 44.2803 71.3063 44.1982 70.8297 44.1982C70.2789 44.1982 69.8883 44.3467 69.6578 44.6436C69.5289 44.8076 69.4449 45.0518 69.4059 45.376H68.4215C68.441 44.6025 68.691 44.0654 69.1715 43.7646C69.6559 43.46 70.2164 43.3076 70.8531 43.3076C71.5914 43.3076 72.191 43.4482 72.652 43.7295C73.109 44.0107 73.3375 44.4482 73.3375 45.042V48.6572C73.3375 48.7666 73.359 48.8545 73.402 48.9209C73.4488 48.9873 73.5445 49.0205 73.6891 49.0205C73.7359 49.0205 73.7887 49.0186 73.8473 49.0146C73.9059 49.0068 73.9684 48.9971 74.0348 48.9854V49.7646C73.8707 49.8115 73.7457 49.8408 73.6598 49.8525C73.5738 49.8643 73.4566 49.8701 73.3082 49.8701C72.9449 49.8701 72.6813 49.7412 72.5172 49.4834C72.4313 49.3467 72.3707 49.1533 72.3355 48.9033C72.1207 49.1846 71.8121 49.4287 71.4098 49.6357C71.0074 49.8428 70.5641 49.9463 70.0797 49.9463C69.4977 49.9463 69.0211 49.7705 68.65 49.4189C68.2828 49.0635 68.0992 48.6201 68.0992 48.0889C68.0992 47.5068 68.2809 47.0557 68.6441 46.7354C69.0074 46.415 69.484 46.2178 70.0738 46.1436L71.7555 45.9326Z" fill="#41778A"/>
<defs>
<clipPath id="clip0_1658_11950">
<rect width="24" height="24" fill="white" transform="translate(39.5 8.73535)"/>
</clipPath>
</defs>
</svg>
