<svg width="103" height="63" viewBox="0 0 103 63" fill="none" xmlns="http://www.w3.org/2000/svg">
<rect width="103" height="62" transform="translate(0 0.735352)" fill="white"/>
<path d="M60.7123 27.7361C60.8541 25.4764 60.9287 23.1348 60.9287 20.7353C60.9287 19.7635 60.9165 18.8012 60.8925 17.85C60.8757 17.1817 60.6588 16.5323 60.2634 15.9934C58.7556 13.9395 57.5546 12.6626 55.5751 11.1349C55.0312 10.7151 54.3637 10.4873 53.6767 10.4723C52.9879 10.4572 52.2685 10.4496 51.5001 10.4496C49.1739 10.4496 47.2974 10.5196 45.3556 10.6532C43.7036 10.7667 42.3916 12.0818 42.2879 13.7344C42.1461 15.9942 42.0715 18.3358 42.0715 20.7353C42.0715 23.1348 42.1461 25.4764 42.2879 27.7361C42.3916 29.3888 43.7036 30.7039 45.3556 30.8174C47.2974 30.9509 49.1739 31.021 51.5001 31.021C53.8263 31.021 55.7028 30.9509 57.6446 30.8174C59.2965 30.7039 60.6086 29.3888 60.7123 27.7361Z" fill="white" stroke="#41778A" stroke-width="1.71429"/>
<path d="M48.2322 20.7621H54.7679" stroke="#41778A" stroke-width="1.71429" stroke-linecap="round"/>
<path d="M48.2322 15.5925H52.1761M48.2322 25.7443H54.7476H48.2322Z" stroke="#41778A" stroke-width="1.71429" stroke-linecap="round" stroke-linejoin="round"/>
<path d="M28.0254 41.1279H31.8984C32.6641 41.1279 33.2812 41.3447 33.75 41.7783C34.2188 42.208 34.4531 42.8135 34.4531 43.5947C34.4531 44.2666 34.2441 44.8525 33.8262 45.3525C33.4082 45.8486 32.7656 46.0967 31.8984 46.0967H29.1914V49.7354H28.0254V41.1279ZM33.2754 43.6006C33.2754 42.9678 33.041 42.5381 32.5723 42.3115C32.3145 42.1904 31.9609 42.1299 31.5117 42.1299H29.1914V45.1123H31.5117C32.0352 45.1123 32.459 45.001 32.7832 44.7783C33.1113 44.5557 33.2754 44.1631 33.2754 43.6006ZM38.5406 43.3193C38.9859 43.3193 39.4176 43.4248 39.8355 43.6357C40.2535 43.8428 40.5719 44.1123 40.7906 44.4443C41.0016 44.7607 41.1422 45.1299 41.2125 45.5518C41.275 45.8408 41.3062 46.3018 41.3062 46.9346H36.7066C36.7262 47.5713 36.8766 48.083 37.1578 48.4697C37.4391 48.8525 37.8746 49.0439 38.4645 49.0439C39.0152 49.0439 39.4547 48.8623 39.7828 48.499C39.9703 48.2881 40.1031 48.0439 40.1812 47.7666H41.2184C41.191 47.9971 41.0992 48.2549 40.943 48.54C40.7906 48.8213 40.6187 49.0518 40.4273 49.2314C40.107 49.5439 39.7105 49.7549 39.2379 49.8643C38.984 49.9268 38.6969 49.958 38.3766 49.958C37.5953 49.958 36.9332 49.6748 36.3902 49.1084C35.8473 48.5381 35.5758 47.7412 35.5758 46.7178C35.5758 45.71 35.8492 44.8916 36.3961 44.2627C36.943 43.6338 37.6578 43.3193 38.5406 43.3193ZM40.2223 46.0967C40.1793 45.6396 40.0797 45.2744 39.9234 45.001C39.6344 44.4932 39.152 44.2393 38.4762 44.2393C37.9918 44.2393 37.5855 44.415 37.2574 44.7666C36.9293 45.1143 36.7555 45.5576 36.7359 46.0967H40.2223ZM43.384 47.7666C43.4152 48.1182 43.5031 48.3877 43.6477 48.5752C43.9133 48.915 44.3742 49.085 45.0305 49.085C45.4211 49.085 45.7648 49.001 46.0617 48.833C46.3586 48.6611 46.507 48.3975 46.507 48.042C46.507 47.7725 46.3879 47.5674 46.1496 47.4268C45.9973 47.3408 45.6965 47.2412 45.2473 47.1279L44.4094 46.917C43.8742 46.7842 43.4797 46.6357 43.2258 46.4717C42.7727 46.1865 42.5461 45.792 42.5461 45.2881C42.5461 44.6943 42.759 44.2139 43.1848 43.8467C43.6145 43.4795 44.1906 43.2959 44.9133 43.2959C45.8586 43.2959 46.5402 43.5732 46.9582 44.1279C47.2199 44.4795 47.3469 44.8584 47.3391 45.2646H46.343C46.3234 45.0264 46.2395 44.8096 46.091 44.6143C45.8488 44.3369 45.4289 44.1982 44.8313 44.1982C44.4328 44.1982 44.1301 44.2744 43.923 44.4268C43.7199 44.5791 43.6184 44.7803 43.6184 45.0303C43.6184 45.3037 43.7531 45.5225 44.0227 45.6865C44.1789 45.7842 44.4094 45.8701 44.7141 45.9443L45.4113 46.1143C46.1691 46.2979 46.677 46.4756 46.9348 46.6475C47.3449 46.917 47.55 47.3408 47.55 47.9189C47.55 48.4775 47.3371 48.96 46.9113 49.3662C46.4895 49.7725 45.8449 49.9756 44.9777 49.9756C44.0441 49.9756 43.382 49.7646 42.9914 49.3428C42.6047 48.917 42.3977 48.3916 42.3703 47.7666H43.384ZM49.7156 48.0654C49.7156 48.3701 49.827 48.6104 50.0496 48.7861C50.2723 48.9619 50.5359 49.0498 50.8406 49.0498C51.2117 49.0498 51.5711 48.9639 51.9188 48.792C52.5047 48.5068 52.7977 48.04 52.7977 47.3916V46.542C52.6688 46.624 52.5027 46.6924 52.2996 46.7471C52.0965 46.8018 51.8973 46.8408 51.702 46.8643L51.0633 46.9463C50.6805 46.9971 50.3934 47.0771 50.202 47.1865C49.8777 47.3701 49.7156 47.6631 49.7156 48.0654ZM52.2703 45.9326C52.5125 45.9014 52.6746 45.7998 52.7566 45.6279C52.8035 45.5342 52.827 45.3994 52.827 45.2236C52.827 44.8643 52.698 44.6045 52.4402 44.4443C52.1863 44.2803 51.8211 44.1982 51.3445 44.1982C50.7938 44.1982 50.4031 44.3467 50.1727 44.6436C50.0438 44.8076 49.9598 45.0518 49.9207 45.376H48.9363C48.9559 44.6025 49.2059 44.0654 49.6863 43.7646C50.1707 43.46 50.7313 43.3076 51.368 43.3076C52.1063 43.3076 52.7059 43.4482 53.1668 43.7295C53.6238 44.0107 53.8523 44.4482 53.8523 45.042V48.6572C53.8523 48.7666 53.8738 48.8545 53.9168 48.9209C53.9637 48.9873 54.0594 49.0205 54.2039 49.0205C54.2508 49.0205 54.3035 49.0186 54.3621 49.0146C54.4207 49.0068 54.4832 48.9971 54.5496 48.9854V49.7646C54.3855 49.8115 54.2605 49.8408 54.1746 49.8525C54.0887 49.8643 53.9715 49.8701 53.823 49.8701C53.4598 49.8701 53.1961 49.7412 53.032 49.4834C52.9461 49.3467 52.8855 49.1533 52.8504 48.9033C52.6355 49.1846 52.327 49.4287 51.9246 49.6357C51.5223 49.8428 51.0789 49.9463 50.5945 49.9463C50.0125 49.9463 49.5359 49.7705 49.1648 49.4189C48.7977 49.0635 48.6141 48.6201 48.6141 48.0889C48.6141 47.5068 48.7957 47.0557 49.159 46.7354C49.5223 46.415 49.9988 46.2178 50.5887 46.1436L52.2703 45.9326ZM55.7367 43.46H56.7387V44.3506C57.0355 43.9834 57.35 43.7197 57.682 43.5596C58.0141 43.3994 58.3832 43.3193 58.7895 43.3193C59.6801 43.3193 60.2816 43.6299 60.5941 44.251C60.766 44.5908 60.852 45.0771 60.852 45.71V49.7354H59.7797V45.7803C59.7797 45.3975 59.723 45.0889 59.6098 44.8545C59.4223 44.4639 59.0824 44.2686 58.5902 44.2686C58.3402 44.2686 58.1352 44.2939 57.975 44.3447C57.6859 44.4307 57.432 44.6025 57.2133 44.8604C57.0375 45.0674 56.9223 45.2822 56.8676 45.5049C56.8168 45.7236 56.7914 46.0381 56.7914 46.4482V49.7354H55.7367V43.46ZM63.375 48.0654C63.375 48.3701 63.4863 48.6104 63.709 48.7861C63.9316 48.9619 64.1953 49.0498 64.5 49.0498C64.8711 49.0498 65.2305 48.9639 65.5781 48.792C66.1641 48.5068 66.457 48.04 66.457 47.3916V46.542C66.3281 46.624 66.1621 46.6924 65.959 46.7471C65.7559 46.8018 65.5566 46.8408 65.3613 46.8643L64.7227 46.9463C64.3398 46.9971 64.0527 47.0771 63.8613 47.1865C63.5371 47.3701 63.375 47.6631 63.375 48.0654ZM65.9297 45.9326C66.1719 45.9014 66.334 45.7998 66.416 45.6279C66.4629 45.5342 66.4863 45.3994 66.4863 45.2236C66.4863 44.8643 66.3574 44.6045 66.0996 44.4443C65.8457 44.2803 65.4805 44.1982 65.0039 44.1982C64.4531 44.1982 64.0625 44.3467 63.832 44.6436C63.7031 44.8076 63.6191 45.0518 63.5801 45.376H62.5957C62.6152 44.6025 62.8652 44.0654 63.3457 43.7646C63.8301 43.46 64.3906 43.3076 65.0273 43.3076C65.7656 43.3076 66.3652 43.4482 66.8262 43.7295C67.2832 44.0107 67.5117 44.4482 67.5117 45.042V48.6572C67.5117 48.7666 67.5332 48.8545 67.5762 48.9209C67.623 48.9873 67.7188 49.0205 67.8633 49.0205C67.9102 49.0205 67.9629 49.0186 68.0215 49.0146C68.0801 49.0068 68.1426 48.9971 68.209 48.9854V49.7646C68.0449 49.8115 67.9199 49.8408 67.834 49.8525C67.748 49.8643 67.6309 49.8701 67.4824 49.8701C67.1191 49.8701 66.8555 49.7412 66.6914 49.4834C66.6055 49.3467 66.5449 49.1533 66.5098 48.9033C66.2949 49.1846 65.9863 49.4287 65.584 49.6357C65.1816 49.8428 64.7383 49.9463 64.2539 49.9463C63.6719 49.9463 63.1953 49.7705 62.8242 49.4189C62.457 49.0635 62.2734 48.6201 62.2734 48.0889C62.2734 47.5068 62.4551 47.0557 62.8184 46.7354C63.1816 46.415 63.6582 46.2178 64.248 46.1436L65.9297 45.9326ZM69.3961 43.46H70.398V44.3506C70.6949 43.9834 71.0094 43.7197 71.3414 43.5596C71.6734 43.3994 72.0426 43.3193 72.4488 43.3193C73.3395 43.3193 73.941 43.6299 74.2535 44.251C74.4254 44.5908 74.5113 45.0771 74.5113 45.71V49.7354H73.4391V45.7803C73.4391 45.3975 73.3824 45.0889 73.2691 44.8545C73.0816 44.4639 72.7418 44.2686 72.2496 44.2686C71.9996 44.2686 71.7945 44.2939 71.6344 44.3447C71.3453 44.4307 71.0914 44.6025 70.8727 44.8604C70.6969 45.0674 70.5816 45.2822 70.527 45.5049C70.4762 45.7236 70.4508 46.0381 70.4508 46.4482V49.7354H69.3961V43.46Z" fill="#9E9E9E"/>
</svg>
