<svg width="103" height="62" viewBox="0 0 103 62" fill="none" xmlns="http://www.w3.org/2000/svg">
<rect width="103" height="62" fill="white"/>
<path d="M60.7122 27.0009C60.854 24.7412 60.9286 22.3995 60.9286 20.0001C60.9286 19.0283 60.9164 18.066 60.8924 17.1147C60.8756 16.4465 60.6587 15.7971 60.2632 15.2582C58.7555 13.2043 57.5545 11.9274 55.575 10.3997C55.0311 9.97985 54.3635 9.75207 53.6766 9.73705C52.9877 9.722 52.2684 9.71436 51.5 9.71436C49.1738 9.71436 47.2973 9.78442 45.3555 9.91793C43.7035 10.0315 42.3915 11.3466 42.2878 12.9992C42.146 15.2589 42.0714 17.6006 42.0714 20.0001C42.0714 22.3995 42.146 24.7412 42.2878 27.0009C42.3915 28.6536 43.7035 29.9686 45.3555 30.0821C47.2973 30.2157 49.1738 30.2858 51.5 30.2858C53.8262 30.2858 55.7026 30.2157 57.6445 30.0821C59.2964 29.9686 60.6085 28.6536 60.7122 27.0009Z" fill="#A0BBC5" stroke="#41778A" stroke-width="1.71429"/>
<path d="M48.2322 20.0269H54.7679" stroke="#41778A" stroke-width="1.71429" stroke-linecap="round"/>
<path d="M48.2322 14.8569H52.1761M48.2322 25.0087H54.7476H48.2322Z" stroke="#41778A" stroke-width="1.71429" stroke-linecap="round" stroke-linejoin="round"/>
<path d="M28.0254 40.3926H31.8984C32.6641 40.3926 33.2812 40.6094 33.75 41.043C34.2188 41.4727 34.4531 42.0781 34.4531 42.8594C34.4531 43.5312 34.2441 44.1172 33.8262 44.6172C33.4082 45.1133 32.7656 45.3613 31.8984 45.3613H29.1914V49H28.0254V40.3926ZM33.2754 42.8652C33.2754 42.2324 33.041 41.8027 32.5723 41.5762C32.3145 41.4551 31.9609 41.3945 31.5117 41.3945H29.1914V44.377H31.5117C32.0352 44.377 32.459 44.2656 32.7832 44.043C33.1113 43.8203 33.2754 43.4277 33.2754 42.8652ZM38.5406 42.584C38.9859 42.584 39.4176 42.6895 39.8355 42.9004C40.2535 43.1074 40.5719 43.377 40.7906 43.709C41.0016 44.0254 41.1422 44.3945 41.2125 44.8164C41.275 45.1055 41.3062 45.5664 41.3062 46.1992H36.7066C36.7262 46.8359 36.8766 47.3477 37.1578 47.7344C37.4391 48.1172 37.8746 48.3086 38.4645 48.3086C39.0152 48.3086 39.4547 48.127 39.7828 47.7637C39.9703 47.5527 40.1031 47.3086 40.1812 47.0312H41.2184C41.191 47.2617 41.0992 47.5195 40.943 47.8047C40.7906 48.0859 40.6187 48.3164 40.4273 48.4961C40.107 48.8086 39.7105 49.0195 39.2379 49.1289C38.984 49.1914 38.6969 49.2227 38.3766 49.2227C37.5953 49.2227 36.9332 48.9395 36.3902 48.373C35.8473 47.8027 35.5758 47.0059 35.5758 45.9824C35.5758 44.9746 35.8492 44.1562 36.3961 43.5273C36.943 42.8984 37.6578 42.584 38.5406 42.584ZM40.2223 45.3613C40.1793 44.9043 40.0797 44.5391 39.9234 44.2656C39.6344 43.7578 39.152 43.5039 38.4762 43.5039C37.9918 43.5039 37.5855 43.6797 37.2574 44.0312C36.9293 44.3789 36.7555 44.8223 36.7359 45.3613H40.2223ZM43.384 47.0312C43.4152 47.3828 43.5031 47.6523 43.6477 47.8398C43.9133 48.1797 44.3742 48.3496 45.0305 48.3496C45.4211 48.3496 45.7648 48.2656 46.0617 48.0977C46.3586 47.9258 46.507 47.6621 46.507 47.3066C46.507 47.0371 46.3879 46.832 46.1496 46.6914C45.9973 46.6055 45.6965 46.5059 45.2473 46.3926L44.4094 46.1816C43.8742 46.0488 43.4797 45.9004 43.2258 45.7363C42.7727 45.4512 42.5461 45.0566 42.5461 44.5527C42.5461 43.959 42.759 43.4785 43.1848 43.1113C43.6145 42.7441 44.1906 42.5605 44.9133 42.5605C45.8586 42.5605 46.5402 42.8379 46.9582 43.3926C47.2199 43.7441 47.3469 44.123 47.3391 44.5293H46.343C46.3234 44.291 46.2395 44.0742 46.091 43.8789C45.8488 43.6016 45.4289 43.4629 44.8313 43.4629C44.4328 43.4629 44.1301 43.5391 43.923 43.6914C43.7199 43.8438 43.6184 44.0449 43.6184 44.2949C43.6184 44.5684 43.7531 44.7871 44.0227 44.9512C44.1789 45.0488 44.4094 45.1348 44.7141 45.209L45.4113 45.3789C46.1691 45.5625 46.677 45.7402 46.9348 45.9121C47.3449 46.1816 47.55 46.6055 47.55 47.1836C47.55 47.7422 47.3371 48.2246 46.9113 48.6309C46.4895 49.0371 45.8449 49.2402 44.9777 49.2402C44.0441 49.2402 43.382 49.0293 42.9914 48.6074C42.6047 48.1816 42.3977 47.6562 42.3703 47.0312H43.384ZM49.7156 47.3301C49.7156 47.6348 49.827 47.875 50.0496 48.0508C50.2723 48.2266 50.5359 48.3145 50.8406 48.3145C51.2117 48.3145 51.5711 48.2285 51.9188 48.0566C52.5047 47.7715 52.7977 47.3047 52.7977 46.6562V45.8066C52.6688 45.8887 52.5027 45.957 52.2996 46.0117C52.0965 46.0664 51.8973 46.1055 51.702 46.1289L51.0633 46.2109C50.6805 46.2617 50.3934 46.3418 50.202 46.4512C49.8777 46.6348 49.7156 46.9277 49.7156 47.3301ZM52.2703 45.1973C52.5125 45.166 52.6746 45.0645 52.7566 44.8926C52.8035 44.7988 52.827 44.6641 52.827 44.4883C52.827 44.1289 52.698 43.8691 52.4402 43.709C52.1863 43.5449 51.8211 43.4629 51.3445 43.4629C50.7938 43.4629 50.4031 43.6113 50.1727 43.9082C50.0438 44.0723 49.9598 44.3164 49.9207 44.6406H48.9363C48.9559 43.8672 49.2059 43.3301 49.6863 43.0293C50.1707 42.7246 50.7313 42.5723 51.368 42.5723C52.1063 42.5723 52.7059 42.7129 53.1668 42.9941C53.6238 43.2754 53.8523 43.7129 53.8523 44.3066V47.9219C53.8523 48.0312 53.8738 48.1191 53.9168 48.1855C53.9637 48.252 54.0594 48.2852 54.2039 48.2852C54.2508 48.2852 54.3035 48.2832 54.3621 48.2793C54.4207 48.2715 54.4832 48.2617 54.5496 48.25V49.0293C54.3855 49.0762 54.2605 49.1055 54.1746 49.1172C54.0887 49.1289 53.9715 49.1348 53.823 49.1348C53.4598 49.1348 53.1961 49.0059 53.032 48.748C52.9461 48.6113 52.8855 48.418 52.8504 48.168C52.6355 48.4492 52.327 48.6934 51.9246 48.9004C51.5223 49.1074 51.0789 49.2109 50.5945 49.2109C50.0125 49.2109 49.5359 49.0352 49.1648 48.6836C48.7977 48.3281 48.6141 47.8848 48.6141 47.3535C48.6141 46.7715 48.7957 46.3203 49.159 46C49.5223 45.6797 49.9988 45.4824 50.5887 45.4082L52.2703 45.1973ZM55.7367 42.7246H56.7387V43.6152C57.0355 43.248 57.35 42.9844 57.682 42.8242C58.0141 42.6641 58.3832 42.584 58.7895 42.584C59.6801 42.584 60.2816 42.8945 60.5941 43.5156C60.766 43.8555 60.852 44.3418 60.852 44.9746V49H59.7797V45.0449C59.7797 44.6621 59.723 44.3535 59.6098 44.1191C59.4223 43.7285 59.0824 43.5332 58.5902 43.5332C58.3402 43.5332 58.1352 43.5586 57.975 43.6094C57.6859 43.6953 57.432 43.8672 57.2133 44.125C57.0375 44.332 56.9223 44.5469 56.8676 44.7695C56.8168 44.9883 56.7914 45.3027 56.7914 45.7129V49H55.7367V42.7246ZM63.375 47.3301C63.375 47.6348 63.4863 47.875 63.709 48.0508C63.9316 48.2266 64.1953 48.3145 64.5 48.3145C64.8711 48.3145 65.2305 48.2285 65.5781 48.0566C66.1641 47.7715 66.457 47.3047 66.457 46.6562V45.8066C66.3281 45.8887 66.1621 45.957 65.959 46.0117C65.7559 46.0664 65.5566 46.1055 65.3613 46.1289L64.7227 46.2109C64.3398 46.2617 64.0527 46.3418 63.8613 46.4512C63.5371 46.6348 63.375 46.9277 63.375 47.3301ZM65.9297 45.1973C66.1719 45.166 66.334 45.0645 66.416 44.8926C66.4629 44.7988 66.4863 44.6641 66.4863 44.4883C66.4863 44.1289 66.3574 43.8691 66.0996 43.709C65.8457 43.5449 65.4805 43.4629 65.0039 43.4629C64.4531 43.4629 64.0625 43.6113 63.832 43.9082C63.7031 44.0723 63.6191 44.3164 63.5801 44.6406H62.5957C62.6152 43.8672 62.8652 43.3301 63.3457 43.0293C63.8301 42.7246 64.3906 42.5723 65.0273 42.5723C65.7656 42.5723 66.3652 42.7129 66.8262 42.9941C67.2832 43.2754 67.5117 43.7129 67.5117 44.3066V47.9219C67.5117 48.0312 67.5332 48.1191 67.5762 48.1855C67.623 48.252 67.7188 48.2852 67.8633 48.2852C67.9102 48.2852 67.9629 48.2832 68.0215 48.2793C68.0801 48.2715 68.1426 48.2617 68.209 48.25V49.0293C68.0449 49.0762 67.9199 49.1055 67.834 49.1172C67.748 49.1289 67.6309 49.1348 67.4824 49.1348C67.1191 49.1348 66.8555 49.0059 66.6914 48.748C66.6055 48.6113 66.5449 48.418 66.5098 48.168C66.2949 48.4492 65.9863 48.6934 65.584 48.9004C65.1816 49.1074 64.7383 49.2109 64.2539 49.2109C63.6719 49.2109 63.1953 49.0352 62.8242 48.6836C62.457 48.3281 62.2734 47.8848 62.2734 47.3535C62.2734 46.7715 62.4551 46.3203 62.8184 46C63.1816 45.6797 63.6582 45.4824 64.248 45.4082L65.9297 45.1973ZM69.3961 42.7246H70.398V43.6152C70.6949 43.248 71.0094 42.9844 71.3414 42.8242C71.6734 42.6641 72.0426 42.584 72.4488 42.584C73.3395 42.584 73.941 42.8945 74.2535 43.5156C74.4254 43.8555 74.5113 44.3418 74.5113 44.9746V49H73.4391V45.0449C73.4391 44.6621 73.3824 44.3535 73.2691 44.1191C73.0816 43.7285 72.7418 43.5332 72.2496 43.5332C71.9996 43.5332 71.7945 43.5586 71.6344 43.6094C71.3453 43.6953 71.0914 43.8672 70.8727 44.125C70.6969 44.332 70.5816 44.5469 70.527 44.7695C70.4762 44.9883 70.4508 45.3027 70.4508 45.7129V49H69.3961V42.7246Z" fill="#41778A"/>
</svg>
