<svg width="103" height="63" viewBox="0 0 103 63" fill="none" xmlns="http://www.w3.org/2000/svg">
<rect width="103" height="62" transform="translate(0 0.735352)" fill="white"/>
<path d="M60.7121 27.7361C60.8539 25.4764 60.9284 23.1348 60.9284 20.7353C60.9284 19.7635 60.9163 18.8012 60.8923 17.85C60.8755 17.1817 60.6586 16.5323 60.2631 15.9934C58.7554 13.9395 57.5544 12.6626 55.5749 11.1349C55.0309 10.7151 54.3634 10.4873 53.6765 10.4723C52.9876 10.4572 52.2683 10.4496 51.4999 10.4496C49.1737 10.4496 47.2972 10.5196 45.3553 10.6532C43.7034 10.7667 42.3914 12.0818 42.2877 13.7344C42.1458 15.9942 42.0713 18.3358 42.0713 20.7353C42.0713 23.1348 42.1458 25.4764 42.2877 27.7361C42.3914 29.3888 43.7034 30.7039 45.3553 30.8174C47.2972 30.9509 49.1737 31.021 51.4999 31.021C53.8261 31.021 55.7025 30.9509 57.6444 30.8174C59.2963 30.7039 60.6084 29.3888 60.7121 27.7361Z" fill="white" stroke="#41778A" stroke-width="1.71429"/>
<path d="M46.3569 10.5898V20.3803C46.3569 21.1439 47.2802 21.5263 47.8202 20.9864L49.7855 19.021L51.7508 20.9864C52.2908 21.5263 53.2141 21.1439 53.2141 20.3803V10.4634C52.6666 10.4542 52.098 10.4496 51.4998 10.4496C49.5748 10.4496 47.9579 10.4976 46.3569 10.5898Z" fill="white" stroke="#41778A" stroke-width="1.71429" stroke-linejoin="round"/>
<path d="M30.1777 41.1279V42.1533H27.2773V49.7354H26.0938V42.1533H23.1934V41.1279H30.1777ZM32.5367 43.3193C32.982 43.3193 33.4137 43.4248 33.8316 43.6357C34.2496 43.8428 34.568 44.1123 34.7867 44.4443C34.9977 44.7607 35.1383 45.1299 35.2086 45.5518C35.2711 45.8408 35.3023 46.3018 35.3023 46.9346H30.7027C30.7223 47.5713 30.8727 48.083 31.1539 48.4697C31.4352 48.8525 31.8707 49.0439 32.4605 49.0439C33.0113 49.0439 33.4508 48.8623 33.7789 48.499C33.9664 48.2881 34.0992 48.0439 34.1773 47.7666H35.2145C35.1871 47.9971 35.0953 48.2549 34.9391 48.54C34.7867 48.8213 34.6148 49.0518 34.4234 49.2314C34.1031 49.5439 33.7066 49.7549 33.234 49.8643C32.9801 49.9268 32.693 49.958 32.3727 49.958C31.5914 49.958 30.9293 49.6748 30.3863 49.1084C29.8434 48.5381 29.5719 47.7412 29.5719 46.7178C29.5719 45.71 29.8453 44.8916 30.3922 44.2627C30.9391 43.6338 31.6539 43.3193 32.5367 43.3193ZM34.2184 46.0967C34.1754 45.6396 34.0758 45.2744 33.9195 45.001C33.6305 44.4932 33.148 44.2393 32.4723 44.2393C31.9879 44.2393 31.5816 44.415 31.2535 44.7666C30.9254 45.1143 30.7516 45.5576 30.732 46.0967H34.2184ZM36.7824 43.46H37.7844V44.5439C37.8664 44.333 38.0676 44.0771 38.3879 43.7764C38.7082 43.4717 39.0773 43.3193 39.4953 43.3193C39.5148 43.3193 39.548 43.3213 39.5949 43.3252C39.6418 43.3291 39.7219 43.3369 39.8352 43.3486V44.4619C39.7727 44.4502 39.7141 44.4424 39.6594 44.4385C39.6086 44.4346 39.552 44.4326 39.4895 44.4326C38.9582 44.4326 38.55 44.6045 38.2648 44.9482C37.9797 45.2881 37.8371 45.6807 37.8371 46.126V49.7354H36.7824V43.46ZM41.5262 47.7666C41.5574 48.1182 41.6453 48.3877 41.7898 48.5752C42.0555 48.915 42.5164 49.085 43.1727 49.085C43.5633 49.085 43.907 49.001 44.2039 48.833C44.5008 48.6611 44.6492 48.3975 44.6492 48.042C44.6492 47.7725 44.5301 47.5674 44.2918 47.4268C44.1395 47.3408 43.8387 47.2412 43.3895 47.1279L42.5516 46.917C42.0164 46.7842 41.6219 46.6357 41.368 46.4717C40.9148 46.1865 40.6883 45.792 40.6883 45.2881C40.6883 44.6943 40.9012 44.2139 41.327 43.8467C41.7566 43.4795 42.3328 43.2959 43.0555 43.2959C44.0008 43.2959 44.6824 43.5732 45.1004 44.1279C45.3621 44.4795 45.4891 44.8584 45.4813 45.2646H44.4852C44.4656 45.0264 44.3816 44.8096 44.2332 44.6143C43.991 44.3369 43.5711 44.1982 42.9734 44.1982C42.575 44.1982 42.2723 44.2744 42.0652 44.4268C41.8621 44.5791 41.7605 44.7803 41.7605 45.0303C41.7605 45.3037 41.8953 45.5225 42.1648 45.6865C42.3211 45.7842 42.5516 45.8701 42.8563 45.9443L43.5535 46.1143C44.3113 46.2979 44.8191 46.4756 45.077 46.6475C45.4871 46.917 45.6922 47.3408 45.6922 47.9189C45.6922 48.4775 45.4793 48.96 45.0535 49.3662C44.6316 49.7725 43.9871 49.9756 43.1199 49.9756C42.1863 49.9756 41.5242 49.7646 41.1336 49.3428C40.7469 48.917 40.5398 48.3916 40.5125 47.7666H41.5262ZM47.0492 43.4893H48.1215V49.7354H47.0492V43.4893ZM47.0492 41.1279H48.1215V42.3232H47.0492V41.1279ZM49.8711 43.46H50.9141V44.3506C51.1641 44.042 51.3906 43.8174 51.5938 43.6768C51.9414 43.4385 52.3359 43.3193 52.7773 43.3193C53.2773 43.3193 53.6797 43.4424 53.9844 43.6885C54.1562 43.8291 54.3125 44.0361 54.4531 44.3096C54.6875 43.9736 54.9629 43.7256 55.2793 43.5654C55.5957 43.4014 55.9512 43.3193 56.3457 43.3193C57.1895 43.3193 57.7637 43.624 58.0684 44.2334C58.2324 44.5615 58.3145 45.0029 58.3145 45.5576V49.7354H57.2188V45.376C57.2188 44.958 57.1133 44.6709 56.9023 44.5146C56.6953 44.3584 56.4414 44.2803 56.1406 44.2803C55.7266 44.2803 55.3691 44.4189 55.0684 44.6963C54.7715 44.9736 54.623 45.4365 54.623 46.085V49.7354H53.5508V45.6396C53.5508 45.2139 53.5 44.9033 53.3984 44.708C53.2383 44.415 52.9395 44.2686 52.502 44.2686C52.1035 44.2686 51.7402 44.4229 51.4121 44.7314C51.0879 45.04 50.9258 45.5986 50.9258 46.4072V49.7354H49.8711V43.46ZM62.6656 49.0264C63.1578 49.0264 63.566 48.8213 63.8902 48.4111C64.2184 47.9971 64.3824 47.3799 64.3824 46.5596C64.3824 46.0596 64.3102 45.6299 64.1656 45.2705C63.8922 44.5791 63.3922 44.2334 62.6656 44.2334C61.9352 44.2334 61.4352 44.5986 61.1656 45.3291C61.0211 45.7197 60.9488 46.2158 60.9488 46.8174C60.9488 47.3018 61.0211 47.7139 61.1656 48.0537C61.4391 48.7021 61.9391 49.0264 62.6656 49.0264ZM59.9352 43.4893H60.9605V44.3213C61.1715 44.0361 61.402 43.8154 61.652 43.6592C62.0074 43.4248 62.4254 43.3076 62.9059 43.3076C63.6168 43.3076 64.2203 43.5811 64.7164 44.1279C65.2125 44.6709 65.4605 45.4482 65.4605 46.46C65.4605 47.8271 65.1031 48.8037 64.3883 49.3896C63.9352 49.7607 63.4078 49.9463 62.8063 49.9463C62.3336 49.9463 61.9371 49.8428 61.6168 49.6357C61.4293 49.5186 61.2203 49.3174 60.9898 49.0322V52.2373H59.9352V43.4893ZM67.6555 48.0654C67.6555 48.3701 67.7668 48.6104 67.9895 48.7861C68.2121 48.9619 68.4758 49.0498 68.7805 49.0498C69.1516 49.0498 69.5109 48.9639 69.8586 48.792C70.4445 48.5068 70.7375 48.04 70.7375 47.3916V46.542C70.6086 46.624 70.4426 46.6924 70.2395 46.7471C70.0363 46.8018 69.8371 46.8408 69.6418 46.8643L69.0031 46.9463C68.6203 46.9971 68.3332 47.0771 68.1418 47.1865C67.8176 47.3701 67.6555 47.6631 67.6555 48.0654ZM70.2102 45.9326C70.4523 45.9014 70.6145 45.7998 70.6965 45.6279C70.7434 45.5342 70.7668 45.3994 70.7668 45.2236C70.7668 44.8643 70.6379 44.6045 70.3801 44.4443C70.1262 44.2803 69.7609 44.1982 69.2844 44.1982C68.7336 44.1982 68.343 44.3467 68.1125 44.6436C67.9836 44.8076 67.8996 45.0518 67.8605 45.376H66.8762C66.8957 44.6025 67.1457 44.0654 67.6262 43.7646C68.1105 43.46 68.6711 43.3076 69.3078 43.3076C70.0461 43.3076 70.6457 43.4482 71.1066 43.7295C71.5637 44.0107 71.7922 44.4482 71.7922 45.042V48.6572C71.7922 48.7666 71.8137 48.8545 71.8566 48.9209C71.9035 48.9873 71.9992 49.0205 72.1437 49.0205C72.1906 49.0205 72.2434 49.0186 72.302 49.0146C72.3605 49.0068 72.423 48.9971 72.4895 48.9854V49.7646C72.3254 49.8115 72.2004 49.8408 72.1145 49.8525C72.0285 49.8643 71.9113 49.8701 71.7629 49.8701C71.3996 49.8701 71.1359 49.7412 70.9719 49.4834C70.8859 49.3467 70.8254 49.1533 70.7902 48.9033C70.5754 49.1846 70.2668 49.4287 69.8645 49.6357C69.4621 49.8428 69.0187 49.9463 68.5344 49.9463C67.9523 49.9463 67.4758 49.7705 67.1047 49.4189C66.7375 49.0635 66.5539 48.6201 66.5539 48.0889C66.5539 47.5068 66.7355 47.0557 67.0988 46.7354C67.4621 46.415 67.9387 46.2178 68.5285 46.1436L70.2102 45.9326ZM73.6766 43.46H74.6785V44.3506C74.9754 43.9834 75.2898 43.7197 75.6219 43.5596C75.9539 43.3994 76.323 43.3193 76.7293 43.3193C77.6199 43.3193 78.2215 43.6299 78.534 44.251C78.7059 44.5908 78.7918 45.0771 78.7918 45.71V49.7354H77.7195V45.7803C77.7195 45.3975 77.6629 45.0889 77.5496 44.8545C77.3621 44.4639 77.0223 44.2686 76.5301 44.2686C76.2801 44.2686 76.075 44.2939 75.9148 44.3447C75.6258 44.4307 75.3719 44.6025 75.1531 44.8604C74.9773 45.0674 74.8621 45.2822 74.8074 45.5049C74.7566 45.7236 74.7313 46.0381 74.7313 46.4482V49.7354H73.6766V43.46Z" fill="#9E9E9E"/>
</svg>