<svg width="103" height="62" viewBox="0 0 103 62" fill="none" xmlns="http://www.w3.org/2000/svg">
<rect width="103" height="62" fill="white"/>
<path d="M60.7122 27.0009C60.854 24.7412 60.9286 22.3995 60.9286 20.0001C60.9286 19.0283 60.9164 18.066 60.8924 17.1147C60.8756 16.4465 60.6587 15.7971 60.2632 15.2582C58.7555 13.2043 57.5545 11.9274 55.575 10.3997C55.0311 9.97985 54.3635 9.75207 53.6766 9.73705C52.9877 9.722 52.2684 9.71436 51.5 9.71436C49.1738 9.71436 47.2973 9.78442 45.3555 9.91793C43.7035 10.0315 42.3915 11.3466 42.2878 12.9992C42.146 15.2589 42.0714 17.6006 42.0714 20.0001C42.0714 22.3995 42.146 24.7412 42.2878 27.0009C42.3915 28.6536 43.7035 29.9686 45.3555 30.0821C47.2973 30.2157 49.1738 30.2858 51.5 30.2858C53.8262 30.2858 55.7026 30.2157 57.6445 30.0821C59.2964 29.9686 60.6085 28.6536 60.7122 27.0009Z" fill="#A0BBC5" stroke="#41778A" stroke-width="1.71429"/>
<path d="M46.3572 9.85455V19.645C46.3572 20.4087 47.2804 20.7911 47.8204 20.2511L49.7857 18.2858L51.7511 20.2511C52.2911 20.7911 53.2143 20.4087 53.2143 19.645V9.72814C52.6668 9.71898 52.0983 9.71436 51.5 9.71436C49.5751 9.71436 47.9581 9.76234 46.3572 9.85455Z" fill="white" stroke="#41778A" stroke-width="1.71429" stroke-linejoin="round"/>
<path d="M30.1777 40.3926V41.418H27.2773V49H26.0938V41.418H23.1934V40.3926H30.1777ZM32.5367 42.584C32.982 42.584 33.4137 42.6895 33.8316 42.9004C34.2496 43.1074 34.568 43.377 34.7867 43.709C34.9977 44.0254 35.1383 44.3945 35.2086 44.8164C35.2711 45.1055 35.3023 45.5664 35.3023 46.1992H30.7027C30.7223 46.8359 30.8727 47.3477 31.1539 47.7344C31.4352 48.1172 31.8707 48.3086 32.4605 48.3086C33.0113 48.3086 33.4508 48.127 33.7789 47.7637C33.9664 47.5527 34.0992 47.3086 34.1773 47.0312H35.2145C35.1871 47.2617 35.0953 47.5195 34.9391 47.8047C34.7867 48.0859 34.6148 48.3164 34.4234 48.4961C34.1031 48.8086 33.7066 49.0195 33.234 49.1289C32.9801 49.1914 32.693 49.2227 32.3727 49.2227C31.5914 49.2227 30.9293 48.9395 30.3863 48.373C29.8434 47.8027 29.5719 47.0059 29.5719 45.9824C29.5719 44.9746 29.8453 44.1562 30.3922 43.5273C30.9391 42.8984 31.6539 42.584 32.5367 42.584ZM34.2184 45.3613C34.1754 44.9043 34.0758 44.5391 33.9195 44.2656C33.6305 43.7578 33.148 43.5039 32.4723 43.5039C31.9879 43.5039 31.5816 43.6797 31.2535 44.0312C30.9254 44.3789 30.7516 44.8223 30.732 45.3613H34.2184ZM36.7824 42.7246H37.7844V43.8086C37.8664 43.5977 38.0676 43.3418 38.3879 43.041C38.7082 42.7363 39.0773 42.584 39.4953 42.584C39.5148 42.584 39.548 42.5859 39.5949 42.5898C39.6418 42.5938 39.7219 42.6016 39.8352 42.6133V43.7266C39.7727 43.7148 39.7141 43.707 39.6594 43.7031C39.6086 43.6992 39.552 43.6973 39.4895 43.6973C38.9582 43.6973 38.55 43.8691 38.2648 44.2129C37.9797 44.5527 37.8371 44.9453 37.8371 45.3906V49H36.7824V42.7246ZM41.5262 47.0312C41.5574 47.3828 41.6453 47.6523 41.7898 47.8398C42.0555 48.1797 42.5164 48.3496 43.1727 48.3496C43.5633 48.3496 43.907 48.2656 44.2039 48.0977C44.5008 47.9258 44.6492 47.6621 44.6492 47.3066C44.6492 47.0371 44.5301 46.832 44.2918 46.6914C44.1395 46.6055 43.8387 46.5059 43.3895 46.3926L42.5516 46.1816C42.0164 46.0488 41.6219 45.9004 41.368 45.7363C40.9148 45.4512 40.6883 45.0566 40.6883 44.5527C40.6883 43.959 40.9012 43.4785 41.327 43.1113C41.7566 42.7441 42.3328 42.5605 43.0555 42.5605C44.0008 42.5605 44.6824 42.8379 45.1004 43.3926C45.3621 43.7441 45.4891 44.123 45.4813 44.5293H44.4852C44.4656 44.291 44.3816 44.0742 44.2332 43.8789C43.991 43.6016 43.5711 43.4629 42.9734 43.4629C42.575 43.4629 42.2723 43.5391 42.0652 43.6914C41.8621 43.8438 41.7605 44.0449 41.7605 44.2949C41.7605 44.5684 41.8953 44.7871 42.1648 44.9512C42.3211 45.0488 42.5516 45.1348 42.8563 45.209L43.5535 45.3789C44.3113 45.5625 44.8191 45.7402 45.077 45.9121C45.4871 46.1816 45.6922 46.6055 45.6922 47.1836C45.6922 47.7422 45.4793 48.2246 45.0535 48.6309C44.6316 49.0371 43.9871 49.2402 43.1199 49.2402C42.1863 49.2402 41.5242 49.0293 41.1336 48.6074C40.7469 48.1816 40.5398 47.6562 40.5125 47.0312H41.5262ZM47.0492 42.7539H48.1215V49H47.0492V42.7539ZM47.0492 40.3926H48.1215V41.5879H47.0492V40.3926ZM49.8711 42.7246H50.9141V43.6152C51.1641 43.3066 51.3906 43.082 51.5938 42.9414C51.9414 42.7031 52.3359 42.584 52.7773 42.584C53.2773 42.584 53.6797 42.707 53.9844 42.9531C54.1562 43.0938 54.3125 43.3008 54.4531 43.5742C54.6875 43.2383 54.9629 42.9902 55.2793 42.8301C55.5957 42.666 55.9512 42.584 56.3457 42.584C57.1895 42.584 57.7637 42.8887 58.0684 43.498C58.2324 43.8262 58.3145 44.2676 58.3145 44.8223V49H57.2188V44.6406C57.2188 44.2227 57.1133 43.9355 56.9023 43.7793C56.6953 43.623 56.4414 43.5449 56.1406 43.5449C55.7266 43.5449 55.3691 43.6836 55.0684 43.9609C54.7715 44.2383 54.623 44.7012 54.623 45.3496V49H53.5508V44.9043C53.5508 44.4785 53.5 44.168 53.3984 43.9727C53.2383 43.6797 52.9395 43.5332 52.502 43.5332C52.1035 43.5332 51.7402 43.6875 51.4121 43.9961C51.0879 44.3047 50.9258 44.8633 50.9258 45.6719V49H49.8711V42.7246ZM62.6656 48.291C63.1578 48.291 63.566 48.0859 63.8902 47.6758C64.2184 47.2617 64.3824 46.6445 64.3824 45.8242C64.3824 45.3242 64.3102 44.8945 64.1656 44.5352C63.8922 43.8438 63.3922 43.498 62.6656 43.498C61.9352 43.498 61.4352 43.8633 61.1656 44.5938C61.0211 44.9844 60.9488 45.4805 60.9488 46.082C60.9488 46.5664 61.0211 46.9785 61.1656 47.3184C61.4391 47.9668 61.9391 48.291 62.6656 48.291ZM59.9352 42.7539H60.9605V43.5859C61.1715 43.3008 61.402 43.0801 61.652 42.9238C62.0074 42.6895 62.4254 42.5723 62.9059 42.5723C63.6168 42.5723 64.2203 42.8457 64.7164 43.3926C65.2125 43.9355 65.4605 44.7129 65.4605 45.7246C65.4605 47.0918 65.1031 48.0684 64.3883 48.6543C63.9352 49.0254 63.4078 49.2109 62.8063 49.2109C62.3336 49.2109 61.9371 49.1074 61.6168 48.9004C61.4293 48.7832 61.2203 48.582 60.9898 48.2969V51.502H59.9352V42.7539ZM67.6555 47.3301C67.6555 47.6348 67.7668 47.875 67.9895 48.0508C68.2121 48.2266 68.4758 48.3145 68.7805 48.3145C69.1516 48.3145 69.5109 48.2285 69.8586 48.0566C70.4445 47.7715 70.7375 47.3047 70.7375 46.6562V45.8066C70.6086 45.8887 70.4426 45.957 70.2395 46.0117C70.0363 46.0664 69.8371 46.1055 69.6418 46.1289L69.0031 46.2109C68.6203 46.2617 68.3332 46.3418 68.1418 46.4512C67.8176 46.6348 67.6555 46.9277 67.6555 47.3301ZM70.2102 45.1973C70.4523 45.166 70.6145 45.0645 70.6965 44.8926C70.7434 44.7988 70.7668 44.6641 70.7668 44.4883C70.7668 44.1289 70.6379 43.8691 70.3801 43.709C70.1262 43.5449 69.7609 43.4629 69.2844 43.4629C68.7336 43.4629 68.343 43.6113 68.1125 43.9082C67.9836 44.0723 67.8996 44.3164 67.8605 44.6406H66.8762C66.8957 43.8672 67.1457 43.3301 67.6262 43.0293C68.1105 42.7246 68.6711 42.5723 69.3078 42.5723C70.0461 42.5723 70.6457 42.7129 71.1066 42.9941C71.5637 43.2754 71.7922 43.7129 71.7922 44.3066V47.9219C71.7922 48.0312 71.8137 48.1191 71.8566 48.1855C71.9035 48.252 71.9992 48.2852 72.1437 48.2852C72.1906 48.2852 72.2434 48.2832 72.302 48.2793C72.3605 48.2715 72.423 48.2617 72.4895 48.25V49.0293C72.3254 49.0762 72.2004 49.1055 72.1145 49.1172C72.0285 49.1289 71.9113 49.1348 71.7629 49.1348C71.3996 49.1348 71.1359 49.0059 70.9719 48.748C70.8859 48.6113 70.8254 48.418 70.7902 48.168C70.5754 48.4492 70.2668 48.6934 69.8645 48.9004C69.4621 49.1074 69.0187 49.2109 68.5344 49.2109C67.9523 49.2109 67.4758 49.0352 67.1047 48.6836C66.7375 48.3281 66.5539 47.8848 66.5539 47.3535C66.5539 46.7715 66.7355 46.3203 67.0988 46C67.4621 45.6797 67.9387 45.4824 68.5285 45.4082L70.2102 45.1973ZM73.6766 42.7246H74.6785V43.6152C74.9754 43.248 75.2898 42.9844 75.6219 42.8242C75.9539 42.6641 76.323 42.584 76.7293 42.584C77.6199 42.584 78.2215 42.8945 78.534 43.5156C78.7059 43.8555 78.7918 44.3418 78.7918 44.9746V49H77.7195V45.0449C77.7195 44.6621 77.6629 44.3535 77.5496 44.1191C77.3621 43.7285 77.0223 43.5332 76.5301 43.5332C76.2801 43.5332 76.075 43.5586 75.9148 43.6094C75.6258 43.6953 75.3719 43.8672 75.1531 44.125C74.9773 44.332 74.8621 44.5469 74.8074 44.7695C74.7566 44.9883 74.7313 45.3027 74.7313 45.7129V49H73.6766V42.7246Z" fill="#41778A"/>
</svg>
