<svg width="103" height="62" viewBox="0 0 103 62" fill="none" xmlns="http://www.w3.org/2000/svg">
<rect width="103" height="62" fill="white"/>
<path d="M59.1443 12.3546C58.1496 11.3506 56.965 10.5547 55.6595 10.0131C54.3541 9.47157 52.9539 9.19525 51.5406 9.20026C45.6185 9.20026 40.7922 14.0253 40.7867 19.9487C40.7867 21.8459 41.2831 23.6916 42.2201 25.3257L41.1553 29.2286C40.9528 29.9709 41.6294 30.6543 42.3737 30.4592L46.401 29.4035C47.9782 30.2618 49.7451 30.7116 51.5406 30.7121H51.5461C57.4695 30.7121 62.2945 25.8871 62.2999 19.9582C62.3013 18.5452 62.0231 17.1459 61.4812 15.8409C60.9394 14.5359 60.1447 13.3511 59.1429 12.3546H59.1443ZM51.5406 28.8922C49.9391 28.8928 48.3669 28.4618 46.9896 27.6446L46.6641 27.4493L43.282 28.3362L44.1851 25.0368L43.9736 24.6964C43.0783 23.273 42.6048 21.6249 42.608 19.9433C42.608 15.0261 46.618 11.0147 51.5461 11.0147C52.7201 11.0126 53.8829 11.2429 54.9675 11.6924C56.0521 12.1418 57.037 12.8015 57.8655 13.6334C58.6968 14.462 59.3559 15.447 59.8046 16.5317C60.2534 17.6163 60.4829 18.779 60.4801 19.9528C60.4746 24.8876 56.4646 28.8922 51.5406 28.8922ZM56.4429 22.2012C56.1758 22.067 54.8563 21.4174 54.6081 21.3252C54.3613 21.237 54.181 21.1909 54.0047 21.4594C53.8243 21.7266 53.309 22.3355 53.1544 22.5104C52.9998 22.6908 52.8398 22.7111 52.5713 22.5782C52.3041 22.4426 51.4376 22.1605 50.4124 21.2424C49.6123 20.5305 49.0766 19.649 48.9166 19.3819C48.762 19.1134 48.9017 18.9696 49.0359 18.8354C49.1539 18.716 49.3031 18.5207 49.4373 18.3662C49.5729 18.2116 49.6177 18.0976 49.7058 17.9186C49.794 17.7369 49.7519 17.5823 49.6855 17.4481C49.6177 17.3138 49.082 15.9889 48.8555 15.4546C48.6386 14.9271 48.4175 15.0003 48.2521 14.9935C48.0975 14.984 47.9171 14.984 47.7368 14.984C47.6006 14.9874 47.4665 15.0189 47.3431 15.0766C47.2196 15.1342 47.1094 15.2167 47.0194 15.319C46.7726 15.5875 46.0823 16.2371 46.0823 17.562C46.0823 18.8869 47.0452 20.1603 47.1808 20.3406C47.3137 20.521 49.0712 23.2318 51.7685 24.3981C52.4058 24.6761 52.9076 24.8402 53.2995 24.9649C53.9436 25.1711 54.5254 25.1399 54.9892 25.0734C55.5045 24.9948 56.5772 24.4225 56.8037 23.7946C57.0261 23.1654 57.0261 22.6284 56.9583 22.5158C56.8918 22.4019 56.7114 22.3355 56.4429 22.2012Z" fill="#41778A"/>
<path d="M29.4434 40.3926H30.6211V43.9492H35.0977V40.3926H36.2754V49H35.0977V44.9746H30.6211V49H29.4434V40.3926ZM39.15 42.7246V46.8906C39.15 47.2109 39.2008 47.4727 39.3023 47.6758C39.4898 48.0508 39.8395 48.2383 40.3512 48.2383C41.0855 48.2383 41.5855 47.9102 41.8512 47.2539C41.9957 46.9023 42.068 46.4199 42.068 45.8066V42.7246H43.1227V49H42.1266L42.1383 48.0742C42.0016 48.3125 41.8316 48.5137 41.6285 48.6777C41.2262 49.0059 40.7379 49.1699 40.1637 49.1699C39.2691 49.1699 38.6598 48.8711 38.3355 48.2734C38.1598 47.9531 38.0719 47.5254 38.0719 46.9902V42.7246H39.15ZM44.843 40.3633H45.8684V43.4863C46.0988 43.1855 46.3742 42.957 46.6945 42.8008C47.0148 42.6406 47.3625 42.5605 47.7375 42.5605C48.5188 42.5605 49.1516 42.8301 49.6359 43.3691C50.1242 43.9043 50.3684 44.6953 50.3684 45.7422C50.3684 46.7344 50.1281 47.5586 49.6477 48.2148C49.1672 48.8711 48.5012 49.1992 47.6496 49.1992C47.173 49.1992 46.7707 49.084 46.4426 48.8535C46.2473 48.7168 46.0383 48.498 45.8156 48.1973V49H44.843V40.3633ZM47.5852 48.2676C48.1555 48.2676 48.5813 48.041 48.8625 47.5879C49.1477 47.1348 49.2902 46.5371 49.2902 45.7949C49.2902 45.1348 49.1477 44.5879 48.8625 44.1543C48.5813 43.7207 48.1652 43.5039 47.6145 43.5039C47.134 43.5039 46.7121 43.6816 46.3488 44.0371C45.9895 44.3926 45.8098 44.9785 45.8098 45.7949C45.8098 46.3848 45.884 46.8633 46.0324 47.2305C46.3098 47.9219 46.8273 48.2676 47.5852 48.2676ZM52.8094 42.7246V46.8906C52.8094 47.2109 52.8602 47.4727 52.9617 47.6758C53.1492 48.0508 53.4988 48.2383 54.0105 48.2383C54.7449 48.2383 55.2449 47.9102 55.5105 47.2539C55.6551 46.9023 55.7273 46.4199 55.7273 45.8066V42.7246H56.782V49H55.7859L55.7977 48.0742C55.6609 48.3125 55.491 48.5137 55.2879 48.6777C54.8855 49.0059 54.3973 49.1699 53.823 49.1699C52.9285 49.1699 52.3191 48.8711 51.9949 48.2734C51.8191 47.9531 51.7313 47.5254 51.7313 46.9902V42.7246H52.8094ZM58.5844 42.7246H59.5863V43.6152C59.8832 43.248 60.1977 42.9844 60.5297 42.8242C60.8617 42.6641 61.2309 42.584 61.6371 42.584C62.5277 42.584 63.1293 42.8945 63.4418 43.5156C63.6137 43.8555 63.6996 44.3418 63.6996 44.9746V49H62.6273V45.0449C62.6273 44.6621 62.5707 44.3535 62.4574 44.1191C62.2699 43.7285 61.9301 43.5332 61.4379 43.5332C61.1879 43.5332 60.9828 43.5586 60.8227 43.6094C60.5336 43.6953 60.2797 43.8672 60.0609 44.125C59.8852 44.332 59.7699 44.5469 59.7152 44.7695C59.6645 44.9883 59.6391 45.3027 59.6391 45.7129V49H58.5844V42.7246ZM67.6289 42.6133C68.1211 42.6133 68.5508 42.7344 68.918 42.9766C69.1172 43.1133 69.3203 43.3125 69.5273 43.5742V42.7832H70.5V48.4902C70.5 49.2871 70.3828 49.916 70.1484 50.377C69.7109 51.2285 68.8848 51.6543 67.6699 51.6543C66.9941 51.6543 66.4258 51.502 65.9648 51.1973C65.5039 50.8965 65.2461 50.4238 65.1914 49.7793H66.2637C66.3145 50.0605 66.416 50.2773 66.5684 50.4297C66.8066 50.6641 67.1816 50.7812 67.6934 50.7812C68.502 50.7812 69.0312 50.4961 69.2812 49.9258C69.4297 49.5898 69.498 48.9902 69.4863 48.127C69.2754 48.4473 69.0215 48.6855 68.7246 48.8418C68.4277 48.998 68.0352 49.0762 67.5469 49.0762C66.8672 49.0762 66.2715 48.8359 65.7598 48.3555C65.252 47.8711 64.998 47.0723 64.998 45.959C64.998 44.9082 65.2539 44.0879 65.7656 43.498C66.2812 42.9082 66.9023 42.6133 67.6289 42.6133ZM69.5273 45.8359C69.5273 45.0586 69.3672 44.4824 69.0469 44.1074C68.7266 43.7324 68.3184 43.5449 67.8223 43.5449C67.0801 43.5449 66.5723 43.8926 66.2988 44.5879C66.1543 44.959 66.082 45.4453 66.082 46.0469C66.082 46.7539 66.2246 47.293 66.5098 47.6641C66.7988 48.0312 67.1855 48.2148 67.6699 48.2148C68.4277 48.2148 68.9609 47.873 69.2695 47.1895C69.4414 46.8027 69.5273 46.3516 69.5273 45.8359ZM72.2438 42.7539H73.316V49H72.2438V42.7539ZM72.2438 40.3926H73.316V41.5879H72.2438V40.3926Z" fill="#9E9E9E"/>
</svg>
