<?xml version="1.0" standalone="no"?>
<!DOCTYPE svg PUBLIC "-//W3C//DTD SVG 20010904//EN"
 "http://www.w3.org/TR/2001/REC-SVG-20010904/DTD/svg10.dtd">
<svg version="1.0" xmlns="http://www.w3.org/2000/svg"
 width="150.000000pt" height="150.000000pt" viewBox="0 0 150.000000 150.000000"
 preserveAspectRatio="xMidYMid meet">
<metadata>
Created by potrace 1.14, written by Peter Selinger 2001-2017
</metadata>
<g transform="translate(0.000000,150.000000) scale(0.100000,-0.100000)"
fill="#000000" stroke="none">
<path d="M652 1194 c-35 -7 -79 -22 -99 -34 -52 -31 -136 -101 -166 -139 -25
-31 -26 -35 -10 -46 15 -11 20 -9 34 14 23 37 99 103 151 129 137 71 326 51
444 -46 53 -44 110 -125 129 -184 22 -66 33 -82 50 -68 29 24 -50 178 -128
253 -118 112 -254 153 -405 121z"/>
<path d="M688 1124 c-84 -16 -156 -54 -216 -115 -59 -60 -108 -148 -98 -175 8
-18 9 -17 18 6 49 119 107 188 199 232 187 91 420 0 496 -194 10 -25 23 -46
28 -45 12 2 11 9 -22 75 -51 106 -165 199 -268 217 -58 11 -76 11 -137 -1z"/>
<path d="M736 1093 c-4 -5 -16 -9 -27 -9 -46 -3 -54 -6 -40 -11 11 -5 11 -7 0
-14 -10 -7 -8 -8 8 -6 12 2 26 6 29 10 4 4 14 1 22 -6 13 -10 15 -9 10 4 -4 9
-1 22 5 28 6 6 9 11 6 11 -3 0 -9 -3 -13 -7z"/>
<path d="M756 1083 c-11 -11 -6 -21 14 -26 11 -3 20 -3 20 0 0 10 -28 32 -34
26z"/>
<path d="M814 1069 c-3 -6 -3 -13 0 -16 3 -4 6 -1 6 5 0 7 5 12 11 12 5 0 8
-4 5 -9 -3 -4 6 -13 21 -20 21 -10 28 -9 34 1 7 11 9 11 9 0 0 -8 5 -10 12 -6
8 5 9 2 5 -9 -3 -10 -3 -17 1 -17 5 0 18 -9 30 -20 18 -17 26 -19 40 -10 16
11 16 11 0 6 -11 -3 -18 0 -18 9 0 7 -5 17 -12 21 -7 5 -8 3 -2 -7 4 -8 -9 3
-29 24 -38 38 -64 49 -54 23 4 -10 1 -13 -8 -10 -8 3 -12 11 -9 18 5 14 -33
19 -42 5z"/>
<path d="M625 1059 c-4 -6 -4 -13 -1 -16 3 -4 6 -1 6 6 0 7 5 9 10 6 6 -3 10
-1 10 4 0 14 -17 14 -25 0z"/>
<path d="M596 1045 c4 -8 8 -15 10 -15 2 0 4 7 4 15 0 8 -4 15 -10 15 -5 0 -7
-7 -4 -15z"/>
<path d="M553 1025 c-6 -7 -9 -16 -5 -20 4 -4 0 -6 -8 -4 -22 3 -50 -11 -50
-26 0 -7 -5 -15 -12 -17 -10 -4 -12 -14 -17 -63 -1 -5 -6 -3 -12 5 -9 12 -10
12 -7 1 3 -8 9 -16 14 -18 12 -4 39 45 35 64 -1 8 5 10 16 6 15 -6 16 -4 5 9
-8 10 -9 19 -3 22 5 3 11 2 13 -3 1 -5 16 1 33 15 19 15 26 27 20 33 -6 6 -14
5 -22 -4z"/>
<path d="M695 990 c-3 -6 3 -10 13 -10 11 0 25 -7 32 -15 11 -14 15 -14 29 -1
9 8 27 16 41 19 21 4 20 4 -7 6 -17 0 -35 -3 -38 -9 -4 -6 -17 -4 -35 5 -18 9
-31 11 -35 5z"/>
<path d="M940 966 c0 -2 8 -10 18 -17 15 -13 16 -12 3 4 -13 16 -21 21 -21 13z"/>
<path d="M986 962 c-7 -11 6 -27 26 -35 10 -3 15 -12 12 -21 -7 -19 15 -31 29
-16 9 9 8 14 -5 24 -10 7 -15 16 -11 19 3 4 1 7 -6 7 -7 0 -10 4 -7 9 3 5 -1
12 -10 15 -20 8 -22 8 -28 -2z m24 -12 c0 -5 -2 -10 -4 -10 -3 0 -8 5 -11 10
-3 6 -1 10 4 10 6 0 11 -4 11 -10z m40 -50 c0 -5 -4 -10 -10 -10 -5 0 -10 5
-10 10 0 6 5 10 10 10 6 0 10 -4 10 -10z"/>
<path d="M340 941 c0 -14 5 -19 15 -14 17 6 15 25 -3 31 -7 2 -12 -5 -12 -17z"/>
<path d="M615 934 l-30 -15 33 5 c38 6 90 -12 120 -42 16 -16 22 -17 26 -7 6
18 61 46 95 50 14 2 35 -2 46 -8 18 -9 18 -8 7 6 -25 29 -69 31 -115 4 l-43
-25 -39 24 c-45 27 -58 28 -100 8z"/>
<path d="M312 886 c1 -10 8 -17 13 -17 15 1 12 24 -3 29 -9 3 -13 -2 -10 -12z"/>
<path d="M430 860 c0 -5 5 -10 10 -10 6 0 10 5 10 10 0 6 -4 10 -10 10 -5 0
-10 -4 -10 -10z"/>
<path d="M1050 859 c0 -5 5 -7 10 -4 6 3 10 8 10 11 0 2 -4 4 -10 4 -5 0 -10
-5 -10 -11z"/>
<path d="M85 812 c-39 -6 -65 -26 -74 -56 -14 -47 -10 -65 21 -97 22 -22 39
-29 66 -29 50 0 59 8 63 56 4 37 2 42 -18 42 -17 0 -21 -4 -14 -15 4 -8 6 -26
3 -39 -6 -35 -53 -33 -82 3 -25 32 -22 89 5 109 22 16 76 9 92 -12 12 -16 13
-16 13 8 0 20 -6 27 -27 30 -16 2 -37 2 -48 0z"/>
<path d="M919 783 c8 -32 6 -110 -3 -134 -5 -12 0 -16 24 -16 21 0 27 4 20 11
-12 12 -13 66 -1 66 5 0 23 -17 40 -39 33 -42 72 -51 77 -17 6 40 42 42 59 3
7 -15 19 -22 42 -24 29 -1 32 1 28 26 -5 46 10 55 28 16 21 -44 32 -44 48 0
17 45 27 44 31 -2 3 -35 5 -37 36 -38 26 -1 32 3 32 21 0 15 7 23 25 26 19 4
26 0 33 -22 6 -15 17 -27 26 -27 18 0 21 8 6 23 -5 5 -21 36 -34 69 l-25 60
-25 -58 c-14 -32 -26 -62 -26 -67 0 -12 -20 -14 -21 -2 0 4 -2 16 -4 27 -3 11
-5 35 -7 53 -3 49 -12 47 -38 -8 -13 -28 -26 -50 -30 -50 -4 0 -17 22 -30 50
-13 27 -25 48 -28 46 -2 -3 -6 -22 -8 -43 -12 -101 -21 -105 -54 -25 -12 31
-26 61 -30 65 -4 5 -17 -19 -30 -52 -12 -34 -26 -61 -29 -61 -4 0 -18 11 -30
24 -21 23 -22 26 -7 53 13 27 13 32 0 52 -12 16 -25 21 -59 21 -43 0 -43 -1
-36 -27z m75 -9 c8 -20 -11 -54 -29 -54 -10 0 -15 11 -15 33 0 19 3 36 6 40 9
9 32 -3 38 -19z m120 -59 c3 -9 0 -15 -9 -15 -9 0 -12 6 -9 15 4 8 7 15 9 15
2 0 5 -7 9 -15z m300 0 c3 -9 0 -15 -9 -15 -9 0 -12 6 -9 15 4 8 7 15 9 15 2
0 5 -7 9 -15z"/>
<path d="M206 759 c-37 -29 -36 -80 1 -109 48 -37 123 -6 123 50 0 63 -74 98
-124 59z m82 -11 c16 -16 16 -70 0 -86 -16 -16 -53 -15 -66 1 -14 17 -17 48
-8 75 8 25 53 31 74 10z"/>
<path d="M345 706 l0 -72 30 1 c51 3 55 4 55 21 0 13 -3 14 -15 4 -30 -25 -46
-4 -43 56 2 45 0 58 -12 59 -13 2 -16 -10 -15 -69z"/>
<path d="M438 766 c6 -6 9 -38 7 -72 l-2 -60 42 -3 c75 -3 120 66 78 118 -14
17 -31 23 -76 25 -42 3 -55 1 -49 -8z m96 -25 c24 -27 17 -72 -13 -87 -39 -20
-51 -8 -51 52 0 50 2 54 23 54 13 0 32 -9 41 -19z"/>
<path d="M595 705 l0 -72 32 -1 c18 -1 35 3 38 8 4 6 12 7 18 3 29 -18 61 -10
40 10 -9 10 -10 67 0 67 4 0 23 -18 43 -40 20 -22 41 -40 48 -40 7 0 11 25 12
69 0 52 -3 68 -13 67 -12 -2 -16 -8 -12 -18 4 -12 8 -78 4 -78 -2 0 -26 24
-54 53 l-51 52 -1 -30 c0 -16 0 -46 1 -65 1 -35 0 -36 -38 -37 -35 -2 -39 1
-38 20 1 16 7 21 24 20 14 -2 22 3 22 13 0 8 -6 14 -12 13 -27 -3 -38 1 -38
15 0 22 19 29 37 15 13 -11 15 -11 12 6 -3 14 -13 19 -39 20 l-35 2 0 -72z"/>
<path d="M1055 544 c-82 -126 -234 -189 -385 -160 -65 13 -141 59 -196 120
-33 37 -54 53 -54 43 0 -9 28 -46 63 -81 54 -55 72 -67 132 -86 63 -19 165
-28 205 -17 8 2 29 8 45 12 70 19 215 141 215 181 0 20 -6 17 -25 -12z"/>
<path d="M590 553 c0 -18 47 -33 64 -20 14 11 14 12 -6 13 -13 0 -31 4 -40 8
-10 5 -18 4 -18 -1z"/>
<path d="M692 551 c-10 -6 -4 -10 20 -16 37 -9 59 -7 71 4 5 5 -4 8 -20 8 -15
0 -35 2 -43 6 -8 4 -21 3 -28 -2z"/>
<path d="M806 552 c25 -22 60 -28 93 -16 21 7 29 13 20 16 -8 3 -22 0 -31 -6
-12 -7 -24 -6 -43 2 -30 14 -54 16 -39 4z"/>
<path d="M350 546 c0 -14 48 -86 79 -119 41 -44 131 -105 176 -119 96 -30 218
-29 293 3 64 27 82 37 135 82 45 39 55 52 46 63 -9 11 -21 5 -62 -27 -63 -50
-111 -75 -174 -90 -152 -36 -318 22 -414 144 -22 27 -39 53 -39 58 0 5 -9 9
-20 9 -11 0 -20 -2 -20 -4z"/>
<path d="M1105 540 c-3 -5 -4 -10 -1 -10 2 0 11 -3 20 -6 11 -4 16 -1 16 10 0
18 -25 22 -35 6z"/>
<path d="M686 512 c-3 -5 11 -14 31 -21 28 -11 40 -11 59 -1 18 10 30 10 62
-3 32 -13 39 -13 39 -2 0 8 -4 12 -9 9 -5 -3 -17 1 -26 9 -23 21 -29 21 -58 3
-22 -15 -27 -15 -54 -1 -34 17 -37 18 -44 7z"/>
<path d="M515 500 c-3 -5 -1 -10 4 -10 6 0 11 5 11 10 0 6 -2 10 -4 10 -3 0
-8 -4 -11 -10z"/>
<path d="M960 501 c0 -5 5 -13 10 -16 6 -3 10 -2 10 4 0 5 -4 13 -10 16 -5 3
-10 2 -10 -4z"/>
<path d="M626 485 c-25 -19 -9 -19 24 0 14 8 19 14 10 14 -8 0 -24 -6 -34 -14z"/>
<path d="M1082 488 c6 -18 25 -21 25 -3 0 8 -7 15 -14 15 -8 0 -13 -5 -11 -12z"/>
<path d="M558 462 c-12 -15 -11 -16 4 -4 14 11 17 10 20 -10 l3 -23 7 22 c7
28 -16 38 -34 15z"/>
<path d="M910 470 c0 -6 7 -13 15 -17 24 -9 27 1 5 15 -13 8 -20 8 -20 2z"/>
<path d="M886 462 c-3 -5 1 -15 9 -22 16 -14 20 -3 6 19 -5 8 -11 9 -15 3z"/>
<path d="M600 443 c0 -11 27 -28 45 -30 11 -1 30 -4 42 -7 16 -3 20 0 18 12
-1 9 -8 16 -15 14 -7 -2 -17 3 -23 10 -6 9 -7 7 -2 -7 5 -15 3 -17 -6 -8 -6 6
-18 9 -27 6 -9 -4 -13 -2 -9 4 3 5 0 10 -8 10 -8 0 -15 -2 -15 -4z"/>
<path d="M804 442 c4 -7 0 -12 -11 -13 -12 0 -14 -2 -4 -6 10 -4 10 -7 1 -13
-6 -4 2 -7 18 -6 25 1 28 4 21 18 -5 9 -14 20 -21 24 -7 4 -8 3 -4 -4z"/>
<path d="M840 434 c0 -17 17 -18 23 -1 4 10 6 10 6 0 1 -7 6 -13 13 -13 9 0 9
3 0 12 -17 17 -42 19 -42 2z"/>
<path d="M732 417 c-9 -11 -10 -17 -2 -22 15 -9 23 -1 18 21 -3 15 -4 16 -16
1z"/>
</g>
</svg>
