<svg width="16" height="16" viewBox="0 0 16 16" fill="none" xmlns="http://www.w3.org/2000/svg">
<path d="M8 0.5C3.8645 0.5 0.5 3.8645 0.5 8C0.5 12.1355 3.8645 15.5 8 15.5C12.1355 15.5 15.5 12.1355 15.5 8C15.5 3.8645 12.1355 0.5 8 0.5ZM11.2104 6.71038L7.46038 10.4604C7.3505 10.5703 7.2065 10.625 7.0625 10.625C6.9185 10.625 6.7745 10.5703 6.66463 10.4604L4.78963 8.58538C4.56988 8.36563 4.56988 8.00975 4.78963 7.79C5.00938 7.57025 5.36525 7.57025 5.585 7.79L7.06213 9.26713L10.4143 5.915C10.634 5.69525 10.9899 5.69525 11.2096 5.915C11.4294 6.13475 11.4298 6.49063 11.2104 6.71038Z" fill="#41778A"/>
</svg>
