<svg width="16" height="16" viewBox="0 0 16 16" fill="none" xmlns="http://www.w3.org/2000/svg">
<path d="M1.71484 3.25972C1.71484 2.06084 2.6403 1.06604 3.83737 1.00019C5.1178 0.929754 6.73969 0.857422 8.00056 0.857422C9.26143 0.857422 10.8833 0.929754 12.1638 1.00019C13.3608 1.06604 14.2863 2.06084 14.2863 3.25972V12.7408C14.2863 13.9397 13.3608 14.9346 12.1638 15.0004C10.8833 15.0708 9.26143 15.1431 8.00056 15.1431C6.73969 15.1431 5.1178 15.0708 3.83737 15.0004C2.6403 14.9346 1.71484 13.9397 1.71484 12.7408V3.25972Z" fill="#A0BBC5" stroke="#345F6E" stroke-width="1.14286"/>
<path d="M8 0.857422V15.1431" stroke="#345F6E" stroke-width="1.14286"/>
<path d="M5.14258 7.42871V8.57157" stroke="#345F6E" stroke-width="1.14286" stroke-linecap="round" stroke-linejoin="round"/>
<path d="M10.8574 7.42871V8.57157" stroke="#345F6E" stroke-width="1.14286" stroke-linecap="round" stroke-linejoin="round"/>
</svg>
