<svg width="25" height="25" viewBox="0 0 25 25" fill="none" xmlns="http://www.w3.org/2000/svg">
<path d="M8.6665 7.5V3.5M16.6665 7.5V3.5M7.6665 11.5H17.6665M5.6665 21.5H19.6665C20.1969 21.5 20.7056 21.2893 21.0807 20.9142C21.4558 20.5391 21.6665 20.0304 21.6665 19.5V7.5C21.6665 6.96957 21.4558 6.46086 21.0807 6.08579C20.7056 5.71071 20.1969 5.5 19.6665 5.5H5.6665C5.13607 5.5 4.62736 5.71071 4.25229 6.08579C3.87722 6.46086 3.6665 6.96957 3.6665 7.5V19.5C3.6665 20.0304 3.87722 20.5391 4.25229 20.9142C4.62736 21.2893 5.13607 21.5 5.6665 21.5Z" stroke="#41778A" stroke-width="2" stroke-linecap="round" stroke-linejoin="round"/>
</svg>
