<svg width="24" height="24" viewBox="0 0 24 24" fill="none" xmlns="http://www.w3.org/2000/svg">
<path d="M1.87226 18.0428C2.14885 20.5104 4.15446 22.4694 6.63455 22.5889C8.34875 22.6714 10.0999 22.7144 12.0004 22.7144C13.9009 22.7144 15.652 22.6714 17.3663 22.5889C19.8463 22.4694 21.8519 20.5104 22.1286 18.0428C22.3147 16.3811 22.4677 14.6775 22.4677 12.942C22.4677 11.2066 22.3147 9.50295 22.1286 7.84128C21.8519 5.37375 19.8463 3.4146 17.3663 3.29515C15.652 3.21259 13.9009 3.16968 12.0004 3.16968C10.0999 3.16968 8.34875 3.21259 6.63455 3.29515C4.15446 3.4146 2.14885 5.37375 1.87226 7.84128C1.68601 9.50295 1.5332 11.2066 1.5332 12.942C1.5332 14.6775 1.68601 16.3811 1.87226 18.0428Z" fill="white"/>
<path d="M8.14844 1.28564V5.63852" stroke="#345F6E" stroke-width="1.71429" stroke-linecap="round"/>
<path d="M15.8398 1.28564V5.63852" stroke="#345F6E" stroke-width="1.71429" stroke-linecap="round"/>
<path d="M21.717 9.42861L2.2832 9.42859L2.556 4.40568L11.8856 3.729L21.717 4.40568V9.42861Z" fill="#A0BBC5"/>
<path d="M1.87226 18.0428C2.14885 20.5104 4.15446 22.4694 6.63455 22.5889C8.34875 22.6714 10.0999 22.7144 12.0004 22.7144C13.9009 22.7144 15.652 22.6714 17.3663 22.5889C19.8463 22.4694 21.8519 20.5104 22.1286 18.0428C22.3147 16.3811 22.4677 14.6775 22.4677 12.942C22.4677 11.2066 22.3147 9.50295 22.1286 7.84128C21.8519 5.37375 19.8463 3.4146 17.3663 3.29515C15.652 3.21259 13.9009 3.16968 12.0004 3.16968C10.0999 3.16968 8.34875 3.21259 6.63455 3.29515C4.15446 3.4146 2.14885 5.37375 1.87226 7.84128C1.68601 9.50295 1.5332 11.2066 1.5332 12.942C1.5332 14.6775 1.68601 16.3811 1.87226 18.0428Z" stroke="#345F6E" stroke-width="1.71429"/>
<path d="M2.0332 9.42847H22.0689" stroke="#345F6E" stroke-width="1.71429"/>
</svg>
