<svg width="24" height="24" viewBox="0 0 24 24" fill="none" xmlns="http://www.w3.org/2000/svg">
<path d="M22.4541 8.18067C22.6247 9.52051 21.6736 10.7873 20.3867 11.1636C18.9 11.5984 17.1986 12.0526 15.4531 12.4957C14.7522 13.883 14.0169 15.2235 13.4673 16.1996C12.96 17.1006 11.8946 17.6368 10.8958 17.5142C9.7538 17.374 9.05787 16.42 9.31539 15.323C9.41615 14.8938 9.53099 14.4131 9.6565 13.9014C7.80344 14.3334 6.14163 14.7067 4.92275 14.9764C3.8582 15.2119 2.86602 14.5845 2.58488 13.5573C2.56328 13.5048 2.54434 13.4503 2.52826 13.3941C2.11683 11.9546 1.75163 10.1899 1.50488 8.88444C1.30361 7.81966 1.91806 6.74964 2.92463 6.36686C3.93123 5.98409 5.02921 6.40294 5.48778 7.36987C5.803 8.03457 6.17266 8.83709 6.52672 9.66096C9.42387 8.37261 13.3421 6.68801 16.7632 5.41639C19.2888 4.47756 22.1126 5.50099 22.4541 8.18067Z" fill="#A0BBC5" stroke="#345F6E" stroke-width="1.71429" stroke-linejoin="round"/>
<path d="M1.8457 22.4146H22.0947" stroke="#345F6E" stroke-width="1.71429" stroke-linecap="round" stroke-linejoin="round"/>
</svg>
