<svg width="24" height="24" viewBox="0 0 24 24" fill="none" xmlns="http://www.w3.org/2000/svg">
<path d="M22.0903 15.1284C21.5539 16.4082 20.057 17.0467 18.7187 16.7205C17.1727 16.3437 15.4255 15.8738 13.6448 15.3714C12.3087 16.2456 10.9659 17.0606 9.97555 17.6467C9.06141 18.1877 7.83806 18.1174 7.01238 17.4953C6.06832 16.784 5.93922 15.5777 6.73182 14.734C7.04191 14.404 7.39103 14.0352 7.76551 13.6444C5.89492 13.0769 4.22464 12.5554 3.00168 12.1692C1.94436 11.8354 1.38445 10.7857 1.64243 9.73791C1.6499 9.68187 1.6606 9.62547 1.67466 9.56893C2.04762 8.06889 2.63517 6.29252 3.08997 4.99352C3.45786 3.94278 4.55418 3.30638 5.64638 3.48289C6.73857 3.65939 7.50031 4.59606 7.41162 5.6919C7.35064 6.44521 7.26729 7.3491 7.1591 8.26398C10.3986 8.60591 14.75 9.11982 18.447 9.74576C21.1765 10.2079 23.1631 12.5689 22.0903 15.1284Z" fill="#A0BBC5" stroke="#345F6E" stroke-width="1.71429" stroke-linejoin="round"/>
<path d="M22.4006 21.7549H1.59766" stroke="#345F6E" stroke-width="1.71429" stroke-linecap="round" stroke-linejoin="round"/>
</svg>
