<svg width="414" height="144" viewBox="0 0 414 144" fill="none" xmlns="http://www.w3.org/2000/svg">
<g clip-path="url(#clip0_1869_21331)">
<path d="M183.305 78.4559L181.52 80.8355L180.33 82.0256L177.951 83.334L177.593 84.4052C177.593 84.4052 176.641 85.3573 176.761 85.9526C176.88 86.5479 176.88 87.6185 176.88 87.6185C176.88 87.6185 175.214 89.1654 174.5 89.6412C173.786 90.117 172.834 91.1881 172.834 91.1881C172.834 91.1881 172.239 91.9023 171.882 92.1402C171.525 92.3781 170.93 93.0919 170.454 93.8061C169.978 94.5203 169.502 94.9956 169.264 95.3525C169.026 95.7093 168.312 96.5425 167.955 97.8515C167.598 99.1605 166.646 100.707 166.646 100.707L166.407 101.302C166.527 103.325 166.526 103.682 166.765 104.397C167.003 105.111 167.241 104.872 167.003 106.419C166.765 107.966 166.765 108.561 166.527 109.275C166.289 109.989 165.575 111.297 165.337 111.893C165.1 112.489 165.813 113.559 165.813 113.559C165.813 113.559 166.171 115.106 165.932 115.463C165.694 115.82 166.051 116.534 166.051 116.534C166.051 116.534 167.479 117.367 167.955 117.843C168.432 118.319 169.264 119.033 169.383 119.39C169.502 119.747 170.454 121.413 170.573 121.77C170.692 122.127 171.645 123.435 171.882 123.793C172.12 124.15 173.31 125.459 173.31 125.459C173.31 125.459 174.857 126.648 175.215 127.124C175.572 127.601 176.643 127.838 176.999 128.195C177.356 128.552 178.189 128.432 178.665 128.79C179.141 129.148 180.093 128.552 180.569 128.79C181.045 129.029 182.354 128.552 182.711 128.314C183.068 128.077 183.901 127.244 184.496 127.6C185.091 127.957 185.448 127.6 185.924 127.719C186.4 127.838 187.114 127.244 187.589 127.244C188.065 127.244 189.255 126.768 189.612 126.768C189.969 126.768 191.16 126.053 191.636 126.053C192.112 126.053 192.707 125.578 193.301 125.815C193.896 126.053 193.658 125.34 194.729 125.696C195.8 126.053 196.157 125.696 196.514 126.053C196.871 126.41 197.348 126.054 197.705 126.53C198.062 127.005 198.656 127.362 198.775 127.838C198.894 128.314 199.608 128.791 199.608 128.791L200.322 128.909C200.322 128.909 201.275 128.196 201.512 128.672C201.75 129.148 202.821 129.029 202.821 129.029L203.892 130.219L204.249 130.695C204.249 130.695 204.963 132.599 204.844 133.313C204.724 134.026 204.725 135.573 204.368 135.93C204.011 136.287 203.773 137.834 203.773 137.834C203.773 137.834 203.297 138.31 204.368 139.262C205.439 140.214 206.153 141.047 206.51 141.522C206.868 141.999 207.82 143.308 207.938 144.141C208.057 144.974 208.295 145.449 208.771 146.521C209.248 147.592 209.842 147.711 209.961 148.901C210.08 150.092 210.318 150.091 210.199 150.923C210.08 151.757 209.723 151.876 210.08 152.47C210.437 153.065 210.912 154.137 210.794 154.494C210.675 154.85 210.437 156.397 210.437 156.397L210.199 157.112L209.128 159.135L208.414 160.205C208.176 161.038 207.7 161.871 207.819 163.061C207.938 164.251 207.225 164.251 208.176 165.44C209.128 166.63 209.604 167.94 210.199 169.011C210.794 170.082 211.151 171.153 211.269 171.866C211.389 172.581 211.865 172.819 212.103 173.771C212.341 174.722 212.46 175.198 212.46 175.793C212.46 176.389 212.34 177.936 212.579 178.292C212.818 178.649 212.936 179.721 213.055 180.197C213.174 180.673 212.697 180.792 213.412 181.625C214.126 182.458 214.602 182.934 215.078 183.529C215.553 184.124 215.434 183.886 215.792 184.719C216.149 185.552 216.624 186.029 216.744 186.742C216.863 187.455 216.981 189.24 217.339 190.074C217.696 190.907 218.171 191.74 218.171 191.74C218.171 191.74 219.481 192.573 219.957 192.454C220.432 192.335 221.385 191.265 222.099 191.621C222.813 191.978 223.408 191.621 224.003 191.621C224.597 191.621 225.193 190.907 225.788 190.907C226.383 190.907 227.215 189.955 227.692 190.193C228.169 190.431 228.762 189.954 229.358 189.359C229.953 188.765 230.31 188.289 231.38 187.337C232.451 186.385 232.332 186.384 233.046 185.79C233.76 185.195 234.475 183.885 235.307 183.647C236.14 183.41 236.378 182.577 236.616 181.982C236.854 181.387 236.973 181.03 237.33 180.554C237.687 180.077 237.449 180.674 238.044 179.126C238.64 177.578 239.354 176.985 239.949 176.627C240.544 176.27 240.901 175.557 241.258 175.437C241.614 175.318 242.21 175.794 241.972 174.723C241.734 173.652 241.972 172.105 241.734 171.749C241.497 171.392 241.139 172.581 241.258 170.795C241.378 169.01 242.686 167.226 242.686 167.226C242.686 167.226 244.471 164.965 245.066 164.608C245.662 164.251 245.78 163.894 246.614 163.418C247.446 162.943 249.231 161.753 249.231 161.158C249.231 160.562 249.945 159.015 249.945 158.658C249.945 158.301 249.945 157.944 249.708 155.921C249.471 153.898 249.945 154.374 249.232 152.47C248.518 150.567 248.398 148.186 247.923 147.592C247.447 146.997 247.684 145.449 247.684 144.974C247.684 144.498 248.518 143.308 248.875 142.832C249.232 142.356 250.779 140.451 250.779 140.451C250.779 140.451 253.158 137.715 253.991 136.406C254.825 135.097 255.657 133.907 256.252 133.432C256.847 132.956 258.275 131.884 259.108 130.694C259.941 129.505 261.607 127.244 261.726 126.886C261.845 126.53 262.796 125.34 262.796 125.34C262.796 125.34 264.105 123.792 264.344 122.96C264.581 122.126 265.771 117.486 265.533 117.723C265.295 117.961 263.868 118.199 263.391 118.318C262.916 118.438 264.106 118.913 260.654 118.676C257.203 118.438 255.419 119.032 255.419 119.032C254.348 118.794 253.515 119.984 253.158 118.318C252.8 116.652 252.562 115.701 251.849 114.511C251.136 113.321 250.659 112.845 249.589 111.297C248.518 109.751 248.636 110.464 247.684 109.275C246.732 108.086 246.494 108.441 245.899 106.895C245.304 105.348 244.828 105.943 244.114 103.801C243.4 101.659 242.924 101.421 242.567 100.231C242.21 99.0416 241.735 98.6837 241.496 97.6131C241.258 96.542 238.522 91.0686 238.164 90.7112C237.807 90.3549 237.212 88.4501 237.331 88.8075C237.451 89.1643 239.116 90.3544 239.116 90.3544C239.116 90.3544 240.068 89.997 240.426 89.997C240.783 89.997 242.21 91.3065 242.21 91.7818C242.21 92.2571 244.71 94.5193 245.305 96.1852C245.899 97.851 246.615 99.0411 246.733 99.5169C246.851 99.9927 248.042 101.897 248.518 102.611C248.994 103.325 250.54 104.753 250.778 105.467C251.016 106.181 253.278 108.561 253.278 110.108C253.278 111.655 254.348 113.678 254.467 114.153C254.587 114.629 256.728 115.225 256.728 115.225L259.584 114.511C259.584 114.511 263.868 111.773 264.344 111.773C264.82 111.773 268.628 109.988 268.628 109.988C268.628 109.988 270.175 108.561 271.245 107.728C272.316 106.896 273.506 105.349 273.745 104.634C273.983 103.919 274.459 103.801 275.41 102.73C276.362 101.658 277.671 100.588 276.839 99.8737C276.006 99.1595 275.529 99.3979 274.34 98.2079C273.15 97.0178 273.269 97.2563 272.435 95.7088C271.602 94.1624 272.554 92.3771 270.769 94.1624C268.984 95.9478 269.698 96.4231 267.913 96.781C266.129 97.1373 265.414 98.3274 264.581 97.1373C263.749 95.9473 262.916 96.6615 262.439 94.8762C261.962 93.0908 261.606 92.9719 261.487 92.2587C261.369 91.5455 261.487 91.5444 260.535 89.7591C259.583 87.9737 260.297 85.2373 260.892 86.7842C261.487 88.3311 262.439 88.569 263.987 89.6401C265.533 90.7107 266.248 91.5444 267.675 91.6634C269.103 91.7818 270.293 91.6634 270.531 91.9008C270.769 92.1381 271.007 91.7823 271.602 92.0197C272.197 92.2571 272.434 91.6634 272.673 92.6145C272.911 93.5656 274.22 93.6856 274.814 94.2803C275.409 94.8751 275.41 94.6377 276.957 94.8751C278.505 95.1125 280.647 95.1135 280.647 95.1135L282.907 94.9941L285.525 95.2314C285.525 95.2314 287.43 96.3025 287.905 96.3025C288.38 96.3025 288.5 97.6121 289.69 98.3258C290.88 99.0395 291.118 99.1584 291.831 99.9916C292.545 100.825 292.427 101.182 293.378 102.014C294.33 102.847 295.878 101.896 296.116 101.54C296.353 101.182 297.543 100.587 297.306 101.54C297.07 102.492 298.495 102.134 298.139 104.396C297.782 106.657 297.543 106.061 298.139 107.608C298.734 109.156 301.351 113.915 301.471 115.343C301.59 116.771 302.304 116.295 302.422 117.605C302.541 118.914 303.255 119.389 303.255 120.341C303.255 121.293 304.089 121.53 304.207 122.245C304.327 122.96 305.636 122.364 305.993 122.245C306.35 122.126 308.015 120.579 308.015 120.579C308.015 120.579 308.731 120.342 308.611 119.151C308.491 117.96 308.611 118.199 308.611 116.414C308.611 114.63 307.897 114.63 308.254 112.845C308.611 111.061 309.562 109.989 309.801 109.156C310.039 108.324 310.991 106.896 311.466 106.776C311.941 106.657 314.56 105.349 315.156 104.515C315.751 103.681 316.703 102.73 317.655 101.779C318.607 100.827 320.272 99.6369 320.63 99.9938C320.987 100.351 320.867 100.232 321.463 100.232C322.058 100.232 323.129 100.708 323.961 100.827C324.795 100.946 326.461 102.969 326.818 104.04C327.175 105.111 326.937 104.872 328.246 106.42C329.555 107.966 330.745 107.014 330.745 108.918C330.745 110.823 330.745 110.703 331.34 111.417C331.935 112.132 332.649 110.108 333.362 110.347C334.076 110.585 334.195 110.109 334.79 112.013C335.384 113.916 335.741 113.917 335.861 115.821C335.98 117.725 335.742 115.94 335.742 117.486C335.742 119.034 335.622 119.153 335.861 120.58C336.1 122.007 336.931 122.485 336.813 122.723C336.813 122.723 337.527 120.7 337.288 119.271C337.05 117.843 337.288 115.821 337.884 115.227C338.479 114.632 339.074 114.036 339.549 115.583C340.026 117.13 340.264 115.94 341.334 117.725C342.406 119.51 343.357 119.153 343.476 119.986C343.595 120.819 344.192 120.938 345.023 121.652C345.857 122.366 346.57 121.533 347.522 120.819C348.474 120.105 351.092 117.487 351.212 116.416C351.33 115.345 352.402 115.582 350.497 112.846C348.593 110.111 348.593 109.157 346.57 107.491C344.549 105.826 343.358 105.707 344.905 103.564C346.453 101.422 347.167 99.9948 348.118 100.59C349.07 101.185 350.735 101.065 350.735 103.446C350.735 105.827 350.259 108.444 351.925 105.588C353.591 102.732 354.425 101.066 353.948 101.543C353.471 102.02 355.019 100.591 355.019 100.591C355.019 100.591 355.139 99.5195 357.162 99.0437C359.185 98.5679 359.779 98.3295 360.493 97.9726C361.207 97.6153 363.23 95.2351 363.587 94.1646C363.944 93.094 364.896 91.1897 364.658 90.357C364.421 89.5244 363.23 85.4784 362.992 85.5968C362.755 85.7163 362.874 85.7163 361.327 84.0504C359.779 82.3846 358.709 81.1945 358.471 80.4803C358.233 79.766 357.638 79.6471 358.351 78.6955C359.065 77.7438 359.423 77.8628 359.542 77.0296C359.661 76.1964 360.612 75.4827 358.827 76.078C357.042 76.6733 358.351 76.3164 356.804 76.1975C355.257 76.0785 351.212 77.0301 353.235 74.5316C355.259 72.0331 355.852 70.4862 356.209 70.4862C356.566 70.4862 358.352 68.4629 358.47 70.3667C358.59 72.2704 359.303 71.7941 359.422 72.9842C359.542 74.1742 361.921 71.6757 361.921 71.6757C361.921 71.6757 362.754 71.9136 363.349 72.5083C363.944 73.1031 363.944 75.0074 363.944 75.0074C363.944 75.0074 363.468 74.4121 364.777 75.3643C366.086 76.3164 367.514 75.8401 367.514 77.8633C367.514 79.8866 367.514 80.0055 368.347 80.4813C369.18 80.9571 370.012 80.7198 370.728 80.1245C371.443 79.5292 372.631 77.3875 372.631 77.3875C372.631 77.3875 372.75 76.5543 370.846 75.3643C368.942 74.1742 367.752 73.3421 367.039 72.7468C366.326 72.1515 366.563 70.3672 367.276 69.6524C367.989 68.9377 368.347 68.5813 368.109 67.6297C367.871 66.6781 368.466 65.9633 370.251 66.0823C372.036 66.2012 372.393 65.9639 372.393 65.9639C372.393 65.9639 372.751 66.2012 372.751 65.4875C372.751 64.7738 375.011 61.4415 374.416 61.4415C373.82 61.4415 374.536 60.6089 374.178 59.2999C373.819 57.9909 375.368 55.9681 374.059 55.016C372.751 54.0639 372.393 53.5875 371.56 52.1601C370.728 50.7327 370.846 50.4942 367.752 50.1368C364.659 49.7794 363.23 50.8511 362.516 49.8995C361.802 48.9478 361.446 51.3269 360.97 48.471C360.494 45.615 361.684 43.7108 361.684 43.7108C361.684 43.7108 363.588 42.5212 364.063 41.688C364.538 40.8548 366.443 40.498 367.991 41.0933C369.54 41.6886 371.798 41.5691 373.703 41.927C375.607 42.2833 375.488 43.4734 376.44 41.927C377.392 40.379 376.44 39.6658 377.154 38.8326C377.867 37.9995 378.701 36.6904 379.295 37.5231C379.89 38.3568 381.082 39.189 382.034 38.1179C382.986 37.0473 383.342 36.9284 383.342 36.9284L383.817 37.4047C383.817 37.4047 384.888 36.8089 384.888 37.8794C384.888 38.9511 385.96 40.1411 385.365 40.9738C384.769 41.8065 383.937 41.688 383.937 43.7108C383.937 45.7335 383.937 45.3772 385.245 47.0435C386.555 48.7089 387.387 47.2809 387.625 49.0663C387.863 50.8516 388.1 50.4948 389.411 51.6843C390.721 52.8738 390.481 52.8738 391.433 53.588C392.386 54.3023 392.862 55.0165 392.862 53.8265C392.862 52.6364 392.981 52.0417 392.862 50.9706C392.742 49.9 393.814 49.0663 393.099 47.2814C392.383 45.4966 392.98 45.6156 391.552 44.3066C390.124 42.9976 389.172 44.545 388.697 42.6407C388.222 40.7364 390.957 39.9038 391.672 39.6658C392.387 39.4279 393.455 38 393.693 38.9521C393.931 39.9043 391.909 43.355 395.36 39.6658C398.812 35.9767 397.264 37.5242 397.264 37.5242C397.264 37.5242 399.049 37.2863 399.406 37.5242C399.762 37.7626 400.716 36.4531 400.357 36.5726C399.999 36.692 396.551 34.6683 396.551 34.6683L394.051 33.2408C394.051 33.2408 394.884 32.6455 395.479 32.765C396.074 32.8845 396.194 31.575 396.789 31.4555C397.385 31.336 401.43 32.2892 402.263 32.765C403.097 33.2408 406.07 33.3598 405.713 33.1219C405.355 32.884 403.453 31.456 403.333 30.9797C403.215 30.5039 399.049 29.5517 397.741 29.6707C396.431 29.7891 395.242 30.1459 394.171 29.7891C393.1 29.4322 391.553 28.4801 390.72 28.4801C389.887 28.4801 379.416 26.4574 378.94 26.5763C378.464 26.6953 377.75 28.9559 377.393 28.599C377.036 28.2422 376.441 28.2417 374.774 27.7658C373.107 27.29 370.848 26.9326 367.872 26.6953C364.897 26.4579 362.876 26.9332 362.043 25.981C361.209 25.0289 359.425 25.3863 357.402 25.2668C355.379 25.1484 352.999 25.2668 351.928 25.2668C350.857 25.2668 348.359 25.1484 347.763 25.0289C347.168 24.9094 346.454 24.0767 345.741 23.9583C345.026 23.8388 345.145 23.6014 343.717 23.3635C342.29 23.1256 342.408 21.5787 341.933 22.8872C341.457 24.1967 341.694 23.8393 340.981 24.3152C340.267 24.791 339.553 25.7431 339.076 25.7431C338.6 25.7431 336.697 25.8621 336.339 25.6242C335.981 25.3863 335.387 25.1484 334.197 25.1484C333.007 25.1484 333.007 25.2668 331.46 25.0289C329.913 24.791 328.723 24.9094 327.295 24.1962C325.867 23.483 325.867 23.0061 324.677 23.1251C323.487 23.2441 323.488 22.8872 321.821 22.8872C320.154 22.8872 318.133 23.8393 317.062 23.9583C315.992 24.0772 313.611 23.8388 312.778 23.482C311.945 23.1251 311.707 22.2924 308.613 22.6488C305.519 23.0061 303.734 23.0061 304.329 22.054C304.924 21.1018 305.638 20.1502 305.995 20.0313C306.352 19.9123 307.184 19.3176 306.589 19.0797C305.995 18.8412 305.399 18.4849 303.972 18.3654C302.545 18.2459 302.662 18.8412 300.521 18.6033C298.38 18.3654 301.711 17.7706 297.309 17.8896C292.906 18.0091 291.835 18.3654 291.359 18.3654C290.883 18.3654 290.287 17.4138 289.098 18.8412C287.908 20.2686 286.241 21.1018 283.862 21.2208C281.483 21.3397 281.363 20.9829 279.103 21.8156C276.842 22.6482 275.413 21.5777 275.889 23.4814C276.366 25.3852 276.96 26.0994 276.96 26.4563C276.96 26.8131 275.889 29.1933 274.581 27.7653C273.272 26.3373 270.891 20.7445 271.962 24.5525C273.033 28.3601 275.412 29.6696 273.152 30.2644C270.892 30.8591 271.128 30.0264 270.772 29.788C270.415 29.5501 270.772 27.8842 270.653 26.9321C270.534 25.9799 270.296 25.3852 269.82 24.9094C269.344 24.4336 269.463 23.7193 268.511 23.4814C267.559 23.2435 268.392 22.7672 266.845 22.7672C265.298 22.7672 263.99 21.815 264.347 23.9572C264.703 26.0994 265.06 24.6715 266.011 26.6942C266.963 28.7169 268.748 27.289 267.44 28.7169C266.131 30.1449 262.68 29.6691 261.847 29.0743C261.014 28.4795 261.252 29.3122 259.704 28.2411C258.156 27.17 258.634 26.3368 256.849 27.17C255.065 28.0032 254.469 29.5501 253.755 28.9548C253.041 28.3595 251.375 29.7875 250.78 29.0743C250.185 28.3611 247.805 28.3601 247.33 29.0743C246.854 29.7885 245.425 29.6691 243.402 30.6212C241.38 31.5734 241.974 30.7396 239.475 32.7629C236.977 34.7861 235.548 36.4515 234.716 35.1425C233.883 33.834 229.36 31.5728 231.146 31.2154C232.931 30.8581 233.764 30.1449 234.716 30.9775C235.668 31.8102 237.215 31.5728 237.452 30.9775C237.689 30.3822 238.762 29.7875 237.333 29.0738C235.905 28.3601 235.786 28.8353 233.526 28.0027C231.265 27.1695 233.526 27.4079 230.431 26.9316C227.337 26.4552 226.028 26.2178 225.195 25.9799C224.363 25.742 223.173 25.9799 221.983 25.861C220.794 25.742 219.96 25.5041 218.889 25.6231C217.818 25.742 217.223 25.5041 215.795 26.5752C214.366 27.6463 213.295 28.1221 212.344 28.9548C211.392 29.7875 208.894 31.4539 208.179 32.0492C207.465 32.6444 204.966 34.5477 204.728 35.2619C204.49 35.9762 204.966 36.5709 204.014 37.0467C203.062 37.5226 202.11 37.5226 201.396 37.6415C200.682 37.7605 201.396 36.5704 200.682 37.7605C199.967 38.9505 200.206 43.2344 200.801 42.6391C201.395 42.0438 201.039 40.1406 203.657 41.9259C206.275 43.7113 207.941 43.4723 207.821 45.1382C207.702 46.804 209.606 46.6851 209.844 47.0425C210.082 47.3988 211.272 46.5661 211.272 46.5661C211.272 46.5661 213.89 44.9003 213.89 44.0676C213.89 43.2349 215.556 41.3306 215.556 41.3306C215.556 41.3306 214.365 40.7359 214.365 39.5458C214.365 38.3558 214.723 37.9984 214.961 36.8083C215.198 35.6183 213.652 36.8088 217.222 34.5472C220.792 32.2855 221.029 33.834 221.029 33.834C221.029 33.834 221.505 34.3098 220.91 35.0235C220.315 35.7372 219.244 37.642 219.006 37.8794C218.768 38.1168 220.077 40.0216 220.671 40.0216C221.267 40.0216 222.457 39.5453 223.171 39.6642C223.885 39.7837 225.075 39.3079 225.432 39.5458C225.789 39.7837 226.622 40.4974 226.026 41.0927C225.431 41.688 224.122 42.4012 223.171 42.1638C222.22 41.9264 220.79 40.2595 221.624 42.6396C222.457 45.0197 221.505 45.6145 220.79 45.4955C220.077 45.3766 218.53 44.1871 218.768 45.9719C219.006 47.7567 217.221 48.9462 216.864 48.9462C216.507 48.9462 215.793 48.8273 215.793 48.8273C215.793 48.8273 214.722 48.7078 214.128 48.7078C213.532 48.7078 212.342 49.3026 211.985 49.7789C211.628 50.2547 211.152 49.8984 210.557 49.8984C209.963 49.8984 210.557 49.1841 209.367 48.9462C208.177 48.7083 207.464 48.4704 206.75 48.9462C206.036 49.422 204.965 49.6599 204.489 49.3031C204.012 48.9462 204.727 48.1125 203.774 48.5894C202.822 49.0662 202.109 50.3742 201.752 50.4937C201.395 50.6121 202.823 50.4937 201.395 50.6121C199.967 50.7316 199.372 51.0889 198.658 51.3263C197.944 51.5637 198.896 52.9922 197.587 53.468C196.278 53.9438 197.23 52.8732 195.921 53.9438C194.612 55.0154 194.373 55.9671 193.898 56.086C193.422 56.2055 193.541 56.4429 192.47 56.5618C191.399 56.6808 191.519 56.7997 190.923 56.9187C190.327 57.0376 191.042 57.2761 189.733 57.0376C188.424 56.7992 187.472 57.2761 187.71 57.7519C187.948 58.2277 192.351 59.5367 189.019 59.4177C185.687 59.2988 186.758 59.8935 187.472 60.3694C188.186 60.8452 188.543 61.321 188.9 61.4405C189.257 61.5599 189.852 62.9879 189.852 62.9879C189.852 62.9879 190.804 62.8684 190.209 63.7016C189.614 64.5348 190.447 64.7727 189.852 65.8438C189.256 66.9149 189.257 66.2007 188.781 66.4386C188.305 66.6765 187.591 67.5097 186.282 66.7954C184.972 66.0812 184.021 65.7243 182.474 65.6059C180.927 65.4864 181.998 65.249 180.927 66.0812C179.856 66.9149 179.618 67.8665 179.738 68.9371C179.856 70.0077 179.975 71.4362 179.618 72.1504C179.261 72.8646 179.261 73.5784 179.499 74.6495C179.737 75.72 180.451 76.1969 180.451 76.1969C180.451 76.1969 182.117 76.4343 182.474 76.5538C182.831 76.6732 183.545 76.3159 184.497 76.9101C185.449 77.5054 186.401 77.7438 186.996 77.0296C187.591 76.3153 189.971 75.4827 190.685 74.7689C191.4 74.0552 191.875 73.8173 191.518 73.1031C191.161 72.3888 192.232 70.604 192.827 70.2472C193.422 69.8903 194.731 69.5329 194.731 69.5329L196.159 67.3913C196.159 67.3913 197.349 66.0817 197.944 66.2012C198.538 66.3207 201.87 67.5107 201.633 65.9638C201.395 64.4169 201.871 63.9406 202.227 64.5353C202.584 65.1301 203.537 64.8922 203.537 64.8922C203.537 64.8922 204.012 64.6548 204.369 65.0117C204.726 65.368 205.202 66.916 205.916 67.2723C206.63 67.6297 207.225 67.9865 207.701 68.2239C208.178 68.4613 208.654 68.2239 209.606 69.0571C210.558 69.8903 211.509 70.3667 211.628 70.723C211.748 71.0798 212.581 71.913 212.581 71.913C212.581 71.913 213.413 72.1509 213.175 72.6273C212.937 73.1036 211.748 74.5316 211.153 74.769C210.557 75.0063 209.011 74.5305 209.606 75.0069C210.2 75.4827 211.034 76.078 211.391 75.7206C211.748 75.3637 214.008 72.9836 214.008 72.9836C214.008 72.9836 213.889 73.1026 214.008 72.3883C214.127 71.6741 214.008 70.8419 214.603 71.1988C215.198 71.5562 215.555 72.032 215.793 71.5562C216.031 71.0804 216.269 71.3183 215.674 70.9614C215.079 70.6046 213.651 68.5813 212.937 68.4624C212.223 68.3434 210.437 67.1528 210.437 67.1528C210.437 67.1528 210.081 66.796 209.248 65.8443C208.415 64.8927 208.177 65.1301 207.938 64.2969C207.699 63.4637 206.986 62.3931 208.296 62.631C209.605 62.8689 210.437 63.7016 211.627 64.4159C212.817 65.1301 212.58 65.3675 213.651 66.0817C214.721 66.796 214.841 67.5102 215.673 67.3913C216.506 67.2723 217.459 67.8671 217.459 68.9382C217.459 70.0093 217.696 71.1988 217.934 71.4372C218.172 71.6757 218.886 72.1515 219.124 72.6273C219.362 73.1031 219.838 74.2931 220.195 74.769C220.552 75.2448 220.909 75.6021 221.266 76.1974C221.623 76.7922 221.742 76.078 222.098 76.3164C222.456 76.5543 222.932 76.4348 222.932 75.959C222.932 75.4832 223.05 74.65 223.05 74.65C223.05 74.65 224.717 74.1742 224.241 73.9358C223.765 73.6973 222.336 72.2699 222.456 71.7941C222.575 71.3183 222.456 70.3667 223.05 70.4856C223.645 70.604 224.241 71.6751 225.55 70.723C226.859 69.7708 228.405 69.295 227.929 70.723C227.453 72.1509 228.049 72.3883 227.929 73.9358C227.811 75.4832 228.406 75.0069 229.239 75.8401C230.072 76.6733 230.667 76.7927 231.261 77.0301C231.856 77.2675 232.808 77.1496 233.761 77.2685C234.714 77.3875 235.308 76.9112 236.141 77.1496C236.973 77.3875 238.878 77.0301 239.235 77.2685C239.592 77.507 241.02 76.7927 241.139 77.6254C241.258 78.4586 241.734 77.5064 241.377 79.4102C241.02 81.314 240.544 82.623 240.544 82.623C239.235 85.122 238.759 85.7173 238.164 85.8363C237.57 85.9552 237.212 86.3121 236.142 86.1932C235.071 86.0737 233.762 86.1931 232.215 85.8363C230.668 85.4794 227.811 86.1931 226.622 85.4789C225.432 84.7647 223.766 85.3599 223.051 84.5273C222.336 83.6946 221.148 83.813 220.671 83.3372C220.195 82.8614 219.958 81.5529 219.958 83.4567C219.958 85.3605 218.887 85.4794 218.649 86.4316C218.411 87.3837 219.005 86.9074 217.696 86.7884C216.387 86.669 216.03 87.3832 214.126 85.9558C212.223 84.5283 211.271 84.5278 210.319 83.9325C209.367 83.3372 208.415 85.0031 207.463 83.0999C206.511 81.1966 205.202 82.7425 205.083 81.1956C204.964 79.6481 205.083 79.7681 205.202 78.816C205.321 77.8638 206.63 77.0312 206.035 76.6743C205.44 76.3174 205.916 75.7222 205.083 76.0795C204.25 76.4369 203.06 76.5553 202.108 76.9122C201.156 77.2696 204.25 76.9122 199.609 77.2696C194.968 77.627 193.659 78.1023 193.659 78.1023C193.659 78.1023 193.302 77.8644 192.707 78.3402C192.111 78.816 191.279 79.5302 190.446 79.1734C189.613 78.816 189.137 78.9349 188.423 79.0544C187.709 79.1739 187.234 78.4596 186.4 79.0544C185.567 79.6486 184.616 79.8871 184.258 79.6486C183.9 79.4076 183.305 78.4559 183.305 78.4559Z" fill="#345F6E" fill-opacity="0.5"/>
<path d="M363.107 125.815C362.632 126.53 361.085 128.671 360.49 128.791C359.895 128.909 359.3 129.505 358.824 129.386C358.348 129.266 357.277 129.386 356.92 130.933C356.563 132.479 355.968 133.313 355.61 133.193C355.252 133.074 356.205 135.454 354.183 134.503C352.161 133.552 352.874 135.336 352.636 135.812C352.397 136.289 352.993 137.597 353.112 138.073C353.232 138.549 353.588 139.382 354.064 140.095C354.54 140.808 354.897 141.642 355.73 141.405C356.563 141.168 359.18 141.405 359.18 141.405C359.18 141.405 360.133 141.762 360.727 141.762C361.322 141.762 361.442 141.524 361.798 141.524C362.154 141.524 362.868 140.333 362.75 140.215C362.631 140.095 362.275 139.739 362.988 139.024C363.701 138.31 364.535 138.073 364.654 137.24C364.774 136.406 364.416 136.407 364.773 135.93C365.13 135.453 365.963 135.574 365.725 135.097C365.488 134.621 365.963 134.741 365.487 133.788C365.011 132.835 364.416 132.479 364.892 131.289C365.368 130.099 365.845 129.861 365.725 129.147C365.606 128.433 366.32 128.195 365.487 127.362C364.655 126.53 364.297 126.291 363.702 126.052L363.107 125.815Z" fill="#345F6E" fill-opacity="0.5"/>
<path d="M386.431 137.716C386.908 137.597 388.574 136.407 388.693 138.549C388.813 140.691 388.93 140.095 389.645 141.285C390.36 142.475 390.834 142.833 391.667 142.238C392.5 141.643 393.452 141.642 393.69 140.572C393.928 139.501 393.928 139.501 394.642 139.501C395.355 139.501 395.594 139.382 395.952 139.859C396.309 140.334 396.545 139.858 398.093 140.691C399.641 141.524 400.949 141.285 401.902 142.119C402.855 142.953 403.33 142.834 404.638 143.309C405.947 143.784 405.352 143.071 406.542 144.38C407.732 145.689 407.258 146.046 407.851 146.641C408.446 147.236 408.923 146.164 408.684 147.592C408.446 149.02 406.781 147.592 409.28 149.615C411.779 151.637 412.136 151.996 412.968 152.59C413.802 153.185 414.396 153.9 413.683 153.9C412.97 153.9 410.708 153.9 410.47 153.542C410.233 153.185 409.161 152.947 408.447 152.114C407.733 151.282 406.186 150.686 405.83 149.973C405.472 149.258 404.996 149.02 404.402 149.02C403.807 149.02 403.212 149.734 402.378 150.567C401.545 151.4 401.904 150.092 400.831 150.448C399.76 150.806 398.571 150.329 397.976 149.853C397.38 149.377 397.5 148.664 396.549 149.02C395.597 149.377 395.002 149.139 395.359 148.426C395.715 147.712 395.477 146.759 395.477 146.759C395.477 146.759 395.835 145.569 395.002 145.332C394.17 145.094 394.169 144.261 393.336 144.022C392.503 143.783 391.194 143.19 391.194 143.19C391.194 143.19 391.075 143.19 390.718 143.071C390.36 142.952 390.361 142.951 389.409 142.714C388.457 142.476 387.742 142.713 387.267 142.118C386.79 141.524 387.029 140.691 387.029 140.691C387.029 140.691 388.933 140.928 387.029 139.5L385.125 138.073C385.125 138.073 385.362 137.954 385.243 137.716C385.123 137.477 386.431 137.716 386.431 137.716Z" fill="#345F6E" fill-opacity="0.5"/>
<path d="M332.882 127.836C332.882 127.836 333.477 128.432 334.429 128.312C335.381 128.193 336.094 130.216 336.69 130.93C337.285 131.644 337.642 132.001 338.951 132.834C340.259 133.667 340.14 132.12 341.926 134.619C343.711 137.118 342.877 135.571 343.711 137.117C344.543 138.666 345.02 139.498 345.495 139.856C345.971 140.214 346.329 141.164 346.448 141.521C346.567 141.878 347.399 142.949 347.399 143.306C347.399 143.663 347.638 144.615 346.924 145.448C346.21 146.28 345.614 146.4 345.614 146.4C345.614 146.4 344.186 145.686 343.711 144.972C343.235 144.258 342.64 143.663 341.806 142.236C340.973 140.808 340.022 139.26 339.546 138.546C339.07 137.833 338.356 137.117 337.999 136.404C337.642 135.691 336.69 133.548 336.214 133.31C335.738 133.071 335.619 132.358 334.785 131.525C333.953 130.692 334.072 129.978 333.715 129.502C333.358 129.027 332.525 127.954 332.525 127.954L332.882 127.836Z" fill="#345F6E" fill-opacity="0.5"/>
<path d="M101.437 220.656C100.603 220.18 98.8186 219.347 98.2239 218.871C97.6291 218.395 95.8443 215.776 95.8443 215.776L94.5348 213.277C94.5348 213.277 92.9884 211.373 93.3453 210.66C93.7021 209.945 94.4164 209.47 94.4164 209.113C94.4164 208.756 95.1301 207.803 94.5348 207.447C93.94 207.089 93.94 206.971 93.5826 205.9C93.2258 204.829 93.2258 203.876 92.75 203.639C92.2742 203.401 91.9168 201.854 91.441 201.735C90.9651 201.616 90.4888 200.783 90.4888 200.783L89.7746 191.144C89.7746 191.144 89.5361 186.742 89.2988 185.789C89.0614 184.836 89.6556 182.815 89.0603 181.029C88.465 179.244 89.1798 177.103 88.8224 176.389C88.465 175.674 89.0603 173.652 88.7035 171.748C88.3466 169.845 90.1314 167.465 88.7035 166.751C87.2755 166.037 88.3466 164.965 87.1566 164.965C85.9665 164.965 85.1338 164.37 84.0627 163.538C82.9916 162.705 80.9684 161.157 80.3736 160.562C79.7789 159.968 77.8746 158.42 77.2798 157.945C76.685 157.469 76.0898 155.446 75.6139 154.85C75.1381 154.256 74.9002 152.471 74.186 151.4C73.4717 150.33 72.5201 148.545 72.2817 148.187C72.0433 147.83 69.4258 144.737 69.4258 144.737L69.6637 142.833C69.6637 142.833 71.4485 141.762 71.2106 141.405C70.9727 141.048 71.3301 140.69 70.4963 139.977C69.6626 139.264 69.7821 137.953 70.4963 137.359C71.2106 136.763 72.2812 134.859 72.2812 134.859L74.066 131.885C74.066 131.885 75.4945 130.337 75.4945 129.267C75.4945 128.196 77.5172 127.482 76.3271 126.53C75.1371 125.578 75.7324 124.745 75.375 124.031C75.0176 123.316 75.256 122.841 76.3271 122.127C77.3982 121.413 79.302 118.795 79.302 118.795C79.302 118.795 80.73 118.438 81.0868 118.438C81.4437 118.438 82.039 114.629 83.1101 117.128C84.1812 119.627 84.538 118.318 84.1812 120.103C83.8243 121.888 84.657 121.531 85.1328 121.056C85.6086 120.58 84.8944 121.412 85.8465 119.27C86.7987 117.127 86.4418 116.414 87.0366 117.01C87.6313 117.605 87.8692 117.724 88.9403 118.081C90.0109 118.438 90.3683 118.318 90.7246 119.032C91.0815 119.747 90.963 118.794 92.9858 119.152C95.0085 119.509 97.8644 118.438 97.5076 119.627C97.1507 120.817 96.4364 119.508 98.1023 120.817C99.7682 122.126 100.007 122.364 100.958 122.603C101.91 122.841 102.743 122.722 104.172 124.149C105.6 125.577 105.956 125.696 106.313 126.41C106.67 127.123 107.265 126.648 107.86 127.362C108.455 128.075 109.288 128.076 110.121 128.076C110.953 128.076 110.121 127.362 111.43 128.314C112.739 129.267 113.691 129.384 114.286 131.289C114.88 133.193 116.07 133.074 115.118 134.978C114.166 136.883 112.263 137.715 113.096 137.596C113.928 137.477 115.476 136.763 115.952 136.882C116.427 137.001 116.665 136.525 117.379 136.882C118.094 137.239 118.213 136.406 118.094 137.239C117.975 138.072 117.974 137.239 117.974 138.072C117.974 138.905 117.736 137.239 119.164 137.596C120.592 137.954 119.759 136.882 121.425 138.429C123.091 139.976 123.091 139.501 123.686 140.333C124.281 141.165 124.876 139.858 125.233 140.214C125.59 140.571 126.661 140.333 127.732 140.571C128.803 140.81 128.089 139.858 129.755 140.928C131.421 141.999 133.087 141.642 133.444 142.594C133.801 143.546 134.753 143.189 135.229 143.784C135.704 144.379 135.942 143.546 136.419 144.379C136.895 145.211 138.323 144.974 138.085 145.806C137.846 146.64 138.441 146.164 138.203 147.353C137.965 148.543 137.132 150.448 136.419 150.923C135.706 151.399 135.705 151.994 135.229 152.589C134.752 153.184 134.872 151.994 134.277 153.66C133.681 155.326 133.801 155.565 133.325 157.111C132.849 158.657 133.206 157.111 132.849 158.658C132.492 160.205 132.73 161.157 132.373 162.942C132.016 164.728 132.135 164.727 131.897 166.036C131.66 167.345 132.492 165.442 131.421 168.178C130.351 170.915 130.232 170.795 129.875 171.986C129.517 173.176 129.994 172.224 128.685 172.938C127.376 173.652 128.09 173.414 126.543 173.89C124.996 174.366 123.092 174.843 122.497 174.961C121.902 175.08 119.522 175.794 120.236 177.221C120.951 178.649 120.951 178.888 120.236 180.673C119.522 182.458 118.452 183.053 118.452 183.885C118.452 184.718 117.975 185.551 117.857 186.146C117.737 186.741 118.927 185.551 117.5 187.336C116.073 189.121 115.953 188.645 115.477 189.716C115.001 190.787 115.477 189.953 115.001 190.787C114.525 191.62 113.335 191.976 113.335 191.976C113.335 191.976 113.454 192.571 112.978 192.334C112.502 192.096 112.621 192.452 110.835 191.976C109.05 191.5 108.813 190.311 108.575 191.144C108.337 191.976 108.694 192.453 109.765 193.286C110.835 194.119 112.621 194.356 112.144 195.19C111.668 196.024 111.669 196.023 111.312 196.499C110.954 196.975 111.788 196.618 110.954 196.975C110.121 197.333 109.645 198.88 109.289 198.88C108.932 198.88 108.693 199.474 108.217 199.236C107.742 198.999 106.552 198.165 106.314 198.641C106.075 199.117 105.599 198.046 105.718 199.712C105.837 201.378 106.076 202.33 105.481 202.687C104.885 203.045 103.457 202.687 103.457 202.687L103.219 202.092L102.387 202.33C102.387 202.33 102.03 203.758 102.625 203.996C103.219 204.234 103.1 204.471 103.695 205.185C104.29 205.899 103.934 207.208 103.934 207.208C103.934 207.208 103.934 207.566 103.339 208.161C102.744 208.755 102.506 209.232 102.387 209.589C102.267 209.945 101.554 211.493 102.625 211.373C103.695 211.254 104.529 210.659 104.529 212.563C104.529 214.468 105.005 213.992 104.41 215.3C103.815 216.609 103.339 216.728 103.22 217.918C103.101 219.108 103.339 219.227 103.577 219.941C103.815 220.655 104.41 220.298 103.815 220.655C103.221 221.012 101.437 220.656 101.437 220.656Z" fill="#345F6E" fill-opacity="0.5"/>
<path d="M70.735 123.792L69.9024 122.603C69.9024 122.603 69.5455 121.888 68.9502 121.77C68.3549 121.651 67.0459 120.104 67.0459 120.104C67.0459 120.104 66.4512 119.628 66.4512 118.795C66.4512 117.963 65.9748 116.654 66.3317 115.226C66.6885 113.798 66.808 112.013 66.6891 111.537C66.5696 111.061 67.2838 110.942 66.4512 110.466C65.6185 109.989 63.9521 109.871 62.881 109.871C61.8104 109.871 60.5009 110.228 60.263 110.347C60.0251 110.466 61.572 106.777 61.8099 106.182C62.0478 105.587 63.1189 102.969 63.1189 102.613C63.1189 102.255 63.4758 102.136 62.762 101.661C62.0483 101.186 60.8583 100.947 60.144 101.304C59.4303 101.661 59.5493 100.828 58.9545 102.255C58.3597 103.683 57.7645 105.231 57.0502 105.469C56.336 105.706 54.9085 106.421 54.9085 106.421C54.9085 106.421 53.1237 106.302 52.5284 106.183C51.9331 106.064 49.4346 104.755 48.9588 103.922C48.483 103.089 48.2451 101.304 48.2451 100.471C48.2451 99.6383 49.5536 97.1397 49.4346 96.5444C49.3157 95.9491 50.7441 93.5696 50.6247 93.2122C50.5052 92.8548 50.8626 91.6653 51.2194 91.1895C51.5763 90.7136 53.3616 90.1184 53.8374 89.6425C54.3132 89.1667 55.1464 88.572 55.9791 88.3335C56.8118 88.0951 57.5266 87.8577 58.1213 87.8577C58.7161 87.8577 60.263 86.5487 60.5009 87.8577C60.7388 89.1667 61.8104 88.6904 62.4052 88.8094C63 88.9283 63.1194 89.5236 64.071 87.9767C65.0227 86.4298 65.9748 85.9534 65.9748 86.3103C65.9748 86.6677 67.5217 86.1919 67.7596 86.5487C67.9975 86.9056 68.4739 86.3103 69.3065 87.0245C70.1392 87.7388 71.3293 87.8577 71.2103 88.2141C71.0914 88.5709 71.6861 88.5709 71.6861 88.9283C71.6861 89.2857 72.1625 88.0951 72.1625 90.2368C72.1625 92.3785 72.7572 93.688 72.7572 93.688C72.7572 93.688 73.5899 95.4733 73.9467 95.1159C74.3036 94.7586 75.0173 93.8075 75.0173 93.8075C75.0173 93.8075 76.2074 93.0932 75.3747 90.5942C74.5415 88.0956 75.1368 87.3814 74.8989 86.5482C74.661 85.715 74.6605 85.2387 76.0884 84.1681C77.5164 83.0975 80.9671 80.7174 81.8003 80.2416C82.6335 79.7658 84.5367 78.4568 84.5367 78.4568C84.5367 78.4568 85.2504 78.0999 85.3699 77.1478C85.4894 76.1956 87.7495 74.5298 87.8689 74.054C87.9884 73.5782 89.5353 72.3886 89.5353 72.3886C89.5353 72.3886 91.2007 71.436 91.0817 70.8417C90.9628 70.247 93.2239 69.1764 93.5808 69.1764C93.9376 69.1764 95.8419 69.7706 95.8419 68.6995C95.8419 67.6289 95.8419 67.3905 97.032 66.4389C98.222 65.4873 99.7684 64.0588 100.364 64.0588C100.959 64.0588 102.982 62.9887 103.814 62.7503C104.647 62.5119 107.266 61.3218 104.885 62.7503C102.505 64.1788 104.052 63.3451 103.576 64.5351C103.101 65.7252 102.743 67.2721 105.004 65.4867C107.266 63.7014 107.146 63.3445 107.979 63.2261C108.813 63.1072 108.217 63.583 110.002 62.9877C111.787 62.3924 111.906 62.155 111.906 62.155C111.906 62.155 112.74 61.4408 112.263 61.0844C111.787 60.7271 112.74 60.2513 110.954 60.965C109.169 61.6787 109.288 61.7982 108.098 61.4408C106.908 61.0834 105.123 61.2023 106.432 60.0123C107.741 58.8222 109.407 58.4654 108.336 57.9896C107.266 57.5138 104.529 58.109 104.172 58.2275C103.814 58.3464 102.982 58.1085 102.267 58.2275C101.553 58.3464 101.792 57.2764 102.267 57.038C102.743 56.7995 104.291 56.0853 106.194 55.6095C108.098 55.1337 112.74 55.0147 113.81 55.0147C114.881 55.0147 116.309 55.2531 117.142 54.6578C117.975 54.0626 119.641 53.1115 119.879 52.6346C120.117 52.1577 121.069 51.4451 121.069 51.4451C121.069 51.4451 122.139 50.374 121.545 49.8982C120.95 49.4224 120.355 48.3513 119.879 48.5892C119.403 48.8271 119.76 50.2555 118.808 48.7081C117.856 47.1617 117.975 46.9233 117.499 46.5664C117.023 46.2096 116.547 46.447 116.904 44.7816C117.262 43.1163 117.142 42.4015 117.142 42.4015C117.142 42.4015 117.499 40.9741 117.142 40.8551C116.785 40.7356 116.548 40.3793 115.953 40.7356C115.358 41.0925 112.026 42.7589 111.312 43.1158C110.598 43.4726 109.646 41.6878 110.003 40.8551C110.36 40.0214 110.122 40.4977 109.646 39.3082C109.17 38.1187 107.266 37.8797 106.552 37.8797C105.838 37.8797 104.172 36.8086 103.696 37.5229C103.22 38.2371 100.722 40.4972 100.245 40.7356C99.7679 40.9741 99.0552 38.7129 98.6984 42.4015C98.341 46.0912 100.007 47.1617 98.1036 47.3996C96.1998 47.6375 94.5335 48.7081 94.5335 48.7081C94.5335 48.7081 92.9871 48.8276 92.9871 49.7792C92.9871 50.7308 92.3923 52.992 91.6775 53.2299C90.9628 53.4678 89.1785 53.1115 88.5837 52.3972C87.989 51.683 88.7027 49.0655 88.7027 49.0655L89.7738 47.9944C89.7738 47.9944 82.1582 46.8049 82.2766 46.3285C82.3961 45.8527 80.016 45.02 79.7781 44.3058C79.5402 43.5916 79.4207 42.0447 79.6591 41.4499C79.8975 40.8551 83.1098 37.9992 84.7757 37.4044C86.4415 36.8097 89.2974 35.5007 90.1306 35.2622C90.9638 35.0238 92.3913 35.1433 92.8676 34.5485C93.3439 33.9538 93.4624 32.8827 93.4624 32.8827C93.4624 32.8827 93.2245 31.2163 93.7003 31.4542C94.1761 31.6921 95.0093 32.0495 95.1282 32.4063C95.2472 32.7632 95.2477 33.5964 96.0804 32.6437C96.913 31.691 97.9847 31.3347 98.9363 30.8594C99.8879 30.3841 101.316 30.5026 102.15 30.0268C102.983 29.5509 104.41 29.0746 104.529 27.8846C104.648 26.6945 104.172 27.0519 103.577 26.9324C102.982 26.814 103.815 27.0519 101.792 28.0035C99.7695 28.9551 100.364 28.2414 98.9363 28.9551C97.5083 29.6688 97.3889 29.7883 97.2704 29.1936C97.1509 28.5983 97.5083 27.6466 97.5083 27.6466C97.5083 27.6466 97.6278 27.5272 96.7946 27.2898C95.9614 27.0524 95.9614 27.4087 95.8425 26.3382C95.7235 25.2671 96.4372 23.7202 95.2477 24.196C94.0582 24.6718 92.9871 23.8391 92.1539 26.2187C91.3207 28.5983 88.4648 31.0979 87.7505 30.5026C87.0363 29.9073 86.9179 29.7883 86.3226 29.7883C85.7273 29.7883 84.8946 29.0746 83.8235 28.9557C82.7524 28.8367 79.5391 28.8367 78.707 28.9557C77.8738 29.0751 76.9222 28.4798 76.2074 29.1941C75.4926 29.9083 74.4231 30.8599 74.4231 31.2173C74.4231 31.5747 73.352 29.9078 72.9951 30.0273C72.6383 30.1468 71.6856 29.5515 70.6156 29.5515C69.5445 29.5515 68.8302 28.9562 68.4739 28.9562C68.117 28.9562 68.8302 28.004 68.4739 27.8851C68.117 27.7667 60.3814 27.5282 60.3814 27.5282C60.3814 27.5282 57.8829 26.5766 56.9313 26.6956C55.9796 26.8145 53.3616 26.9329 51.3379 27.2903C49.3141 27.6477 46.3397 28.8372 45.3881 28.9562C44.436 29.0757 42.2943 29.0757 41.9374 28.4804C41.5801 27.8856 42.0564 28.0046 41.5801 27.8856C41.1037 27.7666 41.4616 27.5287 40.3905 26.6961C39.3194 25.8634 40.8669 25.1492 38.7247 25.1492C36.5825 25.1492 35.274 25.0297 33.3702 25.1492C31.4665 25.2686 27.5394 26.2197 27.0636 26.1008C26.5878 25.9818 22.7798 26.6961 22.1845 26.3392C21.5897 25.9818 18.6143 27.6477 18.0201 27.5287C17.4253 27.4098 15.1642 27.6482 14.5694 28.0051C13.9746 28.3619 11.1182 29.0756 12.0703 29.6709C13.0225 30.2662 12.903 30.8605 13.022 31.2179C13.1409 31.5752 12.0703 32.4074 12.0703 32.4074C12.0703 32.4074 11.8319 32.4074 10.5234 31.9316C9.21495 31.4558 7.78646 31.2178 7.19117 31.5747C6.59588 31.9316 5.52531 32.6463 5.76321 33.1221C6.00112 33.598 7.66698 34.6691 7.90541 34.3117C8.14385 33.9543 8.73861 33.2411 9.45232 33.3601C10.1666 33.4795 11.2377 32.8842 10.2855 34.0743C9.33337 35.2643 8.50017 35.8591 7.90541 35.9786C7.31065 36.097 5.88269 36.216 4.57369 36.3354C3.26468 36.4549 3.3831 35.8596 2.19358 37.0497C1.00405 38.2397 0.527716 37.5255 0.28981 38.8345C0.0519052 40.1435 -0.186 40.143 0.28981 40.5004C0.76562 40.8578 -0.662338 40.9762 0.408762 41.333C1.47933 41.6904 2.78834 42.0473 2.66939 42.4036C2.54991 42.761 3.85944 41.9283 3.1452 42.8794C2.43095 43.8305 1.95567 44.6642 3.3831 43.7126C4.81053 42.761 5.64373 43.4742 6.83378 42.8794C8.02383 42.2847 9.21389 42.1657 9.9276 41.6899C10.6413 41.2141 10.9987 40.5004 12.0698 40.1425C13.1409 39.7845 12.4267 40.2619 12.5456 40.8567C12.6646 41.4515 12.5456 41.5704 13.2599 41.0941C13.9741 40.6177 13.9736 40.9757 14.9257 40.3804C15.8779 39.7851 16.9484 39.1903 17.6627 39.5472C18.3764 39.9046 18.6143 39.9046 19.0906 39.9046C19.567 39.9046 18.4959 39.7851 19.5665 39.9046C20.6376 40.023 19.0906 39.5472 22.6603 40.3804C26.2299 41.2136 27.1826 40.6183 27.42 41.9273C27.6573 43.2363 28.1342 41.8078 28.729 42.641C29.3237 43.4742 29.6811 42.7605 30.038 44.1879C30.3948 45.6153 30.038 49.5429 29.8001 50.0187C29.5622 50.4945 29.4432 50.4945 29.5622 51.5656C29.6811 52.6362 31.1091 57.7538 30.6333 58.1101C30.1574 58.4664 29.0863 58.5859 29.0863 58.5859L28.4916 60.7276C28.4916 60.7276 27.54 62.5124 26.7068 63.4645C25.8736 64.4167 24.803 65.6067 24.2077 66.4389C23.6129 67.2721 23.1366 68.7006 22.3039 69.5332C21.4713 70.3659 20.757 70.009 20.9949 71.7939C21.2328 73.5787 20.9949 75.4824 21.2328 76.792C21.4707 78.1015 22.066 79.8858 22.5418 80.6C23.0177 81.3143 23.375 81.3138 24.2077 81.9085C25.0409 82.5033 26.112 83.218 25.9925 83.8128C25.873 84.4076 26.1115 88.0972 26.1115 88.0972C26.1115 88.0972 26.8257 89.2867 26.9441 90.5957C27.0636 91.9053 27.8963 93.2138 27.8963 93.2138L28.6105 94.7612C28.6105 94.7612 28.9674 94.8807 29.4437 95.8318C29.9201 96.7829 29.9195 96.7839 30.0385 97.2592C30.158 97.7361 30.158 97.6166 30.158 97.7361C30.158 97.8545 30.0385 95.7128 29.8006 95.1175C29.5627 94.5222 29.5627 93.8091 29.3248 93.0948C29.0869 92.3806 29.4437 91.5474 28.73 90.4768C28.0163 89.4062 28.0163 89.2867 27.6594 88.2156C27.3026 87.1451 26.8262 85.955 27.3026 85.7166C27.7789 85.4781 28.1353 83.9323 29.0874 85.7166C30.0395 87.5009 30.1585 87.0261 30.2775 88.4541C30.3959 89.882 30.7533 90.3584 31.1101 90.9526C31.467 91.5474 32.2996 93.5711 32.776 94.4033C33.2518 95.2365 32.776 93.9275 33.8466 95.5933C34.9177 97.2592 35.0371 97.6161 35.6319 98.9251C36.2267 100.234 36.584 100.234 36.9409 101.186C37.2978 102.137 37.0599 101.9 36.8214 102.971C36.583 104.041 37.0593 105.232 37.0593 105.232C37.0593 105.232 38.7252 105.826 38.8441 106.183C38.9631 106.54 40.629 107.135 40.8674 107.611C41.1058 108.088 42.6522 108.682 42.6522 108.682C42.6522 108.682 43.9612 109.515 44.4365 109.753C44.9118 109.991 46.3413 110.229 46.3413 110.229C46.3413 110.229 47.2929 110.468 47.6498 110.586C48.0066 110.705 49.0778 110.705 49.0778 110.705C49.0778 110.705 50.0299 109.991 50.3868 110.229C50.7436 110.467 51.5768 109.753 51.9337 110.348C52.2905 110.942 53.0048 110.943 53.3616 111.419C53.7185 111.896 54.0753 111.895 54.6706 112.49C55.2659 113.085 55.8607 112.966 56.4554 113.441C57.0502 113.917 57.526 113.917 58.2403 113.917C58.9545 113.917 58.954 113.917 59.4303 114.037C59.9067 114.156 60.144 113.679 60.6198 114.275C61.0956 114.871 61.4525 115.227 61.8094 115.822C62.1662 116.416 62.9994 116.416 63.1184 117.369C63.2373 118.321 63.4752 118.202 63.4752 119.034C63.4752 119.868 63.951 120.224 64.3084 120.463C64.6647 120.7 65.9738 121.89 65.9738 121.89L67.7586 122.247L69.1865 123.318L70.735 123.792Z" fill="#345F6E" fill-opacity="0.5"/>
<path d="M108.873 13.2451L116.012 12.3527C116.012 12.3527 118.511 12.3527 119.761 11.4603C121.011 10.5679 119.761 10.5679 123.509 9.85415C127.257 9.14044 126.187 8.78305 128.15 9.13991C130.113 9.49729 130.649 9.49729 132.791 9.85415C134.933 10.211 135.468 9.67599 137.431 10.211C139.394 10.746 140.287 10.5679 141.894 10.5679L146.891 10.5679C149.39 10.5679 151.711 9.13991 152.603 10.0323C153.496 10.9247 154.031 10.5679 157.066 10.9247C160.1 11.2816 161.35 10.5673 162.599 10.9247C163.848 11.2821 165.991 10.7466 168.489 10.9247C170.988 11.1029 172.238 10.7466 173.13 10.7466C174.023 10.7466 174.914 9.49677 176.164 10.5679C177.414 11.639 179.02 10.211 179.198 11.639C179.377 13.0669 181.697 11.9958 179.377 13.0669C177.057 14.138 177.414 13.9593 175.807 15.3873C174.2 16.8153 176.878 18.0645 173.487 19.3143C170.095 20.5641 169.56 18.6001 168.667 20.7423C167.775 22.8845 168.667 23.4195 168.489 24.4906C168.31 25.5612 167.953 25.7399 166.882 26.6323C165.812 27.5247 165.812 26.6323 163.313 27.1678C160.814 27.7034 159.029 28.2389 157.958 28.2389C156.888 28.2389 154.567 29.1313 153.853 29.4882C153.138 29.845 155.102 30.3806 151.353 31.4517C147.605 32.5228 146.712 32.3446 145.642 33.7721C144.571 35.1995 144.927 35.3792 144.214 36.2716C143.5 37.1641 141.358 40.7342 140.287 39.8418C139.216 38.9494 138.68 39.1276 137.788 38.2352C136.895 37.3427 136.36 36.0935 135.824 35.3792C135.289 34.665 135.11 32.8802 134.932 31.8091C134.753 30.738 133.146 28.2394 134.932 28.5963C136.716 28.9532 137.788 28.775 138.323 28.4181C138.859 28.0613 139.394 26.8115 139.394 26.8115C139.394 26.8115 139.216 24.848 138.68 23.7769C138.144 22.7058 138.502 21.8134 137.609 20.7428C136.717 19.6717 136.717 19.8504 135.467 18.7793C134.217 17.7082 134.575 17.1726 132.611 16.9945C130.648 16.8163 130.112 16.2802 129.398 16.4589C128.684 16.6376 126.364 15.2091 128.862 15.031C131.361 14.8528 133.682 15.2091 133.682 15.2091C133.682 15.2091 136.895 13.7812 135.824 13.603C134.753 13.4243 137.43 11.8177 134.932 12.3532C132.433 12.8888 129.577 13.603 128.863 13.7812C128.149 13.9593 126.364 14.138 124.579 14.6736C122.794 15.2091 120.652 15.031 119.581 16.2802C118.51 17.5295 119.581 17.7082 118.51 17.5295C117.44 17.3513 119.403 16.2802 116.904 17.5295C114.406 18.7788 115.119 18.6006 113.87 18.2437C112.62 17.8869 111.728 17.3513 111.728 17.3513C111.728 17.3513 113.335 17.1726 111.014 16.9945C108.693 16.8163 108.694 16.8163 107.802 15.7447C106.909 14.673 107.445 14.6736 107.98 14.3167C108.515 13.9599 108.873 13.2451 108.873 13.2451Z" fill="#345F6E" fill-opacity="0.5"/>
<path d="M104.947 21.2773C104.054 22.1698 101.912 23.4195 102.448 23.9551C102.984 24.4906 103.341 26.4542 104.412 25.9186C105.482 25.3831 104.233 23.5982 108.338 25.0262C112.444 26.4542 112.087 24.848 112.979 26.9897C113.871 29.1314 114.585 30.7375 114.05 31.2736C113.514 31.8097 113.336 32.3447 111.55 32.8802C109.765 33.4158 109.051 34.13 110.301 35.0219C111.551 35.9138 113.871 36.8067 114.942 37.3428C116.012 37.8789 119.226 38.057 117.619 36.2722C116.012 34.4874 117.976 33.9513 117.976 33.9513C117.976 33.9513 121.011 36.2722 119.94 33.5945C118.869 30.9167 118.155 30.9173 118.869 30.9173C119.583 30.9173 121.011 31.8097 121.011 31.8097L121.725 30.3817L121.011 28.0613L118.69 25.741C118.69 25.741 120.653 23.9562 117.976 23.5993C115.299 23.2424 115.477 23.2424 114.049 22.3495C112.621 21.4566 112.443 21.1002 109.765 21.6358C107.087 22.1713 106.195 22.5282 106.195 22.5282L104.947 21.2773Z" fill="#345F6E" fill-opacity="0.5"/>
<path d="M65.1426 23.4196C66.2137 22.3485 69.0696 19.85 70.1407 20.5637C71.2113 21.2774 72.8174 20.0282 74.0672 21.0993C75.317 22.1704 76.7444 23.4196 77.8155 23.7765C78.8866 24.1333 80.1359 22.8841 81.207 23.4196C82.2775 23.9552 86.0259 20.7424 85.3122 23.2415C84.5984 25.7405 86.2046 26.4542 84.2411 26.6329C82.2775 26.8116 80.1359 28.2396 79.2429 27.704C78.35 27.1685 77.6363 26.6329 76.2083 27.3472C74.7804 28.0614 75.4946 28.0609 73.888 27.704C72.2813 27.3472 71.925 28.0609 71.5681 27.5253C71.2107 26.9903 70.1402 27.1685 70.3183 25.5618C70.4965 23.9552 71.032 24.1339 69.9609 24.1339C68.8904 24.1339 67.998 24.3126 67.2837 23.777C66.5695 23.2415 65.1426 23.4196 65.1426 23.4196Z" fill="#345F6E" fill-opacity="0.5"/>
</g>
<defs>
<clipPath id="clip0_1869_21331">
<rect width="414" height="199" fill="white"/>
</clipPath>
</defs>
</svg>
