<svg width="16" height="16" viewBox="0 0 16 16" fill="none" xmlns="http://www.w3.org/2000/svg">
<path d="M10.7396 8.01049C12.2537 8.01049 13.4812 6.78304 13.4812 5.26891C13.4812 3.75478 12.2537 2.52734 10.7396 2.52734C9.22549 2.52734 7.99805 3.75478 7.99805 5.26891C7.99805 6.78304 9.22549 8.01049 10.7396 8.01049Z" fill="#A0BBC5"/>
<path d="M10.7383 8.01034C12.2524 8.01034 13.4798 6.78288 13.4798 5.26876C13.4798 4.09749 12.7453 3.09778 11.7118 2.70508" stroke="#345F6E" stroke-width="1.14286" stroke-linecap="round" stroke-linejoin="round"/>
<path d="M14.4852 11.8618C15.8262 12.755 14.9207 14.4776 13.3094 14.4776H7.25869C5.64744 14.4776 4.74189 12.755 6.08293 11.8618C7.28581 11.0607 8.73041 10.5938 10.2841 10.5938C11.8377 10.5938 13.2823 11.0607 14.4852 11.8618Z" fill="#A0BBC5"/>
<path d="M6.12614 7.46711C7.76743 7.46711 9.09797 6.13657 9.09797 4.49528C9.09797 2.85397 7.76743 1.52344 6.12614 1.52344C4.48483 1.52344 3.1543 2.85397 3.1543 4.49528C3.1543 6.13657 4.48483 7.46711 6.12614 7.46711Z" fill="#A0BBC5" stroke="#345F6E" stroke-width="1.14286" stroke-linecap="round" stroke-linejoin="round"/>
<path d="M10.679 11.6421C12.1327 12.6103 11.1511 14.4776 9.4045 14.4776H2.84557C1.09899 14.4776 0.117394 12.6103 1.57106 11.6421C2.87498 10.7737 4.4409 10.2676 6.12504 10.2676C7.80918 10.2676 9.37511 10.7737 10.679 11.6421Z" fill="#A0BBC5" stroke="#345F6E" stroke-width="1.14286"/>
<path d="M9.15234 14.4775H13.3095C14.9208 14.4775 15.8263 12.7549 14.4853 11.8617C14.115 11.615 13.7218 11.4001 13.3095 11.2207" stroke="#345F6E" stroke-width="1.14286" stroke-linecap="round"/>
</svg>
