<svg width="25" height="25" viewBox="0 0 25 25" fill="none" xmlns="http://www.w3.org/2000/svg">
<path d="M12.3335 2.5C9.58095 2.5 7.3335 4.74746 7.3335 7.5C7.3335 10.2525 9.58095 12.5 12.3335 12.5C15.086 12.5 17.3335 10.2525 17.3335 7.5C17.3335 4.74746 15.086 2.5 12.3335 2.5ZM12.3335 4C14.2754 4 15.8335 5.55812 15.8335 7.5C15.8335 9.44188 14.2754 11 12.3335 11C10.3916 11 8.8335 9.44188 8.8335 7.5C8.8335 5.55812 10.3916 4 12.3335 4ZM6.32275 14.5C5.23285 14.5 4.3335 15.3994 4.3335 16.4893V17.25C4.3335 19.0521 5.47313 20.4461 6.98682 21.2812C8.5005 22.1164 10.4175 22.5 12.3335 22.5C14.2494 22.5 16.1665 22.1164 17.6802 21.2812C18.9708 20.5692 19.9422 19.4313 20.2144 18H20.3345V16.4893C20.3345 15.3994 19.4341 14.5 18.3442 14.5H6.32275ZM6.32275 16H18.3442C18.6233 16 18.8345 16.2102 18.8345 16.4893V16.5H18.8335V17.25C18.8335 18.4479 18.1606 19.3039 16.9556 19.9688C15.7505 20.6336 14.0425 21 12.3335 21C10.6244 21 8.91649 20.6336 7.71143 19.9688C6.50636 19.3039 5.8335 18.4479 5.8335 17.25V16.4893C5.8335 16.2102 6.04366 16 6.32275 16Z" fill="#41778A"/>
</svg>
