<svg width="24" height="24" viewBox="0 0 24 24" fill="none" xmlns="http://www.w3.org/2000/svg">
<path d="M1.47332 13.0915C1.46399 13.3738 1.45898 13.6756 1.45898 14.0011C1.45898 16.1169 1.67056 17.2359 1.90726 18.4879C1.91328 18.5198 1.91931 18.5517 1.92536 18.5837C2.24148 20.2575 3.67717 21.6026 5.4794 21.8577C5.57117 21.8705 5.66245 21.8835 5.75345 21.8964C7.43689 22.1355 9.01208 22.3593 11.3667 22.3593C13.7213 22.3593 15.2965 22.1355 16.9799 21.8964C17.0709 21.8835 17.1622 21.8705 17.2539 21.8577C19.0562 21.6026 20.4919 20.2575 20.808 18.5837C20.814 18.5517 20.82 18.5198 20.826 18.4879C21.0627 17.2359 21.2743 16.1169 21.2743 14.0011C21.2743 11.8852 21.0627 10.7662 20.826 9.51415C20.82 9.48235 20.814 9.45045 20.808 9.41846C20.4919 7.74454 19.0562 6.39948 17.2539 6.14453C17.2323 6.14148 17.2107 6.13843 17.1893 6.13538C17.1775 6.05637 17.1665 5.97783 17.1564 5.8997C19.022 5.05802 18.5386 2.4473 16.7211 2.06913C15.2311 1.75911 11.7747 1.64062 9.70825 1.64062C7.74778 1.64062 6.43625 1.91462 5.03456 2.20743C4.95883 2.22326 4.88283 2.23913 4.80644 2.25504C3.30588 2.56725 2.11051 4.2144 1.84729 6.26424C1.84225 6.30343 1.83723 6.3425 1.83223 6.38145C1.63514 7.91465 1.45898 9.28505 1.45898 11.8761C1.45898 12.3138 1.46401 12.7167 1.47332 13.0915Z" fill="#A0BBC5" stroke="#41778A" stroke-width="1.71429"/>
<path d="M7.52734 6.11882C8.70365 6.03059 10.6446 5.81934 12.6644 5.81934C14.7553 5.81934 15.7447 5.92596 17.1166 6.11882" stroke="#41778A" stroke-width="1.71429" stroke-linecap="round"/>
<path d="M21.157 16.6628H18.4728C17.023 16.6628 15.8477 15.4875 15.8477 14.0377C15.8477 12.5879 17.023 11.4126 18.4728 11.4126H21.157C22.1038 11.4126 22.8713 12.1801 22.8713 13.1269V14.9485C22.8713 15.8953 22.1038 16.6628 21.157 16.6628Z" fill="white" stroke="#41778A" stroke-width="1.71429" stroke-linecap="round"/>
</svg>
