<svg width="414" height="189" viewBox="0 0 414 189" fill="none" xmlns="http://www.w3.org/2000/svg">
<path d="M-103 72.8811C-48.8866 92.0045 63.0722 97.2011 78 -35" stroke="#345F6E" stroke-width="5"/>
<path d="M9.07905 207C8.25518 188.697 13.5279 144.975 41.2099 116.514C68.8919 88.054 93.9375 21.6463 103 -8" stroke="#345F6E" stroke-width="5"/>
<path d="M498.536 102.12C442.193 91.1914 330.693 102.573 335.437 235.529" stroke="#345F6E" stroke-width="5"/>
<path d="M367.893 -13.9901C371.409 3.99132 372.645 48.0126 349.466 80.2463C326.287 112.48 311.315 181.857 306.726 212.516" stroke="#345F6E" stroke-width="5"/>
<path d="M119 197C124.571 114.746 164.771 -0.409511 281 197" stroke="#345F6E" stroke-width="5"/>
<path d="M-166 55.4064C-156.066 62.6312 -15.1831 149.328 33.5841 -34" stroke="#345F6E" stroke-width="5"/>
<path d="M156 -7.99518C171.353 -8.89827 188.511 117.535 331.201 -7.99518" stroke="#345F6E" stroke-width="5"/>
<path d="M210.926 -1.28516C211.227 9.25096 221.222 24.0015 258.79 -1.28516" stroke="#345F6E" stroke-width="5"/>
</svg>
