<svg width="16" height="9" viewBox="0 0 16 9" fill="none" xmlns="http://www.w3.org/2000/svg">
<path d="M11.4947 0.494873C11.3952 0.494897 11.2979 0.524609 11.2154 0.580207C11.1329 0.635804 11.0688 0.71476 11.0314 0.80697C10.994 0.899181 10.985 1.00045 11.0054 1.09783C11.0259 1.19521 11.075 1.28426 11.1464 1.3536L13.6262 3.83341H1.16655C1.10029 3.83248 1.03451 3.84472 0.973024 3.86943C0.911539 3.89413 0.855579 3.93081 0.808394 3.97733C0.761209 4.02386 0.723741 4.07929 0.698167 4.14042C0.672593 4.20155 0.659424 4.26715 0.659424 4.33341C0.659424 4.39968 0.672593 4.46528 0.698167 4.52641C0.723741 4.58754 0.761209 4.64297 0.808394 4.68949C0.855579 4.73602 0.911539 4.7727 0.973024 4.7974C1.03451 4.82211 1.10029 4.83435 1.16655 4.83342H13.6262L11.1464 7.31323C11.0984 7.35931 11.0601 7.41449 11.0337 7.47555C11.0073 7.53662 10.9933 7.60233 10.9927 7.66885C10.992 7.73537 11.0046 7.80136 11.0297 7.86295C11.0549 7.92453 11.0921 7.98049 11.1391 8.02753C11.1861 8.07456 11.2421 8.11174 11.3037 8.13689C11.3653 8.16203 11.4313 8.17464 11.4978 8.17396C11.5643 8.17328 11.63 8.15934 11.6911 8.13295C11.7521 8.10656 11.8073 8.06825 11.8534 8.02026L15.1867 4.68693C15.2805 4.59316 15.3331 4.466 15.3331 4.33341C15.3331 4.20083 15.2805 4.07367 15.1867 3.9799L11.8534 0.646566C11.8068 0.59857 11.751 0.560415 11.6894 0.534359C11.6278 0.508303 11.5616 0.494876 11.4947 0.494873Z" fill="#41778A"/>
</svg>