<svg width="300" height="266" viewBox="0 0 300 266" fill="none" xmlns="http://www.w3.org/2000/svg">
<path d="M0.105118 137.321C0.0608633 167.362 10.6869 196.442 30.0888 219.377C30.7934 220.213 31.5112 221.037 32.2421 221.856C40.8444 231.53 50.865 239.843 61.9616 246.511C64.5069 248.039 67.1079 249.479 69.7647 250.831C70.0333 250.968 70.3064 251.104 70.575 251.236C70.8964 251.399 71.2223 251.558 71.5481 251.716C78.2712 255.007 85.2741 257.692 92.4738 259.739C93.2224 259.951 93.9725 260.156 94.724 260.356C104.195 262.862 113.924 264.264 123.717 264.535C124.228 264.548 124.73 264.557 125.214 264.566C125.386 264.57 125.553 264.574 125.721 264.574C126.271 264.579 126.817 264.583 127.367 264.583C137.688 264.591 147.97 263.344 157.99 260.871C158.994 260.625 159.993 260.365 160.988 260.092C166.231 258.661 171.375 256.891 176.388 254.794C179.03 253.693 181.625 252.506 184.173 251.232C184.75 250.941 185.327 250.65 185.895 250.351C186.137 250.232 186.375 250.104 186.613 249.981C200.194 242.813 212.373 233.257 222.568 221.772C223.272 220.984 223.964 220.182 224.646 219.377C243.352 197.222 296.935 164.294 296.935 133.028C296.935 90.9833 234.241 57.9955 202.809 34.8241C202.087 34.2913 201.36 33.7628 200.625 33.2476C200.479 33.1464 200.334 33.0451 200.189 32.9438C187.267 23.8928 172.764 17.3432 157.43 13.6343C156.559 13.4185 155.687 13.2159 154.806 13.0266C138.197 9.39352 121.032 9.09267 104.306 12.1415C103.43 12.3044 102.554 12.4717 101.682 12.6523C86.4848 15.7693 71.9908 21.655 58.9232 30.0154C58.6326 30.2004 58.3419 30.3853 58.0513 30.5791C57.4656 30.9578 56.88 31.3453 56.3031 31.7372C38.9925 43.375 24.8115 59.0937 15.0109 77.5069C5.21027 95.92 0.0912005 116.462 0.105118 137.321Z" fill="white"/>
<path d="M146.063 217.338C145.673 217.523 145.236 217.585 144.811 217.514C144.386 217.443 143.993 217.244 143.686 216.943C143.379 216.642 143.172 216.254 143.094 215.831C143.016 215.408 143.07 214.971 143.249 214.579C143.217 214.365 143.193 214.211 143.161 213.997C143.125 213.962 143.09 213.927 143.055 213.893C139.485 210.401 133.443 212.974 133.457 217.968C133.47 222.4 133.056 227.019 134.239 231.214C134.762 233.068 135.605 234.816 136.728 236.381C129.664 229.91 124.082 221.996 120.361 213.176C119.429 210.961 118.623 208.697 117.945 206.392C117.391 204.501 116.922 202.591 116.537 200.66C114.461 190.177 114.909 179.346 117.845 169.056C120.15 166.178 121.516 162.667 121.76 158.996C121.852 157.675 121.752 156.348 121.463 155.057C121.144 155.242 118.063 150.524 118.186 150.104C117.418 149.592 116.429 149.592 115.626 149.115C111.628 146.743 108.367 148.821 108.5 154.271C105.409 157.888 106.744 161.17 110.468 163.302C112.838 164.657 114.185 167.274 116.426 168.849C116.362 169.083 116.29 169.314 116.226 169.548C115.06 173.842 114.319 178.237 114.013 182.672C112.829 178.394 110.004 173.827 107.366 171.227C104.361 168.263 100.288 166.416 96.5155 164.348C91.9843 161.863 86.5907 166.045 88.0554 170.993C88.0696 171.041 88.0839 171.088 88.0983 171.136C88.5514 171.188 89.002 171.256 89.4502 171.34C90.0145 171.448 90.5324 171.723 90.936 172.13C91.3396 172.538 91.6102 173.057 91.7122 173.621C91.8142 174.185 91.7429 174.767 91.5077 175.291C91.2724 175.815 90.8842 176.256 90.3939 176.556L90.3437 176.587C91.0271 177.848 91.8058 179.055 92.6731 180.197C94.6315 193.72 103.332 195.289 113.174 191.388C113.435 191.407 113.691 191.429 113.951 191.443C114.296 197.451 115.423 203.387 117.304 209.101C118.424 212.468 119.815 215.738 121.465 218.88L121.4 218.771C119.17 215.444 115.854 212.99 112.014 211.823C106.331 210.14 99.8202 211.377 94.089 210.513C91.3301 210.097 89.2429 213.01 90.6919 215.385C90.715 215.423 90.7383 215.461 90.7616 215.498C91.5577 215.489 92.3535 215.528 93.1443 215.617C93.5974 215.669 94.048 215.737 94.4962 215.82C95.0605 215.928 95.5783 216.204 95.982 216.611C96.3856 217.018 96.6561 217.538 96.7582 218.102C96.8602 218.666 96.7889 219.248 96.5536 219.771C96.3184 220.295 95.9302 220.736 95.4399 221.037L95.3896 221.068C95.3533 221.09 95.3224 221.109 95.2862 221.131C97.6096 223.406 100.31 225.264 103.268 226.624C109.72 236.436 118.646 233.873 126.437 226.952L126.442 226.95C129.254 230.849 132.467 234.445 136.026 237.679L151.436 231.204C151.419 231.01 151.395 230.813 151.373 230.621C149.984 231.31 148.517 231.827 147.003 232.16C147.559 230.283 148.11 228.394 148.667 226.516C148.681 226.479 148.694 226.442 148.704 226.404C148.983 225.445 149.27 224.489 149.55 223.53L149.55 223.529C148.659 221.324 147.488 219.244 146.064 217.338L146.063 217.338Z" fill="#F0F4F5"/>
<path d="M75.6897 110.03L75.6712 110.034L46.7246 115.829L21.8236 125.857C21.5016 125.986 21.1573 126.051 20.8103 126.048C20.4633 126.044 20.1203 125.973 19.801 125.837C19.4817 125.701 19.1923 125.503 18.9493 125.255C18.7064 125.007 18.5146 124.714 18.385 124.392C18.3545 124.317 18.3275 124.24 18.3042 124.161L0.113117 63.2494C-0.0781436 62.6184 -0.0254896 61.9386 0.260639 61.3446C0.546767 60.7506 1.04551 60.2856 1.65814 60.0418L27.0146 49.8304L27.0331 49.8267L55.9797 44.0317L80.8806 34.0038C81.5308 33.742 82.2584 33.7492 82.9032 34.0237C83.5481 34.2983 84.0575 34.8179 84.3193 35.468C84.3498 35.5437 84.3767 35.6207 84.4001 35.699L102.591 96.6109C102.782 97.2419 102.73 97.9217 102.444 98.5157C102.157 99.1097 101.659 99.5747 101.046 99.8185L75.6897 110.03Z" fill="#F0F4F5"/>
<path d="M44.6278 69.1132C37.9899 66.7707 31.129 64.7186 24.2372 63.0142L23.8913 62.9287L27.3904 74.645L45.2171 69.3212L44.6278 69.1132ZM27.6636 74.1391L24.4848 63.4951C31.0444 65.1279 37.5719 67.0759 43.9029 69.2894L27.6636 74.1391ZM79.411 84.9513C76.321 83.2041 73.1867 81.5309 70.008 79.9319C69.1315 79.4903 68.2523 79.0552 67.3705 78.6266C61.9877 76.0079 56.5228 73.6207 50.9756 71.4648L50.9108 71.4396L28.4374 78.1512L34.5745 98.701L79.8271 85.1866L79.411 84.9513ZM34.8478 98.1951L28.9434 78.4244L50.8937 71.869C56.243 73.9493 61.5311 76.2536 66.7581 78.7819C67.6656 79.2205 68.5698 79.6658 69.4706 80.1178C72.6187 81.6938 75.7266 83.3448 78.7943 85.0707L34.8478 98.1951ZM79.411 84.9513C76.321 83.2041 73.1867 81.5309 70.008 79.9319C69.1315 79.4903 68.2523 79.0552 67.3705 78.6266C61.9877 76.0079 56.5228 73.6207 50.9756 71.4648L50.9108 71.4396L28.4374 78.1512L34.5745 98.701L79.8271 85.1866L79.411 84.9513ZM34.8478 98.1951L28.9434 78.4244L50.8937 71.869C56.243 73.9493 61.5311 76.2536 66.7581 78.7819C67.6656 79.2205 68.5698 79.6658 69.4706 80.1178C72.6187 81.6938 75.7266 83.3448 78.7943 85.0707L34.8478 98.1951ZM44.6278 69.1132C37.9899 66.7707 31.129 64.7186 24.2372 63.0142L23.8913 62.9287L27.3904 74.645L45.2171 69.3212L44.6278 69.1132ZM27.6636 74.1391L24.4848 63.4951C31.0444 65.1279 37.5719 67.0759 43.9029 69.2894L27.6636 74.1391ZM44.6278 69.1132C37.9899 66.7707 31.129 64.7186 24.2372 63.0142L23.8913 62.9287L27.3904 74.645L45.2171 69.3212L44.6278 69.1132ZM27.6636 74.1391L24.4848 63.4951C31.0444 65.1279 37.5719 67.0759 43.9029 69.2894L27.6636 74.1391ZM79.411 84.9513C76.321 83.2041 73.1867 81.5309 70.008 79.9319C69.1315 79.4903 68.2523 79.0552 67.3705 78.6266C61.9877 76.0079 56.5228 73.6207 50.9756 71.4648L50.9108 71.4396L28.4374 78.1512L34.5745 98.701L79.8271 85.1866L79.411 84.9513ZM34.8478 98.1951L28.9434 78.4244L50.8937 71.869C56.243 73.9493 61.5311 76.2536 66.7581 78.7819C67.6656 79.2205 68.5698 79.6658 69.4706 80.1178C72.6187 81.6938 75.7266 83.3448 78.7943 85.0707L34.8478 98.1951ZM16.3398 107.966L16.4562 108.355L31.8423 103.76L33.5293 109.409L18.1432 114.004L18.2595 114.394L34.0352 109.682L32.1155 103.254L16.3398 107.966ZM38.5884 112.141L39.7673 116.089L40.1461 115.936L39.0943 112.414L99.0883 94.4976L98.9719 94.108L38.5884 112.141ZM96.1215 84.5636L96.0052 84.174L35.6217 102.207L37.5413 108.635L97.9248 90.6019L97.8085 90.2123L37.8146 108.129L36.1276 102.48L96.1215 84.5636ZM51.2765 67.0873C42.0809 63.554 32.635 60.7106 23.0171 58.5807L21.8391 54.6362L21.4603 54.7886L22.6474 58.7636L23.0459 59.0038C32.6265 61.1313 42.0357 63.9683 51.1955 67.4912L51.2603 67.5164L87.7739 56.6118L87.6575 56.2223L51.2765 67.0873ZM23.3783 75.4189L7.99219 80.0139L8.10856 80.4035L23.8842 75.6921L18.0514 56.161L17.6726 56.3134L23.3783 75.4189ZM88.821 60.118L56.7213 69.7044L57.244 69.9238C62.1674 71.9954 67.0778 74.2856 71.9754 76.7942C72.6717 77.1506 73.3672 77.5118 74.0621 77.8778C77.5194 79.6935 80.95 81.6102 84.3537 83.6279L84.7316 83.7219L94.9581 80.6679L94.8417 80.2783L84.6398 83.325C81.2722 81.3266 77.8733 79.4245 74.443 77.6187C73.7569 77.2572 73.0699 76.8998 72.382 76.5465C67.588 74.084 62.7682 71.8252 57.9225 69.7699L88.9373 60.5075L88.821 60.118ZM19.3066 117.9L19.4229 118.289L34.809 113.694L35.9795 117.613L36.3583 117.461L35.0823 113.188L19.3066 117.9ZM9.15563 83.9096L9.272 84.2992L24.6581 79.7042L30.5625 99.4749L15.1764 104.07L15.2928 104.459L31.0684 99.7481L24.9313 79.1983L9.15563 83.9096ZM44.6278 69.1132C37.9899 66.7707 31.129 64.7186 24.2372 63.0142L23.8913 62.9287L27.3904 74.645L45.2171 69.3212L44.6278 69.1132ZM27.6636 74.1391L24.4848 63.4951C31.0444 65.1279 37.5719 67.0759 43.9029 69.2894L27.6636 74.1391ZM79.411 84.9513C76.321 83.2041 73.1867 81.5309 70.008 79.9319C69.1315 79.4903 68.2523 79.0552 67.3705 78.6266C61.9877 76.0079 56.5228 73.6207 50.9756 71.4648L50.9108 71.4396L28.4374 78.1512L34.5745 98.701L79.8271 85.1866L79.411 84.9513ZM34.8478 98.1951L28.9434 78.4244L50.8937 71.869C56.243 73.9493 61.5311 76.2536 66.7581 78.7819C67.6656 79.2205 68.5698 79.6658 69.4706 80.1178C72.6187 81.6938 75.7266 83.3448 78.7943 85.0707L34.8478 98.1951ZM44.6278 69.1132C37.9899 66.7707 31.129 64.7186 24.2372 63.0142L23.8913 62.9287L27.3904 74.645L45.2171 69.3212L44.6278 69.1132ZM27.6636 74.1391L24.4848 63.4951C31.0444 65.1279 37.5719 67.0759 43.9029 69.2894L27.6636 74.1391ZM79.411 84.9513C76.321 83.2041 73.1867 81.5309 70.008 79.9319C69.1315 79.4903 68.2523 79.0552 67.3705 78.6266C61.9877 76.0079 56.5228 73.6207 50.9756 71.4648L50.9108 71.4396L28.4374 78.1512L34.5745 98.701L79.8271 85.1866L79.411 84.9513ZM34.8478 98.1951L28.9434 78.4244L50.8937 71.869C56.243 73.9493 61.5311 76.2536 66.7581 78.7819C67.6656 79.2205 68.5698 79.6658 69.4706 80.1178C72.6187 81.6938 75.7266 83.3448 78.7943 85.0707L34.8478 98.1951Z" fill="#A0BBC5"/>
<path d="M74.2453 60.5403L56.7812 65.7559C56.7594 65.7627 56.737 65.7675 56.7144 65.7703L60.7013 48.9965C60.7251 48.8923 60.7762 48.7963 60.8492 48.7183C60.9222 48.6404 61.0147 48.5832 61.117 48.5526C61.2194 48.522 61.3281 48.5192 61.4319 48.5443C61.5357 48.5695 61.631 48.6218 61.708 48.6958L70.1187 56.6415L70.5215 57.0216L74.2453 60.5403Z" fill="#A0BBC5"/>
<path d="M83.9698 57.6359L68.8647 62.1469L70.5221 57.0211L70.6412 56.6519L72.8007 49.9721C72.8429 49.8673 72.9066 49.7725 72.9878 49.694C73.069 49.6154 73.1658 49.5548 73.2719 49.5161C73.378 49.4774 73.491 49.4614 73.6037 49.4692C73.7164 49.477 73.8262 49.5084 73.9259 49.5614C73.9521 49.5772 73.9773 49.5946 74.0013 49.6135L83.9698 57.6359Z" fill="#A0BBC5"/>
<path d="M80.4443 107.598V107.6C80.4443 107.603 80.4464 107.603 80.4485 107.603L80.4443 107.598ZM75.2225 91.6354C75.2141 91.6878 75.2036 91.7402 75.1952 91.7926C75.2036 91.7402 75.2141 91.6878 75.2246 91.6354H75.2225ZM74.9626 93.5702C74.9563 93.6499 74.95 93.7296 74.9458 93.8092C74.95 93.7296 74.9563 93.6499 74.9647 93.5702C74.9643 93.5555 74.965 93.5408 74.9668 93.5262C74.9647 93.5409 74.9647 93.5556 74.9626 93.5702ZM80.4443 107.6C80.4443 107.603 80.4464 107.603 80.4485 107.603L80.4443 107.598V107.6ZM75.2225 91.6354C75.2141 91.6878 75.2036 91.7402 75.1952 91.7926C75.2036 91.7402 75.2141 91.6878 75.2246 91.6354H75.2225ZM74.9458 93.8092C74.95 93.7296 74.9563 93.6499 74.9647 93.5702C74.9643 93.5555 74.965 93.5408 74.9668 93.5262C74.9647 93.5409 74.9647 93.5556 74.9626 93.5702C74.9563 93.6499 74.95 93.7296 74.9458 93.8092ZM139.708 132.372C139.667 132.329 139.623 132.288 139.578 132.25L139.576 132.248L129.195 123.488L128.927 123.262L127.906 122.4L127.65 122.184L126.195 120.956L125.797 120.62L124.973 119.924L124.552 119.568L120.577 116.216L118.298 114.294L117.992 114.036L111.278 108.37C111.381 108.223 111.481 108.076 111.58 107.928C111.66 107.804 111.739 107.682 111.819 107.559C111.827 107.544 111.838 107.529 111.846 107.515C111.892 107.443 111.936 107.37 111.98 107.299C112.006 107.261 112.029 107.223 112.05 107.185C112.083 107.133 112.117 107.079 112.148 107.024C112.18 106.972 112.211 106.917 112.242 106.863C112.389 106.617 112.527 106.37 112.662 106.121L112.674 106.097L112.781 105.894C112.848 105.77 112.913 105.645 112.976 105.519C112.979 105.516 112.98 105.512 112.98 105.508C113.045 105.381 113.11 105.251 113.171 105.121C113.173 105.119 113.173 105.114 113.175 105.112C113.253 104.951 113.328 104.789 113.402 104.624C113.42 104.586 113.437 104.548 113.454 104.511C113.523 104.351 113.592 104.19 113.66 104.029C113.729 103.863 113.796 103.695 113.861 103.527C113.926 103.36 113.991 103.19 114.051 103.022C114.167 102.702 114.275 102.38 114.376 102.058C114.381 102.04 114.387 102.021 114.393 102.004C114.446 101.832 114.496 101.662 114.546 101.49C114.578 101.379 114.607 101.27 114.636 101.159C114.657 101.079 114.678 100.999 114.697 100.92C114.708 100.888 114.714 100.859 114.722 100.828C114.75 100.721 114.775 100.616 114.8 100.509C114.804 100.492 114.808 100.473 114.812 100.456C114.863 100.241 114.911 100.023 114.955 99.8066C114.978 99.6976 114.999 99.5886 115.02 99.4796C115.06 99.2616 115.1 99.0436 115.133 98.8256C115.15 98.7229 115.165 98.6202 115.179 98.5174C115.194 98.4252 115.207 98.333 115.219 98.2428C115.236 98.1254 115.251 98.0101 115.263 97.8928C115.318 97.4295 115.357 96.9683 115.383 96.505C115.391 96.3667 115.397 96.2283 115.404 96.0879C115.41 95.9265 115.414 95.7671 115.416 95.6057C115.418 95.4716 115.42 95.3353 115.42 95.2011C115.42 94.7966 115.41 94.3941 115.389 93.9895C115.355 93.3418 115.295 92.6968 115.207 92.0547C114.455 86.5655 111.754 81.53 107.596 77.8685C103.438 74.207 98.1016 72.1642 92.5616 72.1133C87.0215 72.0624 81.6482 74.0069 77.4238 77.5914C73.1993 81.1759 70.4059 86.161 69.5542 91.6354C69.5333 91.7738 69.5123 91.9142 69.4934 92.0547C69.4243 92.5578 69.3726 93.063 69.3383 93.5703C69.3278 93.7107 69.3195 93.8491 69.3132 93.9895C69.1273 97.544 69.7675 101.093 71.1834 104.359C72.5992 107.625 74.7523 110.518 77.4739 112.812C77.9812 113.239 78.501 113.642 79.0335 114.019C79.0356 114.021 79.0377 114.021 79.0398 114.023C79.218 114.149 79.3961 114.273 79.5764 114.394C79.8636 114.583 80.1529 114.768 80.4442 114.944C80.4673 114.956 80.4904 114.971 80.5134 114.984C80.765 115.134 81.0187 115.279 81.2723 115.42H81.2744C82.2186 115.939 83.1987 116.39 84.2071 116.77C87.1658 117.883 90.3213 118.378 93.4788 118.224H93.4851C97.1704 118.046 100.759 116.984 103.948 115.128C104.411 114.86 104.868 114.573 105.314 114.267C105.425 114.191 105.539 114.114 105.648 114.036C105.782 113.942 105.916 113.843 106.05 113.745C106.052 113.745 106.052 113.743 106.054 113.743C106.064 113.734 106.075 113.726 106.086 113.719C106.176 113.65 106.268 113.581 106.356 113.514C106.379 113.497 106.402 113.481 106.425 113.462C106.431 113.457 106.437 113.452 106.442 113.447C106.494 113.409 106.545 113.367 106.597 113.327C106.65 113.288 106.7 113.246 106.752 113.204C106.761 113.198 106.77 113.192 106.777 113.185C106.836 113.137 106.895 113.091 106.954 113.042C107.014 112.994 107.073 112.944 107.13 112.896C107.188 112.847 107.245 112.799 107.304 112.749C107.354 112.707 107.406 112.663 107.457 112.617C107.473 112.604 107.488 112.59 107.505 112.575C107.511 112.569 107.518 112.563 107.526 112.558C107.595 112.499 107.662 112.439 107.729 112.378C107.746 112.363 107.761 112.348 107.777 112.334C107.88 112.242 107.983 112.149 108.083 112.053C108.106 112.032 108.132 112.009 108.155 111.988C108.178 111.967 108.199 111.946 108.222 111.925C108.251 111.896 108.283 111.868 108.312 111.839C108.387 111.768 108.461 111.694 108.536 111.621L108.784 111.831L108.874 111.906H108.876L108.903 111.931L109.002 112.013L110.465 113.25L110.496 113.277L110.521 113.296L110.687 113.436L111.018 113.717L111.349 113.996L111.398 114.036L112.938 115.336L113.152 115.516L114.638 116.77L122.332 123.262L122.6 123.488L133.13 132.372L135.829 134.651L136.834 135.497C137.047 135.678 137.293 135.814 137.559 135.899C137.825 135.984 138.105 136.016 138.384 135.993C138.662 135.969 138.933 135.891 139.181 135.763C139.429 135.635 139.649 135.459 139.829 135.246C139.98 135.069 140.1 134.868 140.183 134.651C140.336 134.266 140.372 133.845 140.287 133.44C140.203 133.035 140.001 132.664 139.708 132.372ZM78.9853 83.7786C81.0883 81.2865 83.8534 79.4401 86.9613 78.4529C90.0692 77.4656 93.3929 77.3777 96.5486 78.1994C99.7043 79.021 102.563 80.7187 104.795 83.0962C107.027 85.4737 108.54 88.4341 109.161 91.6354C109.188 91.7759 109.213 91.9142 109.236 92.0547C109.322 92.5557 109.385 93.063 109.423 93.5702C109.433 93.7107 109.444 93.849 109.45 93.9895C109.469 94.3039 109.477 94.6205 109.477 94.9349C109.479 96.8423 109.163 98.7366 108.543 100.54V100.542C107.849 102.565 106.785 104.44 105.404 106.072C105.375 106.106 105.346 106.142 105.314 106.175C105.038 106.502 104.746 106.817 104.446 107.116C104.444 107.118 104.442 107.123 104.44 107.125C104.337 107.227 104.233 107.332 104.128 107.429C103.914 107.636 103.696 107.833 103.474 108.022C103.14 108.313 102.799 108.586 102.449 108.842C102.331 108.927 102.214 109.011 102.094 109.095C101.977 109.179 101.858 109.259 101.738 109.338C101.499 109.498 101.256 109.651 101.011 109.795C100.889 109.869 100.763 109.94 100.64 110.009C100.516 110.08 100.39 110.147 100.264 110.212C100.139 110.28 100.013 110.345 99.885 110.407C99.6313 110.535 99.3756 110.655 99.1156 110.766C98.9857 110.825 98.8557 110.879 98.7257 110.929C98.644 110.963 98.5643 110.996 98.4826 111.026C98.4506 111.041 98.4177 111.053 98.384 111.064C98.34 111.082 98.296 111.099 98.252 111.114C98.2377 111.12 98.223 111.126 98.208 111.131C98.1178 111.166 98.0298 111.198 97.9375 111.229C97.8055 111.277 97.6734 111.321 97.5392 111.363C97.4051 111.407 97.273 111.449 97.1389 111.487C97.0047 111.529 96.8684 111.567 96.7342 111.602C96.598 111.64 96.4639 111.676 96.3276 111.707C96.183 111.745 96.0383 111.778 95.8915 111.81C95.7637 111.839 95.6379 111.864 95.5101 111.887C95.3906 111.913 95.269 111.933 95.1495 111.954C94.9818 111.984 94.8141 112.011 94.6443 112.034C94.5521 112.049 94.4619 112.061 94.3697 112.07C94.3299 112.076 94.2921 112.08 94.2544 112.084C94.137 112.101 94.0196 112.114 93.9043 112.124C93.8729 112.126 93.8436 112.131 93.8142 112.133C93.6863 112.145 93.5563 112.156 93.4285 112.166C93.1539 112.185 92.8814 112.198 92.6067 112.204C92.4684 112.206 92.3279 112.208 92.1896 112.208C92.0512 112.208 91.9129 112.206 91.7745 112.202C91.7745 112.202 91.7745 112.204 91.7724 112.202C91.7703 112.204 91.7703 112.204 91.7682 112.202C91.768 112.202 91.7676 112.202 91.7673 112.202C91.7669 112.203 91.7665 112.203 91.7661 112.203C91.7657 112.203 91.7654 112.203 91.765 112.202C91.7646 112.202 91.7643 112.202 91.764 112.202C91.7572 112.204 91.7499 112.204 91.7431 112.202C91.6446 112.202 91.546 112.198 91.4496 112.191C91.3784 112.189 91.305 112.187 91.2316 112.181C91.1331 112.177 91.0346 112.17 90.936 112.162C90.9046 112.162 90.8731 112.158 90.8417 112.156C90.827 112.155 90.8122 112.154 90.7977 112.152C90.6971 112.143 90.5944 112.135 90.4937 112.124C90.4434 112.12 90.391 112.116 90.3407 112.11C90.1876 112.093 90.0346 112.074 89.8837 112.053C89.7118 112.032 89.5399 112.007 89.3701 111.975C89.2905 111.965 89.2129 111.95 89.1353 111.936C89.0326 111.919 88.9299 111.9 88.8272 111.879C88.7203 111.858 88.6134 111.837 88.5064 111.812C88.4205 111.793 88.3325 111.774 88.2465 111.753C88.2046 111.745 88.1627 111.734 88.1229 111.724C87.9027 111.671 87.6847 111.615 87.4688 111.552C87.3326 111.514 87.1963 111.474 87.0621 111.432C86.8776 111.376 86.6953 111.315 86.5129 111.25C86.4417 111.227 86.3725 111.202 86.3012 111.175C86.2299 111.152 86.1607 111.124 86.0895 111.097C86.0245 111.074 85.9595 111.049 85.8966 111.024C85.7918 110.984 85.6891 110.942 85.5863 110.9C85.3746 110.814 85.1671 110.724 84.9596 110.628C84.8422 110.571 84.7248 110.516 84.6095 110.46C84.1546 110.24 83.7067 109.995 83.2658 109.726C83.1568 109.661 83.0478 109.592 82.9388 109.523C82.8025 109.439 82.6705 109.351 82.5384 109.263C82.465 109.213 82.3938 109.164 82.3225 109.114C82.1904 109.022 82.0604 108.927 81.9326 108.833C81.8655 108.785 81.7984 108.735 81.7334 108.684C81.5007 108.508 81.2723 108.324 81.048 108.135C80.9411 108.045 80.8341 107.953 80.7293 107.858C80.6853 107.821 80.6413 107.781 80.5972 107.741C80.547 107.695 80.4966 107.651 80.4484 107.603L80.4442 107.598C80.3709 107.533 80.2975 107.464 80.2262 107.395C80.1151 107.29 80.0061 107.183 79.9013 107.074C79.7923 106.967 79.6875 106.856 79.5848 106.747C79.48 106.638 79.3794 106.527 79.2808 106.414C79.1802 106.303 79.0817 106.19 78.9852 106.074C78.8909 105.965 78.7987 105.852 78.7106 105.741C78.4968 105.477 78.2928 105.208 78.0985 104.934C78.0084 104.808 77.9225 104.683 77.8386 104.555C77.7485 104.425 77.6625 104.293 77.5807 104.161C77.4948 104.029 77.413 103.894 77.3334 103.758C77.3313 103.753 77.3285 103.749 77.325 103.746C77.1678 103.479 77.0169 103.211 76.8764 102.938C76.7318 102.662 76.5955 102.382 76.4676 102.1C76.4027 101.959 76.3398 101.817 76.2811 101.674C76.1595 101.387 76.0463 101.1 75.9415 100.809C75.8891 100.668 75.8408 100.528 75.7926 100.385C75.7911 100.376 75.7883 100.367 75.7842 100.358C75.6878 100.069 75.5998 99.7773 75.5222 99.4838C75.5201 99.4796 75.5201 99.4755 75.518 99.4713C75.4782 99.3266 75.4405 99.182 75.407 99.0352C75.3734 98.9074 75.3441 98.7795 75.3168 98.6495C75.2854 98.5049 75.2539 98.3602 75.2267 98.2135C75.212 98.138 75.1973 98.0626 75.1847 97.9871C75.1722 97.9242 75.1616 97.8592 75.1512 97.7964C75.1407 97.7335 75.1302 97.6685 75.1197 97.6035C75.0988 97.4756 75.0799 97.3477 75.0631 97.2199C75.0422 97.0689 75.0254 96.918 75.0086 96.765C74.9898 96.5826 74.973 96.4002 74.9583 96.2158C74.9478 96.0921 74.9415 95.9663 74.9353 95.8405C74.929 95.7252 74.9227 95.6099 74.9206 95.4946C74.9185 95.4885 74.9185 95.4819 74.9206 95.4758C74.9203 95.4755 74.9201 95.4752 74.9199 95.4748C74.9198 95.4745 74.9197 95.4741 74.9197 95.4737C74.9197 95.4733 74.9198 95.4729 74.9199 95.4725C74.9201 95.4722 74.9203 95.4719 74.9206 95.4716C74.9185 95.4695 74.9185 95.4695 74.9206 95.4674C74.9203 95.4671 74.9201 95.4668 74.9199 95.4664C74.9198 95.4661 74.9197 95.4657 74.9197 95.4653C74.9197 95.4649 74.9198 95.4645 74.9199 95.4642C74.9201 95.4638 74.9203 95.4635 74.9206 95.4632C74.9185 95.4171 74.9164 95.371 74.9164 95.3249C74.9122 95.1886 74.9101 95.0524 74.9101 94.9161C74.9101 94.7924 74.9122 94.6708 74.9143 94.5471C74.9185 94.3753 74.9248 94.2034 74.9332 94.0315C74.9332 93.9937 74.9373 93.9581 74.9395 93.9204C74.9415 93.8826 74.9436 93.847 74.9457 93.8093C74.9499 93.7296 74.9562 93.6499 74.9646 93.5703C74.9643 93.5556 74.965 93.5409 74.9667 93.5263C74.973 93.4361 74.9814 93.346 74.9898 93.2559C75.0065 93.0756 75.0275 92.8932 75.0505 92.7129C75.0631 92.6228 75.0736 92.5326 75.0883 92.4425C75.0967 92.3796 75.1071 92.3146 75.1176 92.2496C75.126 92.1847 75.1365 92.1197 75.1491 92.0547C75.1637 91.9687 75.1784 91.8807 75.1952 91.7927C75.2036 91.7403 75.2141 91.6878 75.2245 91.6354C75.2644 91.4258 75.3084 91.2162 75.3566 91.0066C75.4048 90.7948 75.4594 90.5852 75.518 90.3756C75.5746 90.1639 75.6375 89.9521 75.7046 89.7404C75.736 89.6335 75.7696 89.5287 75.8073 89.4239C75.8765 89.2122 75.9498 89.0025 76.0316 88.795C76.0693 88.6923 76.1092 88.5875 76.1532 88.4848C76.2371 88.2772 76.3251 88.0697 76.4152 87.8664C76.4613 87.7637 76.5075 87.6609 76.5577 87.5582C76.6521 87.3549 76.7506 87.1515 76.8575 86.9524C76.9603 86.7491 77.0714 86.5499 77.1846 86.3529C77.2978 86.1558 77.4151 85.9588 77.5388 85.7638C77.5954 85.6674 77.6583 85.5689 77.7233 85.4745C77.8491 85.2817 77.9811 85.0888 78.1153 84.9002C78.3858 84.5186 78.6771 84.1434 78.9853 83.7786ZM74.9626 93.5702C74.9563 93.6499 74.95 93.7296 74.9458 93.8092C74.95 93.7296 74.9563 93.6499 74.9647 93.5702C74.9643 93.5555 74.965 93.5408 74.9668 93.5262C74.9647 93.5409 74.9647 93.5556 74.9626 93.5702ZM75.2225 91.6354C75.2141 91.6878 75.2036 91.7402 75.1952 91.7926C75.2036 91.7402 75.2141 91.6878 75.2246 91.6354H75.2225ZM80.4443 107.598V107.6C80.4443 107.603 80.4464 107.603 80.4485 107.603L80.4443 107.598Z" fill="#3F3D56"/>
<path d="M150.479 143.015C149.969 143.581 149.326 144.011 148.609 144.266C147.892 144.522 147.122 144.596 146.37 144.48C145.984 144.42 145.942 145.025 146.325 145.085C147.157 145.208 148.007 145.126 148.8 144.845C149.593 144.564 150.305 144.093 150.875 143.474C150.933 143.42 150.969 143.346 150.975 143.267C150.981 143.187 150.956 143.109 150.906 143.047C150.853 142.986 150.779 142.949 150.699 142.943C150.619 142.937 150.54 142.963 150.479 143.015Z" fill="white"/>
<path d="M178.306 37.3006C177.304 37.7189 176.259 37.2604 175.821 36.2106C175.376 35.1447 175.791 34.0627 176.809 33.6377C177.827 33.2126 178.854 33.6722 179.306 34.7553C179.751 35.8221 179.34 36.8687 178.306 37.3006ZM176.387 31.5396L175.591 31.8722C175.392 31.9543 175.169 31.9588 174.967 31.8846C174.765 31.8105 174.598 31.6633 174.499 31.472L174.46 31.3949C173.603 29.8493 173.505 27.9707 174.17 25.8145C174.786 23.8802 175.042 22.5198 174.527 21.2874C173.932 19.8625 172.662 19.4161 171.041 20.0627C170.413 20.3251 170.213 20.3209 169.718 20.8115C169.611 20.9195 169.483 21.0048 169.341 21.0621C169.2 21.1195 169.049 21.1479 168.897 21.1455C168.749 21.1438 168.604 21.1124 168.469 21.0532C168.334 20.9941 168.212 20.9083 168.111 20.8011C167.916 20.5945 167.807 20.3217 167.806 20.0378C167.804 19.7539 167.911 19.48 168.103 19.2714C168.934 18.4013 169.937 17.7129 171.048 17.2497C174.529 15.7961 176.281 17.9422 177.083 19.8627C177.868 21.7412 177.426 23.4841 176.717 25.7413C176.123 27.6169 176.158 29.0068 176.833 30.3887C176.881 30.4931 176.909 30.6064 176.912 30.7216C176.916 30.8368 176.897 30.9516 176.855 31.0591C176.814 31.1666 176.751 31.2646 176.67 31.3472C176.59 31.4297 176.493 31.4952 176.387 31.5396L176.387 31.5396Z" fill="#41778A"/>
<path d="M201.947 32.5684C200.424 32.3723 199.468 31.0717 199.674 29.4759C199.882 27.8557 201.157 26.8244 202.704 27.0236C204.251 27.2228 205.183 28.5117 204.971 30.158C204.763 31.7796 203.519 32.7708 201.947 32.5684ZM203.67 24.1557L202.46 23.9998C202.158 23.9596 201.882 23.8077 201.687 23.574C201.492 23.3403 201.392 23.0419 201.406 22.7378L201.412 22.6156C201.456 20.1165 202.664 17.7464 205.003 15.5757C207.125 13.6423 208.401 12.1571 208.642 10.2838C208.921 8.11788 207.68 6.67278 205.239 6.31903C204.284 6.19605 204.042 6.04953 203.089 6.30068C202.881 6.3569 202.664 6.37063 202.45 6.34106C202.236 6.31148 202.031 6.23921 201.846 6.12854C201.667 6.02223 201.511 5.88091 201.387 5.71301C201.264 5.54511 201.176 5.35406 201.128 5.15127C201.035 4.76052 201.094 4.34923 201.293 4.00046C201.492 3.6517 201.816 3.39145 202.2 3.27228C203.833 2.79436 205.548 2.66019 207.235 2.87823C212.527 3.55948 213.156 7.42706 212.78 10.3463C212.412 13.2016 210.639 15.0243 208.175 17.2876C206.121 19.1647 205.181 20.8913 205.03 23.0611C205.016 23.2235 204.969 23.3813 204.892 23.5252C204.816 23.669 204.711 23.7959 204.584 23.8981C204.457 24.0003 204.31 24.0759 204.153 24.1201C203.996 24.1644 203.832 24.1765 203.67 24.1557L203.67 24.1557Z" fill="#41778A"/>
<path d="M134.416 238.736C126.829 238.677 126.689 250.211 134.275 250.337C141.861 250.395 142.001 238.861 134.416 238.736Z" fill="#3F3D56"/>
<path d="M177.279 242.044C169.693 241.986 169.553 253.52 177.138 253.645C184.724 253.704 184.864 242.17 177.279 242.044Z" fill="#3F3D56"/>
<path d="M162.816 124.668L162.699 124.667L157.74 178.937L155.161 178.906L160.155 124.246C159.989 123.469 160.094 122.658 160.453 121.949C160.811 121.239 161.401 120.674 162.126 120.346C170.839 116.469 176.691 123.558 176.691 123.558L176.669 123.621L171.6 179.106L169.02 179.075L173.941 125.222C166.988 121.259 162.816 124.668 162.816 124.668Z" fill="#3F3D56"/>
<path d="M173.022 246.166C175.612 245.448 177.905 243.921 179.567 241.809C181.229 239.697 182.173 237.109 182.262 234.423C182.689 222.127 183.585 192.7 182.69 185.018C181.525 175.017 172.828 174.415 172.634 174.404C172.401 174.389 168.958 174.351 164.194 174.298C156.096 174.208 143.857 174.073 143.388 173.997C141.46 173.856 139.523 174.115 137.7 174.758C135.876 175.401 134.205 176.413 132.791 177.732C131.331 179.081 130.161 180.713 129.351 182.529C128.542 184.345 128.11 186.306 128.082 188.294L127.535 233.127C127.497 235.877 128.431 238.552 130.172 240.68C131.914 242.808 134.351 244.253 137.054 244.759C147.26 246.681 162.075 248.922 172.843 246.212C172.903 246.197 172.963 246.181 173.022 246.166Z" fill="#41778A"/>
<path d="M134.951 237.952L136.365 182.457L174.798 182.98L174.809 182.168L135.573 181.633L135.563 182.035L134.139 237.931L134.951 237.952Z" fill="#3F3D56"/>
<path d="M229.146 187.127C229.727 187.154 230.302 187.002 230.793 186.693C231.284 186.383 231.668 185.932 231.892 185.398C232.116 184.865 232.17 184.276 232.046 183.711C231.923 183.146 231.628 182.633 231.201 182.24C231.129 181.958 231.078 181.755 231.006 181.472C231.032 181.411 231.058 181.349 231.084 181.288C233.694 175.098 242.54 175.141 245.128 181.34C247.425 186.841 250.35 192.352 251.07 198.169C251.387 200.74 251.253 203.347 250.675 205.873C256.07 194.169 258.871 181.449 258.889 168.575C258.891 165.344 258.71 162.116 258.349 158.905C258.05 156.273 257.636 153.66 257.106 151.065C254.214 136.988 248.006 123.793 238.99 112.564C234.626 110.197 231.098 106.556 228.879 102.132C228.075 100.542 227.507 98.8449 227.192 97.093C227.685 97.1572 229.048 89.7024 228.677 89.245C229.363 88.2099 230.591 87.6953 231.34 86.6853C235.066 81.6618 240.2 82.5389 242.879 89.3654C248.604 92.2387 248.66 97.0037 245.147 101.587C242.912 104.502 242.605 108.448 240.644 111.569C240.846 111.826 241.056 112.075 241.258 112.331C244.945 117.047 248.159 122.111 250.854 127.45C250.092 121.528 251.217 114.394 253.136 109.796C255.32 104.556 259.414 100.143 263.019 95.6138C267.349 90.173 276.229 92.5475 276.992 99.4445C276.999 99.5112 277.006 99.578 277.013 99.6447C276.478 99.9451 275.954 100.264 275.441 100.601C274.797 101.029 274.297 101.641 274.009 102.356C273.72 103.071 273.655 103.856 273.823 104.608C273.99 105.361 274.382 106.045 274.948 106.572C275.513 107.099 276.226 107.443 276.991 107.561L277.07 107.573C276.879 109.492 276.542 111.394 276.061 113.262C280.686 131.048 270.701 137.526 256.444 137.817C256.13 137.978 255.823 138.138 255.508 138.291C258.215 145.92 259.913 153.866 260.56 161.931C260.926 166.688 260.904 171.468 260.495 176.222L260.519 176.054C261.552 170.767 264.388 165.997 268.549 162.548C274.727 157.501 283.457 155.642 290.123 151.585C293.332 149.632 297.444 152.156 296.883 155.855C296.875 155.915 296.865 155.974 296.856 156.033C295.863 156.435 294.895 156.899 293.959 157.421C293.424 157.721 292.9 158.04 292.387 158.377C291.743 158.805 291.243 159.417 290.955 160.132C290.666 160.847 290.601 161.632 290.769 162.385C290.936 163.137 291.328 163.821 291.894 164.348C292.459 164.875 293.172 165.22 293.937 165.337L294.016 165.349C294.072 165.357 294.121 165.365 294.177 165.373C292.479 169.404 290.096 173.115 287.133 176.343C284.241 191.869 271.82 193.342 258.534 188.821H258.526C257.068 195.12 254.956 201.251 252.224 207.116H229.71C229.629 206.868 229.557 206.611 229.484 206.362C231.568 206.492 233.66 206.368 235.714 205.993C234.043 203.955 232.373 201.9 230.703 199.862C230.665 199.824 230.63 199.784 230.598 199.742C229.75 198.699 228.895 197.663 228.048 196.62L228.047 196.619C228.002 193.421 228.371 190.231 229.145 187.127L229.146 187.127Z" fill="#F0F4F5"/>
<mask id="mask0_3272_42302" style="mask-type:alpha" maskUnits="userSpaceOnUse" x="3" y="9" width="297" height="256">
<path d="M3.17006 136.774C3.1258 166.814 13.7519 195.894 33.1538 218.829C33.8583 219.666 34.5761 220.489 35.3071 221.308C43.9094 230.983 53.9299 239.296 65.0266 245.964C67.5718 247.492 70.1729 248.932 72.8297 250.284C73.0983 250.42 73.3713 250.557 73.6399 250.689C73.9614 250.852 74.2872 251.01 74.6131 251.169C81.3362 254.459 88.3391 257.144 95.5387 259.192C96.2873 259.403 97.0374 259.609 97.7889 259.809C107.26 262.314 116.989 263.717 126.782 263.988C127.293 264.001 127.795 264.01 128.279 264.018C128.451 264.023 128.618 264.027 128.785 264.027C129.336 264.032 129.882 264.036 130.432 264.036C140.753 264.044 151.035 262.797 161.055 260.324C162.059 260.077 163.058 259.817 164.053 259.544C169.296 258.113 174.439 256.344 179.453 254.247C182.095 253.146 184.69 251.958 187.238 250.684C187.815 250.394 188.392 250.103 188.96 249.804C189.202 249.685 189.44 249.557 189.678 249.434C203.259 242.266 215.438 232.71 225.633 221.225C226.337 220.436 227.028 219.635 227.711 218.829C246.417 196.675 300 163.746 300 132.481C300 90.436 237.306 57.4482 205.874 34.2767C205.152 33.7439 204.425 33.2155 203.69 32.7003C203.544 32.599 203.399 32.4977 203.254 32.3964C190.332 23.3454 175.829 16.7959 160.495 13.0869C159.623 12.8711 158.752 12.6686 157.871 12.4792C141.262 8.84616 124.097 8.54531 107.371 11.5941C106.495 11.757 105.618 11.9244 104.747 12.1049C89.5497 15.222 75.0558 21.1076 61.9882 29.4681C61.6975 29.653 61.4069 29.838 61.1162 30.0317C60.5306 30.4104 59.9449 30.7979 59.368 31.1899C42.0574 42.8277 27.8764 58.5463 18.0758 76.9595C8.27521 95.3727 3.15614 115.915 3.17006 136.774Z" fill="white"/>
<path d="M129.606 85.5537H117.36C117.36 84.2778 117.867 83.0542 118.769 82.152C119.672 81.2498 120.895 80.7429 122.171 80.7429H124.795C126.071 80.7429 127.295 81.2498 128.197 82.152C129.099 83.0542 129.606 84.2778 129.606 85.5537Z" fill="#E6E6E6"/>
</mask>
<g mask="url(#mask0_3272_42302)">
<path d="M196.528 60.5171C196.206 61.2666 186.289 61.1863 185.835 61.8537C182.333 67.0064 194.957 88.9298 191.455 94.0892L190.967 94.6706C192.109 94.1441 193.207 93.525 194.248 92.8194C194.342 90.7076 194.435 88.589 194.536 86.4771C195.585 87.819 196.431 89.3073 197.048 90.8947C197.864 90.3199 198.533 89.2545 202.027 87.1588C203.442 85.6046 205.073 84.262 206.87 83.1722L196.528 60.5171Z" fill="#2F2E41"/>
<path d="M203.729 102.746C202.635 102.034 201.386 101.592 200.087 101.458C198.788 101.324 197.476 101.503 196.259 101.978C195.042 102.453 193.956 103.211 193.092 104.19C192.227 105.168 191.608 106.339 191.286 107.605L176.215 146.873L150.311 132.166C150.197 130.476 149.551 128.865 148.465 127.564C147.379 126.264 145.909 125.34 144.266 124.927C142.623 124.513 140.891 124.631 139.319 125.263C137.747 125.894 136.415 127.007 135.515 128.443C134.615 129.878 134.192 131.562 134.308 133.252C134.423 134.942 135.071 136.552 136.159 137.852C137.246 139.151 138.717 140.072 140.361 140.484C142.004 140.896 143.736 140.776 145.307 140.143C150.762 145.965 174.413 169.837 184.204 160.509C192.434 152.67 204.311 122.285 207.17 111.792C207.628 110.114 207.541 108.334 206.923 106.709C206.305 105.083 205.187 103.696 203.729 102.746Z" fill="#FFB6B6"/>
<path d="M175.431 162.156L180.187 183.652L214.963 186.797L218.159 168.081L175.431 162.156Z" fill="#FFB6B6"/>
<path d="M197.135 92.3297L214.445 91.438L222.485 104.142C222.485 104.142 237.612 106.671 236.564 124.497C235.515 142.322 218.158 157.964 218.158 157.964L218.9 155.421L217.612 159.102L217.777 161.17L219.535 163.359L219.716 165.624L218.158 169.206C218.361 169.531 218.468 169.906 218.469 170.288C218.469 170.671 218.362 171.046 218.16 171.371C217.958 171.696 217.668 171.958 217.325 172.126C216.982 172.295 216.598 172.365 216.217 172.326L191.206 169.82C190.637 168.254 190.18 166.379 187.897 169.499L185.541 169.271L175.747 168.322L175.17 166.222C174.843 165.029 174.792 163.777 175.021 162.561C175.251 161.345 175.754 160.197 176.494 159.205C175.643 156.541 175.866 153.65 177.115 151.148L177.162 151.054L178.202 150.187C178.202 150.187 166.823 133.092 179.886 120.216L185.129 111.303L190.995 104.146L197.135 92.3297Z" fill="#41778A"/>
<path d="M201.443 84.8306C210.509 84.8306 217.857 77.4817 217.857 68.4163C217.857 59.3509 210.509 52.002 201.443 52.002C192.378 52.002 185.029 59.3509 185.029 68.4163C185.029 77.4817 192.378 84.8306 201.443 84.8306Z" fill="#FFB6B6"/>
<path d="M213.911 92.0612C212.574 90.9443 211.644 89.4172 211.264 87.7172C210.961 89.7813 211.04 91.8837 211.498 93.9191C210.609 94.5874 209.747 95.2223 208.932 95.7971C208.314 94.2097 207.468 92.7214 206.419 91.3795C206.319 93.4914 206.225 95.61 206.132 97.7218C205.09 98.4274 203.993 99.0465 202.85 99.573L203.338 98.9916C206.84 93.8322 197.778 84.3355 201.28 79.1829C202.262 77.7393 197.824 66.3312 194.443 65.8166C191.435 65.3622 191.562 66.231 188.649 66.8659C188.346 65.6039 187.876 64.388 187.252 63.2503C187.418 64.518 187.38 65.8041 187.138 67.0597C186.102 67.0998 185.287 66.4397 184.184 66.2711C177.147 65.1951 177.862 57.5831 179.82 55.1704C181.785 52.7645 188.308 52.0427 191.315 51.2608C191.589 50.9935 192.211 51.1606 192.485 50.9066C198.248 45.6319 205.956 44.7584 212.893 47.0963C220.291 49.5894 224.903 54.4147 227.27 61.8536L227.949 67.8065C228.558 69.7206 227.792 78.6266 227.27 80.5663C225.242 88.1062 220.922 84.3422 213.911 92.0612Z" fill="#2F2E41"/>
<path d="M237.845 169.825L237.198 119.496C237.165 117.364 236.294 115.331 234.774 113.835C233.255 112.339 231.208 111.5 229.075 111.5H229.075C227.972 111.5 226.881 111.725 225.867 112.161C224.854 112.596 223.939 113.234 223.18 114.034C222.421 114.835 221.833 115.782 221.452 116.817C221.07 117.852 220.904 118.954 220.963 120.055L223.236 172.314L223.28 204.126C221.939 204.695 220.807 205.662 220.035 206.896C219.264 208.131 218.891 209.573 218.968 211.027C219.045 212.481 219.567 213.876 220.464 215.022C221.361 216.169 222.589 217.011 223.982 217.435C225.375 217.859 226.864 217.844 228.248 217.393C229.632 216.941 230.843 216.074 231.717 214.91C232.591 213.746 233.086 212.341 233.133 210.886C233.181 209.431 232.78 207.996 231.984 206.777L237.845 169.825Z" fill="#FFB6B6"/>
<path d="M228.552 217.276C228.536 217.584 228.517 217.889 228.495 218.197C228.161 222.651 227.78 227.788 227.367 233.417C226.716 242.35 225.988 252.523 225.254 263.165H152.312L166.458 220.644C166.458 220.644 172.17 217.5 169.262 212.217C166.354 206.934 172.076 211.144 172.129 203.599C172.182 196.054 177.31 188.027 177.31 188.027L178.152 176.603L178.631 176.613L216.591 177.245L217.284 177.257L218.45 187.064C225.529 195.488 229.14 206.288 228.552 217.276Z" fill="#2F2E41"/>
</g>
<mask id="mask1_3272_42302" style="mask-type:alpha" maskUnits="userSpaceOnUse" x="75" y="76" width="38" height="38">
<circle cx="93.5188" cy="94.5749" r="18.4924" fill="#D9D9D9"/>
</mask>
<g mask="url(#mask1_3272_42302)">
<path d="M75.6897 110.029L75.6712 110.033L46.7246 115.828L21.8236 125.856C21.5016 125.985 21.1573 126.05 20.8103 126.047C20.4633 126.043 20.1203 125.972 19.801 125.836C19.4817 125.7 19.1923 125.502 18.9493 125.254C18.7064 125.006 18.5146 124.713 18.385 124.391C18.3545 124.316 18.3275 124.239 18.3042 124.16L0.113117 63.2484C-0.0781436 62.6174 -0.0254896 61.9376 0.260639 61.3436C0.546767 60.7496 1.04551 60.2846 1.65814 60.0408L27.0146 49.8294L27.0331 49.8258L55.9797 44.0308L80.8806 34.0028C81.5308 33.741 82.2584 33.7482 82.9032 34.0228C83.5481 34.2974 84.0575 34.8169 84.3193 35.467C84.3498 35.5427 84.3767 35.6197 84.4001 35.698L102.591 96.6099C102.782 97.2409 102.73 97.9207 102.444 98.5147C102.157 99.1088 101.659 99.5737 101.046 99.8175L75.6897 110.029Z" fill="#41778A"/>
<path d="M44.6278 69.1122C37.9899 66.7697 31.129 64.7177 24.2372 63.0132L23.8913 62.9277L27.3904 74.6441L45.2171 69.3202L44.6278 69.1122ZM27.6636 74.1382L24.4848 63.4941C31.0444 65.1269 37.5719 67.0749 43.9029 69.2884L27.6636 74.1382ZM79.411 84.9503C76.321 83.2031 73.1867 81.53 70.008 79.9309C69.1315 79.4894 68.2523 79.0543 67.3705 78.6256C61.9877 76.007 56.5228 73.6197 50.9756 71.4639L50.9108 71.4387L28.4374 78.1502L34.5745 98.7001L79.8271 85.1856L79.411 84.9503ZM34.8478 98.1942L28.9434 78.4234L50.8937 71.8681C56.243 73.9483 61.5311 76.2526 66.7581 78.7809C67.6656 79.2196 68.5698 79.6649 69.4706 80.1168C72.6187 81.6928 75.7266 83.3438 78.7943 85.0697L34.8478 98.1942ZM79.411 84.9503C76.321 83.2031 73.1867 81.53 70.008 79.9309C69.1315 79.4894 68.2523 79.0543 67.3705 78.6256C61.9877 76.007 56.5228 73.6197 50.9756 71.4639L50.9108 71.4387L28.4374 78.1502L34.5745 98.7001L79.8271 85.1856L79.411 84.9503ZM34.8478 98.1942L28.9434 78.4234L50.8937 71.8681C56.243 73.9483 61.5311 76.2526 66.7581 78.7809C67.6656 79.2196 68.5698 79.6649 69.4706 80.1168C72.6187 81.6928 75.7266 83.3438 78.7943 85.0697L34.8478 98.1942ZM44.6278 69.1122C37.9899 66.7697 31.129 64.7177 24.2372 63.0132L23.8913 62.9277L27.3904 74.6441L45.2171 69.3202L44.6278 69.1122ZM27.6636 74.1382L24.4848 63.4941C31.0444 65.1269 37.5719 67.0749 43.9029 69.2884L27.6636 74.1382ZM44.6278 69.1122C37.9899 66.7697 31.129 64.7177 24.2372 63.0132L23.8913 62.9277L27.3904 74.6441L45.2171 69.3202L44.6278 69.1122ZM27.6636 74.1382L24.4848 63.4941C31.0444 65.1269 37.5719 67.0749 43.9029 69.2884L27.6636 74.1382ZM79.411 84.9503C76.321 83.2031 73.1867 81.53 70.008 79.9309C69.1315 79.4894 68.2523 79.0543 67.3705 78.6256C61.9877 76.007 56.5228 73.6197 50.9756 71.4639L50.9108 71.4387L28.4374 78.1502L34.5745 98.7001L79.8271 85.1856L79.411 84.9503ZM34.8478 98.1942L28.9434 78.4234L50.8937 71.8681C56.243 73.9483 61.5311 76.2526 66.7581 78.7809C67.6656 79.2196 68.5698 79.6649 69.4706 80.1168C72.6187 81.6928 75.7266 83.3438 78.7943 85.0697L34.8478 98.1942ZM16.3398 107.965L16.4562 108.354L31.8423 103.759L33.5293 109.408L18.1432 114.003L18.2595 114.393L34.0352 109.681L32.1155 103.253L16.3398 107.965ZM38.5884 112.14L39.7673 116.088L40.1461 115.935L39.0943 112.413L99.0883 94.4966L98.9719 94.1071L38.5884 112.14ZM96.1215 84.5626L96.0052 84.173L35.6217 102.206L37.5413 108.634L97.9248 90.6009L97.8085 90.2113L37.8146 108.128L36.1276 102.479L96.1215 84.5626ZM51.2765 67.0863C42.0809 63.5531 32.635 60.7097 23.0171 58.5797L21.8391 54.6353L21.4603 54.7876L22.6474 58.7626L23.0459 59.0028C32.6265 61.1303 42.0357 63.9673 51.1955 67.4902L51.2603 67.5154L87.7739 56.6109L87.6575 56.2213L51.2765 67.0863ZM23.3783 75.4179L7.99219 80.0129L8.10856 80.4025L23.8842 75.6912L18.0514 56.16L17.6726 56.3124L23.3783 75.4179ZM88.821 60.117L56.7213 69.7034L57.244 69.9228C62.1674 71.9945 67.0778 74.2846 71.9754 76.7932C72.6717 77.1496 73.3672 77.5108 74.0621 77.8768C77.5194 79.6925 80.95 81.6092 84.3537 83.6269L84.7316 83.7209L94.9581 80.6669L94.8417 80.2773L84.6398 83.324C81.2722 81.3256 77.8733 79.4235 74.443 77.6178C73.7569 77.2562 73.0699 76.8988 72.382 76.5455C67.588 74.0831 62.7682 71.8242 57.9225 69.7689L88.9373 60.5066L88.821 60.117ZM19.3066 117.899L19.4229 118.288L34.809 113.693L35.9795 117.612L36.3583 117.46L35.0823 113.187L19.3066 117.899ZM9.15563 83.9086L9.272 84.2982L24.6581 79.7032L30.5625 99.4739L15.1764 104.069L15.2928 104.459L31.0684 99.7472L24.9313 79.1973L9.15563 83.9086ZM44.6278 69.1122C37.9899 66.7697 31.129 64.7177 24.2372 63.0132L23.8913 62.9277L27.3904 74.6441L45.2171 69.3202L44.6278 69.1122ZM27.6636 74.1382L24.4848 63.4941C31.0444 65.1269 37.5719 67.0749 43.9029 69.2884L27.6636 74.1382ZM79.411 84.9503C76.321 83.2031 73.1867 81.53 70.008 79.9309C69.1315 79.4894 68.2523 79.0543 67.3705 78.6256C61.9877 76.007 56.5228 73.6197 50.9756 71.4639L50.9108 71.4387L28.4374 78.1502L34.5745 98.7001L79.8271 85.1856L79.411 84.9503ZM34.8478 98.1942L28.9434 78.4234L50.8937 71.8681C56.243 73.9483 61.5311 76.2526 66.7581 78.7809C67.6656 79.2196 68.5698 79.6649 69.4706 80.1168C72.6187 81.6928 75.7266 83.3438 78.7943 85.0697L34.8478 98.1942ZM44.6278 69.1122C37.9899 66.7697 31.129 64.7177 24.2372 63.0132L23.8913 62.9277L27.3904 74.6441L45.2171 69.3202L44.6278 69.1122ZM27.6636 74.1382L24.4848 63.4941C31.0444 65.1269 37.5719 67.0749 43.9029 69.2884L27.6636 74.1382ZM79.411 84.9503C76.321 83.2031 73.1867 81.53 70.008 79.9309C69.1315 79.4894 68.2523 79.0543 67.3705 78.6256C61.9877 76.007 56.5228 73.6197 50.9756 71.4639L50.9108 71.4387L28.4374 78.1502L34.5745 98.7001L79.8271 85.1856L79.411 84.9503ZM34.8478 98.1942L28.9434 78.4234L50.8937 71.8681C56.243 73.9483 61.5311 76.2526 66.7581 78.7809C67.6656 79.2196 68.5698 79.6649 69.4706 80.1168C72.6187 81.6928 75.7266 83.3438 78.7943 85.0697L34.8478 98.1942Z" fill="white"/>
</g>
</svg>
