<svg width="366" height="366" viewBox="0 0 366 366" fill="none" xmlns="http://www.w3.org/2000/svg">
<path d="M197.088 25.0662C179.875 24.9032 75.6269 23.2914 72.5622 52.3419C69.6253 80.1668 110.02 69.98 110.413 82.3262C110.832 95.2959 103.129 99.0492 81.6277 98.227C72.3096 97.8709 42.9017 101.165 42.4328 119.728C41.9633 138.188 74.8023 135.858 73.1774 151.175C72.2346 168.583 47.2944 172.369 37.4697 176.971C26.7941 182.555 7.14883 191.761 11.6625 211.522C17.6038 234.438 55.3293 230.317 69.5398 233.14C79.0299 234.68 109.207 237.341 104.915 257.648C102.66 269.852 77.8882 270.564 82.6235 286.222C87.4158 300.86 130.613 303.752 139.364 304.226C175.689 306.192 255.453 309.405 290.98 294.419C304.041 288.965 315.57 282.397 314.234 262.812C313.585 245.319 304.15 242.755 320.041 229.237C330.086 220.537 349.317 221.237 348.18 195.842C347.566 182.141 312.523 176.452 313.3 162.115C314.519 139.587 357.537 158.716 357.694 118.868C357.79 93.9953 279.531 107.91 280.329 83.3065C279.274 73.3218 296.5 69.0836 295.761 58.033C296.165 40.3379 275.895 27.2427 197.088 25.0662Z" fill="#F0F4F5"/>
<path d="M295.939 81.3192C295.939 92.8042 327.101 94.9228 328.718 81.3192C330.336 67.7132 295.939 64.0747 295.939 81.3192Z" fill="#F0F4F5"/>
<path d="M44.3569 257.981C44.3569 269.468 82.9184 271.689 84.3159 257.981C86.0394 241.082 44.3569 237.867 44.3569 257.981Z" fill="#F0F4F5"/>
<path d="M269.102 322.774C269.102 336.397 314.833 339.03 316.491 322.774C318.535 302.733 269.102 298.92 269.102 322.774Z" fill="#F0F4F5"/>
<path d="M41.0977 82.1297C41.0977 89.629 62.3535 91.0795 63.1236 82.1297C64.0745 71.0978 41.0977 68.9987 41.0977 82.1297Z" fill="#F0F4F5"/>
<path d="M113.383 204.915C114.089 201.364 108.836 198.1 104.788 199.409C105.449 196.974 104.696 194.766 101.109 193.676C99.6131 193.222 97.8165 193.228 96.2385 193.654C99.0687 188.013 96.4345 181.589 87.688 180.262C78.1775 178.818 67.6225 183.484 65.7351 190.993C58.0013 183.395 41.6135 192.499 46.4509 201.243C43.4628 200.768 40.384 202.46 40.2025 204.974C37.1772 203.946 34.7935 207.028 36.6591 209.685C36.7952 209.879 37.0738 210 37.3523 210C64.2588 210 91.167 210 118.072 210C118.278 210 118.44 209.948 118.563 209.869C118.691 209.795 118.794 209.686 118.847 209.533C119.766 206.916 116.38 204.433 113.383 204.915Z" fill="white"/>
<path d="M293.127 91.5927C293.74 88.5152 289.183 85.687 285.672 86.8216C286.245 84.7112 285.592 82.7974 282.48 81.8523C281.182 81.4592 279.624 81.4639 278.255 81.8335C280.71 76.9444 278.425 71.3776 270.838 70.2273C262.588 68.9756 253.432 73.0194 251.794 79.5273C245.085 72.9423 230.87 80.8325 235.066 88.4106C232.474 87.9986 229.803 89.465 229.646 91.6438C227.021 90.7529 224.953 93.4247 226.572 95.7269C226.69 95.8951 226.931 96.0005 227.173 96.0005C250.514 96.0005 273.856 96.0005 297.195 96.0005C297.374 96.0005 297.514 95.9549 297.621 95.8865C297.732 95.8228 297.821 95.7277 297.867 95.5956C298.664 93.3272 295.727 91.1752 293.127 91.5927Z" fill="white"/>
<path d="M297.955 155.288C298.337 153.394 295.489 151.654 293.295 152.352C293.653 151.053 293.245 149.876 291.3 149.294C290.489 149.052 289.515 149.055 288.659 149.282C290.194 146.274 288.766 142.848 284.024 142.14C278.867 141.37 273.145 143.858 272.121 147.863C267.928 143.811 259.043 148.666 261.666 153.33C260.046 153.076 258.377 153.979 258.278 155.319C256.638 154.771 255.346 156.415 256.357 157.832C256.431 157.936 256.582 158 256.733 158C271.321 158 285.91 158 300.497 158C300.609 158 300.696 157.972 300.763 157.93C300.833 157.891 300.888 157.833 300.917 157.751C301.415 156.355 299.58 155.031 297.955 155.288Z" fill="white"/>
<path d="M313.282 287.193C313.743 284.883 310.327 282.763 307.698 283.614C308.128 282.03 307.638 280.594 305.307 279.887C304.334 279.594 303.168 279.597 302.143 279.873C303.982 276.207 302.268 272.033 296.586 271.171C290.406 270.231 283.548 273.266 282.32 278.145C277.295 273.205 266.648 279.123 269.792 284.806C267.85 284.495 265.847 285.595 265.73 287.23C263.763 286.563 262.215 288.567 263.43 290.291C263.518 290.418 263.699 290.497 263.879 290.497C281.363 290.497 298.846 290.497 316.328 290.497C316.46 290.497 316.568 290.465 316.648 290.413C316.731 290.363 316.798 290.293 316.83 290.193C317.428 288.493 315.231 286.877 313.282 287.193Z" fill="white"/>
<path d="M183.923 49.4487C183.995 49.4914 184.076 49.5181 184.18 49.5181C200.609 49.5181 217.036 49.5181 233.464 49.5181C233.683 49.5181 233.901 49.3647 233.952 49.1447C234.492 46.8034 231.781 44.9621 229.949 45.8607C229.692 44.6701 228.513 43.8474 227.279 43.9994C227.956 41.8607 227.021 39.694 224.773 38.654C222.707 37.694 220.784 38.4834 219.556 40.0474C218.849 36.4194 215.719 33.282 211.907 33.0207C209.835 32.8807 207.643 33.4634 206.031 34.8207C204.423 36.1727 203.9 37.6514 203.496 39.4634C202.292 37.7367 200.343 36.9194 198.103 37.6141C195.888 38.2994 195.609 40.5594 195.713 42.59C193.928 41.1087 191.788 40.3914 189.459 41.7914C187.527 42.9514 187.111 44.8194 187.031 46.8474C185.443 45.9034 183.803 46.8407 183.673 49.0114C183.66 49.2354 183.769 49.3794 183.923 49.4487Z" fill="white"/>
<path d="M141.872 290.964L142.907 318.395H140.389V321.5H147.425V318.395H145.373L145.52 290.964H141.872Z" fill="#3F3D56"/>
<path d="M139.157 313.996H139.157C140.228 313.996 141.097 314.865 141.097 315.936V323.959C141.097 325.031 140.228 325.899 139.157 325.899H139.157C138.086 325.899 137.218 325.031 137.218 323.959V315.936C137.218 314.865 138.086 313.996 139.157 313.996Z" fill="#3F3D56"/>
<path d="M148.983 313.996H148.983C150.054 313.996 150.922 314.865 150.922 315.936V323.959C150.922 325.031 150.054 325.899 148.983 325.899H148.983C147.912 325.899 147.043 325.031 147.043 323.959V315.936C147.043 314.865 147.912 313.996 148.983 313.996Z" fill="#3F3D56"/>
<path d="M164.754 273.873L124.937 272.062L131.142 269.215L166.047 269.733L164.754 273.873Z" fill="#41778A"/>
<path d="M6 277.896L10.8088 276.084L160.101 279.966L166.306 277.12L163.72 294.717L45.1313 282.069L6 277.896Z" fill="#41778A"/>
<path d="M44.396 288.118L45.1315 282.069L163.72 294.717L163.074 303.645L44.396 288.118Z" fill="#3F3D56"/>
<path d="M124.161 305.974C130.944 305.974 136.442 300.123 136.442 292.905C136.442 285.688 130.944 279.837 124.161 279.837C117.378 279.837 111.879 285.688 111.879 292.905C111.879 300.123 117.378 305.974 124.161 305.974Z" fill="#3F3D56"/>
<path d="M124.161 299.633C129.159 299.633 133.21 295.578 133.21 290.576C133.21 285.574 129.159 281.519 124.161 281.519C119.163 281.519 115.111 285.574 115.111 290.576C115.111 295.578 119.163 299.633 124.161 299.633Z" fill="#41778A"/>
<path d="M225.128 290.964L224.094 318.395H226.611V321.5H219.575V318.395H221.627L221.481 290.964H225.128Z" fill="#3F3D56"/>
<path d="M227.843 313.996H227.842C226.772 313.996 225.903 314.865 225.903 315.936V323.959C225.903 325.031 226.772 325.899 227.842 325.899H227.843C228.913 325.899 229.782 325.031 229.782 323.959V315.936C229.782 314.865 228.913 313.996 227.843 313.996Z" fill="#3F3D56"/>
<path d="M218.017 313.996H218.017C216.946 313.996 216.078 314.865 216.078 315.936V323.959C216.078 325.031 216.946 325.899 218.017 325.899H218.017C219.088 325.899 219.957 325.031 219.957 323.959V315.936C219.957 314.865 219.088 313.996 218.017 313.996Z" fill="#3F3D56"/>
<path d="M202.245 273.873L242.063 272.062L235.858 269.215L200.953 269.733L202.245 273.873Z" fill="#41778A"/>
<path d="M187.994 268.298L186.184 228.446L183.34 234.657L183.857 269.592L187.994 268.298Z" fill="#41778A"/>
<path d="M361 277.896L356.191 276.084L206.9 279.966L200.694 277.12L203.28 294.717L321.869 282.069L361 277.896Z" fill="#41778A"/>
<path d="M322.604 288.118L321.869 282.069L203.28 294.717L203.926 303.645L322.604 288.118Z" fill="#3F3D56"/>
<path d="M242.839 305.974C249.622 305.974 255.121 300.123 255.121 292.905C255.121 285.688 249.622 279.837 242.839 279.837C236.056 279.837 230.558 285.688 230.558 292.905C230.558 300.123 236.056 305.974 242.839 305.974Z" fill="#3F3D56"/>
<path d="M242.839 299.633C247.837 299.633 251.889 295.578 251.889 290.576C251.889 285.574 247.837 281.519 242.839 281.519C237.841 281.519 233.79 285.574 233.79 290.576C233.79 295.578 237.841 299.633 242.839 299.633Z" fill="#41778A"/>
<path d="M206.059 268.909L205.472 273.238L205.167 296.538C205.144 298.272 204.935 299.985 204.542 301.647C203.409 306.486 200.764 310.888 196.857 314.078C193.312 316.977 188.477 319.171 182.078 318.783C165.013 317.748 163.506 303.212 163.506 303.212L164.15 276.853L164.238 273.238L165.013 266.715C165.013 266.715 167.082 248.341 186.215 248.859C205.348 249.376 206.059 268.909 206.059 268.909Z" fill="#41778A"/>
<path d="M169.15 262.833L173.028 256.623L177.941 255.07H194.747L198.884 256.623L202.638 262.833L195.781 259.728H176.546L169.15 262.833Z" fill="#E6E6E6"/>
<path d="M183.373 307.484L184.036 325.081H182.421V327.074H186.935V325.081H185.619L185.713 307.484H183.373Z" fill="#3F3D56"/>
<path d="M181.631 322.259C182.318 322.259 182.875 322.817 182.875 323.504V328.651C182.875 329.338 182.318 329.896 181.631 329.896C180.944 329.896 180.387 329.338 180.387 328.651V323.504C180.387 322.817 180.944 322.259 181.631 322.259Z" fill="#3F3D56"/>
<path d="M187.934 322.259C188.621 322.259 189.178 322.817 189.178 323.504V328.651C189.178 329.338 188.621 329.896 187.934 329.896C187.247 329.896 186.69 329.338 186.69 328.651V323.504C186.69 322.817 187.247 322.259 187.934 322.259Z" fill="#3F3D56"/>
<path d="M178.56 251.255L174.988 264.127L175.676 264.318L179.248 251.447L178.56 251.255Z" fill="#41778A"/>
<path d="M194.758 253.309L194.057 253.447L196.631 266.555L197.332 266.417L194.758 253.309Z" fill="#41778A"/>
</svg>
