<svg width="285" height="315" viewBox="0 0 285 315" fill="none" xmlns="http://www.w3.org/2000/svg">
<g clip-path="url(#clip0_5089_78824)">
<path d="M193.862 195.148C349.259 298.85 298.754 337.491 96.9308 302.297C44.1974 293.101 0 254.325 0 195.148C0 135.972 43.3974 87.9995 96.9308 87.9995C150.464 87.9995 144.549 162.24 193.862 195.148Z" fill="#3F3D56"/>
<path opacity="0.1" d="M207.755 296.174C241.659 296.174 269.145 293.722 269.145 290.696C269.145 287.671 241.659 285.218 207.755 285.218C173.851 285.218 146.365 287.671 146.365 290.696C146.365 293.722 173.851 296.174 207.755 296.174Z" fill="black"/>
<path opacity="0.1" d="M86.6811 115.601C104.651 115.601 119.219 113.148 119.219 110.123C119.219 107.097 104.651 104.645 86.6811 104.645C68.7109 104.645 54.1431 107.097 54.1431 110.123C54.1431 113.148 68.7109 115.601 86.6811 115.601Z" fill="black"/>
<path opacity="0.1" d="M84.9758 123.609C71.0147 123.606 57.3376 127.543 45.5245 134.964C33.7113 142.384 24.2441 152.987 18.2163 165.547C25.1452 157.912 33.6031 151.812 43.0432 147.641C52.4834 143.471 62.696 141.321 73.021 141.333C113.884 141.333 147.012 174.373 147.012 215.128C147.028 226.154 144.557 237.043 139.78 246.986C152.15 233.423 158.993 215.74 158.966 197.405C158.966 156.649 125.839 123.609 84.9758 123.609Z" fill="black"/>
<path opacity="0.3" d="M147.012 214.806C147.028 225.832 144.557 236.72 139.781 246.664C132.852 254.298 124.394 260.398 114.954 264.569C105.514 268.74 95.301 270.889 84.976 270.878C44.1132 270.878 10.9854 237.837 10.9854 197.082C10.9687 186.056 13.4402 175.168 18.2165 165.224C25.1454 157.59 33.6032 151.49 43.0434 147.319C52.4836 143.148 62.6962 140.999 73.0211 141.01C113.884 141.01 147.012 174.051 147.012 214.806Z" fill="#41778A"/>
<path d="M84.9761 271.24C43.977 271.24 10.6218 237.973 10.6218 197.082C10.5921 186.001 13.0763 175.056 17.8887 165.068C23.9461 152.446 33.4599 141.792 45.331 134.334C57.2022 126.877 70.9464 122.921 84.9761 122.924C125.975 122.924 159.33 156.191 159.33 197.082C159.331 206.821 157.408 216.465 153.672 225.462C149.935 234.46 144.458 242.635 137.554 249.521C130.649 256.408 122.452 261.87 113.431 265.597C104.41 269.323 94.7406 271.241 84.9761 271.24ZM84.9761 123.649C56.8046 123.649 30.7284 140.03 18.5444 165.381C13.7792 175.272 11.3193 186.109 11.349 197.082C11.349 237.573 44.3779 270.515 84.9761 270.515C94.6451 270.516 104.22 268.617 113.153 264.927C122.086 261.237 130.203 255.828 137.04 249.009C143.877 242.19 149.3 234.094 153 225.185C156.7 216.275 158.604 206.726 158.603 197.082C158.603 156.591 125.574 123.649 84.9761 123.649V123.649Z" fill="white"/>
<path d="M254.254 272.178C248.88 279.187 249.494 288.66 249.494 288.66C249.494 288.66 258.822 286.769 264.195 279.759C269.569 272.75 268.955 263.276 268.955 263.276C268.955 263.276 259.627 265.168 254.254 272.178Z" fill="#D0CDE1"/>
<path d="M257.775 273.752C256.732 282.514 249.673 288.882 249.673 288.882C249.673 288.882 244.304 281.043 245.347 272.281C246.39 263.518 253.449 257.15 253.449 257.15C253.449 257.15 258.818 264.989 257.775 273.752Z" fill="#41778A"/>
<path d="M62.8322 68.491C79.694 68.491 93.3632 54.8578 93.3632 38.0404C93.3632 21.223 79.694 7.58984 62.8322 7.58984C45.9704 7.58984 32.3013 21.223 32.3013 38.0404C32.3013 54.8578 45.9704 68.491 62.8322 68.491Z" fill="#FF6584"/>
<path d="M129.026 69.0866C129.041 99.5027 110.916 110.13 88.5536 110.141C88.0342 110.141 87.5172 110.136 87.0028 110.125C85.9664 110.103 84.9408 110.056 83.926 109.985C63.7426 108.569 48.0553 97.4128 48.0415 69.1258C48.0273 39.8523 85.5216 2.8916 88.3335 0.158709C88.336 0.158709 88.336 0.158708 88.3385 0.156224C88.4453 0.0520686 88.5 0 88.5 0C88.5 0 129.011 38.6729 129.026 69.0866Z" fill="#41778A"/>
<path d="M87.0776 105.489L101.877 84.8444L87.0414 107.755L87.0028 110.124C85.9664 110.103 84.9408 110.056 83.926 109.985L85.5067 79.5553L85.4942 79.3198L85.5215 79.2752L85.6717 76.3998L70.7764 53.4468L85.7154 74.2458L85.753 74.8556L86.9471 51.865L74.1937 28.1451L87.1017 47.8247L88.3335 0.158629L88.3384 0L88.3385 0.156145L88.1481 37.7458L100.823 22.8377L88.0949 40.983L87.7695 61.5687L99.607 41.8078L87.7237 64.5953L87.5429 76.042L104.722 48.535L87.4777 80.0352L87.0776 105.489Z" fill="#3F3D56"/>
<path d="M208.3 86.5131C204.42 79.973 196.742 79.6682 196.742 79.6682C196.742 79.6682 189.26 78.714 184.461 88.6746C179.987 97.9588 173.813 106.923 183.467 109.096L185.21 103.683L186.29 109.499C187.665 109.598 189.044 109.621 190.421 109.57C200.759 109.237 210.604 109.667 210.287 105.967C209.866 101.048 212.035 92.806 208.3 86.5131Z" fill="#2F2E41"/>
<path d="M191.179 147.882L192.178 157.839L215.304 155.35L215.803 147.882H191.179Z" fill="#A0616A"/>
<path d="M188.684 153.358L188.018 159.166C188.018 159.166 180.365 169.786 181.03 188.04C181.696 206.293 170.548 287.437 178.535 288.101C186.521 288.765 200.829 289.761 201.495 287.271C202.16 284.782 203.491 190.363 203.491 190.363C203.491 190.363 206.985 287.389 212.975 287.721C218.964 288.053 239.096 288.717 239.096 286.228C239.096 283.739 221.46 172.607 221.46 172.607L218.632 163.315L215.803 151.865C215.803 151.865 198.167 154.852 193.342 153.69C188.517 152.529 188.684 153.358 188.684 153.358Z" fill="#2F2E41"/>
<path d="M196.67 107.393C202.55 107.393 207.318 102.638 207.318 96.773C207.318 90.9076 202.55 86.1528 196.67 86.1528C190.789 86.1528 186.021 90.9076 186.021 96.773C186.021 102.638 190.789 107.393 196.67 107.393Z" fill="#A0616A"/>
<path d="M215.304 114.363L213.282 117.297L211.988 119.173L209.813 122.328L198.999 123.158C198.999 123.158 196.372 122.311 193.34 121.075C192.221 120.617 191.044 120.106 189.926 119.563C185.589 117.463 182.108 114.899 186.021 113.201C186.716 112.904 187.384 112.546 188.016 112.133C188.592 111.757 189.128 111.325 189.615 110.842C190.618 109.84 191.36 108.609 191.777 107.256C192.195 105.904 192.275 104.47 192.011 103.079L202.493 101.585C202.188 104.237 204.832 107.129 207.795 109.491C208.769 110.269 209.779 110.988 210.729 111.621C213.219 113.284 215.304 114.363 215.304 114.363Z" fill="#A0616A"/>
<path d="M200.996 117.516C200.996 117.516 190.763 115.773 188.434 112.123C188.434 112.123 178.368 113.367 179.2 118.677C180.032 123.987 188.351 153.027 188.351 153.027C188.351 153.027 209.148 149.044 216.802 152.031L221.46 115.026C221.46 115.026 219.796 111.376 216.635 112.371C213.474 113.367 212.226 112.454 212.226 112.454C212.226 112.454 208.649 117.516 200.996 117.516Z" fill="#D0CDE1"/>
<path d="M210.313 175.76C210.313 175.76 217.467 183.725 213.474 185.053C209.481 186.38 204.656 179.743 204.656 179.743L210.313 175.76Z" fill="#A0616A"/>
<path d="M212.642 176.424C212.642 176.424 206.819 180.406 208.982 183.061C211.145 185.716 218.632 180.738 218.632 179.743C218.632 178.747 212.642 176.424 212.642 176.424Z" fill="#A0616A"/>
<path d="M198.333 154.852L193.508 155.681L190.347 132.284C190.53 128.039 190.389 123.787 189.926 119.563C189.574 116.742 188.985 114.031 188.016 112.132C188.592 111.757 189.128 111.325 189.615 110.841C190.773 112.672 192.886 116.548 193.34 121.075C193.459 122.208 193.46 123.351 193.342 124.485C192.51 132.284 192.677 133.777 192.677 133.777L198.333 154.852Z" fill="#2F2E41"/>
<path d="M187.186 113.533C187.186 113.533 179.367 111.376 178.701 116.022C178.036 120.668 178.867 132.616 180.698 137.096C182.528 141.577 188.85 156.179 188.85 156.179C188.85 156.179 200.33 170.782 200.829 174.267C201.328 177.751 203.824 181.402 203.824 181.402L211.81 176.258L196.171 149.874L189.349 131.62C189.349 131.62 192.178 115.026 187.186 113.533Z" fill="#D0CDE1"/>
<path d="M217.8 114.197L221.46 115.026C221.46 115.026 224.788 129.297 223.457 136.931C222.125 144.564 221.959 147.219 221.959 147.219L220.794 168.957C220.794 168.957 221.127 182.896 218.798 180.739C216.469 178.581 211.81 177.586 211.81 177.586C211.81 177.586 212.309 171.446 214.139 169.952C214.139 169.952 216.302 158.503 214.971 153.524C213.64 148.546 217.8 114.197 217.8 114.197Z" fill="#D0CDE1"/>
<path d="M219.131 130.293L214.888 154.769L212.309 153.69L216.801 130.293L211.988 119.173L207.795 109.491C208.769 110.269 209.779 110.987 210.729 111.621L213.283 117.297L219.131 130.293Z" fill="#2F2E41"/>
<path d="M206.584 85.8827L198.999 81.9199L188.524 83.5411L186.357 93.0879L191.752 92.8809L193.259 89.3735V92.8232L195.748 92.7275L197.193 87.1435L198.096 93.0879L206.946 92.9077L206.584 85.8827Z" fill="#2F2E41"/>
<path d="M191.6 290.696C194.455 290.696 196.769 289.83 196.769 288.763C196.769 287.695 194.455 286.829 191.6 286.829C188.745 286.829 186.43 287.695 186.43 288.763C186.43 289.83 188.745 290.696 191.6 290.696Z" fill="#2F2E41"/>
<path d="M226.495 290.696C229.35 290.696 231.665 289.83 231.665 288.763C231.665 287.695 229.35 286.829 226.495 286.829C223.64 286.829 221.325 287.695 221.325 288.763C221.325 289.83 223.64 290.696 226.495 290.696Z" fill="#2F2E41"/>
<path d="M95.8133 235.251C90.5253 238.683 84.4313 240.68 78.1329 241.046C71.8344 241.412 65.5491 240.134 59.8973 237.337L60.6975 235.709C67.5101 239.047 75.2316 240.067 82.6803 238.611C90.1289 237.156 96.8942 233.306 101.941 227.652C106.987 221.997 110.036 214.849 110.622 207.301C111.208 199.753 109.297 192.222 105.183 185.86C101.069 179.499 94.9785 174.657 87.843 172.076C80.7076 169.495 72.9207 169.317 65.6744 171.57C58.428 173.823 52.1215 178.382 47.7201 184.549C43.3187 190.717 41.065 198.153 41.3039 205.719L39.4869 205.775C39.2856 199.408 40.7609 193.1 43.7657 187.48C46.7706 181.859 51.1999 177.123 56.6123 173.741C62.0248 170.36 68.2312 168.453 74.6129 168.21C80.9947 167.967 87.3289 169.396 92.9841 172.356C98.6394 175.315 103.418 179.701 106.844 185.077C110.27 190.452 112.223 196.63 112.51 202.993C112.796 209.356 111.405 215.683 108.475 221.343C105.546 227.003 101.18 231.798 95.8133 235.251Z" fill="white"/>
<path d="M79.3701 202.465C73.9948 203.651 66.841 204.375 61.6284 203.62L68.172 208.59L49.853 220.374L50.8383 221.897L69.1573 210.113L70.9988 218.11C72.459 213.062 76.0702 206.861 79.3701 202.465Z" fill="white"/>
</g>
<defs>
<clipPath id="clip0_5089_78824">
<rect width="285" height="315" fill="white"/>
</clipPath>
</defs>
</svg>
