<svg width="24" height="24" viewBox="0 0 24 24" fill="none" xmlns="http://www.w3.org/2000/svg">
<path d="M16.1092 12.015C18.3804 12.015 20.2215 10.1738 20.2215 7.90263C20.2215 5.63144 18.3804 3.79028 16.1092 3.79028C13.838 3.79028 11.9968 5.63144 11.9968 7.90263C11.9968 10.1738 13.838 12.015 16.1092 12.015Z" fill="#A0BBC5"/>
<path d="M16.1094 12.0153C18.3806 12.0153 20.2217 10.1741 20.2217 7.90289C20.2217 6.14599 19.12 4.64642 17.5697 4.05737" stroke="#345F6E" stroke-width="1.71429" stroke-linecap="round" stroke-linejoin="round"/>
<path d="M21.7265 17.792C23.7381 19.1317 22.3798 21.7157 19.9629 21.7157H10.8868C8.46993 21.7157 7.11162 19.1317 9.12318 17.792C10.9275 16.5903 13.0944 15.8899 15.4249 15.8899C17.7554 15.8899 19.9222 16.5903 21.7265 17.792Z" fill="#A0BBC5"/>
<path d="M9.18945 11.1999C11.6514 11.1999 13.6472 9.20412 13.6472 6.74218C13.6472 4.28023 11.6514 2.28442 9.18945 2.28442C6.7275 2.28442 4.73169 4.28023 4.73169 6.74218C4.73169 9.20412 6.7275 11.1999 9.18945 11.1999Z" fill="#A0BBC5" stroke="#345F6E" stroke-width="1.71429" stroke-linecap="round" stroke-linejoin="round"/>
<path d="M16.0176 17.4629C18.1981 18.9153 16.7257 21.7162 14.1058 21.7162H4.26737C1.64751 21.7162 0.175114 18.9153 2.35562 17.4629C4.3115 16.1603 6.66038 15.4011 9.18659 15.4011C11.7128 15.4011 14.0617 16.1603 16.0176 17.4629Z" fill="#A0BBC5" stroke="#345F6E" stroke-width="1.71429"/>
<path d="M13.7266 21.7161H19.9623C22.3793 21.7161 23.7375 19.1321 21.726 17.7922C21.1706 17.4223 20.5807 17.0999 19.9623 16.8308" stroke="#345F6E" stroke-width="1.71429" stroke-linecap="round"/>
</svg>
