<svg width="24" height="24" viewBox="0 0 24 24" fill="none" xmlns="http://www.w3.org/2000/svg">
<path d="M21.2121 19.0009C21.3539 16.7412 21.4284 14.3995 21.4284 12.0001C21.4284 11.0283 21.4163 10.066 21.3923 9.11472C21.3755 8.44648 21.1586 7.79705 20.7631 7.25818C19.2554 5.20426 18.0544 3.92736 16.0749 2.39968C15.5309 1.97985 14.8634 1.75207 14.1765 1.73705C13.4876 1.722 12.7683 1.71436 11.9999 1.71436C9.67366 1.71436 7.7972 1.78442 5.85535 1.91793C4.20339 2.03152 2.8914 3.3466 2.78767 4.9992C2.64584 7.25892 2.57129 9.6006 2.57129 12.0001C2.57129 14.3995 2.64584 16.7412 2.78767 19.0009C2.8914 20.6536 4.20339 21.9686 5.85535 22.0821C7.7972 22.2157 9.67366 22.2858 11.9999 22.2858C14.3261 22.2858 16.2025 22.2157 18.1444 22.0821C19.7963 21.9686 21.1084 20.6536 21.2121 19.0009Z" fill="#A0BBC5" stroke="#345F6E" stroke-width="1.71429"/>
<path d="M8.73193 12.0269H15.2676" stroke="#345F6E" stroke-width="1.71429" stroke-linecap="round"/>
<path d="M8.73193 6.85718H12.6759M8.73193 17.0089H15.2473H8.73193Z" stroke="#345F6E" stroke-width="1.71429" stroke-linecap="round" stroke-linejoin="round"/>
</svg>
