<svg width="24" height="24" viewBox="0 0 24 24" fill="none" xmlns="http://www.w3.org/2000/svg">
<path d="M12.2293 4.31858C12.182 3.25497 11.8029 2.22326 11.5249 1.71436C11.4938 1.73251 11.4608 1.75173 11.426 1.77201C10.5976 2.25434 8.7413 3.3352 7.26345 4.84951C6.23232 5.65257 5.41187 6.98647 5.41187 8.58792C5.41187 9.82564 5.88386 10.8197 6.33093 11.7613C7.15787 13.5028 7.89959 15.065 5.41187 17.6574C8.69025 18.296 15.0605 19.2412 15.2884 18.1552C15.7192 16.1026 15.3346 14.9601 15.0434 14.0952C14.8767 13.6002 14.7406 13.1961 14.8057 12.7643C16.7936 13.5192 18.1233 11.8013 18.8034 10.9229C18.9013 10.7964 18.9856 10.6874 19.0566 10.6056C18.1667 9.26242 16.4651 7.16086 15.2884 5.95058C14.438 5.07583 13.3569 4.58488 12.2293 4.31858Z" fill="white" stroke="#345F6E" stroke-width="1.71429" stroke-linecap="round" stroke-linejoin="round"/>
<path d="M15.5008 12.9524C14.4584 12.7051 13.856 12.3905 13.022 11.9409" stroke="#345F6E" stroke-width="1.71429" stroke-linecap="round" stroke-linejoin="round"/>
<path d="M3.60255 19.8809C3.50283 20.6678 3.42847 21.4706 3.42847 22.2859H18.2473C18.2473 21.4706 18.1729 20.6678 18.0733 19.8809C17.866 18.2467 16.4943 16.9724 14.8529 16.8311C13.5478 16.7188 12.2064 16.6201 10.8379 16.6201C9.46937 16.6201 8.12791 16.7188 6.8228 16.8311C5.18148 16.9724 3.80967 18.2467 3.60255 19.8809Z" fill="#A0BBC5" stroke="#345F6E" stroke-width="1.71429" stroke-linejoin="round"/>
</svg>
