<svg width="24" height="24" viewBox="0 0 24 24" fill="none" xmlns="http://www.w3.org/2000/svg">
<path d="M22.59 22.5455H21.7753C20.9112 22.5455 20.0823 22.2023 19.4713 21.5911C18.8602 20.9801 18.517 20.1513 18.517 19.2871C18.517 20.1513 18.1736 20.9801 17.5625 21.5911C16.9515 22.2023 16.1227 22.5455 15.2585 22.5455C14.3944 22.5455 13.5656 22.2023 12.9545 21.5911C12.3434 20.9801 12.0002 20.1513 12.0002 19.2871C12.0002 20.1513 11.6569 20.9801 11.0458 21.5911C10.4347 22.2023 9.60595 22.5455 8.74176 22.5455C7.87759 22.5455 7.0488 22.2023 6.43774 21.5911C5.82667 20.9801 5.48338 20.1513 5.48338 19.2871C5.48338 20.1513 5.14008 20.9801 4.52902 21.5911C3.91795 22.2023 3.08918 22.5455 2.22499 22.5455H1.4104" stroke="#345F6E" stroke-width="1.71429" stroke-linecap="round" stroke-linejoin="round"/>
<path d="M22.415 13.7029C22.2364 14.666 21.9606 15.6028 21.783 16.5052H2.21724C2.03969 15.6028 1.76392 14.666 1.58526 13.7029C1.41257 12.772 2.178 12 3.12477 12H20.8756C21.8222 12 22.5877 12.772 22.415 13.7029Z" fill="white"/>
<path d="M2.21724 16.5052C2.03969 15.6028 1.76392 14.666 1.58526 13.7029C1.41257 12.772 2.178 12 3.12477 12H20.8756C21.8222 12 22.5877 12.772 22.415 13.7029C22.2364 14.666 21.9606 15.6028 21.783 16.5052" stroke="#345F6E" stroke-width="1.71429" stroke-linecap="round" stroke-linejoin="round"/>
<path d="M18.416 12H5.58447C5.61262 10.5984 5.75448 9.22884 5.89181 7.90277C5.90561 7.7695 5.91938 7.63666 5.93297 7.50426C6.0175 6.68101 6.66672 6.02214 7.48795 5.9198C7.60647 5.90502 7.72537 5.89009 7.84466 5.87509C9.1868 5.70641 10.5766 5.53174 12.0003 5.53174C13.4239 5.53174 14.8137 5.70641 16.1559 5.87509C16.2751 5.89009 16.394 5.90502 16.5126 5.9198C17.3338 6.02214 17.983 6.68101 18.0675 7.50426C18.0812 7.63666 18.0949 7.7695 18.1087 7.90278C18.246 9.22885 18.3879 10.5984 18.416 12Z" fill="#A0BBC5" stroke="#345F6E" stroke-width="1.71429" stroke-linejoin="round"/>
<path d="M13.2431 2.15234L12 5.53175" stroke="#345F6E" stroke-width="1.71429" stroke-linecap="round" stroke-linejoin="round"/>
</svg>
