<svg width="24" height="24" viewBox="0 0 24 24" fill="none" xmlns="http://www.w3.org/2000/svg">
<path d="M7.59959 8.8941C8.92598 8.61358 10.2729 8.36365 11.78 8.10785C13.781 7.76821 15.522 7.67736 17.3947 7.81052C19.0024 7.92483 20.4138 8.92707 21.1334 10.3691C21.9697 12.0443 22.4239 13.4122 22.2842 15.3662C22.2271 16.1642 21.5425 16.7485 20.7434 16.7878C20.4878 16.8004 20.2257 16.8135 19.9585 16.8268C17.2103 16.9635 13.899 17.1282 11.3424 17.1282C9.08246 17.1282 6.8762 16.9995 4.74565 16.8752C4.25699 16.8467 3.77231 16.8184 3.29188 16.792C2.49313 16.748 1.82761 16.1627 1.66539 15.3794C1.63251 15.2205 1.60162 15.0742 1.57285 14.9379C1.27701 13.5359 1.31343 12.1243 1.31343 10.6964C1.31343 9.79039 1.3726 8.90441 1.43515 8.04613C1.49459 7.23058 2.11256 6.53886 2.92028 6.41132C3.3369 6.34553 3.7624 6.29492 4.19486 6.29492C4.74368 6.29492 5.28129 6.37644 5.80377 6.46704C6.44774 6.5787 6.98783 7.03575 7.19483 7.65569C7.33161 8.06535 7.46822 8.47841 7.59959 8.8941Z" fill="white" stroke="#345F6E" stroke-width="1.71429" stroke-linejoin="round"/>
<path d="M9.18554 13.8823C8.94314 16.1332 8.75859 18.0337 8.69714 19.957C8.67164 20.7553 9.22411 21.466 10.0118 21.598C11.0405 21.7705 11.7134 21.7384 12.8748 21.5017C13.3945 21.3958 13.8304 21.0407 14.0386 20.5528C14.9974 18.3058 15.5257 16.2058 15.5257 13.8823H9.18554Z" fill="#A0BBC5" stroke="#345F6E" stroke-width="1.71429" stroke-linejoin="round"/>
</svg>
