<svg width="24" height="24" viewBox="0 0 24 24" fill="none" xmlns="http://www.w3.org/2000/svg">
<path d="M14.4916 7.56159C14.5933 8.51148 15.3573 9.27547 16.3067 9.38129C17.0119 9.45989 17.736 9.5274 18.4742 9.5274C19.2124 9.5274 19.9365 9.45989 20.6416 9.38129C21.5911 9.27547 22.355 8.51148 22.4566 7.56159C22.5317 6.86038 22.595 6.14047 22.595 5.40653C22.595 4.67258 22.5317 3.95266 22.4566 3.25145C22.355 2.30156 21.5911 1.53759 20.6416 1.43176C19.9365 1.35316 19.2124 1.28564 18.4742 1.28564C17.736 1.28564 17.0119 1.35316 16.3067 1.43176C15.3573 1.53759 14.5933 2.30156 14.4916 3.25145C14.4166 3.95266 14.3533 4.67258 14.3533 5.40653C14.3533 6.14047 14.4166 6.86038 14.4916 7.56159Z" fill="#A0BBC5" stroke="#345F6E" stroke-width="1.71429"/>
<path d="M1.5434 7.56159C1.64503 8.51148 2.40901 9.27547 3.35844 9.38129C4.06363 9.45989 4.78769 9.5274 5.52591 9.5274C6.26413 9.5274 6.9882 9.45989 7.69339 9.38129C8.64281 9.27547 9.4068 8.51148 9.50842 7.56159C9.58344 6.86038 9.6468 6.14047 9.6468 5.40653C9.6468 4.67258 9.58344 3.95266 9.50842 3.25145C9.4068 2.30156 8.64281 1.53759 7.69339 1.43176C6.9882 1.35316 6.26413 1.28564 5.52591 1.28564C4.78769 1.28564 4.06363 1.35316 3.35844 1.43176C2.40901 1.53759 1.64503 2.30156 1.5434 3.25145C1.46838 3.95266 1.40503 4.67258 1.40503 5.40653C1.40503 6.14047 1.46838 6.86038 1.5434 7.56159Z" fill="#A0BBC5" stroke="#345F6E" stroke-width="1.71429"/>
<path d="M1.5434 20.7486C1.64503 21.6985 2.40901 22.4624 3.35844 22.5683C4.06363 22.6469 4.78769 22.7144 5.52591 22.7144C6.26413 22.7144 6.9882 22.6469 7.69339 22.5683C8.64281 22.4624 9.4068 21.6985 9.50842 20.7486C9.58344 20.0475 9.6468 19.3275 9.6468 18.5936C9.6468 17.8595 9.58344 17.1397 9.50842 16.4385C9.4068 15.4886 8.64281 14.7246 7.69339 14.6188C6.9882 14.5402 6.26413 14.4727 5.52591 14.4727C4.78769 14.4727 4.06363 14.5402 3.35844 14.6188C2.40901 14.7246 1.64503 15.4886 1.5434 16.4385C1.46838 17.1397 1.40503 17.8595 1.40503 18.5936C1.40503 19.3275 1.46838 20.0475 1.5434 20.7486Z" fill="#A0BBC5" stroke="#345F6E" stroke-width="1.71429"/>
<path d="M14.4916 20.7486C14.5933 21.6985 15.3573 22.4624 16.3067 22.5683C17.0119 22.6469 17.736 22.7144 18.4742 22.7144C19.2124 22.7144 19.9365 22.6469 20.6416 22.5683C21.5911 22.4624 22.355 21.6985 22.4566 20.7486C22.5317 20.0475 22.595 19.3275 22.595 18.5936C22.595 17.8595 22.5317 17.1397 22.4566 16.4385C22.355 15.4886 21.5911 14.7246 20.6416 14.6188C19.9365 14.5402 19.2124 14.4727 18.4742 14.4727C17.736 14.4727 17.0119 14.5402 16.3067 14.6188C15.3573 14.7246 14.5933 15.4886 14.4916 16.4385C14.4166 17.1397 14.3533 17.8595 14.3533 18.5936C14.3533 19.3275 14.4166 20.0475 14.4916 20.7486Z" fill="#A0BBC5" stroke="#345F6E" stroke-width="1.71429"/>
</svg>
