<svg width="24" height="24" viewBox="0 0 24 24" fill="none" xmlns="http://www.w3.org/2000/svg">
<path d="M2.57144 6C1.38599 8.96361 1.39601 17.1573 1.60506 21.1704C1.65087 22.05 2.38498 22.7143 3.2657 22.7143H13.8771C14.7578 22.7143 15.4919 22.05 15.5377 21.1704C15.7468 17.1573 15.7568 8.96361 14.5713 6C13.8724 5.068 12.1473 3.14793 10.047 1.72737C9.1531 1.12278 7.98968 1.12278 7.09579 1.72737C4.99546 3.14793 3.27043 5.068 2.57144 6Z" fill="white" stroke="#345F6E" stroke-width="1.71429" stroke-linecap="round" stroke-linejoin="round"/>
<path d="M15.4267 10.7144H19.2985C20.6624 10.7144 21.8358 11.3798 22.0892 12.72C22.4778 14.7762 22.7308 18.2639 22.2858 22.7144H13.8772C14.7579 22.7144 15.492 22.0501 15.5378 21.1706C15.6727 18.5826 15.7247 14.2558 15.4267 10.7144Z" fill="#A0BBC5" stroke="#345F6E" stroke-width="1.71429" stroke-linecap="round" stroke-linejoin="round"/>
<path d="M6.896 13.7144H10.247" stroke="#345F6E" stroke-width="1.71429" stroke-linecap="round" stroke-linejoin="round"/>
<path d="M6.896 8.57129H10.247" stroke="#345F6E" stroke-width="1.71429" stroke-linecap="round" stroke-linejoin="round"/>
<path d="M6.51904 20.3196V22.7141H10.6239V20.3196C10.6239 19.1861 9.70499 18.2671 8.57147 18.2671C7.43793 18.2671 6.51904 19.1861 6.51904 20.3196Z" fill="white" stroke="#345F6E" stroke-width="1.71429" stroke-linecap="round" stroke-linejoin="round"/>
</svg>
