<svg width="24" height="25" viewBox="0 0 24 25" fill="none" xmlns="http://www.w3.org/2000/svg">
<path d="M20 10.5C20 14.9183 14.5 21.5 12 21.5C9.5 21.5 4 14.9183 4 10.5C4 9.94692 4.05613 8.6043 4.16299 7.49448C4.25433 6.54593 4.93709 5.82489 5.83975 5.51946C11.8081 3.5 10.603 3.5 12 3.5C13.397 3.5 12.1919 3.5 18.1602 5.51946C19.0629 5.82489 19.7457 6.54593 19.837 7.49448C19.9439 8.6043 20 9.94692 20 10.5Z" fill="#A0BBC5"/>
<path fill-rule="evenodd" clip-rule="evenodd" d="M12.5636 4.36826C12.4779 4.35296 12.3783 4.34994 12.0004 4.34994C11.6224 4.34994 11.5229 4.35296 11.4372 4.36826C11.3629 4.38154 11.2774 4.40825 10.9553 4.53951C10.9095 4.55817 10.8607 4.57819 10.8083 4.59967C10.1415 4.87282 8.89988 5.38145 6.11258 6.32456C5.46238 6.54456 5.06267 7.02337 5.00947 7.57589C4.90495 8.66135 4.85039 9.97667 4.85039 10.4999C4.85039 12.4253 6.08596 14.9888 7.73707 17.1391C8.54823 18.1955 9.42233 19.1024 10.2231 19.7359C11.0674 20.4039 11.6826 20.6499 12.0004 20.6499C12.3182 20.6499 12.9334 20.4039 13.7777 19.7359C14.5784 19.1024 15.4526 18.1955 16.2637 17.1391C17.9148 14.9888 19.1504 12.4253 19.1504 10.4999C19.1504 9.97667 19.0958 8.66135 18.9913 7.57589C18.9381 7.02337 18.5384 6.54456 17.8882 6.32456C15.1009 5.38145 13.8593 4.87283 13.1925 4.59967C13.1401 4.57819 13.0912 4.55817 13.0455 4.53951C12.7234 4.40825 12.6379 4.38154 12.5636 4.36826ZM13.8336 3.0252C14.4827 3.29119 15.6921 3.78682 18.4331 4.71425C19.5882 5.1051 20.554 6.06837 20.6835 7.41295C20.7927 8.54712 20.8504 9.91705 20.8504 10.4999C20.8504 12.9928 19.336 15.9294 17.6121 18.1745C16.7357 19.3158 15.7661 20.3305 14.8325 21.0691C13.9424 21.7733 12.9326 22.3499 12.0004 22.3499C11.0682 22.3499 10.0584 21.7733 9.16832 21.0691C8.2347 20.3305 7.26505 19.3158 6.38871 18.1745C4.66482 15.9294 3.15039 12.9928 3.15039 10.4999C3.15039 9.91705 3.20809 8.54712 3.3173 7.41295C3.44677 6.06837 4.41258 5.1051 5.56771 4.71425C8.30866 3.78681 9.51809 3.29119 10.1672 3.0252C10.2195 3.00375 10.2682 2.9838 10.3137 2.96523C10.6111 2.84406 10.8593 2.74456 11.1384 2.69473C11.391 2.64962 11.6489 2.64976 11.9465 2.64992C11.9643 2.64993 11.9823 2.64994 12.0004 2.64994C12.0185 2.64994 12.0364 2.64993 12.0543 2.64992C12.3518 2.64976 12.6098 2.64962 12.8624 2.69473C13.1415 2.74456 13.3897 2.84406 13.687 2.96523C13.7326 2.9838 13.7813 3.00375 13.8336 3.0252Z" fill="#213C45"/>
</svg>
