<svg width="24" height="24" viewBox="0 0 24 24" fill="none" xmlns="http://www.w3.org/2000/svg">
<path d="M11.0588 1.4565C9.89861 1.34425 8.70362 1.28564 7.4831 1.28564C6.26256 1.28564 5.06756 1.34425 3.90739 1.4565C2.63072 1.58002 1.65408 2.874 1.59641 4.44958C1.50735 6.88301 1.46045 9.40911 1.46045 11.9999C1.46045 14.5907 1.50735 17.1168 1.59641 19.5503C1.65408 21.1259 2.63072 22.4199 3.90739 22.5433C5.06756 22.6556 6.26256 22.7142 7.4831 22.7142C8.70362 22.7142 9.89861 22.6556 11.0588 22.5433C12.3354 22.4199 13.3121 21.1259 13.3697 19.5503C13.4015 18.682 13.4279 17.8021 13.4488 16.9115V7.08843C13.4279 6.19786 13.4015 5.31782 13.3697 4.44958C13.3121 2.874 12.3354 1.58001 11.0588 1.4565Z" fill="#A0BBC5"/>
<path d="M13.3697 4.44958C13.3121 2.874 12.3354 1.58001 11.0588 1.4565C9.89861 1.34425 8.70362 1.28564 7.4831 1.28564C6.26256 1.28564 5.06756 1.34425 3.90739 1.4565C2.63072 1.58002 1.65408 2.874 1.59641 4.44958C1.50735 6.88301 1.46045 9.40911 1.46045 11.9999C1.46045 14.5907 1.50735 17.1169 1.59641 19.5503C1.65408 21.1259 2.63072 22.4199 3.90739 22.5433C5.06756 22.6556 6.26256 22.7142 7.4831 22.7142C8.70362 22.7142 9.89861 22.6556 11.0588 22.5433C12.3354 22.4199 13.3121 21.1259 13.3697 19.5503" stroke="#345F6E" stroke-width="1.71429" stroke-linecap="round"/>
<path d="M17.1897 17.0772C19.3492 15.3079 20.4283 14.229 22.1118 12.1551C20.4283 10.0812 19.3492 9.00229 17.1897 7.23291" stroke="#345F6E" stroke-width="1.71429" stroke-linecap="round" stroke-linejoin="round"/>
<path d="M6.86377 12.1553H22.0569" stroke="#345F6E" stroke-width="1.71429" stroke-linecap="round" stroke-linejoin="round"/>
</svg>
