<svg width="24" height="25" viewBox="0 0 24 25" fill="none" xmlns="http://www.w3.org/2000/svg">
<g clip-path="url(#clip0_4788_86029)">
<rect x="17" y="8.5" width="5" height="14" fill="white"/>
<path d="M8 7.5H16V22.5H8V7.5Z" fill="#A0BBC5"/>
<rect x="2" y="8.5" width="5" height="14" fill="white"/>
<path d="M1.63452 20.0694C1.85636 21.575 3.14552 22.6641 4.66209 22.7923C7.02638 22.9921 9.4817 23.2132 12.0004 23.2132C14.5555 23.2132 17.0294 23.0725 19.4288 22.8508C20.9041 22.7145 22.1161 21.6146 22.3362 20.1494C22.5686 18.6023 22.7147 17.011 22.7147 15.3761C22.7147 13.7249 22.5806 12.1029 22.3446 10.5409C22.1274 9.10441 20.9349 8.03562 19.4884 7.89951C17.0649 7.67142 14.5797 7.53906 12.0004 7.53906C9.41288 7.53906 6.88276 7.66391 4.46144 7.89548C3.03981 8.03142 1.86674 9.07693 1.65139 10.4887C1.41086 12.0655 1.28613 13.708 1.28613 15.3761C1.28613 16.9835 1.41022 18.5469 1.63452 20.0694Z" stroke="#345F6E" stroke-width="1.71429" stroke-linejoin="round"/>
<path d="M7.87891 23.0459V7.67969" stroke="#345F6E" stroke-width="1.71429" stroke-linecap="round" stroke-linejoin="round"/>
<path d="M16.1211 23.0861V7.67969" stroke="#345F6E" stroke-width="1.71429" stroke-linecap="round" stroke-linejoin="round"/>
<path d="M16.8935 7.65513V6.68261C16.8935 5.38476 16.378 4.14007 15.4602 3.22234C14.5425 2.30464 13.2978 1.78906 12 1.78906C10.7021 1.78906 9.45745 2.30464 8.53973 3.22234C7.622 4.14007 7.10645 5.38476 7.10645 6.68261V7.65513" stroke="#345F6E" stroke-width="1.71429" stroke-linecap="round" stroke-linejoin="round"/>
</g>
<defs>
<clipPath id="clip0_4788_86029">
<rect width="24" height="24" fill="white" transform="translate(0 0.5)"/>
</clipPath>
</defs>
</svg>
