<svg width="24" height="24" viewBox="0 0 24 24" fill="none" xmlns="http://www.w3.org/2000/svg">
<path d="M11.9999 22.7142C18.8571 22.7142 22.7142 18.8571 22.7142 11.9999C22.7142 5.14279 18.8571 1.28564 11.9999 1.28564C5.14279 1.28564 1.28564 5.14279 1.28564 11.9999C1.28564 18.8571 5.14279 22.7142 11.9999 22.7142Z" fill="#A0BBC5" stroke="#345F6E" stroke-width="1.71429" stroke-linecap="round" stroke-linejoin="round"/>
<path d="M7.71436 16.2858L16.2858 7.71436" stroke="#345F6E" stroke-width="1.71429" stroke-linecap="round" stroke-linejoin="round"/>
<path d="M15.3527 17.0929C16.2404 17.0929 16.9599 16.3734 16.9599 15.4858C16.9599 14.5982 16.2404 13.8787 15.3527 13.8787C14.4651 13.8787 13.7456 14.5982 13.7456 15.4858C13.7456 16.3734 14.4651 17.0929 15.3527 17.0929Z" fill="white" stroke="#345F6E" stroke-width="1.71429" stroke-linecap="round" stroke-linejoin="round"/>
<path d="M8.64718 10.1213C9.53479 10.1213 10.2543 9.40173 10.2543 8.51413C10.2543 7.62654 9.53479 6.90698 8.64718 6.90698C7.75958 6.90698 7.04004 7.62654 7.04004 8.51413C7.04004 9.40173 7.75958 10.1213 8.64718 10.1213Z" fill="white" stroke="#345F6E" stroke-width="1.71429" stroke-linecap="round" stroke-linejoin="round"/>
</svg>
