<svg width="24" height="24" viewBox="0 0 24 24" fill="none" xmlns="http://www.w3.org/2000/svg">
<path d="M1.63403 19.5684C1.85587 21.0741 3.14503 22.1631 4.6616 22.2914C7.0259 22.4911 9.48122 22.7122 11.9999 22.7122C14.5551 22.7122 17.0289 22.5715 19.4283 22.3498C20.9036 22.2135 22.1156 21.1137 22.3357 19.6485C22.5682 18.1013 22.7142 16.51 22.7142 14.8751C22.7142 13.2239 22.5802 11.6019 22.3441 10.0399C22.1269 8.60343 20.9344 7.53465 19.4879 7.39853C17.0644 7.17045 14.5793 7.03809 11.9999 7.03809C9.41239 7.03809 6.88227 7.16294 4.46095 7.3945C3.03932 7.53045 1.86626 8.57595 1.65091 9.98772C1.41037 11.5646 1.28564 13.207 1.28564 14.8751C1.28564 16.4825 1.40974 18.0459 1.63403 19.5684Z" fill="#A0BBC5" stroke="#345F6E" stroke-width="1.71429" stroke-linejoin="round"/>
<path d="M7.87915 22.5468V7.18066" stroke="#345F6E" stroke-width="1.71429" stroke-linecap="round" stroke-linejoin="round"/>
<path d="M16.1208 22.5871V7.18066" stroke="#345F6E" stroke-width="1.71429" stroke-linecap="round" stroke-linejoin="round"/>
<path d="M16.8935 7.15366V6.18115C16.8935 4.8833 16.378 3.63861 15.4602 2.72088C14.5425 1.80317 13.2978 1.2876 12 1.2876C10.7021 1.2876 9.45745 1.80317 8.53973 2.72088C7.622 3.63861 7.10645 4.8833 7.10645 6.18115V7.15366" stroke="#345F6E" stroke-width="1.71429" stroke-linecap="round" stroke-linejoin="round"/>
</svg>
