<svg width="36" height="36" viewBox="0 0 36 36" fill="none" xmlns="http://www.w3.org/2000/svg">
<g clip-path="url(#clip0_741_5457)">
<path d="M22.1665 9.66699H13.8332C11.532 9.66699 9.6665 11.5325 9.6665 13.8337V22.167C9.6665 24.4682 11.532 26.3337 13.8332 26.3337H22.1665C24.4677 26.3337 26.3332 24.4682 26.3332 22.167V13.8337C26.3332 11.5325 24.4677 9.66699 22.1665 9.66699Z" stroke="#5E5E5E" stroke-width="1.66667" stroke-linecap="round" stroke-linejoin="round"/>
<path d="M21.3333 17.4753C21.4361 18.1688 21.3176 18.8771 20.9947 19.4994C20.6718 20.1218 20.1609 20.6264 19.5346 20.9416C18.9083 21.2569 18.1986 21.3666 17.5064 21.2552C16.8142 21.1438 16.1747 20.817 15.679 20.3212C15.1832 19.8255 14.8564 19.186 14.745 18.4938C14.6336 17.8015 14.7433 17.0918 15.0585 16.4656C15.3737 15.8393 15.8784 15.3284 16.5007 15.0055C17.1231 14.6825 17.8314 14.5641 18.5249 14.6669C19.2324 14.7718 19.8873 15.1015 20.393 15.6072C20.8987 16.1129 21.2283 16.7678 21.3333 17.4753Z" stroke="#5E5E5E" stroke-width="1.66667" stroke-linecap="round" stroke-linejoin="round"/>
<path d="M22.5835 13.417H22.5918" stroke="#5E5E5E" stroke-width="1.66667" stroke-linecap="round" stroke-linejoin="round"/>
</g>
<rect x="0.5" y="0.5" width="35" height="35" rx="17.5" stroke="#CFD8DC"/>
<defs>
<clipPath id="clip0_741_5457">
<rect width="20" height="20" fill="white" transform="translate(8 8)"/>
</clipPath>
</defs>
</svg>
