<svg width="36" height="36" viewBox="0 0 36 36" fill="none" xmlns="http://www.w3.org/2000/svg">
<path d="M21.334 14.6665C22.6601 14.6665 23.9318 15.1933 24.8695 16.131C25.8072 17.0687 26.334 18.3404 26.334 19.6665V25.4998H23.0007V19.6665C23.0007 19.2245 22.8251 18.8006 22.5125 18.488C22.1999 18.1754 21.776 17.9998 21.334 17.9998C20.892 17.9998 20.468 18.1754 20.1555 18.488C19.8429 18.8006 19.6673 19.2245 19.6673 19.6665V25.4998H16.334V19.6665C16.334 18.3404 16.8608 17.0687 17.7985 16.131C18.7361 15.1933 20.0079 14.6665 21.334 14.6665V14.6665Z" stroke="#5E5E5E" stroke-width="1.66667" stroke-linecap="round" stroke-linejoin="round"/>
<path d="M12.9993 15.5H9.66602V25.5H12.9993V15.5Z" stroke="#5E5E5E" stroke-width="1.66667" stroke-linecap="round" stroke-linejoin="round"/>
<path d="M11.3327 12.9998C12.2532 12.9998 12.9993 12.2536 12.9993 11.3332C12.9993 10.4127 12.2532 9.6665 11.3327 9.6665C10.4122 9.6665 9.66602 10.4127 9.66602 11.3332C9.66602 12.2536 10.4122 12.9998 11.3327 12.9998Z" stroke="#5E5E5E" stroke-width="1.66667" stroke-linecap="round" stroke-linejoin="round"/>
<rect x="0.5" y="0.5" width="35" height="35" rx="17.5" stroke="#CFD8DC"/>
</svg>
