<svg width="36" height="36" viewBox="0 0 36 36" fill="none" xmlns="http://www.w3.org/2000/svg">
<g clip-path="url(#clip0_3375_43931)">
<path d="M16.333 18.833C16.6909 19.3114 17.1475 19.7073 17.6718 19.9938C18.1961 20.2802 18.7759 20.4506 19.3719 20.4933C19.9678 20.5359 20.566 20.45 21.1258 20.2411C21.6856 20.0323 22.1939 19.7055 22.6163 19.283L25.1163 16.783C25.8753 15.9971 26.2953 14.9446 26.2858 13.8521C26.2763 12.7597 25.8381 11.7146 25.0656 10.9421C24.2931 10.1695 23.248 9.73133 22.1555 9.72184C21.063 9.71234 20.0105 10.1323 19.2247 10.8913L17.7913 12.3163" stroke="#345F6E" stroke-width="1.66667" stroke-linecap="round" stroke-linejoin="round"/>
<path d="M19.6668 17.167C19.309 16.6886 18.8524 16.2927 18.328 16.0062C17.8037 15.7198 17.2239 15.5494 16.628 15.5067C16.032 15.4641 15.4338 15.55 14.874 15.7589C14.3142 15.9677 13.8059 16.2945 13.3835 16.717L10.8835 19.217C10.1245 20.0029 9.70453 21.0554 9.71402 22.1479C9.72352 23.2403 10.1617 24.2854 10.9343 25.0579C11.7068 25.8305 12.7518 26.2687 13.8443 26.2782C14.9368 26.2877 15.9893 25.8677 16.7752 25.1087L18.2002 23.6837" stroke="#345F6E" stroke-width="1.66667" stroke-linecap="round" stroke-linejoin="round"/>
</g>
<rect x="0.5" y="0.5" width="35" height="35" rx="17.5" stroke="#E0E0E0"/>
<defs>
<clipPath id="clip0_3375_43931">
<rect width="20" height="20" fill="white" transform="translate(8 8)"/>
</clipPath>
</defs>
</svg>
