<svg width="36" height="36" viewBox="0 0 36 36" fill="none" xmlns="http://www.w3.org/2000/svg">
<path d="M24.4168 12.0634C24.2885 11.9971 24.1637 11.9245 24.0427 11.8457C23.6909 11.6132 23.3684 11.3391 23.0821 11.0296C22.3657 10.2098 22.0981 9.37822 21.9995 8.79598H22.0035C21.9212 8.31269 21.9552 8 21.9603 8H18.6973V20.6177C18.6973 20.7872 18.6973 20.9546 18.6901 21.12C18.6901 21.1406 18.6882 21.1596 18.687 21.1818C18.687 21.1909 18.687 21.2004 18.685 21.2099C18.685 21.2123 18.685 21.2146 18.685 21.217C18.6506 21.6697 18.5055 22.1071 18.2624 22.4905C18.0193 22.874 17.6857 23.1919 17.2909 23.4161C16.8795 23.6502 16.4142 23.773 15.9408 23.7724C14.4205 23.7724 13.1883 22.5327 13.1883 21.0017C13.1883 19.4707 14.4205 18.231 15.9408 18.231C16.2286 18.2307 16.5146 18.276 16.7882 18.3652L16.7922 15.0427C15.9615 14.9354 15.1176 15.0014 14.3138 15.2366C13.5099 15.4718 12.7635 15.871 12.1216 16.4091C11.5592 16.8977 11.0863 17.4808 10.7244 18.132C10.5866 18.3695 10.0669 19.3238 10.004 20.8726C9.96442 21.7518 10.2284 22.6625 10.3543 23.0389V23.0469C10.4335 23.2685 10.7402 24.0249 11.2401 24.6626C11.6432 25.1741 12.1195 25.6234 12.6536 25.9961V25.9881L12.6615 25.9961C14.2412 27.0695 15.9927 26.9991 15.9927 26.9991C16.2959 26.9868 17.3115 26.9991 18.4649 26.4524C19.7442 25.8464 20.4725 24.9436 20.4725 24.9436C20.9378 24.4041 21.3077 23.7893 21.5665 23.1256C21.8618 22.3494 21.9603 21.4185 21.9603 21.0464V14.3524C21.9999 14.3762 22.5271 14.7249 22.5271 14.7249C22.5271 14.7249 23.2867 15.2117 24.4718 15.5288C25.322 15.7544 26.4675 15.8019 26.4675 15.8019V12.5625C26.0661 12.6061 25.2511 12.4794 24.4168 12.0634Z" fill="#5E5E5E"/>
<rect x="0.5" y="0.5" width="35" height="35" rx="17.5" stroke="#CFD8DC"/>
</svg>
