<svg width="36" height="36" viewBox="0 0 36 36" fill="none" xmlns="http://www.w3.org/2000/svg">
<path d="M27.1663 10.5006C26.3683 11.0635 25.4848 11.494 24.5497 11.7756C24.0478 11.1985 23.3808 10.7895 22.6389 10.6038C21.897 10.4182 21.1159 10.4649 20.4014 10.7376C19.6869 11.0103 19.0734 11.4959 18.6438 12.1287C18.2143 12.7614 17.9894 13.5108 17.9997 14.2756V15.1089C16.5352 15.1469 15.0841 14.8221 13.7755 14.1634C12.467 13.5048 11.3416 12.5328 10.4997 11.3339C10.4997 11.3339 7.16634 18.8339 14.6663 22.1672C12.9501 23.3322 10.9056 23.9163 8.83301 23.8339C16.333 28.0006 25.4997 23.8339 25.4997 14.2506C25.4989 14.0184 25.4766 13.7869 25.433 13.5589C26.2835 12.7201 26.8837 11.6612 27.1663 10.5006V10.5006Z" stroke="#5E5E5E" stroke-width="1.66667" stroke-linecap="round" stroke-linejoin="round"/>
<rect x="0.5" y="0.5" width="35" height="35" rx="17.5" stroke="#CFD8DC"/>
</svg>
