<svg width="36" height="36" viewBox="0 0 36 36" fill="none" xmlns="http://www.w3.org/2000/svg">
<path d="M24.3703 11.6286C23.5413 10.792 22.5542 10.1287 21.4663 9.67743C20.3784 9.22615 19.2116 8.99588 18.0339 9.00006C13.0988 9.00006 9.07685 13.0209 9.07233 17.9571C9.07233 19.5381 9.48594 21.0761 10.2668 22.4379L9 27.0814L13.7509 25.8361C15.0652 26.5513 16.5376 26.9262 18.0339 26.9266H18.0384C22.9746 26.9266 26.9955 22.9057 27 17.965C27.0011 16.7875 26.7693 15.6214 26.3177 14.5339C25.8662 13.4465 25.204 12.4591 24.3692 11.6286H24.3703ZM18.0339 25.41C16.6993 25.4105 15.3892 25.0513 14.2413 24.3703L13.9701 24.2076L11.1517 24.9467L11.9043 22.1972L11.728 21.9135C10.982 20.7273 10.5874 19.3539 10.59 17.9526C10.59 13.8549 13.9317 10.5121 18.0384 10.5121C19.0168 10.5104 19.9858 10.7023 20.8896 11.0768C21.7935 11.4513 22.6142 12.0011 23.3046 12.6943C23.9974 13.3848 24.5466 14.2057 24.9206 15.1096C25.2945 16.0134 25.4858 16.9823 25.4834 17.9605C25.4789 22.0729 22.1372 25.41 18.0339 25.41ZM22.1192 19.8342C21.8965 19.7223 20.797 19.181 20.5902 19.1041C20.3845 19.0307 20.2342 18.9923 20.0873 19.216C19.937 19.4386 19.5075 19.9461 19.3787 20.0918C19.2499 20.2421 19.1165 20.2591 18.8928 20.1483C18.6701 20.0353 17.948 19.8003 17.0937 19.0352C16.4269 18.4419 15.9805 17.7074 15.8472 17.4847C15.7184 17.261 15.8348 17.1412 15.9466 17.0293C16.045 16.9299 16.1693 16.7671 16.2811 16.6383C16.3941 16.5095 16.4314 16.4145 16.5049 16.2654C16.5784 16.1139 16.5433 15.9851 16.4879 15.8732C16.4314 15.7614 15.9851 14.6573 15.7963 14.212C15.6155 13.7724 15.4313 13.8334 15.2934 13.8278C15.1646 13.8199 15.0143 13.8199 14.864 13.8199C14.7505 13.8227 14.6388 13.8489 14.5359 13.897C14.4331 13.945 14.3412 14.0138 14.2662 14.099C14.0605 14.3228 13.4853 14.8641 13.4853 15.9682C13.4853 17.0723 14.2877 18.1334 14.4007 18.2837C14.5114 18.434 15.976 20.693 18.2238 21.6649C18.7549 21.8966 19.173 22.0333 19.4996 22.1373C20.0364 22.3091 20.5212 22.2831 20.9077 22.2277C21.3371 22.1622 22.231 21.6853 22.4198 21.162C22.6051 20.6377 22.6051 20.1902 22.5486 20.0964C22.4932 20.0014 22.3429 19.9461 22.1192 19.8342Z" fill="#5E5E5E"/>
<rect x="0.5" y="0.5" width="35" height="35" rx="17.5" stroke="#CFD8DC"/>
</svg>
