<svg width="36" height="36" viewBox="0 0 36 36" fill="none" xmlns="http://www.w3.org/2000/svg">
<g clip-path="url(#clip0_3656_39457)">
<path d="M26.7825 13.3502C26.6835 12.9547 26.4819 12.5923 26.1981 12.2997C25.9142 12.007 25.5581 11.7945 25.1658 11.6835C23.7325 11.3335 17.9992 11.3335 17.9992 11.3335C17.9992 11.3335 12.2658 11.3335 10.8325 11.7168C10.4402 11.8278 10.0842 12.0404 9.8003 12.333C9.51644 12.6256 9.31483 12.988 9.21584 13.3835C8.95352 14.8381 8.8252 16.3138 8.83251 17.7918C8.82316 19.281 8.95148 20.7679 9.21584 22.2335C9.32497 22.6167 9.5311 22.9653 9.81429 23.2456C10.0975 23.5258 10.4482 23.7283 10.8325 23.8335C12.2658 24.2168 17.9992 24.2168 17.9992 24.2168C17.9992 24.2168 23.7325 24.2168 25.1658 23.8335C25.5581 23.7225 25.9142 23.51 26.1981 23.2173C26.4819 22.9247 26.6835 22.5623 26.7825 22.1668C27.0428 20.7232 27.1711 19.2588 27.1658 17.7918C27.1752 16.3026 27.0469 14.8157 26.7825 13.3502V13.3502Z" stroke="#5E5E5E" stroke-width="1.66667" stroke-linecap="round" stroke-linejoin="round"/>
<path d="M16.125 20.5169L20.9167 17.7919L16.125 15.0669V20.5169Z" stroke="#5E5E5E" stroke-width="1.66667" stroke-linecap="round" stroke-linejoin="round"/>
</g>
<rect x="0.5" y="0.5" width="35" height="35" rx="17.5" stroke="#CFD8DC"/>
<defs>
<clipPath id="clip0_3656_39457">
<rect width="20" height="20" fill="white" transform="translate(8 8)"/>
</clipPath>
</defs>
</svg>
