<svg width="414" height="135" viewBox="0 0 414 135" fill="none" xmlns="http://www.w3.org/2000/svg">
<mask id="mask0_1781_39147" style="mask-type:alpha" maskUnits="userSpaceOnUse" x="-22" y="0" width="289" height="151">
<rect x="-22" width="289" height="151" fill="#D9D9D9"/>
</mask>
<g mask="url(#mask0_1781_39147)">
<path d="M-373 152V114.368H-338.208C-333.16 120.852 -326.995 126.416 -320.012 130.778L-321.743 131.428C-321.948 131.505 -322.083 131.701 -322.083 131.92V135.856C-322.083 136.272 -321.748 136.608 -321.335 136.608H-315.13C-314.717 136.608 -314.382 136.272 -314.382 135.856V133.936C-313.589 134.334 -312.787 134.712 -311.977 135.08L-318.254 150.4H-346.903V146.718H-356.143V137.07H-359.516V146.718H-367.198V150.4H-373V152ZM266 150.4H239.303L233.136 147.341V150.4H192.849V129.863C192.849 125.161 189.056 121.349 184.377 121.349C179.697 121.349 175.905 125.161 175.905 129.863V137.836H161.383V145.501H156.53V123.197H145.011V150.4H120.394V138.049H120.554V137.261H120.394V135.858H120.496V135.011C118.898 133.871 117.375 133.491 116.058 133.491C113.421 133.491 111.6 135.011 111.6 135.011V135.858H111.701V137.261H111.541V138.049H111.701V150.4H88.2676L80.2704 127.507C80.0962 127.01 79.6584 126.761 79.2216 126.761C78.7838 126.761 78.3459 127.01 78.1717 127.507L70.1756 150.4H49.1111C47.4577 138.316 37.9695 128.745 25.9619 127.031V119.352H24.7947V114.368H48.1161V107.07H50.6549V104.259H-22.5504V114.368H19.3933V119.352H18.2251V127.031C6.2175 128.745 -3.27072 138.316 -4.92307 150.4H-25.9875L-33.9847 127.507C-34.159 127.01 -34.5968 126.761 -35.0335 126.761C-35.4714 126.761 -35.9081 127.01 -36.0824 127.507L-44.0796 150.4H-57.4254C-57.2996 149.957 -57.3383 149.436 -57.4868 148.983C-57.7202 148.268 -58.1171 147.576 -58.0881 146.824C-57.3835 146.724 -56.6713 146.344 -56.3852 145.691C-56.098 145.036 -56.4153 144.12 -57.1081 143.957C-57.4082 143.886 -57.7589 143.945 -57.9956 143.746C-58.3355 143.459 -58.1666 142.916 -58.2075 142.472C-58.2979 141.506 -59.478 140.557 -58.8842 139.792C-58.697 139.55 -58.371 139.435 -58.2194 139.17C-57.7675 138.374 -59.2284 137.822 -59.5103 136.951C-59.6232 136.601 -59.5285 136.221 -59.5576 135.855C-59.6232 135.029 -60.4688 134.475 -61.268 134.475C-61.6607 134.475 -62.0415 134.608 -62.3137 134.909C-63.0538 134.041 -63.4507 132.886 -63.4002 131.745C-63.3819 131.324 -63.3163 130.859 -63.5626 130.518C-63.7703 130.231 -64.1446 130.117 -64.3899 129.861C-65.1225 129.091 -64.547 127.308 -65.584 127.092C-65.6346 127.082 -65.683 127.077 -65.7314 127.077C-66.2499 127.077 -66.6554 127.653 -66.8028 128.185C-66.9642 128.766 -67.0201 129.437 -67.4752 129.832C-67.9162 130.216 -68.6381 130.236 -68.9608 130.725C-69.6632 131.794 -67.5806 133.334 -68.4348 134.284C-68.623 134.493 -68.864 134.566 -69.134 134.566C-69.4449 134.566 -69.7956 134.468 -70.1441 134.371C-70.4937 134.272 -70.8423 134.174 -71.1521 134.174C-71.4243 134.174 -71.6663 134.251 -71.8513 134.469C-72.5646 135.311 -71.1112 136.879 -71.9449 137.601C-72.2548 137.87 -72.7679 137.851 -73.0164 138.178C-73.4703 138.777 -72.5377 139.678 -72.8873 140.344C-73.0756 140.702 -73.5327 140.789 -73.9103 140.932C-74.9183 141.315 -75.61 142.409 -75.5251 143.489C-75.4401 144.568 -74.5848 145.539 -73.5306 145.757C-72.9336 145.88 -72.2924 145.786 -71.7287 146.018C-71.1661 146.252 -70.7745 147.062 -71.2285 147.469C-71.4286 147.649 -71.6975 147.672 -71.9751 147.672C-72.0256 147.672 -72.0762 147.672 -72.1267 147.671C-72.1773 147.67 -72.2279 147.669 -72.2773 147.669C-72.329 147.669 -72.3806 147.67 -72.4301 147.674C-73.6758 147.735 -74.4439 149.284 -74.0373 150.4H-81.0824V147.077H-80.8888V146.442H-81.7375V126.334H-81.4547L-79.3182 120.445L-80.5854 119.176H-80.5972V119.135C-80.5972 118.556 -81.0652 118.085 -81.6407 118.085H-81.6773V117.708H-82.9155V118.085H-82.9521C-83.5287 118.085 -83.9966 118.556 -83.9966 119.135V119.176H-84.0074L-85.2757 120.445L-83.1382 126.334H-82.8553V146.442H-83.7051V147.077H-83.5104V150.4H-93.6849V146.924H-92.1003V145H-93.6849V142.756H-92.1003V140.83H-93.6849V118.543H-92.1003V116.619H-93.6849V114.374H-92.1003V114.368H-73.5844V97.3081H-42.0217V74.7784L-22.5504 88.4108V97.1135C-9.18954 94.0757 32.41 81.8486 50.6549 44.9838V34.5622L54.2802 26.3892V23.1351H56.5392V26.3892H58.4218L63.7361 12.6487H64.1018L64.4676 4H64.6182L64.9839 12.6487H65.3497L70.664 26.3892H72.5465V23.1351H74.8056V26.3892L78.4309 34.5622V41.8703H166.934V34.5622L170.559 26.3892V23.1351H172.818V26.3892H174.7L180.015 12.6487H180.38L180.746 4H180.897L181.263 12.6487H181.628L186.943 26.3892H188.825V23.1351H191.084V26.3892L194.711 34.5622V37.1892V44.9838C212.148 80.2378 250.95 92.9513 266 96.6595V98.973C260.707 97.6865 252.295 95.2649 242.817 91.0594V93.9892C253.865 98.4649 262.891 100.422 266 101.005V104.259H194.711V107.07H197.248V114.368H266V150.4ZM166.578 116.552V117.586L194.544 116.552H166.578ZM50.2773 116.552V117.586L78.2426 116.552H50.2773ZM131.864 104.259L157.811 114.368H164.395V107.07H166.934V104.259H131.864ZM108.262 114.368H149.549L123.613 104.259H118.331L108.412 108.13L92.3943 114.368H108.262ZM78.4309 104.259V107.07H80.9697V114.368H84.1432L109.606 104.443L110.08 104.259H109.692H78.4309ZM166.578 111.306V112.339L194.544 111.306H166.578ZM50.2773 111.306V112.339L78.2426 111.306H50.2773ZM242.817 96.4V101.265H257.34C253.36 100.173 248.358 98.5946 242.817 96.4ZM233.867 92.4649V101.265H240.58V95.4811C238.407 94.573 236.158 93.5784 233.867 92.4649ZM221.001 85.2865V101.265H231.63V91.3514C228.133 89.5784 224.562 87.5676 221.001 85.2865ZM211.868 78.7351V101.265H218.763V83.8054C216.44 82.2378 214.138 80.5513 211.868 78.7351ZM202.175 69.827V101.265H209.63V76.8865C207.07 74.7027 204.564 72.3568 202.175 69.827ZM194.711 93.773V101.265H199.938V67.373C198.12 65.3081 196.366 63.1135 194.711 60.8108V72.0432H195.558V73.9351H194.711V74.8216H195.558V76.7243H194.711V89.0919H195.558V90.9838H194.711V91.8703H195.558V93.773H194.711ZM111.457 101.265H166.934V93.773H166.084V91.8703H166.934V90.9838H166.084V89.0919H166.934V76.7243H166.084V74.8216H166.934V73.9351H166.084V72.0432H166.934V59.9567L166.952 60.36L190.784 59.6724H166.921L166.922 59.6757H166.18H166.084V57.773H166.611H166.934V56.8865H166.858H166.084V54.9838H166.931V54.9881L190.784 54.9567L166.934 54.24V52.9297H78.4309V54.9838H79.2807V56.8865H78.4309V57.773H79.2807V59.6757H78.4309V72.0432H79.2807V73.9351H78.4309V74.8216H79.2807V76.7243H78.4309V89.0919H79.2807V90.9838H78.4309V91.8703H79.2807V93.773H78.4309V101.265H111.457ZM50.6549 60.8108C48.9982 63.1135 47.2555 65.3081 45.4267 67.373V101.265H50.6549V94.4551L74.4839 93.7676L50.6559 93.7719L50.6549 93.8822V93.773H49.805V91.8703H50.6549V90.9838H49.805V89.0919H50.6549V77.4011L74.4839 76.7146H50.657L50.6549 76.9049V76.7243H49.805V74.8216H50.6549V73.9351H49.805V72.0432H50.6549V60.8108ZM43.1891 69.827C40.8009 72.3568 38.3051 74.7027 35.7341 76.8865V101.265H43.1891V69.827ZM33.4966 78.7351C31.2267 80.5513 28.9246 82.2378 26.6009 83.8054V101.265H33.4966V78.7351ZM24.3633 85.2865C20.8026 87.5676 17.2311 89.5784 13.7349 91.3514V101.265H24.3633V85.2865ZM11.4973 92.4649C9.20593 93.5784 6.96832 94.573 4.78452 95.4811V101.265H11.4973V92.4649ZM2.54697 96.4C-2.99316 98.5946 -7.98468 100.173 -11.9757 101.265H2.54697V96.4ZM2.54697 91.0594C-8.16757 95.8162 -17.5374 98.2919 -22.5504 99.4162V101.265H-21.7867V101.211C-21.5392 101.178 -11.0399 99.4919 2.54697 93.9892V91.0594ZM190.784 93.7676L166.958 93.7719L166.952 94.4551L190.784 93.7676ZM221.001 78.6487V82.6162C227.649 87.0054 234.384 90.4216 240.58 93.0594V90.0432C234.245 87.0908 227.521 83.3514 221.001 78.6487ZM24.3633 78.6487C17.8442 83.3514 11.1208 87.0908 4.78452 90.0432V93.0594C10.9916 90.4216 17.7259 87.0054 24.3633 82.6162V78.6487ZM184.601 79.7827V86.2778L185.533 81.094L188.765 79.7827H184.601ZM178.076 79.7827V86.2778L179.008 81.094L182.239 79.7827H178.076ZM171.551 79.7827V86.2778L172.482 81.094L175.714 79.7827H171.551ZM68.3005 79.7827V86.2778L69.2321 81.094L72.4637 79.7827H68.3005ZM61.7739 79.7827V86.2778L62.7066 81.094L65.9381 79.7827H61.7739ZM55.2494 79.7827V86.2778L56.181 81.094L59.4126 79.7827H55.2494ZM202.175 60.854V66.5297C207.285 72.2378 212.965 77.0487 218.763 81.1038V76.9946C212.858 72.4865 207.178 67.1568 202.175 60.854ZM43.1891 60.854C38.1868 67.1459 32.5068 72.4865 26.6009 76.9946V81.1038C32.41 77.0487 38.0792 72.2378 43.1891 66.5297V60.854ZM166.958 76.7146L166.952 77.4022L190.784 76.7146H166.958ZM184.601 62.2962V68.7903L185.533 63.6065L188.765 62.2962H184.601ZM178.076 62.2962V68.7903L179.008 63.6065L182.239 62.2962H178.076ZM171.551 62.2962V68.7903L172.482 63.6065L175.714 62.2962H171.551ZM68.3005 62.2962V68.7903L69.2321 63.6065L72.4637 62.2962H68.3005ZM61.7739 62.2962V68.7903L62.7066 63.6065L65.9381 62.2962H61.7739ZM55.2494 62.2962V68.7903L56.181 63.6065L59.4126 62.2962H55.2494ZM194.72 56.8865C194.914 57.1892 195.118 57.4811 195.323 57.773H195.558V58.1297C196.947 60.1514 198.41 62.0865 199.938 63.9351V57.9135C198.077 55.3513 196.324 52.6378 194.711 49.773V54.9838H195.558V56.8865H194.72ZM50.6549 49.773C49.0412 52.6378 47.2985 55.3513 45.4267 57.9135V63.9351C46.9543 62.0865 48.4173 60.1514 49.805 58.1297V57.773H50.0524C50.2461 57.4811 50.4505 57.1892 50.6549 56.8865H49.805V54.9838H50.6549V54.9265L74.4839 54.9567L50.6549 54.24V49.773ZM50.6194 59.6724L50.6495 60.36L74.4839 59.6724H50.6194ZM166.934 47.6649L164.309 50.3027H166.934V47.6649ZM159.651 46.8649L156.294 50.2486L156.348 50.3027H163.072L159.651 46.8649ZM151.937 46.8649L148.57 50.2486L148.635 50.3027H155.24L155.305 50.2486L151.937 46.8649ZM144.224 46.8649L140.857 50.2486L140.923 50.3027H147.527L147.591 50.2486L144.224 46.8649ZM136.511 46.8649L133.144 50.2486L133.198 50.3027H139.814L139.867 50.2486L136.511 46.8649ZM128.798 46.8649L125.431 50.2486L125.485 50.3027H132.1L132.154 50.2486L128.798 46.8649ZM121.085 46.8649L117.718 50.2486L117.771 50.3027H124.387L124.441 50.2486L121.085 46.8649ZM113.361 46.8649L110.004 50.2486L110.058 50.3027H116.674L116.728 50.2486L113.361 46.8649ZM105.648 46.8649L102.291 50.2486L102.345 50.3027H108.96L109.015 50.2486L105.648 46.8649ZM97.9344 46.8649L94.578 50.2486L94.6318 50.3027H101.237L101.302 50.2486L97.9344 46.8649ZM90.2212 46.8649L86.8541 50.2486L86.9186 50.3027H93.5238L93.5883 50.2486L90.2212 46.8649ZM82.508 46.8649L79.0871 50.3027H85.8106L85.8752 50.2486L82.508 46.8649ZM78.4309 42.8757V49.9676L82.0132 46.3676L78.5277 42.8757H78.4309ZM163.631 42.8757L160.144 46.3676L163.695 49.9351L166.934 46.6811V46.0648L163.76 42.8757H163.631ZM155.799 42.9946L152.432 46.3676L155.799 49.7514L159.156 46.3676L155.799 42.9946ZM148.075 42.9946L144.719 46.3676L148.075 49.7514L151.443 46.3676L148.075 42.9946ZM140.362 42.9946L137.006 46.3676L140.362 49.7514L143.729 46.3676L140.362 42.9946ZM132.649 42.9946L129.293 46.3676L132.649 49.7514L136.016 46.3676L132.649 42.9946ZM124.936 42.9946L121.569 46.3676L124.936 49.7514L128.303 46.3676L124.936 42.9946ZM117.223 42.9946L113.856 46.3676L117.223 49.7514L120.59 46.3676L117.223 42.9946ZM109.51 42.9946L106.142 46.3676L109.51 49.7514L112.866 46.3676L109.51 42.9946ZM101.796 42.9946L98.4303 46.3676L101.796 49.7514L105.153 46.3676L101.796 42.9946ZM94.0832 42.9946L90.7161 46.3676L94.0832 49.7514L97.4396 46.3676L94.0832 42.9946ZM86.3593 42.9946L83.0029 46.3676L86.3593 49.7514L89.7263 46.3676L86.3593 42.9946ZM156.671 42.8757L159.651 45.8703L162.641 42.8757H156.671ZM148.947 42.8757L151.937 45.8703L154.928 42.8757H148.947ZM141.233 42.8757L144.224 45.8703L147.215 42.8757H141.233ZM133.519 42.8757L136.511 45.8703L139.491 42.8757H133.519ZM125.807 42.8757L128.798 45.8703L131.778 42.8757H125.807ZM118.094 42.8757L121.085 45.8703L124.065 42.8757H118.094ZM110.381 42.8757L113.361 45.8703L116.351 42.8757H110.381ZM102.668 42.8757L105.648 45.8703L108.638 42.8757H102.668ZM94.9546 42.8757L97.9344 45.8703L100.925 42.8757H94.9546ZM87.2306 42.8757L90.2212 45.8703L93.2118 42.8757H87.2306ZM79.5174 42.8757L82.508 45.8703L85.4987 42.8757H79.5174ZM164.75 42.8757L166.934 45.0703V42.8757H164.75ZM185.821 37.3297C185.396 37.3297 185.051 37.6757 185.051 38.1027V40.6551L185.657 38.08L187.522 37.3297H185.821ZM180.6 37.3297C180.176 37.3297 179.831 37.6757 179.831 38.1027V40.6551L180.437 38.08L182.302 37.3297H180.6ZM175.38 37.3297C174.955 37.3297 174.611 37.6757 174.611 38.1027V40.6551L175.217 38.08L177.082 37.3297H175.38ZM69.5193 37.3297C69.0944 37.3297 68.7502 37.6757 68.7502 38.1027V40.6551L69.3558 38.08L71.2212 37.3297H69.5193ZM64.2987 37.3297C63.8737 37.3297 63.5295 37.6757 63.5295 38.1027V40.6551L64.1352 38.08L66.0005 37.3297H64.2987ZM59.078 37.3297C58.6542 37.3297 58.3089 37.6757 58.3089 38.1027V40.6551L58.9156 38.08L60.7799 37.3297H59.078ZM178.48 26.3232H184.135L184.756 32.0054L187.863 26.5719L184.974 31.0692L185.253 25.6357L181.004 26.067L176.755 25.6357L177.035 31.0692L174.144 26.5719L177.252 32.0054L177.874 26.3232H178.48ZM62.1783 26.3232H67.8336L68.4543 32.0054L71.5622 26.5719L68.6727 31.0692L68.9524 25.6357L64.7032 26.067L60.4539 25.6357L60.7336 31.0692L57.8441 26.5719L60.951 32.0054L61.5727 26.3232H62.1783ZM-129.107 150.4H-181.157V130.999H-181.174V124.628H-181.991V120.974H-183.965V114.417H-185.281V120.974H-187.255V124.628H-188.073V130.999H-197.86V124.628H-198.677V120.974H-200.652V114.417H-201.967V120.974H-203.943V124.628H-204.759V130.999H-214.546V124.628H-215.363V120.974H-217.337V114.417H-218.654V120.974H-220.628V124.628H-221.444V140.461H-221.427V150.4H-248.735L-254.996 135.119C-254.63 134.954 -254.263 134.792 -253.901 134.621V136.911C-253.901 137.328 -253.566 137.664 -253.153 137.664H-246.948C-246.535 137.664 -246.2 137.328 -246.2 136.911V132.971C-246.2 132.755 -246.333 132.56 -246.534 132.481L-248.462 131.733C-240.826 127.242 -234.114 121.335 -228.689 114.368H-200.362V87.6649H-193.908V61.7189H-190.584V51.3405H-177.309V61.7189H-173.985V87.6649H-167.53V114.368H-162.958V97.7405H-163.13V96.9189H-162.958V95.4703H-163.066V94.5838C-163.066 94.5838 -161.178 93.0076 -158.442 93.0076C-157.075 93.0076 -155.496 93.4022 -153.836 94.5838V95.4703H-153.933V96.9189H-153.771V97.7405H-153.933V114.368H-130.692V114.374H-129.107V116.619H-130.692V118.543H-129.107V140.83H-130.692V142.756H-129.107V145H-130.692V146.924H-129.107V150.4ZM-155.729 107.416V109.027H-154.643V107.416H-155.729ZM-160.882 107.416V109.027H-156.009V107.416H-160.882ZM-162.259 107.416V109.027H-161.173V107.416H-162.259ZM-155.729 105.265V106.865H-154.643V105.265H-155.729ZM-160.882 105.265V106.865H-156.009V105.265H-160.882ZM-162.259 105.265V106.865H-161.173V105.265H-162.259ZM-155.729 103.114V104.714H-154.643V103.114H-155.729ZM-160.882 103.114V104.714H-156.009V103.114H-160.882ZM-162.259 103.114V104.714H-161.173V103.114H-162.259ZM-155.729 100.951V102.562H-154.643V100.951H-155.729ZM-160.882 100.951V102.562H-156.009V100.951H-160.882ZM-162.259 100.951V102.562H-161.173V100.951H-162.259ZM-155.729 98.8V100.411H-154.643V98.8H-155.729ZM-160.882 98.8V100.411H-156.009V98.8H-160.882ZM-162.259 98.8V100.411H-161.173V98.8H-162.259ZM-253.913 150.4H-313.076L-307.554 136.923C-302.403 138.845 -296.964 140.158 -291.326 140.801L-292.557 141.265C-292.761 141.342 -292.897 141.537 -292.897 141.757V145.693C-292.897 146.108 -292.562 146.444 -292.148 146.444H-285.944C-285.53 146.444 -285.196 146.108 -285.196 145.693V141.752C-285.196 141.535 -285.329 141.341 -285.53 141.263L-285.673 141.206C-284.931 141.231 -284.191 141.264 -283.443 141.264C-275.003 141.264 -266.911 139.741 -259.42 136.958L-253.913 150.4ZM119.719 148.92H118.669V147.371H119.719V148.92ZM118.395 148.92H113.7V147.371H118.395V148.92ZM113.427 148.92H112.376V147.371H113.427V148.92ZM119.719 146.844H118.669V145.296H119.719V146.844ZM118.395 146.844H113.7V145.296H118.395V146.844ZM113.427 146.844H112.376V145.296H113.427V146.844ZM119.719 144.77H118.669V143.221H119.719V144.77ZM118.395 144.77H113.7V143.221H118.395V144.77ZM113.427 144.77H112.376V143.221H113.427V144.77ZM119.719 142.695H118.669V141.146H119.719V142.695ZM118.395 142.695H113.7V141.146H118.395V142.695ZM113.427 142.695H112.376V141.146H113.427V142.695ZM119.719 140.621H118.669V139.072H119.719V140.621ZM118.395 140.621H113.7V139.072H118.395V140.621ZM113.427 140.621H112.376V139.072H113.427V140.621ZM-283.443 138.825C-285.439 138.825 -287.411 138.72 -289.362 138.547L-287.054 114.368H-274.877L-270.003 137.464C-274.347 138.355 -278.842 138.825 -283.443 138.825ZM-290.33 138.471C-296.001 137.888 -301.463 136.588 -306.63 134.669L-298.312 114.368H-288.029L-290.33 138.471ZM-269.056 137.246L-273.884 114.368H-268.676L-260.345 134.704C-263.163 135.746 -266.075 136.589 -269.056 137.246ZM-255.921 132.864L-263.5 114.368H-259.897L-250.927 130.346C-252.552 131.255 -254.218 132.091 -255.921 132.864ZM-311.053 132.825C-316.652 130.271 -321.846 126.976 -326.5 123.05L-319.152 114.368H-303.49L-311.053 132.825ZM-250.086 129.859L-258.781 114.368H-238.525L-234.86 117.816C-239.318 122.53 -244.444 126.595 -250.086 129.859ZM-81.9796 125.829L-81.1373 120.722H-79.7614L-81.6235 125.797L-81.9796 125.829ZM-82.6143 125.829L-82.9714 125.797L-84.8325 120.722H-83.4566L-82.6143 125.829ZM-82.1313 125.822H-82.4465L-83.1263 120.697H-81.4503L-82.1313 125.822ZM-327.234 122.411C-330.065 119.951 -332.696 117.263 -335.086 114.368H-320.426L-327.234 122.411ZM-234.19 117.11L-237.104 114.368H-231.803C-232.574 115.304 -233.37 116.218 -234.19 117.11Z" fill="url(#paint0_linear_1781_39147)"/>
</g>
<path d="M300.864 42.5098C300.864 42.5098 299.906 33.7305 306.451 32.7719C306.451 32.7719 306.771 26.866 310.442 27.0252C314.113 27.1844 313.953 32.9323 313.953 32.9323C313.953 32.9323 320.18 34.6879 319.221 42.5098H300.864Z" fill="#3A6B7C"/>
<path d="M273.987 47.2658C273.987 47.2658 272.59 51.1695 274.572 55.9195C274.572 55.9195 272.08 56.9352 271.95 56.6539C271.82 56.3713 268.916 48.2602 268.916 48.2602L273.987 47.2658Z" fill="#3A6B7C"/>
<path d="M291.773 41.4325C291.773 41.4325 288.3 29.0612 292.956 28.0926L288.721 26.8527L283.788 32.7866L288.388 43.3652L291.773 41.4325Z" fill="#3A6B7C"/>
<path d="M349.607 76.0446C349.607 76.0446 335.146 81.548 342.461 105.65L333.497 104.739L333.463 77.6522L342.832 73.6903L349.607 76.0446Z" fill="#3A6B7C"/>
<path d="M324.986 80.1211C324.986 80.1211 314.317 80.9552 319.585 110.088L313.017 109.378L312.988 85.0606L319.116 79.5135L324.986 80.1211Z" fill="#3A6B7C"/>
<path d="M307.959 84.555C307.959 84.555 299.041 91.4407 302.146 113.701L296.708 112.785L297.291 86.7232L306.109 82.4776L307.959 84.555Z" fill="#3A6B7C"/>
<path d="M290.524 90.2208C290.524 90.2208 284.074 99.0528 289.431 117.104L283.167 115.163L283.552 93.5123L288.061 89.7365L290.524 90.2208Z" fill="#3A6B7C"/>
<path d="M280.064 94.8507C280.064 94.8507 277.042 102.652 277.397 118.658L275.065 118.045L274.051 96.6018L280.064 94.8507Z" fill="#3A6B7C"/>
<path d="M272.007 102.348C272.007 102.348 269.203 107.277 269.734 121.537L266.604 121.131L267.66 103.444L272.007 102.348Z" fill="#3A6B7C"/>
<path d="M272.722 131.182C272.722 131.182 270.261 132.314 270.488 150.372L267.41 150.375L268.41 129.751L272.722 131.182Z" fill="#3A6B7C"/>
<path d="M281.337 128.4C281.337 128.4 276.215 134.975 279.209 150.36L274.116 150.367L275.386 129.742L280.103 126.967L281.337 128.4Z" fill="#3A6B7C"/>
<path d="M292.416 126.948C292.416 126.948 286.783 136.19 289.675 150.96L284.544 150.967L284.518 128.497L292.416 126.948Z" fill="#3A6B7C"/>
<path d="M307.187 124.573C307.187 124.573 300.118 132.379 304.346 150.945L298.396 150.953L298.365 126.122L304.518 122.934L307.187 124.573Z" fill="#3A6B7C"/>
<path d="M324.215 121.473C324.215 121.473 314.994 131.745 321.278 151.949L313.069 151.959L314.985 124.973L322.881 120.859L324.215 121.473Z" fill="#3A6B7C"/>
<path d="M347.154 119.39C347.154 119.39 336.839 125.149 341.081 152.436L332.153 151.934L333.509 115.201L347.154 119.39Z" fill="#3A6B7C"/>
<path d="M375.924 119.151C375.924 119.151 366.602 131.278 370.014 152.816L361.497 152.413L361.056 126.667L367.92 118.649L375.924 119.151Z" fill="#3A6B7C"/>
<path d="M288.791 79.2026C288.791 79.2026 286.098 59.1675 294.218 57.8525L292.141 55.8995L284.496 58.8727L284.813 75.4122L286.302 80.5098L288.791 79.2026Z" fill="#3A6B7C"/>
<path d="M301.352 73.0804C301.352 73.0804 299.786 52.9254 304.998 49.1249L297.883 49.4893L294.811 56.8437L297.018 68.1947L298.566 73.7441L301.648 73.1387L301.352 73.0804Z" fill="#3A6B7C"/>
<path d="M322.167 66.1139C322.167 66.1139 318.212 43.6539 325.797 41.3916L317.853 41.4016L312.352 51.3682L315.159 67.9043L322.167 66.1139Z" fill="#3A6B7C"/>
<path d="M279.369 84.4304C279.369 84.4304 275.08 67.3618 280.649 64.5691L274.721 64.8718L274.02 73.41L274.749 87.6973L279.369 84.4304Z" fill="#3A6B7C"/>
<path d="M271.121 89.591C271.121 89.591 268.719 76.7959 271.972 73.7768L267.874 75.8318L266.559 85.3633L267.893 91.2715L271.121 89.591Z" fill="#3A6B7C"/>
<path d="M481.933 148.263C481.933 148.263 480.85 131.889 482.762 131.569C484.676 131.246 485.122 148.685 485.122 148.685L481.933 148.263ZM477.831 148.694L474.178 148.698C474.178 148.698 471.537 132.646 475.15 131.046C478.764 129.447 477.831 148.694 477.831 148.694ZM474.16 103.109C477.601 102.442 476.407 117.435 476.111 120.65C474.888 120.288 473.565 119.905 472.158 119.508C471.773 115.294 471.013 103.719 474.16 103.109ZM470.501 148.702L465.493 148.709C465.493 148.709 464.172 130.635 467.532 130.312C470.892 129.987 470.501 148.702 470.501 148.702ZM465.9 100.148C470.146 99.7667 468.656 115.84 468.384 118.467C466.766 118.03 465.074 117.59 463.327 117.152C462.909 112.621 462.142 100.486 465.9 100.148ZM460.578 148.716L454.114 148.723C454.114 148.723 452.176 128.097 456.747 128.091C461.32 128.086 460.578 148.716 460.578 148.716ZM455.659 97.5661C459.771 97.0761 459.426 111.302 459.189 116.148C456.893 115.611 454.537 115.093 452.162 114.617C451.916 110.195 451.611 98.047 455.659 97.5661ZM450.287 148.727L439.866 148.741C439.866 148.741 436.757 127.587 444.624 126.565C452.492 125.545 450.287 148.727 450.287 148.727ZM432.008 106.768C429.947 106.52 426.014 106.055 420.973 105.494C420.852 100.919 420.941 87.3686 426.256 88.2767C432.245 89.3025 432.055 104.843 432.008 106.768ZM428.064 149.393L414.136 150.048C414.136 150.048 410.915 125.383 419.527 124.735C428.139 124.087 428.064 149.393 428.064 149.393ZM444.317 95.0211C449.125 95.9203 448.058 108.301 447.354 113.711C445.139 113.325 442.933 112.987 440.769 112.712C440.226 107.183 439.446 94.1108 444.317 95.0211ZM481.693 107.155C483.582 106.554 483.349 121.495 483.324 122.883C482.458 122.601 481.264 122.22 479.802 121.767C479.832 118.139 480.057 107.675 481.693 107.155ZM367.397 62.2886L368.347 77.8314L372.382 85.7486C373.069 85.1892 373.847 84.7867 374.732 84.5972C380.231 83.4234 382.338 94.7028 383.037 100.25L387.831 100.244L390.253 101.951C389.889 96.0548 390.083 85.2329 396.308 84.4874C403.455 83.632 405.433 98.7959 405.897 103.901C401.103 103.424 396.058 102.952 391.085 102.536L393.852 104.485L393.903 105.679L394.179 112.04L394.423 117.645L397.23 124.42C397.749 124.304 398.298 124.239 398.882 124.228C408.813 124.049 408.921 140.29 408.529 147.104L412.578 152.765L488 154.207L487.928 92.65C487.928 92.65 453.725 49.2592 367.397 62.2886Z" fill="#345F6E"/>
<path d="M318.283 9.85572L318.279 6.49019L314.344 5.99917L314.349 9.86133L318.283 9.85572Z" fill="#3A6B7C"/>
<path d="M379.838 150.862L366.267 150.879L364.172 150.881C364.172 150.881 363.518 144.809 364.025 138.166C364.571 131.013 366.462 123.194 371.969 121.589C382.588 118.493 379.838 150.862 379.838 150.862ZM353.713 150.894L334.484 150.917C334.484 150.917 331.847 124.72 344.311 121.416C356.775 118.112 353.713 150.894 353.713 150.894ZM344.008 76.929C357.324 74.0511 352.955 102.018 352.955 102.018C352.955 102.018 335.783 102.039 335.122 102.04C335.122 102.04 330.692 79.809 344.008 76.929ZM330.89 62.635L316.385 66.1754C316.385 66.1754 312.157 47.026 321.841 44.4273C334.601 41.0024 330.89 62.635 330.89 62.635ZM329.093 150.923L315.582 150.941C315.582 150.941 312.916 126.506 322.304 123.412C331.692 120.318 329.093 150.923 329.093 150.923ZM320.566 81.3618C330.029 77.827 328.999 103.589 328.999 103.589L314.467 105.807C314.467 105.807 311.103 84.8966 320.566 81.3618ZM309.801 107.112L298.591 109.13C298.591 109.13 296.358 89.9785 304.169 86.0053C311.981 82.0333 309.801 107.112 309.801 107.112ZM308.761 149.408L299.953 149.418C299.953 149.418 299.044 126.302 305.208 125.635C311.373 124.967 308.761 149.408 308.761 149.408ZM294.357 74.7888L286.656 78.8539C286.656 78.8539 283.772 60.7112 290.485 58.941C297.198 57.1719 294.357 74.7888 294.357 74.7888ZM293.789 149.426L286.137 149.436C286.137 149.436 285.398 129.842 289.937 128.074C294.475 126.308 293.789 149.426 293.789 149.426ZM288.544 91.7487C294.597 89.9807 291.979 110.459 291.979 110.459L285.157 112.888C285.157 112.888 282.491 93.5178 288.544 91.7487ZM282.697 81.188L276.977 84.7183C276.977 84.7183 272.554 69.0914 278.495 66.2225C284.435 63.3525 282.697 81.188 282.697 81.188ZM275.444 115.322C275.444 115.322 275.451 97.4887 279.19 96.1647C282.929 94.8384 281.855 112.892 281.855 112.892L275.444 115.322ZM282.05 149.44L275.487 149.449C275.487 149.449 275.272 130.735 279.23 129.189C283.189 127.643 282.05 149.44 282.05 149.44ZM274.65 53.7234L273.226 55.1753C273.226 55.1753 271.238 49.2974 273.218 48.6135C275.198 47.9307 274.65 53.7234 274.65 53.7234ZM272.795 86.7049L268.397 90.0121C268.397 90.0121 266.398 76.8045 270.58 75.3235C274.761 73.8415 272.795 86.7049 272.795 86.7049ZM272.598 149.452L269.13 149.457C269.13 149.457 268.229 132.944 270.649 132.061C273.071 131.178 272.598 149.452 272.598 149.452ZM270.614 103.439C273.695 102.114 272.173 117.308 272.173 117.308L267.963 119.075C267.963 119.075 267.534 104.765 270.614 103.439ZM290.451 31.5572C293.5 30.0202 293.693 38.027 293.693 38.027L289.829 40.0764C289.829 40.0764 287.402 33.0942 290.451 31.5572ZM304.126 51.6595C312.38 49.2278 309.102 68.8268 309.102 68.8268L299.198 72.3605C299.198 72.3605 295.873 54.0911 304.126 51.6595ZM403.304 150.061L398.137 141.054L392.791 127.303L387.848 114.588L387.845 111.725L387.834 102.272L387.83 100.244L383.037 100.25L379.775 100.254L371.834 100.264L368.984 91.3484L364.08 76.0007L364.064 62.8166L364.056 57.2448L345.857 60.765L338.109 41.2793L338.093 28.0381L333.401 28.0448L329.267 28.0493L319.315 9.8573L318.283 9.85843L314.349 9.86403L314.344 6.00188C314.344 6.00188 274.635 13.7733 262 56.8188L265.872 153.681L366.855 154.207L400.166 153.157L404.992 153.005L403.304 150.061Z" fill="#345F6E"/>
<path d="M333.401 28.0443L323.951 11.4892L319.314 9.85685L329.266 28.0488L333.401 28.0443Z" fill="#3A6B7C"/>
<path d="M345.857 60.7637L350.339 59.8971L342.392 41.7006L341.558 30.132L338.094 28.0367L338.109 41.2779L345.857 60.7637Z" fill="#3A6B7C"/>
<path d="M372.382 85.7478L368.347 77.8306L367.398 62.2878L367.187 58.8303L364.057 57.244L364.064 62.8158L364.08 75.9999L368.984 91.3476L371.834 100.264L379.776 100.254L372.382 85.7478Z" fill="#3A6B7C"/>
<path d="M408.529 147.102L404.01 140.778L397.229 124.418L394.422 117.644L394.179 112.039L393.903 105.678L393.851 104.484L391.085 102.535L390.253 101.949L387.83 100.243L387.833 102.271L387.845 111.724L387.848 114.585L392.791 127.302L398.136 141.053L403.303 150.06L404.992 153.004L405.867 152.976L412.577 152.764L408.529 147.102Z" fill="#3A6B7C"/>
<defs>
<linearGradient id="paint0_linear_1781_39147" x1="-53.5" y1="124.636" x2="-53.5" y2="157.066" gradientUnits="userSpaceOnUse">
<stop stop-color="#3A6B7C"/>
<stop offset="1" stop-color="#3A6B7C"/>
</linearGradient>
</defs>
</svg>
