<svg width="396" height="109" viewBox="0 0 396 109" fill="none" xmlns="http://www.w3.org/2000/svg">
<path d="M129.793 15.0603C127.925 14.3065 124.512 13.308 121.833 13.987L111.815 16.5604L92.3174 2.23705C91.8881 1.85005 91.2183 1.95005 90.9111 2.43396L90.3609 3.31281C90.1702 3.61886 90.1732 4.00035 90.3646 4.30271L98.3181 19.8356L92.0917 21.3805C91.3122 21.5296 90.5461 21.7369 89.7997 21.976C89.5845 22.0435 89.3765 22.1159 89.1686 22.1883L83.2029 16.8107C82.8202 16.4678 82.2327 16.5004 81.8886 16.8769L81.2421 17.6031C80.9901 17.8791 80.9293 18.2759 81.0857 18.6108L83.8322 24.5667C82.938 25.088 83.3035 25.3848 82.7116 25.8737C81.9505 26.4986 82.2302 27.7093 83.1876 27.9375C83.9321 28.1129 83.7187 28.4735 84.7509 28.5508L123.547 21.4204C128.518 20.4274 129.5 18.5697 130.233 16.9689C130.58 16.2103 130.569 15.3731 129.793 15.0603Z" fill="#345F6E"/>
<path d="M0.772568 21.5923C0.132874 21.5923 -0.406235 21.0961 -0.450394 20.4484C-0.495773 19.7726 0.0144958 19.1874 0.690369 19.142C1.5392 19.0844 2.36719 19.0378 3.17186 19.0028C3.8367 18.9715 4.42117 19.4984 4.45062 20.1755C4.48006 20.852 3.95506 21.4248 3.27797 21.4543C2.49231 21.488 1.68457 21.5334 0.856598 21.5892C0.828384 21.591 0.800156 21.5923 0.772568 21.5923ZM14.8703 21.8057C14.8378 21.8057 14.8046 21.8045 14.7709 21.8014C13.9466 21.7352 13.1352 21.6751 12.3391 21.6217C11.6632 21.5763 11.1523 20.9918 11.1977 20.3153C11.2431 19.6395 11.8264 19.1304 12.5035 19.1739C13.31 19.2279 14.1318 19.2886 14.9678 19.3561C15.643 19.4107 16.1466 20.0019 16.092 20.6772C16.0405 21.3193 15.5038 21.8057 14.8703 21.8057ZM-10.8246 22.8201C-11.4294 22.8201 -11.9556 22.3724 -12.0384 21.7566C-12.1292 21.0851 -11.6575 20.4674 -10.9866 20.3773C-10.161 20.2663 -9.34471 20.1608 -8.53943 20.0602C-7.8703 19.9762 -7.25453 20.4533 -7.1705 21.1255C-7.08708 21.7977 -7.56424 22.4104 -8.23643 22.4944C-9.03436 22.5938 -9.8421 22.6987 -10.6597 22.8091C-10.7148 22.8164 -10.7701 22.8201 -10.8246 22.8201ZM26.4717 22.9643C26.4258 22.9643 26.3797 22.9618 26.3325 22.9563C25.515 22.8643 24.7029 22.7741 23.8976 22.6858C23.2242 22.6128 22.7379 22.0068 22.8115 21.3334C22.8844 20.66 23.4886 20.173 24.1638 20.2472C24.9716 20.3356 25.7867 20.4257 26.6079 20.519C27.2807 20.5944 27.7652 21.2016 27.6892 21.875C27.6187 22.5012 27.0875 22.9643 26.4717 22.9643ZM38.0456 24.3123C37.9978 24.3123 37.9506 24.3092 37.9021 24.3037L35.466 24.0191C34.7932 23.94 34.3118 23.3304 34.3909 22.6576C34.47 21.9854 35.0784 21.5045 35.7524 21.5824L38.1855 21.867C38.8583 21.9455 39.3403 22.5539 39.2625 23.2274C39.1895 23.8517 38.6596 24.3123 38.0456 24.3123ZM-22.355 24.5644C-22.945 24.5644 -23.4651 24.1381 -23.5645 23.5371C-23.6742 22.8686 -23.221 22.2375 -22.5525 22.1277C-21.7386 21.994 -20.929 21.8621 -20.1244 21.7333C-19.4583 21.626 -18.8266 22.0817 -18.7193 22.7508C-18.6119 23.42 -19.0676 24.0492 -19.7367 24.1559C-20.5377 24.2841 -21.3436 24.4148 -22.155 24.5485C-22.2219 24.5595 -22.2888 24.5644 -22.355 24.5644ZM49.6385 25.5751C49.5993 25.5751 49.5588 25.5733 49.5177 25.569C48.7038 25.4893 47.8869 25.4065 47.0688 25.3218C46.3947 25.2519 45.9053 24.649 45.9752 23.975C46.0445 23.3016 46.637 22.8097 47.3214 22.8815C48.1347 22.9661 48.9467 23.0476 49.7575 23.1274C50.4309 23.1936 50.9241 23.7934 50.8584 24.4675C50.7965 25.101 50.2629 25.5751 49.6385 25.5751ZM61.2597 26.4865C61.2376 26.4865 61.2149 26.4859 61.1928 26.4847C60.3783 26.4411 59.5565 26.3921 58.7279 26.3375C58.052 26.2927 57.5399 25.7088 57.584 25.033C57.6294 24.3571 58.2219 23.8462 58.8886 23.8897C59.7073 23.9431 60.52 23.9916 61.3235 24.0351C62.0005 24.0707 62.5188 24.649 62.4832 25.3255C62.4483 25.9793 61.9067 26.4865 61.2597 26.4865ZM-33.8553 26.5411C-34.4392 26.5411 -34.9562 26.1228 -35.0617 25.5285C-35.18 24.8612 -34.7348 24.2252 -34.0675 24.1069L-31.6412 23.6788C-30.9758 23.5616 -30.3385 24.0075 -30.2214 24.6748C-30.1042 25.3421 -30.5501 25.9781 -31.2174 26.0952L-33.64 26.5227C-33.7118 26.535 -33.7841 26.5411 -33.8553 26.5411ZM70.4576 26.6987C69.7885 26.6987 69.2408 26.1609 69.2315 25.4893C69.2217 24.8122 69.7633 24.2553 70.4404 24.2461C71.261 24.2344 72.0688 24.2123 72.8605 24.1798C73.5554 24.1498 74.1086 24.6785 74.1363 25.355C74.1645 26.0321 73.6376 26.6031 72.9611 26.6313C72.1479 26.6644 71.3187 26.6871 70.4754 26.6987C70.4692 26.6987 70.4631 26.6987 70.4576 26.6987ZM-45.339 28.5871C-45.9229 28.5871 -46.4399 28.1688 -46.5454 27.5739C-46.6638 26.9072 -46.2185 26.2706 -45.5518 26.1523L-43.136 25.7229C-42.4699 25.604 -41.8315 26.0486 -41.7131 26.7153C-41.5941 27.382 -42.0381 28.0192 -42.7054 28.1382L-45.1231 28.5681C-45.1961 28.581 -45.2679 28.5871 -45.339 28.5871ZM-135.617 29.1679C-135.627 29.1679 -135.636 29.1679 -135.646 29.1679C-136.457 29.1495 -137.268 29.1379 -138.077 29.1336C-138.754 29.1293 -139.301 28.5773 -139.297 27.9002C-139.293 27.2225 -138.748 26.6785 -138.063 26.6803C-137.24 26.6852 -136.416 26.6969 -135.591 26.7153C-134.913 26.73 -134.377 27.2918 -134.392 27.9689C-134.407 28.6368 -134.953 29.1679 -135.617 29.1679ZM-149.708 29.6218C-150.333 29.6218 -150.867 29.1471 -150.928 28.5129C-150.993 27.8383 -150.499 27.2391 -149.824 27.1747C-149.002 27.0949 -148.177 27.0262 -147.35 26.9667C-146.677 26.9183 -146.087 27.4274 -146.039 28.1032C-145.99 28.7785 -146.499 29.3654 -147.175 29.4139C-147.981 29.4715 -148.786 29.539 -149.589 29.6157C-149.629 29.6199 -149.669 29.6218 -149.708 29.6218ZM-123.982 29.7972C-124.015 29.7972 -124.048 29.7966 -124.081 29.7935C-124.892 29.7285 -125.704 29.6666 -126.516 29.6089C-127.192 29.5611 -127.701 28.9747 -127.653 28.2983C-127.605 27.6224 -127.02 27.1133 -126.343 27.1618C-125.523 27.2201 -124.703 27.282 -123.884 27.3482C-123.209 27.4022 -122.706 27.9935 -122.76 28.6693C-122.812 29.3109 -123.349 29.7972 -123.982 29.7972ZM-56.8326 30.5638C-57.4226 30.5638 -57.9427 30.137 -58.0414 29.5359C-58.1512 28.8668 -57.6986 28.2357 -57.03 28.1265C-56.2303 27.9953 -55.4244 27.8609 -54.613 27.7248C-53.9469 27.6113 -53.3127 28.0621 -53.1999 28.7307C-53.087 29.3986 -53.5378 30.0315 -54.2057 30.1437C-55.0208 30.2805 -55.8298 30.4154 -56.6326 30.5473C-56.6995 30.5583 -56.7669 30.5638 -56.8326 30.5638ZM-112.376 30.914C-112.42 30.914 -112.463 30.9116 -112.508 30.9067C-113.319 30.8202 -114.132 30.7344 -114.947 30.6497C-115.62 30.5798 -116.11 29.9769 -116.04 29.3029C-115.97 28.6289 -115.369 28.14 -114.693 28.2093C-113.877 28.2946 -113.061 28.3804 -112.247 28.4675C-111.574 28.5399 -111.086 29.144 -111.158 29.8181C-111.225 30.4467 -111.757 30.914 -112.376 30.914ZM-161.2 31.5004C-161.758 31.5004 -162.262 31.1171 -162.394 30.5504C-162.547 29.8904 -162.136 29.2311 -161.476 29.0784C-160.674 28.8926 -159.864 28.7159 -159.047 28.5491C-158.382 28.4142 -157.735 28.8416 -157.6 29.5059C-157.464 30.1695 -157.893 30.8172 -158.557 30.9527C-159.352 31.1152 -160.141 31.287 -160.922 31.4679C-161.015 31.4893 -161.108 31.5004 -161.2 31.5004ZM-100.786 32.1468C-100.828 32.1468 -100.869 32.1444 -100.91 32.1407C-101.723 32.0591 -102.538 31.9751 -103.356 31.8898C-104.03 31.8193 -104.519 31.2158 -104.449 30.5424C-104.379 29.8684 -103.775 29.3801 -103.101 29.4494C-102.287 29.5347 -101.474 29.6181 -100.666 29.6997C-99.9916 29.7671 -99.5004 30.3682 -99.5672 31.0422C-99.631 31.6752 -100.165 32.1468 -100.786 32.1468ZM-68.3678 32.2867C-68.975 32.2867 -69.5024 31.8359 -69.5828 31.2176C-69.6699 30.5454 -69.1958 29.9303 -68.5236 29.8432C-67.7294 29.7402 -66.9216 29.6316 -66.1022 29.5175C-65.4313 29.4225 -64.8112 29.8916 -64.718 30.5626C-64.6241 31.2336 -65.0927 31.8537 -65.7631 31.9469C-66.591 32.0622 -67.4061 32.1726 -68.209 32.2762C-68.2617 32.2836 -68.3151 32.2867 -68.3678 32.2867ZM-89.1709 33.0877C-89.1936 33.0877 -89.2163 33.0864 -89.2384 33.0858C-90.0559 33.0416 -90.8772 32.9907 -91.7045 32.9349C-92.3804 32.8889 -92.8913 32.3038 -92.8453 31.6279C-92.7993 30.9521 -92.216 30.4381 -91.5383 30.4872C-90.7232 30.5424 -89.9118 30.5921 -89.1059 30.6356C-88.4294 30.6724 -87.9112 31.2508 -87.9473 31.9266C-87.9829 32.5804 -88.5245 33.0877 -89.1709 33.0877ZM-79.9767 33.2717C-80.6421 33.2717 -81.1886 32.7387 -81.2027 32.0708C-81.2168 31.3931 -80.6795 30.8325 -80.0024 30.8184C-79.1886 30.8006 -78.3827 30.773 -77.5841 30.7344C-76.9009 30.6976 -76.3323 31.2225 -76.2992 31.899C-76.2661 32.5755 -76.7874 33.1508 -77.4639 33.1845C-78.2851 33.2244 -79.1137 33.2533 -79.9503 33.2704C-79.9589 33.271 -79.9675 33.2717 -79.9767 33.2717ZM-172.364 34.8233C-172.865 34.8233 -173.336 34.5136 -173.517 34.015C-173.748 33.3777 -173.42 32.6743 -172.782 32.443C-172.012 32.1634 -171.231 31.8898 -170.438 31.6237C-169.796 31.409 -169.101 31.7537 -168.884 32.3964C-168.669 33.038 -169.015 33.7341 -169.657 33.9494C-170.43 34.2094 -171.193 34.4762 -171.945 34.7491C-172.084 34.7994 -172.225 34.8233 -172.364 34.8233ZM-183.081 39.3962C-183.535 39.3962 -183.97 39.1442 -184.183 38.7099C-184.482 38.1021 -184.231 37.3667 -183.623 37.0687C-182.893 36.7099 -182.147 36.3523 -181.384 35.9985C-180.77 35.7139 -180.041 35.98 -179.755 36.5946C-179.47 37.2091 -179.737 37.9384 -180.351 38.2236C-181.097 38.5701 -181.827 38.9197 -182.541 39.2705C-182.716 39.3557 -182.9 39.3962 -183.081 39.3962ZM-193.265 45.0669C-193.673 45.0669 -194.073 44.8627 -194.306 44.491C-194.665 43.917 -194.491 43.1601 -193.917 42.8007C-193.243 42.3782 -192.536 41.9458 -191.799 41.506C-191.217 41.1589 -190.464 41.3496 -190.117 41.9317C-189.77 42.5137 -189.961 43.2662 -190.543 43.6134C-191.264 44.0433 -191.955 44.4659 -192.615 44.8799C-192.818 45.0062 -193.043 45.0669 -193.265 45.0669ZM-202.773 51.8281C-203.118 51.8281 -203.461 51.6834 -203.704 51.4007C-204.145 50.8873 -204.087 50.1133 -203.573 49.6717C-203.545 49.6472 -202.866 49.0645 -201.594 48.0912C-201.055 47.6803 -200.285 47.7827 -199.874 48.3206C-199.462 48.8585 -199.565 49.6282 -200.103 50.0397C-201.313 50.9658 -201.968 51.5264 -201.974 51.5319C-202.205 51.7312 -202.49 51.8281 -202.773 51.8281Z" fill="#345F6E"/>
<path d="M384.39 17.7947L334.834 -0.001297L285.76 17.5548C279.495 20.5134 274 22.2854 274 28.1214V57.1801C274 77.3601 279.287 97.3574 290.166 115.012C299.32 129.868 313.494 145.164 335.316 154.887C355.375 148.371 370.349 131.001 379.502 116.145C390.381 98.4907 395.669 78.4934 395.669 58.3134V32.1828C395.669 23.8601 391.258 19.7961 384.39 17.7947Z" fill="#345F6E"/>
<path d="M335.316 138.024C318.052 130.332 306.837 117.971 299.594 106.217C290.988 92.2494 286.805 76.4281 286.805 60.4628V40.0787C286.805 35.4614 289.59 31.1374 295.121 28.5548L334.843 13.7027L334.834 -0.001297L285.76 17.5548C280.609 19.8054 274 22.2854 274 28.1214V57.1801C274 77.3601 279.287 97.3574 290.166 115.012C299.32 129.868 313.494 145.164 335.316 154.887V138.024Z" fill="#3A6B7C"/>
<path d="M335.317 154.887C338.793 153.724 341.986 152.383 345.053 150.712C353.281 146.231 360.298 140.076 365.654 134.505C371.646 128.275 376.11 121.541 379.986 115.251C390.864 97.5974 396.152 77.6001 395.67 56.8641L395.7 32.8721C395.67 20.9254 389.542 20.0454 384.392 17.7947L334.836 -0.001297L334.845 13.7027L375.03 28.7947C380.562 31.3761 383.346 35.7014 383.346 40.3188V60.7027C383.346 76.6681 379.164 92.4894 370.557 106.457C363.314 118.211 352.582 130.332 335.317 138.024V154.887Z" fill="#3A6B7C"/>
<path d="M340.002 93.2266H329.664V46.9012H340.002V93.2266Z" fill="#3A6B7C"/>
<path d="M357.997 64.8971V75.2344H311.672V64.8971H357.997Z" fill="#3A6B7C"/>
</svg>
