<svg width="394" height="103" viewBox="0 0 394 103" fill="none" xmlns="http://www.w3.org/2000/svg">
<path d="M75.4071 100.557C75.4071 100.201 75.1173 99.9114 74.7587 99.9114C70.8144 99.9114 67.4779 98.2907 65.2702 97.2186C64.0072 96.605 63.0955 96.1621 62.4072 96.1621C61.7194 96.1621 60.8072 96.605 59.5444 97.2186C57.3367 98.2907 53.9996 99.9114 50.0554 99.9114C46.0146 99.9114 42.5833 98.245 40.313 97.1413C39.0999 96.5521 38.2995 96.1621 37.7041 96.1621C37.1081 96.1621 36.3072 96.5521 35.0936 97.1413C32.8234 98.245 29.3921 99.9114 25.3517 99.9114C21.3596 99.9114 17.9752 98.2681 15.7358 97.18C14.4743 96.5677 13.6407 96.1621 13.0003 96.1621C12.3599 96.1621 11.5263 96.5677 10.2639 97.1814C8.02489 98.2681 4.64005 99.9114 0.647979 99.9114C0.289886 99.9114 0 100.201 0 100.557C0 100.914 0.289886 101.203 0.647979 101.203C4.93942 101.203 8.4853 99.4803 10.8323 98.3403C11.7299 97.9044 12.6592 97.4531 13.0003 97.4531C13.3413 97.4531 14.2703 97.9044 15.1673 98.3403C17.5144 99.4803 21.0603 101.203 25.3517 101.203C29.6914 101.203 33.2847 99.4572 35.6621 98.3016C36.5203 97.8851 37.4075 97.4531 37.7041 97.4531C37.9991 97.4531 38.8867 97.8851 39.7446 98.3016C42.1219 99.4572 45.7152 101.203 50.0554 101.203C54.2985 101.203 57.7976 99.5029 60.1128 98.3789C61.0928 97.9035 62.0188 97.4531 62.4072 97.4531C62.7961 97.4531 63.7212 97.9035 64.7017 98.3789C67.0165 99.5029 70.5155 101.203 74.7587 101.203C75.1173 101.203 75.4071 100.914 75.4071 100.557ZM169.422 107.709C165.477 107.709 162.142 106.089 159.934 105.016C158.672 104.403 157.759 103.96 157.072 103.96C156.384 103.96 155.471 104.403 154.209 105.016C152.001 106.089 148.664 107.709 144.719 107.709C140.679 107.709 137.247 106.043 134.978 104.939C133.765 104.349 132.963 103.96 132.368 103.96C131.772 103.96 130.971 104.349 129.758 104.938C127.488 106.042 124.057 107.709 120.016 107.709C116.024 107.709 112.64 106.066 110.4 104.978C109.139 104.364 108.305 103.96 107.664 103.96C107.024 103.96 106.19 104.364 104.928 104.978C102.689 106.066 99.3046 107.709 95.3125 107.709C91.3668 107.709 88.0284 106.087 85.8197 105.015C84.5584 104.402 83.6475 103.96 82.9607 103.96C82.2738 103.96 81.3629 104.402 80.1016 105.015C77.8924 106.087 74.5545 107.709 70.6084 107.709C70.2503 107.709 69.9603 107.998 69.9603 108.355C69.9603 108.711 70.2503 109 70.6084 109C74.8539 109 78.3543 107.3 80.6701 106.176C81.6486 105.7 82.5732 105.251 82.9607 105.251C83.3481 105.251 84.2723 105.7 85.2514 106.176C87.5671 107.3 91.0676 109 95.3125 109C99.604 109 103.15 107.278 105.497 106.138C106.394 105.703 107.323 105.251 107.664 105.251C108.005 105.251 108.934 105.703 109.833 106.138C112.179 107.278 115.725 109 120.016 109C124.356 109 127.949 107.254 130.327 106.098C131.184 105.682 132.072 105.251 132.368 105.251C132.664 105.251 133.551 105.682 134.408 106.1C136.786 107.254 140.379 109 144.719 109C148.963 109 152.462 107.301 154.778 106.177C155.757 105.7 156.684 105.251 157.072 105.251C157.46 105.251 158.386 105.7 159.366 106.177C161.681 107.301 165.179 109 169.422 109C169.781 109 170.071 108.711 170.071 108.355C170.071 107.998 169.781 107.709 169.422 107.709ZM240.031 100.557C240.031 100.201 239.741 99.9114 239.383 99.9114C235.438 99.9114 232.102 98.2907 229.894 97.2186C228.632 96.605 227.72 96.1621 227.031 96.1621C226.344 96.1621 225.432 96.605 224.168 97.2186C221.961 98.2907 218.623 99.9114 214.678 99.9114C210.638 99.9114 207.208 98.245 204.936 97.1413C203.724 96.5521 202.924 96.1621 202.328 96.1621C201.733 96.1621 200.931 96.5521 199.717 97.1413C197.447 98.245 194.016 99.9114 189.975 99.9114C185.984 99.9114 182.599 98.2681 180.36 97.18C179.099 96.5677 178.265 96.1621 177.624 96.1621C176.984 96.1621 176.15 96.5677 174.887 97.1814C172.649 98.2681 169.264 99.9114 165.273 99.9114C164.914 99.9114 164.624 100.201 164.624 100.557C164.624 100.914 164.914 101.203 165.273 101.203C169.563 101.203 173.11 99.4803 175.456 98.3417C176.354 97.9044 177.283 97.4531 177.624 97.4531C177.966 97.4531 178.895 97.9044 179.792 98.3403C182.139 99.4803 185.684 101.203 189.975 101.203C194.315 101.203 197.908 99.4572 200.286 98.3016C201.145 97.8851 202.032 97.4531 202.328 97.4531C202.624 97.4531 203.51 97.8851 204.369 98.3016C206.746 99.4572 210.339 101.203 214.678 101.203C218.922 101.203 222.422 99.5029 224.737 98.3789C225.717 97.9035 226.643 97.4531 227.031 97.4531C227.42 97.4531 228.346 97.9035 229.327 98.3789C231.64 99.5029 235.14 101.203 239.383 101.203C239.741 101.203 240.031 100.914 240.031 100.557ZM404.006 99.9114C400.062 99.9114 396.725 98.2907 394.518 97.2186C393.256 96.605 392.344 96.1621 391.656 96.1621C390.967 96.1621 390.056 96.605 388.793 97.2186C386.585 98.2907 383.248 99.9114 379.303 99.9114C375.263 99.9114 371.831 98.245 369.561 97.1413C368.349 96.5521 367.547 96.1621 366.952 96.1621C366.355 96.1621 365.555 96.5521 364.342 97.1413C362.073 98.245 358.641 99.9114 354.599 99.9114C350.607 99.9114 347.223 98.2681 344.985 97.1814C343.722 96.5677 342.888 96.1621 342.248 96.1621C341.608 96.1621 340.773 96.5677 339.512 97.18C337.273 98.2681 333.888 99.9114 329.896 99.9114C329.539 99.9114 329.249 100.201 329.249 100.557C329.249 100.914 329.539 101.203 329.896 101.203C334.188 101.203 337.733 99.4803 340.081 98.3403C340.978 97.9044 341.907 97.4531 342.248 97.4531C342.589 97.4531 343.519 97.9044 344.416 98.3417C346.764 99.4803 350.309 101.203 354.599 101.203C358.94 101.203 362.533 99.4572 364.911 98.3016C365.769 97.8851 366.656 97.4531 366.952 97.4531C367.248 97.4531 368.135 97.8851 368.993 98.3016C371.371 99.4572 374.964 101.203 379.303 101.203C383.548 101.203 387.046 99.5029 389.361 98.3789C390.34 97.9035 391.267 97.4531 391.656 97.4531C392.044 97.4531 392.969 97.9035 393.949 98.3789C396.264 99.5029 399.762 101.203 404.006 101.203C404.365 101.203 404.655 100.914 404.655 100.557C404.655 100.201 404.365 99.9114 404.006 99.9114ZM334.047 107.709C330.103 107.709 326.766 106.089 324.559 105.016C323.295 104.403 322.383 103.96 321.696 103.96C321.007 103.96 320.095 104.403 318.833 105.016C316.625 106.089 313.288 107.709 309.343 107.709C305.303 107.709 301.871 106.042 299.601 104.939C298.388 104.349 297.587 103.96 296.992 103.96C296.396 103.96 295.596 104.349 294.383 104.938C292.112 106.042 288.682 107.709 284.64 107.709C280.648 107.709 277.264 106.066 275.024 104.978C273.762 104.364 272.929 103.96 272.289 103.96C271.647 103.96 270.814 104.364 269.553 104.978C267.313 106.066 263.928 107.709 259.936 107.709C255.99 107.709 252.653 106.087 250.444 105.015C249.183 104.402 248.272 103.96 247.585 103.96C246.898 103.96 245.988 104.402 244.725 105.015C242.517 106.087 239.178 107.709 235.232 107.709C234.874 107.709 234.584 107.998 234.584 108.355C234.584 108.711 234.874 109 235.232 109C239.477 109 242.978 107.3 245.294 106.176C246.272 105.7 247.198 105.251 247.585 105.251C247.973 105.251 248.897 105.7 249.875 106.176C252.191 107.3 255.691 109 259.936 109C264.227 109 267.774 107.278 270.12 106.137C271.019 105.701 271.947 105.251 272.289 105.251C272.629 105.251 273.558 105.703 274.456 106.138C276.803 107.278 280.349 109 284.64 109C288.98 109 292.574 107.254 294.951 106.098C295.809 105.682 296.696 105.251 296.992 105.251C297.287 105.251 298.175 105.682 299.032 106.098C301.41 107.254 305.003 109 309.343 109C313.587 109 317.087 107.301 319.401 106.177C320.381 105.7 321.306 105.251 321.696 105.251C322.084 105.251 323.009 105.7 323.99 106.177C326.305 107.301 329.803 109 334.047 109C334.405 109 334.695 108.711 334.695 108.355C334.695 107.998 334.405 107.709 334.047 107.709ZM380.014 74.7851C380.014 74.5469 379.821 74.3549 379.582 74.3549H376.513C376.274 74.3549 376.082 74.5469 376.082 74.7851V78.0585C376.082 78.2962 376.274 78.4882 376.513 78.4882H379.582C379.821 78.4882 380.014 78.2962 380.014 78.0585V74.7851ZM350.61 68.12C350.61 67.8855 350.42 67.6959 350.184 67.6959H348.85C348.615 67.6959 348.425 67.8855 348.425 68.12V69.4482C348.425 69.6821 348.615 69.8717 348.85 69.8717H350.184C350.42 69.8717 350.61 69.6821 350.61 69.4482V68.12ZM345.57 68.12C345.57 67.8855 345.38 67.6959 345.145 67.6959H343.811C343.576 67.6959 343.385 67.8855 343.385 68.12V69.4482C343.385 69.6821 343.576 69.8717 343.811 69.8717H345.145C345.38 69.8717 345.57 69.6821 345.57 69.4482V68.12ZM342.193 74.2828C342.193 74.0483 342.002 73.8588 341.766 73.8588H340.434C340.199 73.8588 340.007 74.0483 340.007 74.2828V75.611C340.007 75.8449 340.199 76.0345 340.434 76.0345H341.766C342.002 76.0345 342.193 75.8449 342.193 75.611V74.2828ZM338.771 69.8717H340.105C340.34 69.8717 340.531 69.6821 340.531 69.4482V68.12C340.531 67.8855 340.34 67.6959 340.105 67.6959H338.771C338.536 67.6959 338.346 67.8855 338.346 68.12V69.4482C338.346 69.6821 338.536 69.8717 338.771 69.8717ZM336.808 74.2828C336.808 74.0483 336.618 73.8588 336.383 73.8588H335.049C334.813 73.8588 334.623 74.0483 334.623 74.2828V75.611C334.623 75.8449 334.813 76.0345 335.049 76.0345H336.383C336.618 76.0345 336.808 75.8449 336.808 75.611V74.2828ZM333.732 69.8717H335.066C335.301 69.8717 335.491 69.6821 335.491 69.4482V68.12C335.491 67.8855 335.301 67.6959 335.066 67.6959H333.732C333.497 67.6959 333.306 67.8855 333.306 68.12V69.4482C333.306 69.6821 333.497 69.8717 333.732 69.8717ZM331.423 74.2828C331.423 74.0483 331.233 73.8588 330.997 73.8588H329.664C329.428 73.8588 329.238 74.0483 329.238 74.2828V75.611C329.238 75.8449 329.428 76.0345 329.664 76.0345H330.997C331.233 76.0345 331.423 75.8449 331.423 75.611V74.2828ZM326.912 68.12C326.912 67.8855 326.722 67.6959 326.487 67.6959H325.153C324.918 67.6959 324.727 67.8855 324.727 68.12V69.4482C324.727 69.6821 324.918 69.8717 325.153 69.8717H326.487C326.722 69.8717 326.912 69.6821 326.912 69.4482V68.12ZM326.038 74.2828C326.038 74.0483 325.848 73.8588 325.612 73.8588H324.278C324.043 73.8588 323.853 74.0483 323.853 74.2828V75.611C323.853 75.8449 324.043 76.0345 324.278 76.0345H325.612C325.848 76.0345 326.038 75.8449 326.038 75.611V74.2828ZM321.873 68.12C321.873 67.8855 321.681 67.6959 321.446 67.6959H320.113C319.878 67.6959 319.686 67.8855 319.686 68.12V69.4482C319.686 69.6821 319.878 69.8717 320.113 69.8717H321.446C321.681 69.8717 321.873 69.6821 321.873 69.4482V68.12ZM320.653 74.2828C320.653 74.0483 320.462 73.8588 320.227 73.8588H318.893C318.658 73.8588 318.468 74.0483 318.468 74.2828V75.611C318.468 75.8449 318.658 76.0345 318.893 76.0345H320.227C320.462 76.0345 320.653 75.8449 320.653 75.611V74.2828ZM316.832 68.12C316.832 67.8855 316.642 67.6959 316.406 67.6959H315.073C314.837 67.6959 314.647 67.8855 314.647 68.12V69.4482C314.647 69.6821 314.837 69.8717 315.073 69.8717H316.406C316.642 69.8717 316.832 69.6821 316.832 69.4482V68.12ZM315.268 74.2828C315.268 74.0483 315.077 73.8588 314.842 73.8588H313.508C313.273 73.8588 313.083 74.0483 313.083 74.2828V75.611C313.083 75.8449 313.273 76.0345 313.508 76.0345H314.842C315.077 76.0345 315.268 75.8449 315.268 75.611V74.2828ZM311.792 68.12C311.792 67.8855 311.602 67.6959 311.367 67.6959H310.033C309.798 67.6959 309.607 67.8855 309.607 68.12V69.4482C309.607 69.6821 309.798 69.8717 310.033 69.8717H311.367C311.602 69.8717 311.792 69.6821 311.792 69.4482V68.12ZM309.884 74.2828C309.884 74.0483 309.692 73.8588 309.457 73.8588H308.124C307.889 73.8588 307.698 74.0483 307.698 74.2828V75.611C307.698 75.8449 307.889 76.0345 308.124 76.0345H309.457C309.692 76.0345 309.884 75.8449 309.884 75.611V74.2828ZM304.499 74.2828C304.499 74.0483 304.307 73.8588 304.073 73.8588H302.739C302.504 73.8588 302.314 74.0483 302.314 74.2828V75.611C302.314 75.8449 302.504 76.0345 302.739 76.0345H304.073C304.307 76.0345 304.499 75.8449 304.499 75.611V74.2828ZM302.86 69.8717C303.096 69.8717 303.286 69.6821 303.286 69.4482V68.12C303.286 67.8855 303.096 67.6959 302.86 67.6959H301.527C301.291 67.6959 301.101 67.8855 301.101 68.12V69.4482C301.101 69.6821 301.291 69.8717 301.527 69.8717H302.86ZM298.247 68.12C298.247 67.8855 298.056 67.6959 297.821 67.6959H296.487C296.252 67.6959 296.061 67.8855 296.061 68.12V69.4482C296.061 69.6821 296.252 69.8717 296.487 69.8717H297.821C298.056 69.8717 298.247 69.6821 298.247 69.4482V68.12ZM293.207 68.12C293.207 67.8855 293.015 67.6959 292.78 67.6959H291.448C291.212 67.6959 291.021 67.8855 291.021 68.12V69.4482C291.021 69.6821 291.212 69.8717 291.448 69.8717H292.78C293.015 69.8717 293.207 69.6821 293.207 69.4482V68.12ZM288.166 68.12C288.166 67.8855 287.976 67.6959 287.741 67.6959H286.407C286.172 67.6959 285.981 67.8855 285.981 68.12V69.4482C285.981 69.6821 286.172 69.8717 286.407 69.8717H287.741C287.976 69.8717 288.166 69.6821 288.166 69.4482V68.12ZM279.587 68.12C279.587 67.8855 279.397 67.6959 279.162 67.6959H277.828C277.592 67.6959 277.402 67.8855 277.402 68.12V69.4482C277.402 69.6821 277.592 69.8717 277.828 69.8717H279.162C279.397 69.8717 279.587 69.6821 279.587 69.4482V68.12ZM274.548 68.12C274.548 67.8855 274.357 67.6959 274.122 67.6959H272.788C272.553 67.6959 272.363 67.8855 272.363 68.12V69.4482C272.363 69.6821 272.553 69.8717 272.788 69.8717H274.122C274.357 69.8717 274.548 69.6821 274.548 69.4482V68.12ZM273.709 74.2828C273.709 74.0483 273.518 73.8588 273.283 73.8588H271.949C271.714 73.8588 271.523 74.0483 271.523 74.2828V75.611C271.523 75.8449 271.714 76.0345 271.949 76.0345H273.283C273.518 76.0345 273.709 75.8449 273.709 75.611V74.2828ZM269.508 68.12C269.508 67.8855 269.318 67.6959 269.083 67.6959H267.749C267.513 67.6959 267.323 67.8855 267.323 68.12V69.4482C267.323 69.6821 267.513 69.8717 267.749 69.8717H269.083C269.318 69.8717 269.508 69.6821 269.508 69.4482V68.12ZM268.323 74.2828C268.323 74.0483 268.133 73.8588 267.898 73.8588H266.564C266.329 73.8588 266.138 74.0483 266.138 74.2828V75.611C266.138 75.8449 266.329 76.0345 266.564 76.0345H267.898C268.133 76.0345 268.323 75.8449 268.323 75.611V74.2828ZM264.469 68.12C264.469 67.8855 264.277 67.6959 264.043 67.6959H262.709C262.474 67.6959 262.284 67.8855 262.284 68.12V69.4482C262.284 69.6821 262.474 69.8717 262.709 69.8717H264.043C264.277 69.8717 264.469 69.6821 264.469 69.4482V68.12ZM262.938 74.2828C262.938 74.0483 262.748 73.8588 262.513 73.8588H261.179C260.944 73.8588 260.753 74.0483 260.753 74.2828V75.611C260.753 75.8449 260.944 76.0345 261.179 76.0345H262.513C262.748 76.0345 262.938 75.8449 262.938 75.611V74.2828ZM257.553 74.2828C257.553 74.0483 257.363 73.8588 257.128 73.8588H255.795C255.56 73.8588 255.368 74.0483 255.368 74.2828V75.611C255.368 75.8449 255.56 76.0345 255.795 76.0345H257.128C257.363 76.0345 257.553 75.8449 257.553 75.611V74.2828ZM254.203 69.8717H255.537C255.771 69.8717 255.962 69.6821 255.962 69.4482V68.12C255.962 67.8855 255.771 67.6959 255.537 67.6959H254.203C253.968 67.6959 253.777 67.8855 253.777 68.12V69.4482C253.777 69.6821 253.968 69.8717 254.203 69.8717ZM252.169 74.2828C252.169 74.0483 251.978 73.8588 251.742 73.8588H250.41C250.175 73.8588 249.983 74.0483 249.983 74.2828V75.611C249.983 75.8449 250.175 76.0345 250.41 76.0345H251.742C251.978 76.0345 252.169 75.8449 252.169 75.611V74.2828ZM249.163 69.8717H250.496C250.731 69.8717 250.923 69.6821 250.923 69.4482V68.12C250.923 67.8855 250.731 67.6959 250.496 67.6959H249.163C248.928 67.6959 248.736 67.8855 248.736 68.12V69.4482C248.736 69.6821 248.928 69.8717 249.163 69.8717ZM246.784 74.2828C246.784 74.0483 246.594 73.8588 246.359 73.8588H245.025C244.789 73.8588 244.599 74.0483 244.599 74.2828V75.611C244.599 75.8449 244.789 76.0345 245.025 76.0345H246.359C246.594 76.0345 246.784 75.8449 246.784 75.611V74.2828ZM244.123 69.8717H245.456C245.692 69.8717 245.882 69.6821 245.882 69.4482V68.12C245.882 67.8855 245.692 67.6959 245.456 67.6959H244.123C243.887 67.6959 243.697 67.8855 243.697 68.12V69.4482C243.697 69.6821 243.887 69.8717 244.123 69.8717ZM241.399 74.2828C241.399 74.0483 241.209 73.8588 240.973 73.8588H239.64C239.404 73.8588 239.214 74.0483 239.214 74.2828V75.611C239.214 75.8449 239.404 76.0345 239.64 76.0345H240.973C241.209 76.0345 241.399 75.8449 241.399 75.611V74.2828ZM239.083 69.8717H240.417C240.652 69.8717 240.842 69.6821 240.842 69.4482V68.12C240.842 67.8855 240.652 67.6959 240.417 67.6959H239.083C238.848 67.6959 238.657 67.8855 238.657 68.12V69.4482C238.657 69.6821 238.848 69.8717 239.083 69.8717ZM236.014 74.2828C236.014 74.0483 235.824 73.8588 235.588 73.8588H234.254C234.019 73.8588 233.829 74.0483 233.829 74.2828V75.611C233.829 75.8449 234.019 76.0345 234.254 76.0345H235.588C235.824 76.0345 236.014 75.8449 236.014 75.611V74.2828ZM232.263 68.12C232.263 67.8855 232.073 67.6959 231.838 67.6959H230.504C230.269 67.6959 230.078 67.8855 230.078 68.12V69.4482C230.078 69.6821 230.269 69.8717 230.504 69.8717H231.838C232.073 69.8717 232.263 69.6821 232.263 69.4482V68.12ZM227.224 68.12C227.224 67.8855 227.033 67.6959 226.798 67.6959H225.464C225.229 67.6959 225.039 67.8855 225.039 68.12V69.4482C225.039 69.6821 225.229 69.8717 225.464 69.8717H226.798C227.033 69.8717 227.224 69.6821 227.224 69.4482V68.12ZM222.184 68.12C222.184 67.8855 221.993 67.6959 221.759 67.6959H220.425C220.19 67.6959 219.998 67.8855 219.998 68.12V69.4482C219.998 69.6821 220.19 69.8717 220.425 69.8717H221.759C221.993 69.8717 222.184 69.6821 222.184 69.4482V68.12ZM217.144 68.12C217.144 67.8855 216.953 67.6959 216.718 67.6959H215.384C215.149 67.6959 214.959 67.8855 214.959 68.12V69.4482C214.959 69.6821 215.149 69.8717 215.384 69.8717H216.718C216.953 69.8717 217.144 69.6821 217.144 69.4482V68.12ZM208.637 68.12C208.637 67.8855 208.447 67.6959 208.212 67.6959H206.878C206.643 67.6959 206.452 67.8855 206.452 68.12V69.4482C206.452 69.6821 206.643 69.8717 206.878 69.8717H208.212C208.447 69.8717 208.637 69.6821 208.637 69.4482V68.12ZM205.224 74.2828C205.224 74.0483 205.033 73.8588 204.798 73.8588H203.464C203.229 73.8588 203.039 74.0483 203.039 74.2828V75.611C203.039 75.8449 203.229 76.0345 203.464 76.0345H204.798C205.033 76.0345 205.224 75.8449 205.224 75.611V74.2828ZM201.838 69.8717H203.172C203.407 69.8717 203.598 69.6821 203.598 69.4482V68.12C203.598 67.8855 203.407 67.6959 203.172 67.6959H201.838C201.603 67.6959 201.413 67.8855 201.413 68.12V69.4482C201.413 69.6821 201.603 69.8717 201.838 69.8717ZM199.84 74.2828C199.84 74.0483 199.648 73.8588 199.413 73.8588H198.08C197.845 73.8588 197.654 74.0483 197.654 74.2828V75.611C197.654 75.8449 197.845 76.0345 198.08 76.0345H199.413C199.648 76.0345 199.84 75.8449 199.84 75.611V74.2828ZM196.799 69.8717H198.133C198.368 69.8717 198.558 69.6821 198.558 69.4482V68.12C198.558 67.8855 198.368 67.6959 198.133 67.6959H196.799C196.563 67.6959 196.373 67.8855 196.373 68.12V69.4482C196.373 69.6821 196.563 69.8717 196.799 69.8717ZM194.455 74.2828C194.455 74.0483 194.263 73.8588 194.028 73.8588H192.695C192.46 73.8588 192.27 74.0483 192.27 74.2828V75.611C192.27 75.8449 192.46 76.0345 192.695 76.0345H194.028C194.263 76.0345 194.455 75.8449 194.455 75.611V74.2828ZM191.759 69.8717H193.093C193.328 69.8717 193.519 69.6821 193.519 69.4482V68.12C193.519 67.8855 193.328 67.6959 193.093 67.6959H191.759C191.524 67.6959 191.332 67.8855 191.332 68.12V69.4482C191.332 69.6821 191.524 69.8717 191.759 69.8717ZM189.07 74.2828C189.07 74.0483 188.879 73.8588 188.644 73.8588H187.31C187.075 73.8588 186.885 74.0483 186.885 74.2828V75.611C186.885 75.8449 187.075 76.0345 187.31 76.0345H188.644C188.879 76.0345 189.07 75.8449 189.07 75.611V74.2828ZM184.94 68.12C184.94 67.8855 184.749 67.6959 184.514 67.6959H183.18C182.945 67.6959 182.755 67.8855 182.755 68.12V69.4482C182.755 69.6821 182.945 69.8717 183.18 69.8717H184.514C184.749 69.8717 184.94 69.6821 184.94 69.4482V68.12ZM183.685 74.2828C183.685 74.0483 183.494 73.8588 183.259 73.8588H181.925C181.69 73.8588 181.499 74.0483 181.499 74.2828V75.611C181.499 75.8449 181.69 76.0345 181.925 76.0345H183.259C183.494 76.0345 183.685 75.8449 183.685 75.611V74.2828ZM179.899 68.12C179.899 67.8855 179.708 67.6959 179.473 67.6959H178.139C177.905 67.6959 177.714 67.8855 177.714 68.12V69.4482C177.714 69.6821 177.905 69.8717 178.139 69.8717H179.473C179.708 69.8717 179.899 69.6821 179.899 69.4482V68.12ZM178.299 74.2828C178.299 74.0483 178.109 73.8588 177.874 73.8588H176.54C176.305 73.8588 176.114 74.0483 176.114 74.2828V75.611C176.114 75.8449 176.305 76.0345 176.54 76.0345H177.874C178.109 76.0345 178.299 75.8449 178.299 75.611V74.2828ZM174.859 68.12C174.859 67.8855 174.669 67.6959 174.434 67.6959H173.1C172.865 67.6959 172.674 67.8855 172.674 68.12V69.4482C172.674 69.6821 172.865 69.8717 173.1 69.8717H174.434C174.669 69.8717 174.859 69.6821 174.859 69.4482V68.12ZM172.914 74.2828C172.914 74.0483 172.724 73.8588 172.489 73.8588H171.155C170.92 73.8588 170.729 74.0483 170.729 74.2828V75.611C170.729 75.8449 170.92 76.0345 171.155 76.0345H172.489C172.724 76.0345 172.914 75.8449 172.914 75.611V74.2828ZM169.82 68.12C169.82 67.8855 169.629 67.6959 169.394 67.6959H168.06C167.825 67.6959 167.635 67.8855 167.635 68.12V69.4482C167.635 69.6821 167.825 69.8717 168.06 69.8717H169.394C169.629 69.8717 169.82 69.6821 169.82 69.4482V68.12ZM167.529 74.2828C167.529 74.0483 167.339 73.8588 167.104 73.8588H165.77C165.534 73.8588 165.344 74.0483 165.344 74.2828V75.611C165.344 75.8449 165.534 76.0345 165.77 76.0345H167.104C167.339 76.0345 167.529 75.8449 167.529 75.611V74.2828ZM162.737 68.4242H160.234V66.9413H159.943V68.4242H152.512V66.9413H152.22V68.4242H150.36C150.306 68.4242 150.267 68.4761 150.281 68.5279L150.372 68.8492H162.651L162.836 68.685C162.94 68.5944 162.875 68.4242 162.737 68.4242ZM162.168 69.2741H150.498C150.746 70.0528 151.47 70.5892 152.294 70.5892H159.816C160.371 70.5892 160.908 70.3863 161.324 70.0189L162.168 69.2741ZM147.924 68.4242H145.421V66.9413H145.13V68.4242H137.699V66.9413H137.407V68.4242H135.547C135.493 68.4242 135.454 68.4761 135.468 68.5279L135.559 68.8492H147.838L148.023 68.685C148.127 68.5944 148.062 68.4242 147.924 68.4242ZM147.357 69.2741H135.685C135.933 70.0528 136.657 70.5892 137.482 70.5892H145.003C145.558 70.5892 146.095 70.3863 146.511 70.0189L147.357 69.2741ZM131.436 68.12C131.436 67.8855 131.246 67.6959 131.011 67.6959H129.678C129.443 67.6959 129.251 67.8855 129.251 68.12V69.4482C129.251 69.6821 129.443 69.8717 129.678 69.8717H131.011C131.246 69.8717 131.436 69.6821 131.436 69.4482V68.12ZM126.397 68.12C126.397 67.8855 126.207 67.6959 125.971 67.6959H124.637C124.402 67.6959 124.212 67.8855 124.212 68.12V69.4482C124.212 69.6821 124.402 69.8717 124.637 69.8717H125.971C126.207 69.8717 126.397 69.6821 126.397 69.4482V68.12ZM121.357 68.12C121.357 67.8855 121.167 67.6959 120.931 67.6959H119.598C119.363 67.6959 119.172 67.8855 119.172 68.12V69.4482C119.172 69.6821 119.363 69.8717 119.598 69.8717H120.931C121.167 69.8717 121.357 69.6821 121.357 69.4482V68.12ZM116.317 68.12C116.317 67.8855 116.127 67.6959 115.891 67.6959H114.558C114.323 67.6959 114.132 67.8855 114.132 68.12V69.4482C114.132 69.6821 114.323 69.8717 114.558 69.8717H115.891C116.127 69.8717 116.317 69.6821 116.317 69.4482V68.12ZM60.5419 75.611C60.5419 75.8449 60.7324 76.0345 60.9678 76.0345H62.3011C62.5366 76.0345 62.727 75.8449 62.727 75.611V74.2828C62.727 74.0483 62.5366 73.8588 62.3011 73.8588H60.9678C60.7324 73.8588 60.5419 74.0483 60.5419 74.2828V75.611ZM65.9267 75.611C65.9267 75.8449 66.1175 76.0345 66.3529 76.0345H67.6862C67.9217 76.0345 68.1121 75.8449 68.1121 75.611V74.2828C68.1121 74.0483 67.9217 73.8588 67.6862 73.8588H66.3529C66.1175 73.8588 65.9267 74.0483 65.9267 74.2828V75.611ZM66.0924 69.4482C66.0924 69.6821 66.2833 69.8717 66.5183 69.8717H67.8521C68.0875 69.8717 68.2779 69.6821 68.2779 69.4482V68.12C68.2779 67.8855 68.0875 67.6959 67.8521 67.6959H66.5183C66.2833 67.6959 66.0924 67.8855 66.0924 68.12V69.4482ZM71.1322 69.4482C71.1322 69.6821 71.3232 69.8717 71.5585 69.8717H72.8919C73.1269 69.8717 73.3178 69.6821 73.3178 69.4482V68.12C73.3178 67.8855 73.1269 67.6959 72.8919 67.6959H71.5585C71.3232 67.6959 71.1322 67.8855 71.1322 68.12V69.4482ZM73.0714 73.8588H71.7375C71.5026 73.8588 71.3118 74.0483 71.3118 74.2828V75.611C71.3118 75.8449 71.5026 76.0345 71.7375 76.0345H73.0714C73.3064 76.0345 73.4967 75.8449 73.4967 75.611V74.2828C73.4967 74.0483 73.3064 73.8588 73.0714 73.8588ZM76.1721 69.4482C76.1721 69.6821 76.3629 69.8717 76.5979 69.8717H77.9318C78.1667 69.8717 78.3575 69.6821 78.3575 69.4482V68.12C78.3575 67.8855 78.1667 67.6959 77.9318 67.6959H76.5979C76.3629 67.6959 76.1721 67.8855 76.1721 68.12V69.4482ZM81.2119 69.4482C81.2119 69.6821 81.4028 69.8717 81.6377 69.8717H82.9716C83.2066 69.8717 83.3974 69.6821 83.3974 69.4482V68.12C83.3974 67.8855 83.2066 67.6959 82.9716 67.6959H81.6377C81.4028 67.6959 81.2119 67.8855 81.2119 68.12V69.4482ZM90.4337 69.4482C90.4337 69.6821 90.6246 69.8717 90.8596 69.8717H92.1935C92.4283 69.8717 92.6193 69.6821 92.6193 69.4482V68.12C92.6193 67.8855 92.4283 67.6959 92.1935 67.6959H90.8596C90.6246 67.6959 90.4337 67.8855 90.4337 68.12V69.4482ZM95.4736 69.4482C95.4736 69.6821 95.6645 69.8717 95.8994 69.8717H97.2332C97.4682 69.8717 97.6591 69.6821 97.6591 69.4482V68.12C97.6591 67.8855 97.4682 67.6959 97.2332 67.6959H95.8994C95.6645 67.6959 95.4736 67.8855 95.4736 68.12V69.4482ZM100.513 69.4482C100.513 69.6821 100.704 69.8717 100.939 69.8717H102.273C102.508 69.8717 102.699 69.6821 102.699 69.4482V68.12C102.699 67.8855 102.508 67.6959 102.273 67.6959H100.939C100.704 67.6959 100.513 67.8855 100.513 68.12V69.4482ZM105.553 69.4482C105.553 69.6821 105.744 69.8717 105.979 69.8717H107.312C107.548 69.8717 107.739 69.6821 107.739 69.4482V68.12C107.739 67.8855 107.548 67.6959 107.312 67.6959H105.979C105.744 67.6959 105.553 67.8855 105.553 68.12V69.4482ZM411.866 64.4504C396.633 72.4229 385.261 81.7583 381.726 84.7996C380.15 84.2213 378.253 83.835 375.85 83.835C366.908 83.835 364.037 89.905 357.593 89.905C351.148 89.905 349.975 84.9967 342.327 84.9967C334.984 84.9967 334.041 89.905 327.597 89.905C321.152 89.905 319.622 85.6633 314.709 85.6633C309.795 85.6633 308.265 89.905 301.82 89.905C295.376 89.905 293.134 86.1557 288.931 86.1557C284.73 86.1557 282.488 89.905 276.043 89.905C269.599 89.905 266.895 86.6434 263.157 86.6434C259.418 86.6434 256.712 89.905 250.268 89.905C243.824 89.905 239.67 87.0193 237.379 87.0193C235.089 87.0193 230.934 89.905 224.489 89.905C218.045 89.905 213.422 87.7702 211.6 87.7702C209.777 87.7702 205.155 89.905 198.71 89.905C192.265 89.905 188.033 88.0735 185.819 88.0735C183.606 88.0735 179.373 89.905 172.926 89.905C166.472 89.905 161.686 88.089 160.017 88.089C158.349 88.089 153.561 89.905 147.107 89.905C140.652 89.905 135.645 88.089 134.196 88.089C132.747 88.089 127.742 89.905 121.287 89.905C114.831 89.905 109.934 88.089 108.377 88.089C106.819 88.089 101.922 89.905 95.4665 89.905C89.0114 89.905 84.2221 88.089 82.5561 88.089C80.8903 88.089 76.101 89.905 69.6454 89.905C63.1907 89.905 58.4052 88.089 56.7361 88.089C56.4703 88.089 56.1174 88.1386 55.6997 88.2159C55.3737 87.7989 55.1568 87.3414 55.0393 86.8584C54.9309 86.8438 54.839 86.8344 54.7722 86.8344C54.4809 86.8344 53.7661 86.9915 52.9396 87.1726C50.9345 87.6131 47.5791 88.3499 43.7134 88.3499C39.9876 88.3499 36.8874 87.857 34.8359 87.531C33.8536 87.3753 33.0777 87.2523 32.658 87.2523C32.2383 87.2523 31.4625 87.3753 30.4801 87.531C28.4278 87.857 25.3275 88.3499 21.6017 88.3499H8.35078C7.99221 88.3499 7.70232 88.0597 7.70232 87.7036C7.70232 87.3476 7.99221 87.0589 8.35078 87.0589H21.6017C25.2252 87.0589 28.2648 86.5759 30.2755 86.2571C31.3554 86.0859 32.1351 85.9613 32.658 85.9613C33.181 85.9613 33.9606 86.0859 35.0406 86.2571C37.0513 86.5759 40.0899 87.0589 43.7134 87.0589C47.4379 87.0589 50.5807 86.3693 52.6605 85.9132C53.6714 85.691 54.3397 85.5434 54.7722 85.5434C54.837 85.5434 54.919 85.5533 54.9948 85.5594C55.6262 82.6399 62.4991 64.8631 63.5052 63.99C68.05 63.99 411.757 63.99 411.757 63.99C412.014 63.99 412.093 64.3306 411.866 64.4504ZM252.68 12.5856C252.68 10.331 250.845 8.50424 248.581 8.50424H248.499C246.235 8.50424 244.4 10.331 244.4 12.5856V16.4231H252.68V12.5856ZM120.992 52.3006C120.992 52.0661 120.801 51.8756 120.566 51.8756H119.232C118.997 51.8756 118.806 52.0661 118.806 52.3006V53.6289C118.806 53.8619 118.997 54.0529 119.232 54.0529H120.566C120.801 54.0529 120.992 53.8619 120.992 53.6289V52.3006ZM120.992 58.6361C120.992 58.4021 120.801 58.2111 120.566 58.2111H119.232C118.997 58.2111 118.806 58.4021 118.806 58.6361V59.9634C118.806 60.1973 118.997 60.387 119.232 60.387H120.566C120.801 60.387 120.992 60.1973 120.992 59.9634V58.6361ZM115.27 45.7293C115.27 45.4953 115.079 45.3043 114.844 45.3043H113.51C113.275 45.3043 113.084 45.4953 113.084 45.7293V47.0566C113.084 47.2911 113.275 47.4816 113.51 47.4816H114.844C115.079 47.4816 115.27 47.2911 115.27 47.0566V45.7293ZM115.27 52.3006C115.27 52.0661 115.079 51.8756 114.844 51.8756H113.51C113.275 51.8756 113.084 52.0661 113.084 52.3006V53.6289C113.084 53.8619 113.275 54.0529 113.51 54.0529H114.844C115.079 54.0529 115.27 53.8619 115.27 53.6289V52.3006ZM115.27 58.6361C115.27 58.4021 115.079 58.2111 114.844 58.2111H113.51C113.275 58.2111 113.084 58.4021 113.084 58.6361V59.9634C113.084 60.1973 113.275 60.387 113.51 60.387H114.844C115.079 60.387 115.27 60.1973 115.27 59.9634V58.6361ZM109.547 39.4287C109.547 39.1948 109.356 39.0051 109.121 39.0051H107.787C107.553 39.0051 107.362 39.1948 107.362 39.4287V40.7569C107.362 40.9914 107.553 41.181 107.787 41.181H109.121C109.356 41.181 109.547 40.9914 109.547 40.7569V39.4287ZM109.547 45.7293C109.547 45.4953 109.356 45.3043 109.121 45.3043H107.787C107.553 45.3043 107.362 45.4953 107.362 45.7293V47.0566C107.362 47.2911 107.553 47.4816 107.787 47.4816H109.121C109.356 47.4816 109.547 47.2911 109.547 47.0566V45.7293ZM109.547 52.3006C109.547 52.0661 109.356 51.8756 109.121 51.8756H107.787C107.553 51.8756 107.362 52.0661 107.362 52.3006V53.6289C107.362 53.8619 107.553 54.0529 107.787 54.0529H109.121C109.356 54.0529 109.547 53.8619 109.547 53.6289V52.3006ZM109.547 58.6361C109.547 58.4021 109.356 58.2111 109.121 58.2111H107.787C107.553 58.2111 107.362 58.4021 107.362 58.6361V59.9634C107.362 60.1973 107.553 60.387 107.787 60.387H109.121C109.356 60.387 109.547 60.1973 109.547 59.9634V58.6361ZM103.825 39.4287C103.825 39.1948 103.634 39.0051 103.399 39.0051H102.065C101.83 39.0051 101.639 39.1948 101.639 39.4287V40.7569C101.639 40.9914 101.83 41.181 102.065 41.181H103.399C103.634 41.181 103.825 40.9914 103.825 40.7569V39.4287ZM103.825 45.7293C103.825 45.4953 103.634 45.3043 103.399 45.3043H102.065C101.83 45.3043 101.639 45.4953 101.639 45.7293V47.0566C101.639 47.2911 101.83 47.4816 102.065 47.4816H103.399C103.634 47.4816 103.825 47.2911 103.825 47.0566V45.7293ZM103.825 52.3006C103.825 52.0661 103.634 51.8756 103.399 51.8756H102.065C101.83 51.8756 101.639 52.0661 101.639 52.3006V53.6289C101.639 53.8619 101.83 54.0529 102.065 54.0529H103.399C103.634 54.0529 103.825 53.8619 103.825 53.6289V52.3006ZM103.825 58.6361C103.825 58.4021 103.634 58.2111 103.399 58.2111H102.065C101.83 58.2111 101.639 58.4021 101.639 58.6361V59.9634C101.639 60.1973 101.83 60.387 102.065 60.387H103.399C103.634 60.387 103.825 60.1973 103.825 59.9634V58.6361ZM99.6154 39.0029C99.6154 38.7636 99.4206 38.5694 99.1805 38.5694H93.3169C92.6206 39.1269 91.364 40.1693 89.7497 41.5202H99.1805C99.4206 41.5202 99.6154 41.3258 99.6154 41.0867V39.0029ZM99.6154 45.4242C99.6154 45.185 99.4206 44.9917 99.1805 44.9917H85.6231C84.5101 45.9312 83.3349 46.925 82.1346 47.9414H99.1805C99.4206 47.9414 99.6154 47.7486 99.6154 47.5094V45.4242ZM99.6154 51.8464C99.6154 51.6078 99.4206 51.4129 99.1805 51.4129H78.0426C76.8646 52.4143 75.6993 53.4052 74.5734 54.3642H99.1805C99.4206 54.3642 99.6154 54.1698 99.6154 53.9307V51.8464ZM99.6154 57.8357H70.5018C69.1694 58.9729 67.9951 59.9775 67.0535 60.7854H99.6154V57.8357ZM132.815 62.0533C94.8152 62.0533 67.4126 62.0533 63.8638 62.0533C68.5152 58.0347 89.4433 40.2212 91.9641 38.2831C95.1524 35.8318 101.62 35.879 101.62 35.879H133.421C133.134 36.4285 132.815 37.9038 132.815 40.2985C132.815 42.2856 132.815 59.4913 132.815 62.0533ZM145.648 20.1578L142.881 14.5463C141.952 12.6639 140.03 11.4725 137.924 11.4725H124.166C123.858 11.4725 123.629 11.7573 123.698 12.0569L125.553 20.1578H145.648ZM259.462 21.4002C258.76 21.154 258.02 21.0271 257.274 21.0271H240.813C240.51 21.0271 240.264 21.2723 240.264 21.5742V24.5094H268.315L259.462 21.4002ZM136.507 58.6654C136.507 58.9116 136.709 59.112 136.957 59.112H141.062C141.311 59.112 141.512 58.9116 141.512 58.6654V54.8618C141.512 54.6142 141.311 54.4137 141.062 54.4137H136.957C136.709 54.4137 136.507 54.6142 136.507 54.8618V58.6654ZM136.507 51.5445C136.507 51.7922 136.709 51.9926 136.957 51.9926H141.062C141.311 51.9926 141.512 51.7922 141.512 51.5445V47.7424C141.512 47.4948 141.311 47.2943 141.062 47.2943H136.957C136.709 47.2943 136.507 47.4948 136.507 47.7424V51.5445ZM136.507 44.4242C136.507 44.6718 136.709 44.8723 136.957 44.8723H141.062C141.311 44.8723 141.512 44.6718 141.512 44.4242V40.6221C141.512 40.3744 141.311 40.174 141.062 40.174H136.957C136.709 40.174 136.507 40.3744 136.507 40.6221V44.4242ZM143.376 58.6654C143.376 58.9116 143.577 59.112 143.825 59.112H147.931C148.179 59.112 148.38 58.9116 148.38 58.6654V54.8618C148.38 54.6142 148.179 54.4137 147.931 54.4137H143.825C143.577 54.4137 143.376 54.6142 143.376 54.8618V58.6654ZM143.376 51.5445C143.376 51.7922 143.577 51.9926 143.825 51.9926H147.931C148.179 51.9926 148.38 51.7922 148.38 51.5445V47.7424C148.38 47.4948 148.179 47.2943 147.931 47.2943H143.825C143.577 47.2943 143.376 47.4948 143.376 47.7424V51.5445ZM143.376 44.4242C143.376 44.6718 143.577 44.8723 143.825 44.8723H147.931C148.179 44.8723 148.38 44.6718 148.38 44.4242V40.6221C148.38 40.3744 148.179 40.174 147.931 40.174H143.825C143.577 40.174 143.376 40.3744 143.376 40.6221V44.4242ZM150.245 58.6654C150.245 58.9116 150.446 59.112 150.694 59.112H154.799C155.048 59.112 155.249 58.9116 155.249 58.6654V54.8618C155.249 54.6142 155.048 54.4137 154.799 54.4137H150.694C150.446 54.4137 150.245 54.6142 150.245 54.8618V58.6654ZM150.245 51.5445C150.245 51.7922 150.446 51.9926 150.694 51.9926H154.799C155.048 51.9926 155.249 51.7922 155.249 51.5445V47.7424C155.249 47.4948 155.048 47.2943 154.799 47.2943H150.694C150.446 47.2943 150.245 47.4948 150.245 47.7424V51.5445ZM150.245 44.4242C150.245 44.6718 150.446 44.8723 150.694 44.8723H154.799C155.048 44.8723 155.249 44.6718 155.249 44.4242V40.6221C155.249 40.3744 155.048 40.174 154.799 40.174H150.694C150.446 40.174 150.245 40.3744 150.245 40.6221V44.4242ZM157.113 58.6654C157.113 58.9116 157.314 59.112 157.563 59.112H161.668C161.916 59.112 162.117 58.9116 162.117 58.6654V54.8618C162.117 54.6142 161.916 54.4137 161.668 54.4137H157.563C157.314 54.4137 157.113 54.6142 157.113 54.8618V58.6654ZM157.113 51.5445C157.113 51.7922 157.314 51.9926 157.563 51.9926H161.668C161.916 51.9926 162.117 51.7922 162.117 51.5445V47.7424C162.117 47.4948 161.916 47.2943 161.668 47.2943H157.563C157.314 47.2943 157.113 47.4948 157.113 47.7424V51.5445ZM157.113 44.4242C157.113 44.6718 157.314 44.8723 157.563 44.8723H161.668C161.916 44.8723 162.117 44.6718 162.117 44.4242V40.6221C162.117 40.3744 161.916 40.174 161.668 40.174H157.563C157.314 40.174 157.113 40.3744 157.113 40.6221V44.4242ZM134.649 38.5802H164.129L164.101 62.0533H134.649V38.5802ZM139.296 34.1814H144.902C145.061 34.1814 145.207 34.1027 145.294 33.9701L146.915 31.5236C147.126 31.207 146.858 30.7581 146.464 30.7581H141.205C141.056 30.7581 140.915 30.8269 140.822 30.9439L138.939 33.3362C138.668 33.6801 138.877 34.1814 139.296 34.1814ZM147.957 34.1814H153.563C153.721 34.1814 153.855 34.1027 153.922 33.9701L155.16 31.5236C155.321 31.207 154.983 30.7581 154.588 30.7581H149.329C149.18 30.7581 149.049 30.8269 148.975 30.9439L147.467 33.3362C147.25 33.6801 147.537 34.1814 147.957 34.1814ZM156.366 34.1814H161.973C162.132 34.1814 162.253 34.1027 162.299 33.9701L163.166 31.5236C163.278 31.207 162.872 30.7581 162.479 30.7581H157.219C157.071 30.7581 156.949 30.8269 156.894 30.9439L155.749 33.3362C155.584 33.6801 155.947 34.1814 156.366 34.1814ZM171.732 29.7897C171.732 30.0242 171.924 30.2147 172.159 30.2147H173.493C173.728 30.2147 173.918 30.0242 173.918 29.7897V28.4625C173.918 28.2284 173.728 28.0374 173.493 28.0374H172.159C171.924 28.0374 171.732 28.2284 171.732 28.4625V29.7897ZM177.117 29.7897C177.117 30.0242 177.309 30.2147 177.544 30.2147H178.877C179.112 30.2147 179.302 30.0242 179.302 29.7897V28.4625C179.302 28.2284 179.112 28.0374 178.877 28.0374H177.544C177.309 28.0374 177.117 28.2284 177.117 28.4625V29.7897ZM182.502 29.7897C182.502 30.0242 182.693 30.2147 182.928 30.2147H184.262C184.497 30.2147 184.687 30.0242 184.687 29.7897V28.4625C184.687 28.2284 184.497 28.0374 184.262 28.0374H182.928C182.693 28.0374 182.502 28.2284 182.502 28.4625V29.7897ZM187.887 29.7897C187.887 30.0242 188.078 30.2147 188.313 30.2147H189.647C189.882 30.2147 190.072 30.0242 190.072 29.7897V28.4625C190.072 28.2284 189.882 28.0374 189.647 28.0374H188.313C188.078 28.0374 187.887 28.2284 187.887 28.4625V29.7897ZM193.273 29.7897C193.273 30.0242 193.463 30.2147 193.698 30.2147H195.032C195.267 30.2147 195.458 30.0242 195.458 29.7897V28.4625C195.458 28.2284 195.267 28.0374 195.032 28.0374H193.698C193.463 28.0374 193.273 28.2284 193.273 28.4625V29.7897ZM198.658 29.7897C198.658 30.0242 198.848 30.2147 199.083 30.2147H200.417C200.652 30.2147 200.843 30.0242 200.843 29.7897V28.4625C200.843 28.2284 200.652 28.0374 200.417 28.0374H199.083C198.848 28.0374 198.658 28.2284 198.658 28.4625V29.7897ZM204.043 29.7897C204.043 30.0242 204.233 30.2147 204.468 30.2147H205.802C206.037 30.2147 206.228 30.0242 206.228 29.7897V28.4625C206.228 28.2284 206.037 28.0374 205.802 28.0374H204.468C204.233 28.0374 204.043 28.2284 204.043 28.4625V29.7897ZM209.427 29.7897C209.427 30.0242 209.618 30.2147 209.854 30.2147H211.186C211.421 30.2147 211.613 30.0242 211.613 29.7897V28.4625C211.613 28.2284 211.421 28.0374 211.186 28.0374H209.854C209.618 28.0374 209.427 28.2284 209.427 28.4625V29.7897ZM237.21 29.7897C237.21 30.0242 237.4 30.2147 237.635 30.2147H238.969C239.203 30.2147 239.395 30.0242 239.395 29.7897V28.4625C239.395 28.2284 239.203 28.0374 238.969 28.0374H237.635C237.4 28.0374 237.21 28.2284 237.21 28.4625V29.7897ZM242.593 29.7897C242.593 30.0242 242.785 30.2147 243.02 30.2147H244.353C244.588 30.2147 244.78 30.0242 244.78 29.7897V28.4625C244.78 28.2284 244.588 28.0374 244.353 28.0374H243.02C242.785 28.0374 242.593 28.2284 242.593 28.4625V29.7897ZM247.979 29.7897C247.979 30.0242 248.169 30.2147 248.404 30.2147H249.738C249.973 30.2147 250.164 30.0242 250.164 29.7897V28.4625C250.164 28.2284 249.973 28.0374 249.738 28.0374H248.404C248.169 28.0374 247.979 28.2284 247.979 28.4625V29.7897ZM253.364 29.7897C253.364 30.0242 253.554 30.2147 253.789 30.2147H255.123C255.358 30.2147 255.549 30.0242 255.549 29.7897V28.4625C255.549 28.2284 255.358 28.0374 255.123 28.0374H253.789C253.554 28.0374 253.364 28.2284 253.364 28.4625V29.7897ZM258.749 29.7897C258.749 30.0242 258.939 30.2147 259.174 30.2147H260.508C260.744 30.2147 260.934 30.0242 260.934 29.7897V28.4625C260.934 28.2284 260.744 28.0374 260.508 28.0374H259.174C258.939 28.0374 258.749 28.2284 258.749 28.4625V29.7897ZM264.134 29.7897C264.134 30.0242 264.324 30.2147 264.56 30.2147H265.893C266.129 30.2147 266.319 30.0242 266.319 29.7897V28.4625C266.319 28.2284 266.129 28.0374 265.893 28.0374H264.56C264.324 28.0374 264.134 28.2284 264.134 28.4625V29.7897ZM269.519 29.7897C269.519 30.0242 269.709 30.2147 269.945 30.2147H271.279C271.514 30.2147 271.704 30.0242 271.704 29.7897V28.4625C271.704 28.2284 271.514 28.0374 271.279 28.0374H269.945C269.709 28.0374 269.519 28.2284 269.519 28.4625V29.7897ZM274.903 29.7897C274.903 30.0242 275.095 30.2147 275.33 30.2147H276.662C276.898 30.2147 277.089 30.0242 277.089 29.7897V28.4625C277.089 28.2284 276.898 28.0374 276.662 28.0374H275.33C275.095 28.0374 274.903 28.2284 274.903 28.4625V29.7897ZM126.068 22.4085H146.759L147.589 24.0915C147.575 24.0915 147.561 24.1047 147.548 24.1146C147.815 24.0928 147.977 24.0915 147.977 24.0915C147.977 24.0915 149.721 24.0915 152.648 24.0915C156.101 24.0915 161.879 24.0915 167.794 24.0915C167.901 24.0915 168.081 24.1425 168.132 24.3259C168.167 24.4513 168.086 24.7717 168.08 24.7957C167.878 25.4947 167.593 26.4644 167.593 26.4644C167.593 26.4644 296.054 26.4644 301.979 26.4644C309.757 26.4644 314.317 31.5779 314.317 31.5779H314.182H165.944C165.217 32.9329 164.18 35.7899 164.135 36.5298H134.877C135.185 35.3054 135.699 34.6342 135.699 34.6342C135.699 34.6342 135.895 34.3706 136.214 33.9493C135.462 33.947 134.373 33.9456 134.376 33.9433H128.711L126.068 22.4085ZM316.36 36.2969H314.293C313.928 36.2969 313.632 36.5912 313.632 36.9549V39.0147C313.632 39.3769 313.928 39.6717 314.293 39.6717H316.36C316.725 39.6717 317.021 39.3769 317.021 39.0147V36.9549C317.021 36.5912 316.725 36.2969 316.36 36.2969ZM319.047 60.9279C319.047 61.2916 319.343 61.5859 319.708 61.5859H321.776C322.141 61.5859 322.437 61.2916 322.437 60.9279V58.8691C322.437 58.5058 322.141 58.2111 321.776 58.2111H319.708C319.343 58.2111 319.047 58.5058 319.047 58.8691V60.9279ZM319.047 55.4495C319.047 55.8132 319.343 56.1079 319.708 56.1079H321.776C322.141 56.1079 322.437 55.8132 322.437 55.4495V53.3911C322.437 53.0274 322.141 52.7327 321.776 52.7327H319.708C319.343 52.7327 319.047 53.0274 319.047 53.3911V55.4495ZM319.047 49.9715C319.047 50.3347 319.343 50.6295 319.708 50.6295H321.776C322.141 50.6295 322.437 50.3347 322.437 49.9715V47.9112C322.437 47.549 322.141 47.2547 321.776 47.2547H319.708C319.343 47.2547 319.047 47.549 319.047 47.9112V49.9715ZM319.047 44.4931C319.047 44.8567 319.343 45.1501 319.708 45.1501H321.776C322.141 45.1501 322.437 44.8567 322.437 44.4931V42.4333C322.437 42.0696 322.141 41.7763 321.776 41.7763H319.708C319.343 41.7763 319.047 42.0696 319.047 42.4333V44.4931ZM319.047 39.0147C319.047 39.3769 319.343 39.6717 319.708 39.6717H321.776C322.141 39.6717 322.437 39.3769 322.437 39.0147V36.9549C322.437 36.5912 322.141 36.2969 321.776 36.2969H319.708C319.343 36.2969 319.047 36.5912 319.047 36.9549V39.0147ZM326.764 59.0771H380.942C379.073 58.2243 376.887 57.2273 374.477 56.1272H326.764V59.0771ZM326.764 52.2232C326.764 52.4624 326.96 52.6558 327.2 52.6558H366.873C364.769 51.6955 362.6 50.7045 360.409 49.7046H327.2C326.96 49.7046 326.764 49.8988 326.764 50.1381V52.2232ZM326.764 45.8006C326.764 46.0396 326.96 46.2331 327.2 46.2331H352.806C350.597 45.2246 348.426 44.2346 346.343 43.2832H327.2C326.96 43.2832 326.764 43.4762 326.764 43.7153V45.8006ZM326.764 39.3783C326.764 39.6175 326.96 39.8117 327.2 39.8117H338.741C336.226 38.6632 334.027 37.6586 332.282 36.8605H327.2C326.96 36.8605 326.764 37.0548 326.764 37.294V39.3783ZM317.021 42.4333C317.021 42.0696 316.725 41.7763 316.36 41.7763H314.293C313.928 41.7763 313.632 42.0696 313.632 42.4333V44.4931C313.632 44.8567 313.928 45.1501 314.293 45.1501H316.36C316.725 45.1501 317.021 44.8567 317.021 44.4931V42.4333ZM317.021 47.9112C317.021 47.549 316.725 47.2547 316.36 47.2547H314.293C313.928 47.2547 313.632 47.549 313.632 47.9112V49.9715C313.632 50.3347 313.928 50.6295 314.293 50.6295H316.36C316.725 50.6295 317.021 50.3347 317.021 49.9715V47.9112ZM317.021 53.3911C317.021 53.0274 316.725 52.7327 316.36 52.7327H314.293C313.928 52.7327 313.632 53.0274 313.632 53.3911V55.4495C313.632 55.8132 313.928 56.1079 314.293 56.1079H316.36C316.725 56.1079 317.021 55.8132 317.021 55.4495V53.3911ZM317.021 58.8691C317.021 58.5058 316.725 58.2111 316.36 58.2111H314.293C313.928 58.2111 313.632 58.5058 313.632 58.8691V60.9279C313.632 61.2916 313.928 61.5859 314.293 61.5859H316.36C316.725 61.5859 317.021 61.2916 317.021 60.9279V58.8691ZM311.604 36.9549C311.604 36.5912 311.31 36.2969 310.945 36.2969H308.876C308.511 36.2969 308.216 36.5912 308.216 36.9549V39.0147C308.216 39.3769 308.511 39.6717 308.876 39.6717H310.945C311.31 39.6717 311.604 39.3769 311.604 39.0147V36.9549ZM311.604 42.4333C311.604 42.0696 311.31 41.7763 310.945 41.7763H308.876C308.511 41.7763 308.216 42.0696 308.216 42.4333V44.4931C308.216 44.8567 308.511 45.1501 308.876 45.1501H310.945C311.31 45.1501 311.604 44.8567 311.604 44.4931V42.4333ZM311.604 47.9112C311.604 47.549 311.31 47.2547 310.945 47.2547H308.876C308.511 47.2547 308.216 47.549 308.216 47.9112V49.9715C308.216 50.3347 308.511 50.6295 308.876 50.6295H310.945C311.31 50.6295 311.604 50.3347 311.604 49.9715V47.9112ZM311.604 53.3911C311.604 53.0274 311.31 52.7327 310.945 52.7327H308.876C308.511 52.7327 308.216 53.0274 308.216 53.3911V55.4495C308.216 55.8132 308.511 56.1079 308.876 56.1079H310.945C311.31 56.1079 311.604 55.8132 311.604 55.4495V53.3911ZM311.604 58.8691C311.604 58.5058 311.31 58.2111 310.945 58.2111H308.876C308.511 58.2111 308.216 58.5058 308.216 58.8691V60.9279C308.216 61.2916 308.511 61.5859 308.876 61.5859H310.945C311.31 61.5859 311.604 61.2916 311.604 60.9279V58.8691ZM306.189 36.9549C306.189 36.5912 305.893 36.2969 305.528 36.2969H303.461C303.096 36.2969 302.8 36.5912 302.8 36.9549V39.0147C302.8 39.3769 303.096 39.6717 303.461 39.6717H305.528C305.893 39.6717 306.189 39.3769 306.189 39.0147V36.9549ZM306.189 42.4333C306.189 42.0696 305.893 41.7763 305.528 41.7763H303.461C303.096 41.7763 302.8 42.0696 302.8 42.4333V44.4931C302.8 44.8567 303.096 45.1501 303.461 45.1501H305.528C305.893 45.1501 306.189 44.8567 306.189 44.4931V42.4333ZM306.189 47.9112C306.189 47.549 305.893 47.2547 305.528 47.2547H303.461C303.096 47.2547 302.8 47.549 302.8 47.9112V49.9715C302.8 50.3347 303.096 50.6295 303.461 50.6295H305.528C305.893 50.6295 306.189 50.3347 306.189 49.9715V47.9112ZM306.189 53.3911C306.189 53.0274 305.893 52.7327 305.528 52.7327H303.461C303.096 52.7327 302.8 53.0274 302.8 53.3911V55.4495C302.8 55.8132 303.096 56.1079 303.461 56.1079H305.528C305.893 56.1079 306.189 55.8132 306.189 55.4495V53.3911ZM306.189 58.8691C306.189 58.5058 305.893 58.2111 305.528 58.2111H303.461C303.096 58.2111 302.8 58.5058 302.8 58.8691V60.9279C302.8 61.2916 303.096 61.5859 303.461 61.5859H305.528C305.893 61.5859 306.189 61.2916 306.189 60.9279V58.8691ZM300.774 36.9549C300.774 36.5912 300.478 36.2969 300.113 36.2969H298.045C297.68 36.2969 297.384 36.5912 297.384 36.9549V39.0147C297.384 39.3769 297.68 39.6717 298.045 39.6717H300.113C300.478 39.6717 300.774 39.3769 300.774 39.0147V36.9549ZM300.774 42.4333C300.774 42.0696 300.478 41.7763 300.113 41.7763H298.045C297.68 41.7763 297.384 42.0696 297.384 42.4333V44.4931C297.384 44.8567 297.68 45.1501 298.045 45.1501H300.113C300.478 45.1501 300.774 44.8567 300.774 44.4931V42.4333ZM300.774 47.9112C300.774 47.549 300.478 47.2547 300.113 47.2547H298.045C297.68 47.2547 297.384 47.549 297.384 47.9112V49.9715C297.384 50.3347 297.68 50.6295 298.045 50.6295H300.113C300.478 50.6295 300.774 50.3347 300.774 49.9715V47.9112ZM300.774 53.3911C300.774 53.0274 300.478 52.7327 300.113 52.7327H298.045C297.68 52.7327 297.384 53.0274 297.384 53.3911V55.4495C297.384 55.8132 297.68 56.1079 298.045 56.1079H300.113C300.478 56.1079 300.774 55.8132 300.774 55.4495V53.3911ZM300.774 58.8691C300.774 58.5058 300.478 58.2111 300.113 58.2111H298.045C297.68 58.2111 297.384 58.5058 297.384 58.8691V60.9279C297.384 61.2916 297.68 61.5859 298.045 61.5859H300.113C300.478 61.5859 300.774 61.2916 300.774 60.9279V58.8691ZM295.357 42.4333C295.357 42.0696 295.062 41.7763 294.697 41.7763H292.629C292.265 41.7763 291.969 42.0696 291.969 42.4333V44.4931C291.969 44.8567 292.265 45.1501 292.629 45.1501H294.697C295.062 45.1501 295.357 44.8567 295.357 44.4931V42.4333ZM295.357 47.9112C295.357 47.549 295.062 47.2547 294.697 47.2547H292.629C292.265 47.2547 291.969 47.549 291.969 47.9112V49.9715C291.969 50.3347 292.265 50.6295 292.629 50.6295H294.697C295.062 50.6295 295.357 50.3347 295.357 49.9715V47.9112ZM295.357 53.3911C295.357 53.0274 295.062 52.7327 294.697 52.7327H292.629C292.265 52.7327 291.969 53.0274 291.969 53.3911V55.4495C291.969 55.8132 292.265 56.1079 292.629 56.1079H294.697C295.062 56.1079 295.357 55.8132 295.357 55.4495V53.3911ZM295.357 58.8691C295.357 58.5058 295.062 58.2111 294.697 58.2111H292.629C292.265 58.2111 291.969 58.5058 291.969 58.8691V60.9279C291.969 61.2916 292.265 61.5859 292.629 61.5859H294.697C295.062 61.5859 295.357 61.2916 295.357 60.9279V58.8691ZM289.942 47.9112C289.942 47.549 289.646 47.2547 289.281 47.2547H287.213C286.848 47.2547 286.552 47.549 286.552 47.9112V49.9715C286.552 50.3347 286.848 50.6295 287.213 50.6295H289.281C289.646 50.6295 289.942 50.3347 289.942 49.9715V47.9112ZM289.942 53.3911C289.942 53.0274 289.646 52.7327 289.281 52.7327H287.213C286.848 52.7327 286.552 53.0274 286.552 53.3911V55.4495C286.552 55.8132 286.848 56.1079 287.213 56.1079H289.281C289.646 56.1079 289.942 55.8132 289.942 55.4495V53.3911ZM289.942 58.8691C289.942 58.5058 289.646 58.2111 289.281 58.2111H287.213C286.848 58.2111 286.552 58.5058 286.552 58.8691V60.9279C286.552 61.2916 286.848 61.5859 287.213 61.5859H289.281C289.646 61.5859 289.942 61.2916 289.942 60.9279V58.8691ZM284.526 42.4333C284.526 42.0696 284.23 41.7763 283.865 41.7763H281.798C281.433 41.7763 281.137 42.0696 281.137 42.4333V44.4931C281.137 44.8567 281.433 45.1501 281.798 45.1501H283.865C284.23 45.1501 284.526 44.8567 284.526 44.4931V42.4333ZM284.526 47.9112C284.526 47.549 284.23 47.2547 283.865 47.2547H281.798C281.433 47.2547 281.137 47.549 281.137 47.9112V49.9715C281.137 50.3347 281.433 50.6295 281.798 50.6295H283.865C284.23 50.6295 284.526 50.3347 284.526 49.9715V47.9112ZM284.526 53.3911C284.526 53.0274 284.23 52.7327 283.865 52.7327H281.798C281.433 52.7327 281.137 53.0274 281.137 53.3911V55.4495C281.137 55.8132 281.433 56.1079 281.798 56.1079H283.865C284.23 56.1079 284.526 55.8132 284.526 55.4495V53.3911ZM284.526 58.8691C284.526 58.5058 284.23 58.2111 283.865 58.2111H281.798C281.433 58.2111 281.137 58.5058 281.137 58.8691V60.9279C281.137 61.2916 281.433 61.5859 281.798 61.5859H283.865C284.23 61.5859 284.526 61.2916 284.526 60.9279V58.8691ZM279.109 36.9549C279.109 36.5912 278.815 36.2969 278.45 36.2969H276.381C276.017 36.2969 275.721 36.5912 275.721 36.9549V39.0147C275.721 39.3769 276.017 39.6717 276.381 39.6717H278.45C278.815 39.6717 279.109 39.3769 279.109 39.0147V36.9549ZM279.109 42.4333C279.109 42.0696 278.815 41.7763 278.45 41.7763H276.381C276.017 41.7763 275.721 42.0696 275.721 42.4333V44.4931C275.721 44.8567 276.017 45.1501 276.381 45.1501H278.45C278.815 45.1501 279.109 44.8567 279.109 44.4931V42.4333ZM279.109 47.9112C279.109 47.549 278.815 47.2547 278.45 47.2547H276.381C276.017 47.2547 275.721 47.549 275.721 47.9112V49.9715C275.721 50.3347 276.017 50.6295 276.381 50.6295H278.45C278.815 50.6295 279.109 50.3347 279.109 49.9715V47.9112ZM279.109 53.3911C279.109 53.0274 278.815 52.7327 278.45 52.7327H276.381C276.017 52.7327 275.721 53.0274 275.721 53.3911V55.4495C275.721 55.8132 276.017 56.1079 276.381 56.1079H278.45C278.815 56.1079 279.109 55.8132 279.109 55.4495V53.3911ZM279.109 58.8691C279.109 58.5058 278.815 58.2111 278.45 58.2111H276.381C276.017 58.2111 275.721 58.5058 275.721 58.8691V60.9279C275.721 61.2916 276.017 61.5859 276.381 61.5859H278.45C278.815 61.5859 279.109 61.2916 279.109 60.9279V58.8691ZM273.694 36.9549C273.694 36.5912 273.398 36.2969 273.033 36.2969H270.966C270.601 36.2969 270.305 36.5912 270.305 36.9549V39.0147C270.305 39.3769 270.601 39.6717 270.966 39.6717H273.033C273.398 39.6717 273.694 39.3769 273.694 39.0147V36.9549ZM273.694 42.4333C273.694 42.0696 273.398 41.7763 273.033 41.7763H270.966C270.601 41.7763 270.305 42.0696 270.305 42.4333V44.4931C270.305 44.8567 270.601 45.1501 270.966 45.1501H273.033C273.398 45.1501 273.694 44.8567 273.694 44.4931V42.4333ZM273.694 47.9112C273.694 47.549 273.398 47.2547 273.033 47.2547H270.966C270.601 47.2547 270.305 47.549 270.305 47.9112V49.9715C270.305 50.3347 270.601 50.6295 270.966 50.6295H273.033C273.398 50.6295 273.694 50.3347 273.694 49.9715V47.9112ZM273.694 53.3911C273.694 53.0274 273.398 52.7327 273.033 52.7327H270.966C270.601 52.7327 270.305 53.0274 270.305 53.3911V55.4495C270.305 55.8132 270.601 56.1079 270.966 56.1079H273.033C273.398 56.1079 273.694 55.8132 273.694 55.4495V53.3911ZM273.694 58.8691C273.694 58.5058 273.398 58.2111 273.033 58.2111H270.966C270.601 58.2111 270.305 58.5058 270.305 58.8691V60.9279C270.305 61.2916 270.601 61.5859 270.966 61.5859H273.033C273.398 61.5859 273.694 61.2916 273.694 60.9279V58.8691ZM268.279 36.9549C268.279 36.5912 267.983 36.2969 267.618 36.2969H265.55C265.185 36.2969 264.889 36.5912 264.889 36.9549V39.0147C264.889 39.3769 265.185 39.6717 265.55 39.6717H267.618C267.983 39.6717 268.279 39.3769 268.279 39.0147V36.9549ZM268.279 42.4333C268.279 42.0696 267.983 41.7763 267.618 41.7763H265.55C265.185 41.7763 264.889 42.0696 264.889 42.4333V44.4931C264.889 44.8567 265.185 45.1501 265.55 45.1501H267.618C267.983 45.1501 268.279 44.8567 268.279 44.4931V42.4333ZM268.279 47.9112C268.279 47.549 267.983 47.2547 267.618 47.2547H265.55C265.185 47.2547 264.889 47.549 264.889 47.9112V49.9715C264.889 50.3347 265.185 50.6295 265.55 50.6295H267.618C267.983 50.6295 268.279 50.3347 268.279 49.9715V47.9112ZM268.279 53.3911C268.279 53.0274 267.983 52.7327 267.618 52.7327H265.55C265.185 52.7327 264.889 53.0274 264.889 53.3911V55.4495C264.889 55.8132 265.185 56.1079 265.55 56.1079H267.618C267.983 56.1079 268.279 55.8132 268.279 55.4495V53.3911ZM268.279 58.8691C268.279 58.5058 267.983 58.2111 267.618 58.2111H265.55C265.185 58.2111 264.889 58.5058 264.889 58.8691V60.9279C264.889 61.2916 265.185 61.5859 265.55 61.5859H267.618C267.983 61.5859 268.279 61.2916 268.279 60.9279V58.8691ZM262.862 36.9549C262.862 36.5912 262.567 36.2969 262.202 36.2969H260.134C259.77 36.2969 259.474 36.5912 259.474 36.9549V39.0147C259.474 39.3769 259.77 39.6717 260.134 39.6717H262.202C262.567 39.6717 262.862 39.3769 262.862 39.0147V36.9549ZM262.862 42.4333C262.862 42.0696 262.567 41.7763 262.202 41.7763H260.134C259.77 41.7763 259.474 42.0696 259.474 42.4333V44.4931C259.474 44.8567 259.77 45.1501 260.134 45.1501H262.202C262.567 45.1501 262.862 44.8567 262.862 44.4931V42.4333ZM262.862 47.9112C262.862 47.549 262.567 47.2547 262.202 47.2547H260.134C259.77 47.2547 259.474 47.549 259.474 47.9112V49.9715C259.474 50.3347 259.77 50.6295 260.134 50.6295H262.202C262.567 50.6295 262.862 50.3347 262.862 49.9715V47.9112ZM262.862 53.3911C262.862 53.0274 262.567 52.7327 262.202 52.7327H260.134C259.77 52.7327 259.474 53.0274 259.474 53.3911V55.4495C259.474 55.8132 259.77 56.1079 260.134 56.1079H262.202C262.567 56.1079 262.862 55.8132 262.862 55.4495V53.3911ZM262.862 58.8691C262.862 58.5058 262.567 58.2111 262.202 58.2111H260.134C259.77 58.2111 259.474 58.5058 259.474 58.8691V60.9279C259.474 61.2916 259.77 61.5859 260.134 61.5859H262.202C262.567 61.5859 262.862 61.2916 262.862 60.9279V58.8691ZM257.447 36.9549C257.447 36.5912 257.151 36.2969 256.787 36.2969H254.718C254.353 36.2969 254.057 36.5912 254.057 36.9549V39.0147C254.057 39.3769 254.353 39.6717 254.718 39.6717H256.787C257.151 39.6717 257.447 39.3769 257.447 39.0147V36.9549ZM257.447 42.4333C257.447 42.0696 257.151 41.7763 256.787 41.7763H254.718C254.353 41.7763 254.057 42.0696 254.057 42.4333V44.4931C254.057 44.8567 254.353 45.1501 254.718 45.1501H256.787C257.151 45.1501 257.447 44.8567 257.447 44.4931V42.4333ZM257.447 47.9112C257.447 47.549 257.151 47.2547 256.787 47.2547H254.718C254.353 47.2547 254.057 47.549 254.057 47.9112V49.9715C254.057 50.3347 254.353 50.6295 254.718 50.6295H256.787C257.151 50.6295 257.447 50.3347 257.447 49.9715V47.9112ZM257.447 53.3911C257.447 53.0274 257.151 52.7327 256.787 52.7327H254.718C254.353 52.7327 254.057 53.0274 254.057 53.3911V55.4495C254.057 55.8132 254.353 56.1079 254.718 56.1079H256.787C257.151 56.1079 257.447 55.8132 257.447 55.4495V53.3911ZM257.447 58.8691C257.447 58.5058 257.151 58.2111 256.787 58.2111H254.718C254.353 58.2111 254.057 58.5058 254.057 58.8691V60.9279C254.057 61.2916 254.353 61.5859 254.718 61.5859H256.787C257.151 61.5859 257.447 61.2916 257.447 60.9279V58.8691ZM252.031 36.9549C252.031 36.5912 251.735 36.2969 251.37 36.2969H249.303C248.938 36.2969 248.642 36.5912 248.642 36.9549V39.0147C248.642 39.3769 248.938 39.6717 249.303 39.6717H251.37C251.735 39.6717 252.031 39.3769 252.031 39.0147V36.9549ZM252.031 42.4333C252.031 42.0696 251.735 41.7763 251.37 41.7763H249.303C248.938 41.7763 248.642 42.0696 248.642 42.4333V44.4931C248.642 44.8567 248.938 45.1501 249.303 45.1501H251.37C251.735 45.1501 252.031 44.8567 252.031 44.4931V42.4333ZM252.031 47.9112C252.031 47.549 251.735 47.2547 251.37 47.2547H249.303C248.938 47.2547 248.642 47.549 248.642 47.9112V49.9715C248.642 50.3347 248.938 50.6295 249.303 50.6295H251.37C251.735 50.6295 252.031 50.3347 252.031 49.9715V47.9112ZM252.031 53.3911C252.031 53.0274 251.735 52.7327 251.37 52.7327H249.303C248.938 52.7327 248.642 53.0274 248.642 53.3911V55.4495C248.642 55.8132 248.938 56.1079 249.303 56.1079H251.37C251.735 56.1079 252.031 55.8132 252.031 55.4495V53.3911ZM252.031 58.8691C252.031 58.5058 251.735 58.2111 251.37 58.2111H249.303C248.938 58.2111 248.642 58.5058 248.642 58.8691V60.9279C248.642 61.2916 248.938 61.5859 249.303 61.5859H251.37C251.735 61.5859 252.031 61.2916 252.031 60.9279V58.8691ZM246.614 36.9549C246.614 36.5912 246.32 36.2969 245.955 36.2969H243.886C243.522 36.2969 243.226 36.5912 243.226 36.9549V39.0147C243.226 39.3769 243.522 39.6717 243.886 39.6717H245.955C246.32 39.6717 246.614 39.3769 246.614 39.0147V36.9549ZM246.614 42.4333C246.614 42.0696 246.32 41.7763 245.955 41.7763H243.886C243.522 41.7763 243.226 42.0696 243.226 42.4333V44.4931C243.226 44.8567 243.522 45.1501 243.886 45.1501H245.955C246.32 45.1501 246.614 44.8567 246.614 44.4931V42.4333ZM246.614 47.9112C246.614 47.549 246.32 47.2547 245.955 47.2547H243.886C243.522 47.2547 243.226 47.549 243.226 47.9112V49.9715C243.226 50.3347 243.522 50.6295 243.886 50.6295H245.955C246.32 50.6295 246.614 50.3347 246.614 49.9715V47.9112ZM246.614 53.3911C246.614 53.0274 246.32 52.7327 245.955 52.7327H243.886C243.522 52.7327 243.226 53.0274 243.226 53.3911V55.4495C243.226 55.8132 243.522 56.1079 243.886 56.1079H245.955C246.32 56.1079 246.614 55.8132 246.614 55.4495V53.3911ZM246.614 58.8691C246.614 58.5058 246.32 58.2111 245.955 58.2111H243.886C243.522 58.2111 243.226 58.5058 243.226 58.8691V60.9279C243.226 61.2916 243.522 61.5859 243.886 61.5859H245.955C246.32 61.5859 246.614 61.2916 246.614 60.9279V58.8691ZM241.199 36.9549C241.199 36.5912 240.903 36.2969 240.539 36.2969H238.471C238.106 36.2969 237.81 36.5912 237.81 36.9549V39.0147C237.81 39.3769 238.106 39.6717 238.471 39.6717H240.539C240.903 39.6717 241.199 39.3769 241.199 39.0147V36.9549ZM241.199 42.4333C241.199 42.0696 240.903 41.7763 240.539 41.7763H238.471C238.106 41.7763 237.81 42.0696 237.81 42.4333V44.4931C237.81 44.8567 238.106 45.1501 238.471 45.1501H240.539C240.903 45.1501 241.199 44.8567 241.199 44.4931V42.4333ZM241.199 47.9112C241.199 47.549 240.903 47.2547 240.539 47.2547H238.471C238.106 47.2547 237.81 47.549 237.81 47.9112V49.9715C237.81 50.3347 238.106 50.6295 238.471 50.6295H240.539C240.903 50.6295 241.199 50.3347 241.199 49.9715V47.9112ZM241.199 53.3911C241.199 53.0274 240.903 52.7327 240.539 52.7327H238.471C238.106 52.7327 237.81 53.0274 237.81 53.3911V55.4495C237.81 55.8132 238.106 56.1079 238.471 56.1079H240.539C240.903 56.1079 241.199 55.8132 241.199 55.4495V53.3911ZM241.199 58.8691C241.199 58.5058 240.903 58.2111 240.539 58.2111H238.471C238.106 58.2111 237.81 58.5058 237.81 58.8691V60.9279C237.81 61.2916 238.106 61.5859 238.471 61.5859H240.539C240.903 61.5859 241.199 61.2916 241.199 60.9279V58.8691ZM235.784 36.9549C235.784 36.5912 235.488 36.2969 235.123 36.2969H233.055C232.69 36.2969 232.394 36.5912 232.394 36.9549V39.0147C232.394 39.3769 232.69 39.6717 233.055 39.6717H235.123C235.488 39.6717 235.784 39.3769 235.784 39.0147V36.9549ZM235.784 42.4333C235.784 42.0696 235.488 41.7763 235.123 41.7763H233.055C232.69 41.7763 232.394 42.0696 232.394 42.4333V44.4931C232.394 44.8567 232.69 45.1501 233.055 45.1501H235.123C235.488 45.1501 235.784 44.8567 235.784 44.4931V42.4333ZM235.784 47.9112C235.784 47.549 235.488 47.2547 235.123 47.2547H233.055C232.69 47.2547 232.394 47.549 232.394 47.9112V49.9715C232.394 50.3347 232.69 50.6295 233.055 50.6295H235.123C235.488 50.6295 235.784 50.3347 235.784 49.9715V47.9112ZM235.784 53.3911C235.784 53.0274 235.488 52.7327 235.123 52.7327H233.055C232.69 52.7327 232.394 53.0274 232.394 53.3911V55.4495C232.394 55.8132 232.69 56.1079 233.055 56.1079H235.123C235.488 56.1079 235.784 55.8132 235.784 55.4495V53.3911ZM235.784 58.8691C235.784 58.5058 235.488 58.2111 235.123 58.2111H233.055C232.69 58.2111 232.394 58.5058 232.394 58.8691V60.9279C232.394 61.2916 232.69 61.5859 233.055 61.5859H235.123C235.488 61.5859 235.784 61.2916 235.784 60.9279V58.8691ZM230.367 42.4333C230.367 42.0696 230.072 41.7763 229.707 41.7763H227.639C227.275 41.7763 226.979 42.0696 226.979 42.4333V44.4931C226.979 44.8567 227.275 45.1501 227.639 45.1501H229.707C230.072 45.1501 230.367 44.8567 230.367 44.4931V42.4333ZM230.367 47.9112C230.367 47.549 230.072 47.2547 229.707 47.2547H227.639C227.275 47.2547 226.979 47.549 226.979 47.9112V49.9715C226.979 50.3347 227.275 50.6295 227.639 50.6295H229.707C230.072 50.6295 230.367 50.3347 230.367 49.9715V47.9112ZM230.367 53.3911C230.367 53.0274 230.072 52.7327 229.707 52.7327H227.639C227.275 52.7327 226.979 53.0274 226.979 53.3911V55.4495C226.979 55.8132 227.275 56.1079 227.639 56.1079H229.707C230.072 56.1079 230.367 55.8132 230.367 55.4495V53.3911ZM230.367 58.8691C230.367 58.5058 230.072 58.2111 229.707 58.2111H227.639C227.275 58.2111 226.979 58.5058 226.979 58.8691V60.9279C226.979 61.2916 227.275 61.5859 227.639 61.5859H229.707C230.072 61.5859 230.367 61.2916 230.367 60.9279V58.8691ZM224.951 47.9112C224.951 47.549 224.656 47.2547 224.292 47.2547H222.223C221.858 47.2547 221.562 47.549 221.562 47.9112V49.9715C221.562 50.3347 221.858 50.6295 222.223 50.6295H224.292C224.656 50.6295 224.951 50.3347 224.951 49.9715V47.9112ZM224.951 53.3911C224.951 53.0274 224.656 52.7327 224.292 52.7327H222.223C221.858 52.7327 221.562 53.0274 221.562 53.3911V55.4495C221.562 55.8132 221.858 56.1079 222.223 56.1079H224.292C224.656 56.1079 224.951 55.8132 224.951 55.4495V53.3911ZM224.951 58.8691C224.951 58.5058 224.656 58.2111 224.292 58.2111H222.223C221.858 58.2111 221.562 58.5058 221.562 58.8691V60.9279C221.562 61.2916 221.858 61.5859 222.223 61.5859H224.292C224.656 61.5859 224.951 61.2916 224.951 60.9279V58.8691ZM219.536 42.4333C219.536 42.0696 219.24 41.7763 218.875 41.7763H216.808C216.443 41.7763 216.147 42.0696 216.147 42.4333V44.4931C216.147 44.8567 216.443 45.1501 216.808 45.1501H218.875C219.24 45.1501 219.536 44.8567 219.536 44.4931V42.4333ZM219.536 47.9112C219.536 47.549 219.24 47.2547 218.875 47.2547H216.808C216.443 47.2547 216.147 47.549 216.147 47.9112V49.9715C216.147 50.3347 216.443 50.6295 216.808 50.6295H218.875C219.24 50.6295 219.536 50.3347 219.536 49.9715V47.9112ZM219.536 53.3911C219.536 53.0274 219.24 52.7327 218.875 52.7327H216.808C216.443 52.7327 216.147 53.0274 216.147 53.3911V55.4495C216.147 55.8132 216.443 56.1079 216.808 56.1079H218.875C219.24 56.1079 219.536 55.8132 219.536 55.4495V53.3911ZM219.536 58.8691C219.536 58.5058 219.24 58.2111 218.875 58.2111H216.808C216.443 58.2111 216.147 58.5058 216.147 58.8691V60.9279C216.147 61.2916 216.443 61.5859 216.808 61.5859H218.875C219.24 61.5859 219.536 61.2916 219.536 60.9279V58.8691ZM214.121 36.9549C214.121 36.5912 213.825 36.2969 213.46 36.2969H211.391C211.027 36.2969 210.731 36.5912 210.731 36.9549V39.0147C210.731 39.3769 211.027 39.6717 211.391 39.6717H213.46C213.825 39.6717 214.121 39.3769 214.121 39.0147V36.9549ZM214.121 42.4333C214.121 42.0696 213.825 41.7763 213.46 41.7763H211.391C211.027 41.7763 210.731 42.0696 210.731 42.4333V44.4931C210.731 44.8567 211.027 45.1501 211.391 45.1501H213.46C213.825 45.1501 214.121 44.8567 214.121 44.4931V42.4333ZM214.121 47.9112C214.121 47.549 213.825 47.2547 213.46 47.2547H211.391C211.027 47.2547 210.731 47.549 210.731 47.9112V49.9715C210.731 50.3347 211.027 50.6295 211.391 50.6295H213.46C213.825 50.6295 214.121 50.3347 214.121 49.9715V47.9112ZM214.121 53.3911C214.121 53.0274 213.825 52.7327 213.46 52.7327H211.391C211.027 52.7327 210.731 53.0274 210.731 53.3911V55.4495C210.731 55.8132 211.027 56.1079 211.391 56.1079H213.46C213.825 56.1079 214.121 55.8132 214.121 55.4495V53.3911ZM214.121 58.8691C214.121 58.5058 213.825 58.2111 213.46 58.2111H211.391C211.027 58.2111 210.731 58.5058 210.731 58.8691V60.9279C210.731 61.2916 211.027 61.5859 211.391 61.5859H213.46C213.825 61.5859 214.121 61.2916 214.121 60.9279V58.8691ZM208.704 36.9549C208.704 36.5912 208.408 36.2969 208.044 36.2969H205.976C205.611 36.2969 205.315 36.5912 205.315 36.9549V39.0147C205.315 39.3769 205.611 39.6717 205.976 39.6717H208.044C208.408 39.6717 208.704 39.3769 208.704 39.0147V36.9549ZM208.704 42.4333C208.704 42.0696 208.408 41.7763 208.044 41.7763H205.976C205.611 41.7763 205.315 42.0696 205.315 42.4333V44.4931C205.315 44.8567 205.611 45.1501 205.976 45.1501H208.044C208.408 45.1501 208.704 44.8567 208.704 44.4931V42.4333ZM208.704 47.9112C208.704 47.549 208.408 47.2547 208.044 47.2547H205.976C205.611 47.2547 205.315 47.549 205.315 47.9112V49.9715C205.315 50.3347 205.611 50.6295 205.976 50.6295H208.044C208.408 50.6295 208.704 50.3347 208.704 49.9715V47.9112ZM208.704 53.3911C208.704 53.0274 208.408 52.7327 208.044 52.7327H205.976C205.611 52.7327 205.315 53.0274 205.315 53.3911V55.4495C205.315 55.8132 205.611 56.1079 205.976 56.1079H208.044C208.408 56.1079 208.704 55.8132 208.704 55.4495V53.3911ZM208.704 58.8691C208.704 58.5058 208.408 58.2111 208.044 58.2111H205.976C205.611 58.2111 205.315 58.5058 205.315 58.8691V60.9279C205.315 61.2916 205.611 61.5859 205.976 61.5859H208.044C208.408 61.5859 208.704 61.2916 208.704 60.9279V58.8691ZM203.289 36.9549C203.289 36.5912 202.993 36.2969 202.628 36.2969H200.56C200.195 36.2969 199.899 36.5912 199.899 36.9549V39.0147C199.899 39.3769 200.195 39.6717 200.56 39.6717H202.628C202.993 39.6717 203.289 39.3769 203.289 39.0147V36.9549ZM203.289 42.4333C203.289 42.0696 202.993 41.7763 202.628 41.7763H200.56C200.195 41.7763 199.899 42.0696 199.899 42.4333V44.4931C199.899 44.8567 200.195 45.1501 200.56 45.1501H202.628C202.993 45.1501 203.289 44.8567 203.289 44.4931V42.4333ZM203.289 47.9112C203.289 47.549 202.993 47.2547 202.628 47.2547H200.56C200.195 47.2547 199.899 47.549 199.899 47.9112V49.9715C199.899 50.3347 200.195 50.6295 200.56 50.6295H202.628C202.993 50.6295 203.289 50.3347 203.289 49.9715V47.9112ZM203.289 53.3911C203.289 53.0274 202.993 52.7327 202.628 52.7327H200.56C200.195 52.7327 199.899 53.0274 199.899 53.3911V55.4495C199.899 55.8132 200.195 56.1079 200.56 56.1079H202.628C202.993 56.1079 203.289 55.8132 203.289 55.4495V53.3911ZM203.289 58.8691C203.289 58.5058 202.993 58.2111 202.628 58.2111H200.56C200.195 58.2111 199.899 58.5058 199.899 58.8691V60.9279C199.899 61.2916 200.195 61.5859 200.56 61.5859H202.628C202.993 61.5859 203.289 61.2916 203.289 60.9279V58.8691ZM197.873 36.9549C197.873 36.5912 197.577 36.2969 197.212 36.2969H195.144C194.78 36.2969 194.484 36.5912 194.484 36.9549V39.0147C194.484 39.3769 194.78 39.6717 195.144 39.6717H197.212C197.577 39.6717 197.873 39.3769 197.873 39.0147V36.9549ZM197.873 42.4333C197.873 42.0696 197.577 41.7763 197.212 41.7763H195.144C194.78 41.7763 194.484 42.0696 194.484 42.4333V44.4931C194.484 44.8567 194.78 45.1501 195.144 45.1501H197.212C197.577 45.1501 197.873 44.8567 197.873 44.4931V42.4333ZM197.873 47.9112C197.873 47.549 197.577 47.2547 197.212 47.2547H195.144C194.78 47.2547 194.484 47.549 194.484 47.9112V49.9715C194.484 50.3347 194.78 50.6295 195.144 50.6295H197.212C197.577 50.6295 197.873 50.3347 197.873 49.9715V47.9112ZM197.873 53.3911C197.873 53.0274 197.577 52.7327 197.212 52.7327H195.144C194.78 52.7327 194.484 53.0274 194.484 53.3911V55.4495C194.484 55.8132 194.78 56.1079 195.144 56.1079H197.212C197.577 56.1079 197.873 55.8132 197.873 55.4495V53.3911ZM197.873 58.8691C197.873 58.5058 197.577 58.2111 197.212 58.2111H195.144C194.78 58.2111 194.484 58.5058 194.484 58.8691V60.9279C194.484 61.2916 194.78 61.5859 195.144 61.5859H197.212C197.577 61.5859 197.873 61.2916 197.873 60.9279V58.8691ZM192.456 36.9549C192.456 36.5912 192.161 36.2969 191.797 36.2969H189.728C189.363 36.2969 189.068 36.5912 189.068 36.9549V39.0147C189.068 39.3769 189.363 39.6717 189.728 39.6717H191.797C192.161 39.6717 192.456 39.3769 192.456 39.0147V36.9549ZM192.456 42.4333C192.456 42.0696 192.161 41.7763 191.797 41.7763H189.728C189.363 41.7763 189.068 42.0696 189.068 42.4333V44.4931C189.068 44.8567 189.363 45.1501 189.728 45.1501H191.797C192.161 45.1501 192.456 44.8567 192.456 44.4931V42.4333ZM192.456 47.9112C192.456 47.549 192.161 47.2547 191.797 47.2547H189.728C189.363 47.2547 189.068 47.549 189.068 47.9112V49.9715C189.068 50.3347 189.363 50.6295 189.728 50.6295H191.797C192.161 50.6295 192.456 50.3347 192.456 49.9715V47.9112ZM192.456 53.3911C192.456 53.0274 192.161 52.7327 191.797 52.7327H189.728C189.363 52.7327 189.068 53.0274 189.068 53.3911V55.4495C189.068 55.8132 189.363 56.1079 189.728 56.1079H191.797C192.161 56.1079 192.456 55.8132 192.456 55.4495V53.3911ZM192.456 58.8691C192.456 58.5058 192.161 58.2111 191.797 58.2111H189.728C189.363 58.2111 189.068 58.5058 189.068 58.8691V60.9279C189.068 61.2916 189.363 61.5859 189.728 61.5859H191.797C192.161 61.5859 192.456 61.2916 192.456 60.9279V58.8691ZM187.041 36.9549C187.041 36.5912 186.745 36.2969 186.38 36.2969H184.313C183.948 36.2969 183.652 36.5912 183.652 36.9549V39.0147C183.652 39.3769 183.948 39.6717 184.313 39.6717H186.38C186.745 39.6717 187.041 39.3769 187.041 39.0147V36.9549ZM187.041 42.4333C187.041 42.0696 186.745 41.7763 186.38 41.7763H184.313C183.948 41.7763 183.652 42.0696 183.652 42.4333V44.4931C183.652 44.8567 183.948 45.1501 184.313 45.1501H186.38C186.745 45.1501 187.041 44.8567 187.041 44.4931V42.4333ZM187.041 47.9112C187.041 47.549 186.745 47.2547 186.38 47.2547H184.313C183.948 47.2547 183.652 47.549 183.652 47.9112V49.9715C183.652 50.3347 183.948 50.6295 184.313 50.6295H186.38C186.745 50.6295 187.041 50.3347 187.041 49.9715V47.9112ZM187.041 53.3911C187.041 53.0274 186.745 52.7327 186.38 52.7327H184.313C183.948 52.7327 183.652 53.0274 183.652 53.3911V55.4495C183.652 55.8132 183.948 56.1079 184.313 56.1079H186.38C186.745 56.1079 187.041 55.8132 187.041 55.4495V53.3911ZM187.041 58.8691C187.041 58.5058 186.745 58.2111 186.38 58.2111H184.313C183.948 58.2111 183.652 58.5058 183.652 58.8691V60.9279C183.652 61.2916 183.948 61.5859 184.313 61.5859H186.38C186.745 61.5859 187.041 61.2916 187.041 60.9279V58.8691ZM181.626 36.9549C181.626 36.5912 181.33 36.2969 180.965 36.2969H178.897C178.532 36.2969 178.236 36.5912 178.236 36.9549V39.0147C178.236 39.3769 178.532 39.6717 178.897 39.6717H180.965C181.33 39.6717 181.626 39.3769 181.626 39.0147V36.9549ZM181.626 42.4333C181.626 42.0696 181.33 41.7763 180.965 41.7763H178.897C178.532 41.7763 178.236 42.0696 178.236 42.4333V44.4931C178.236 44.8567 178.532 45.1501 178.897 45.1501H180.965C181.33 45.1501 181.626 44.8567 181.626 44.4931V42.4333ZM181.626 47.9112C181.626 47.549 181.33 47.2547 180.965 47.2547H178.897C178.532 47.2547 178.236 47.549 178.236 47.9112V49.9715C178.236 50.3347 178.532 50.6295 178.897 50.6295H180.965C181.33 50.6295 181.626 50.3347 181.626 49.9715V47.9112ZM181.626 53.3911C181.626 53.0274 181.33 52.7327 180.965 52.7327H178.897C178.532 52.7327 178.236 53.0274 178.236 53.3911V55.4495C178.236 55.8132 178.532 56.1079 178.897 56.1079H180.965C181.33 56.1079 181.626 55.8132 181.626 55.4495V53.3911ZM181.626 58.8691C181.626 58.5058 181.33 58.2111 180.965 58.2111H178.897C178.532 58.2111 178.236 58.5058 178.236 58.8691V60.9279C178.236 61.2916 178.532 61.5859 178.897 61.5859H180.965C181.33 61.5859 181.626 61.2916 181.626 60.9279V58.8691ZM176.209 36.9549C176.209 36.5912 175.913 36.2969 175.549 36.2969H173.481C173.116 36.2969 172.821 36.5912 172.821 36.9549V39.0147C172.821 39.3769 173.116 39.6717 173.481 39.6717H175.549C175.913 39.6717 176.209 39.3769 176.209 39.0147V36.9549ZM176.209 42.4333C176.209 42.0696 175.913 41.7763 175.549 41.7763H173.481C173.116 41.7763 172.821 42.0696 172.821 42.4333V44.4931C172.821 44.8567 173.116 45.1501 173.481 45.1501H175.549C175.913 45.1501 176.209 44.8567 176.209 44.4931V42.4333ZM176.209 47.9112C176.209 47.549 175.913 47.2547 175.549 47.2547H173.481C173.116 47.2547 172.821 47.549 172.821 47.9112V49.9715C172.821 50.3347 173.116 50.6295 173.481 50.6295H175.549C175.913 50.6295 176.209 50.3347 176.209 49.9715V47.9112ZM176.209 53.3911C176.209 53.0274 175.913 52.7327 175.549 52.7327H173.481C173.116 52.7327 172.821 53.0274 172.821 53.3911V55.4495C172.821 55.8132 173.116 56.1079 173.481 56.1079H175.549C175.913 56.1079 176.209 55.8132 176.209 55.4495V53.3911ZM176.209 58.8691C176.209 58.5058 175.913 58.2111 175.549 58.2111H173.481C173.116 58.2111 172.821 58.5058 172.821 58.8691V60.9279C172.821 61.2916 173.116 61.5859 173.481 61.5859H175.549C175.913 61.5859 176.209 61.2916 176.209 60.9279V58.8691ZM170.794 36.9549C170.794 36.5912 170.498 36.2969 170.133 36.2969H168.065C167.7 36.2969 167.404 36.5912 167.404 36.9549V39.0147C167.404 39.3769 167.7 39.6717 168.065 39.6717H170.133C170.498 39.6717 170.794 39.3769 170.794 39.0147V36.9549ZM170.794 42.4333C170.794 42.0696 170.498 41.7763 170.133 41.7763H168.065C167.7 41.7763 167.404 42.0696 167.404 42.4333V44.4931C167.404 44.8567 167.7 45.1501 168.065 45.1501H170.133C170.498 45.1501 170.794 44.8567 170.794 44.4931V42.4333ZM170.794 47.9112C170.794 47.549 170.498 47.2547 170.133 47.2547H168.065C167.7 47.2547 167.404 47.549 167.404 47.9112V49.9715C167.404 50.3347 167.7 50.6295 168.065 50.6295H170.133C170.498 50.6295 170.794 50.3347 170.794 49.9715V47.9112ZM170.794 53.3911C170.794 53.0274 170.498 52.7327 170.133 52.7327H168.065C167.7 52.7327 167.404 53.0274 167.404 53.3911V55.4495C167.404 55.8132 167.7 56.1079 168.065 56.1079H170.133C170.498 56.1079 170.794 55.8132 170.794 55.4495V53.3911ZM170.794 58.8691C170.794 58.5058 170.498 58.2111 170.133 58.2111H168.065C167.7 58.2111 167.404 58.5058 167.404 58.8691V60.9279C167.404 61.2916 167.7 61.5859 168.065 61.5859H170.133C170.498 61.5859 170.794 61.2916 170.794 60.9279V58.8691ZM314.317 33.4749C314.317 33.4749 318.169 33.4762 320.122 33.4749C322.935 33.4749 327.092 33.6956 329.879 34.9781C333.259 36.5308 389.178 62.0533 389.178 62.0533C344.777 62.0533 243.665 62.0533 165.789 62.0533V39.4037C165.789 39.4037 165.789 37.2916 166.217 35.879C166.298 35.612 166.589 34.6809 166.956 33.5145H314.182H314.317C314.317 33.5145 314.269 33.4626 314.198 33.3891C314.269 33.44 314.317 33.4749 314.317 33.4749ZM251.285 18.2414H242.771V11.1837C242.771 10.9578 242.591 10.7767 242.368 10.765C242.382 10.7272 242.392 10.6861 242.392 10.6428V0.322632C242.392 0.143929 242.247 0 242.068 0C241.889 0 241.743 0.143929 241.743 0.322632V10.6428C241.743 10.6861 241.753 10.7272 241.769 10.765C241.545 10.7767 241.365 10.9578 241.365 11.1837V18.2414H240.492V19.2894H251.285V18.2414ZM0.566034 92.6109C0.566034 92.2547 0.855919 91.9661 1.21401 91.9661H18.005C22.3131 91.9661 25.9419 91.1487 28.3424 90.6077C29.5678 90.3323 30.3774 90.1502 30.9154 90.1502C31.454 90.1502 32.3071 90.3422 33.4889 90.6077C35.8899 91.1487 39.5177 91.9661 43.8252 91.9661C48.0323 91.9661 51.5622 91.1714 53.8978 90.6464C55.1772 90.3578 56.1013 90.1502 56.7361 90.1502C57.3712 90.1502 58.2948 90.3578 59.5738 90.6464C61.9099 91.1714 65.4392 91.9661 69.6458 91.9661C73.854 91.9661 77.3852 91.1714 79.7217 90.6449C80.9996 90.3578 81.9224 90.1502 82.5561 90.1502C83.19 90.1502 84.1126 90.3578 85.3906 90.6449C87.7272 91.1714 91.2589 91.9661 95.4665 91.9661C99.7224 91.9661 103.302 91.1605 105.671 90.6271C106.902 90.3507 107.791 90.1502 108.377 90.1502C108.962 90.1502 109.851 90.3507 111.082 90.6271C113.451 91.1605 117.03 91.9661 121.287 91.9661C125.594 91.9661 129.222 91.1487 131.624 90.6077C132.849 90.3323 133.659 90.1502 134.196 90.1502C134.735 90.1502 135.545 90.3323 136.769 90.6077C139.17 91.1487 142.8 91.9661 147.107 91.9661C151.313 91.9661 154.844 91.1714 157.18 90.6464C158.459 90.3578 159.383 90.1502 160.017 90.1502C160.653 90.1502 161.575 90.3578 162.855 90.6464C165.19 91.1714 168.72 91.9661 172.926 91.9661C176.918 91.9661 180.077 91.244 182.383 90.7162C183.805 90.3917 184.927 90.1342 185.82 90.1342C186.71 90.1342 187.833 90.3917 189.254 90.7162C191.56 91.244 194.72 91.9661 198.71 91.9661C202.833 91.9661 206.144 91.087 208.563 90.4459C209.909 90.0884 210.882 89.8299 211.6 89.8299C212.317 89.8299 213.29 90.0884 214.636 90.4459C217.055 91.087 220.367 91.9661 224.489 91.9661C228.413 91.9661 231.521 90.8445 233.79 90.0257C235.254 89.497 236.41 89.0791 237.379 89.0791C238.349 89.0791 239.505 89.497 240.969 90.0257C243.237 90.8445 246.345 91.9661 250.268 91.9661C253.792 91.9661 256.158 90.952 258.244 90.0582C259.87 89.3616 261.407 88.7036 263.157 88.7036C264.905 88.7036 266.441 89.3616 268.068 90.0582C270.154 90.952 272.519 91.9661 276.043 91.9661C279.454 91.9661 281.577 90.8963 283.631 89.8625C285.312 89.0163 286.899 88.2168 288.931 88.2168C290.964 88.2168 292.551 89.0163 294.232 89.8625C296.286 90.8963 298.409 91.9661 301.82 91.9661C305.082 91.9661 307.009 90.8252 308.871 89.7215C310.528 88.7399 312.24 87.7244 314.709 87.7244C317.178 87.7244 318.89 88.7399 320.546 89.7215C322.41 90.8252 324.335 91.9661 327.597 91.9661C330.527 91.9661 332.257 90.8809 334.088 89.7309C336.182 88.4173 338.348 87.0579 342.327 87.0579C346.494 87.0579 348.892 88.4947 351.008 89.7611C352.9 90.895 354.689 91.9661 357.593 91.9661C360.377 91.9661 362.435 90.7718 364.817 89.3894C367.64 87.7522 370.84 85.8962 375.85 85.8962C381.547 85.8962 384.561 88.0272 386.984 89.7393C388.745 90.9831 390.134 91.9661 392.11 91.9661C392.469 91.9661 392.758 92.2547 392.758 92.6109C392.758 92.9685 392.469 93.2571 392.11 93.2571C389.721 93.2571 388.027 92.059 386.233 90.7912C383.842 89.1021 381.133 87.1872 375.85 87.1872C371.189 87.1872 368.281 88.8738 365.47 90.5049C363.03 91.9204 360.727 93.2571 357.593 93.2571C354.329 93.2571 352.301 92.0421 350.341 90.8686C348.272 89.6294 346.134 88.3484 342.327 88.3484C338.723 88.3484 336.807 89.5512 334.78 90.8228C332.872 92.0194 330.9 93.2571 327.597 93.2571C323.979 93.2571 321.802 91.9676 319.884 90.8299C318.241 89.8554 316.821 89.0148 314.709 89.0148C312.596 89.0148 311.176 89.8554 309.533 90.8299C307.615 91.9676 305.44 93.2571 301.82 93.2571C298.101 93.2571 295.735 92.0652 293.647 91.0148C292.042 90.2059 290.655 89.5077 288.931 89.5077C287.208 89.5077 285.821 90.2059 284.216 91.0148C282.128 92.0652 279.763 93.2571 276.043 93.2571C272.251 93.2571 269.648 92.1411 267.555 91.244C265.99 90.5738 264.64 89.9941 263.157 89.9941C261.674 89.9941 260.322 90.5738 258.757 91.244C256.664 92.1411 254.06 93.2571 250.268 93.2571C246.117 93.2571 242.887 92.0906 240.527 91.2393C239.182 90.754 238.121 90.37 237.379 90.37C236.637 90.37 235.576 90.754 234.231 91.2393C231.872 92.0906 228.641 93.2571 224.489 93.2571C220.197 93.2571 216.65 92.3161 214.303 91.693C213.098 91.3733 212.148 91.1209 211.6 91.1209C211.052 91.1209 210.101 91.3733 208.897 91.693C206.549 92.3161 203.002 93.2571 198.71 93.2571C194.572 93.2571 191.331 92.5157 188.964 91.9746C187.623 91.668 186.563 91.4251 185.82 91.4251C185.075 91.4251 184.016 91.668 182.673 91.9746C180.306 92.5157 177.065 93.2571 172.926 93.2571C168.576 93.2571 164.96 92.443 162.568 91.9043C161.417 91.6463 160.507 91.4407 160.017 91.4407C159.527 91.4407 158.618 91.6463 157.466 91.9043C155.073 92.443 151.458 93.2571 147.107 93.2571C142.654 93.2571 138.941 92.4204 136.483 91.8671C135.426 91.6294 134.59 91.4407 134.196 91.4407C133.803 91.4407 132.968 91.6294 131.909 91.8671C129.453 92.4204 125.738 93.2571 121.287 93.2571C116.886 93.2571 113.221 92.4321 110.796 91.8865C109.691 91.6378 108.817 91.4407 108.377 91.4407C107.936 91.4407 107.063 91.6378 105.956 91.8865C103.532 92.4321 99.8673 93.2571 95.4665 93.2571C91.1135 93.2571 87.4975 92.443 85.1045 91.9043C83.954 91.645 83.0449 91.4407 82.5561 91.4407C82.0673 91.4407 81.1589 91.645 80.0079 91.9043C77.6148 92.443 73.9989 93.2571 69.6458 93.2571C65.2943 93.2571 61.6802 92.443 59.2882 91.9043C58.1362 91.6463 57.2268 91.4407 56.7361 91.4407C56.2458 91.4407 55.3359 91.6463 54.1839 91.9043C51.7918 92.443 48.1769 93.2571 43.8252 93.2571C39.3727 93.2571 35.6601 92.4204 33.2037 91.8671C32.1451 91.6294 31.309 91.4407 30.9154 91.4407C30.5223 91.4407 29.6862 91.6294 28.6286 91.8671C26.1711 92.4204 22.458 93.2571 18.005 93.2571H1.21401C0.855919 93.2571 0.566034 92.9685 0.566034 92.6109Z" fill="#345F6E"/>
</svg>
