<svg width="40" height="40" viewBox="0 0 40 40" fill="none" xmlns="http://www.w3.org/2000/svg">
<g clip-path="url(#clip0_4797_76521)">
<path d="M0 20C0 31.0457 8.95431 40 20 40C31.0457 40 40 31.0457 40 20C40 8.95431 31.0457 0 20 0C8.95431 0 0 8.95431 0 20Z" fill="white"/>
<path d="M40 20C40 9 31 0 20 0C9 0 0 9 0 20C0 30 7.25 38.25 16.75 39.75V25.75H11.75V20H16.75V15.5C16.75 10.5 19.75 7.75 24.25 7.75C26.5 7.75 28.75 8.25 28.75 8.25V13.25H26.25C23.75 13.25 23 14.75 23 16.25V20H28.5L27.5 25.75H22.75V40C32.75 38.5 40 30 40 20Z" fill="#3B5998"/>
</g>
<defs>
<clipPath id="clip0_4797_76521">
<rect width="40" height="40" fill="white"/>
</clipPath>
</defs>
</svg>
