<svg width="40" height="40" viewBox="0 0 40 40" fill="none" xmlns="http://www.w3.org/2000/svg">
<g clip-path="url(#clip0_4797_76524)">
<path fill-rule="evenodd" clip-rule="evenodd" d="M39.2 20.4547C39.2 19.0365 39.0727 17.6729 38.8364 16.3638H20V24.1001H30.7636C30.3 26.6001 28.8909 28.7183 26.7727 30.1365V35.1547H33.2364C37.0182 31.6729 39.2 26.5456 39.2 20.4547Z" fill="#4285F4"/>
<path fill-rule="evenodd" clip-rule="evenodd" d="M19.9987 40.0003C25.3987 40.0003 29.926 38.2094 33.2351 35.1548L26.7714 30.1367C24.9805 31.3367 22.6896 32.0457 19.9987 32.0457C14.7896 32.0457 10.3805 28.5276 8.80779 23.8003H2.12598V28.9821C5.41689 35.5185 12.1805 40.0003 19.9987 40.0003Z" fill="#34A853"/>
<path fill-rule="evenodd" clip-rule="evenodd" d="M8.80909 23.7994C8.40909 22.5994 8.18182 21.3176 8.18182 19.9994C8.18182 18.6812 8.40909 17.3994 8.80909 16.1994V11.0176H2.12727C0.772727 13.7176 0 16.7721 0 19.9994C0 23.2267 0.772727 26.2812 2.12727 28.9812L8.80909 23.7994Z" fill="#FBBC05"/>
<path fill-rule="evenodd" clip-rule="evenodd" d="M19.9987 7.95455C22.9351 7.95455 25.5714 8.96364 27.6442 10.9455L33.3805 5.20909C29.9169 1.98182 25.3896 0 19.9987 0C12.1805 0 5.41689 4.48182 2.12598 11.0182L8.80779 16.2C10.3805 11.4727 14.7896 7.95455 19.9987 7.95455Z" fill="#EA4335"/>
</g>
<defs>
<clipPath id="clip0_4797_76524">
<rect width="40" height="40" fill="white"/>
</clipPath>
</defs>
</svg>
