<svg width="35" height="35" viewBox="0 0 35 35" fill="none" xmlns="http://www.w3.org/2000/svg">
<path d="M30.084 20.4141V28.6224H28.2507V20.4141C28.2507 19.1101 27.7326 17.8595 26.8106 16.9375C25.8885 16.0154 24.638 15.4974 23.334 15.4974C22.03 15.4974 20.7794 16.0154 19.8574 16.9375C18.9353 17.8595 18.4173 19.1101 18.4173 20.4141V28.6224H16.584V20.4141C16.584 18.6239 17.2951 16.907 18.561 15.6411C19.8269 14.3752 21.5438 13.6641 23.334 13.6641C25.1242 13.6641 26.8411 14.3752 28.107 15.6411C29.3728 16.907 30.084 18.6239 30.084 20.4141Z" stroke="#212121" stroke-width="4" stroke-linecap="round" stroke-linejoin="round"/>
<path d="M4.91602 15.125H6.74935V28.625H4.91602V15.125Z" stroke="#212121" stroke-width="4" stroke-linecap="round" stroke-linejoin="round"/>
<path d="M6.74935 5.83073C6.74935 6.33699 6.33894 6.7474 5.83268 6.7474C5.32642 6.7474 4.91602 6.33699 4.91602 5.83073C4.91602 5.32447 5.32642 4.91406 5.83268 4.91406C6.33894 4.91406 6.74935 5.32447 6.74935 5.83073Z" stroke="#212121" stroke-width="4" stroke-linecap="round" stroke-linejoin="round"/>
<circle cx="6" cy="6" r="2" fill="#212121"/>
</svg>
