<svg width="16" height="17" viewBox="0 0 16 17" fill="none" xmlns="http://www.w3.org/2000/svg">
<path d="M3.90062 2.27788C3.78258 2.27926 3.66509 2.30847 3.55896 2.36447C3.15719 2.57681 3.07212 3.0849 3.38536 3.40223L6.37278 6.42893L3.63813 7.54937L1.95414 6.62294C1.74615 6.5086 1.49044 6.50139 1.27569 6.60406C0.90485 6.78072 0.776053 7.21872 0.997914 7.54872L1.95067 8.96603C2.48043 9.75403 3.54527 10.0607 4.45547 9.68739L14.3886 5.61187C14.9983 5.36187 15.2764 4.69525 15.0101 4.12359C14.7431 3.55192 14.0324 3.2909 13.4226 3.5409L9.68798 5.07085L4.24436 2.35601C4.13681 2.30251 4.01866 2.27651 3.90062 2.27788ZM2.1333 12.8456C2.06263 12.8447 1.99247 12.8569 1.92689 12.8816C1.8613 12.9063 1.80161 12.943 1.75128 12.9895C1.70096 13.036 1.66099 13.0915 1.63371 13.1526C1.60643 13.2137 1.59239 13.2793 1.59239 13.3456C1.59239 13.4119 1.60643 13.4775 1.63371 13.5386C1.66099 13.5997 1.70096 13.6552 1.75128 13.7017C1.80161 13.7482 1.8613 13.7849 1.92689 13.8096C1.99247 13.8343 2.06263 13.8465 2.1333 13.8456H13.8663C13.937 13.8465 14.0072 13.8343 14.0728 13.8096C14.1383 13.7849 14.198 13.7482 14.2484 13.7017C14.2987 13.6552 14.3387 13.5997 14.3659 13.5386C14.3932 13.4775 14.4073 13.4119 14.4073 13.3456C14.4073 13.2793 14.3932 13.2137 14.3659 13.1526C14.3387 13.0915 14.2987 13.036 14.2484 12.9895C14.198 12.943 14.1383 12.9063 14.0728 12.8816C14.0072 12.8569 13.937 12.8447 13.8663 12.8456H2.1333Z" fill="#41778A"/>
</svg>
