<svg width="16" height="16" viewBox="0 0 16 16" fill="none" xmlns="http://www.w3.org/2000/svg">
<path d="M14.9696 5.45386C15.0833 6.34709 14.4492 7.1916 13.5913 7.44249C12.6002 7.73236 11.4659 8.03517 10.3022 8.33057C9.83495 9.25538 9.34476 10.1491 8.97838 10.7998C8.64019 11.4005 7.92988 11.7579 7.26402 11.6762C6.5027 11.5827 6.03874 10.9467 6.21042 10.2154C6.2776 9.92929 6.35416 9.6088 6.43783 9.26767C5.20246 9.55568 4.09458 9.80455 3.282 9.98432C2.57229 10.1413 1.91084 9.72311 1.72341 9.03828C1.70901 9.00326 1.69639 8.96696 1.68567 8.92945C1.41138 7.9698 1.16792 6.79333 1.00341 5.92304C0.869238 5.21319 1.27887 4.49984 1.94992 4.24465C2.62098 3.98948 3.35297 4.26871 3.65868 4.91333C3.86883 5.35646 4.11527 5.89148 4.35131 6.44072C6.28274 5.58182 8.89491 4.45876 11.1756 3.61101C12.8594 2.98512 14.7419 3.66741 14.9696 5.45386Z" fill="#A0BBC5" stroke="#345F6E" stroke-width="1.14286" stroke-linejoin="round"/>
<path d="M1.23047 14.9429H14.7298" stroke="#345F6E" stroke-width="1.14286" stroke-linecap="round" stroke-linejoin="round"/>
</svg>
