<svg width="120" height="40" viewBox="0 0 120 40" fill="none" xmlns="http://www.w3.org/2000/svg">
<g clip-path="url(#clip0_623_6696)">
<path d="M110.135 7.92969e-06H9.53468C9.16798 7.92969e-06 8.80568 7.92975e-06 8.43995 0.00200793C8.1338 0.00400793 7.83009 0.00981793 7.521 0.0147079C6.84951 0.0226097 6.17961 0.0816842 5.5171 0.191418C4.85552 0.303541 4.21467 0.514924 3.61622 0.818418C3.0185 1.12448 2.47235 1.52218 1.99757 1.99708C1.5203 2.47064 1.12246 3.01802 0.81935 3.61817C0.5154 4.21712 0.304641 4.85895 0.19435 5.52149C0.0830109 6.18319 0.0230984 6.85253 0.01515 7.52349C0.00587 7.83009 0.00489 8.13771 0 8.44435V31.5586C0.00489 31.8691 0.00587 32.1699 0.01515 32.4805C0.0231008 33.1514 0.0830134 33.8207 0.19435 34.4824C0.304336 35.1453 0.515108 35.7875 0.81935 36.3867C1.12233 36.9849 1.52022 37.5301 1.99757 38.001C2.47054 38.478 3.01705 38.876 3.61622 39.1797C4.21467 39.484 4.85545 39.6967 5.5171 39.8105C6.17972 39.9194 6.84956 39.9785 7.521 39.9873C7.83009 39.9941 8.1338 39.998 8.43995 39.998C8.80567 40 9.168 40 9.53468 40H110.135C110.494 40 110.859 40 111.219 39.998C111.523 39.998 111.836 39.9941 112.141 39.9873C112.811 39.9789 113.479 39.9198 114.141 39.8105C114.804 39.6959 115.448 39.4833 116.049 39.1797C116.647 38.8758 117.193 38.4779 117.666 38.001C118.142 37.5282 118.541 36.9835 118.848 36.3867C119.15 35.7871 119.358 35.145 119.467 34.4824C119.578 33.8206 119.64 33.1515 119.652 32.4805C119.656 32.1699 119.656 31.8691 119.656 31.5586C119.664 31.1953 119.664 30.834 119.664 30.4648V9.53614C119.664 9.16993 119.664 8.80665 119.656 8.44435C119.656 8.13771 119.656 7.83009 119.652 7.52345C119.64 6.85243 119.578 6.18324 119.467 5.52145C119.358 4.85929 119.149 4.21751 118.848 3.61813C118.23 2.4152 117.252 1.43603 116.049 0.818328C115.448 0.515575 114.804 0.304248 114.141 0.191328C113.48 0.0811107 112.811 0.0220157 112.141 0.0145679C111.836 0.00968793 111.523 0.00382793 111.219 0.00187793C110.859 -0.00012207 110.494 -0.00012207 110.135 -0.00012207V7.92969e-06Z" fill="#A6A6A6"/>
<path d="M8.44487 39.125C8.14019 39.125 7.84287 39.1211 7.54058 39.1143C6.91436 39.1061 6.2896 39.0516 5.67144 38.9512C5.09503 38.8519 4.53664 38.6673 4.0147 38.4033C3.49754 38.1415 3.02585 37.7983 2.6177 37.3867C2.20364 36.98 1.85891 36.5082 1.59719 35.9902C1.33258 35.4688 1.14945 34.9099 1.05419 34.333C0.951311 33.7131 0.895651 33.0863 0.887687 32.458C0.881347 32.2471 0.873047 31.5449 0.873047 31.5449V8.44434C0.873047 8.44434 0.881887 7.75293 0.887737 7.5498C0.895363 6.92248 0.950699 6.29665 1.05327 5.67773C1.14871 5.09925 1.33197 4.53875 1.59673 4.01563C1.85749 3.49794 2.2003 3.02586 2.61187 2.61768C3.02297 2.20562 3.49617 1.8606 4.01421 1.59521C4.53495 1.33209 5.09228 1.14873 5.66753 1.05127C6.28772 0.949836 6.91465 0.894996 7.54304 0.88721L8.44536 0.875H111.214L112.127 0.8877C112.75 0.895099 113.371 0.94945 113.985 1.05029C114.566 1.14898 115.13 1.33362 115.656 1.59814C116.694 2.13299 117.539 2.97916 118.071 4.01807C118.332 4.53758 118.512 5.09351 118.607 5.66699C118.71 6.29099 118.768 6.92174 118.78 7.5542C118.783 7.8374 118.783 8.1416 118.783 8.44434C118.791 8.81934 118.791 9.17627 118.791 9.53613V30.4648C118.791 30.8281 118.791 31.1826 118.783 31.54C118.783 31.8652 118.783 32.1631 118.779 32.4697C118.768 33.0909 118.711 33.7104 118.608 34.3232C118.515 34.9043 118.333 35.4675 118.068 35.9932C117.805 36.5056 117.462 36.9733 117.053 37.3789C116.644 37.7927 116.172 38.1379 115.653 38.4014C115.128 38.6674 114.566 38.8527 113.985 38.9512C113.367 39.0522 112.742 39.1067 112.116 39.1143C111.823 39.1211 111.517 39.125 111.219 39.125L110.135 39.127L8.44487 39.125Z" fill="black"/>
<path d="M24.769 20.3006C24.7797 19.4659 25.0014 18.6475 25.4135 17.9216C25.8255 17.1956 26.4145 16.5857 27.1256 16.1485C26.6738 15.5034 26.0779 14.9724 25.385 14.5979C24.6922 14.2233 23.9216 14.0155 23.1344 13.9908C21.4552 13.8146 19.8272 14.9957 18.9715 14.9957C18.0992 14.9957 16.7817 14.0083 15.363 14.0375C14.4453 14.0672 13.551 14.334 12.7671 14.8121C11.9832 15.2901 11.3365 15.9631 10.8901 16.7654C8.95607 20.1138 10.3987 25.0349 12.2513 27.7415C13.1782 29.0668 14.2615 30.5473 15.6789 30.4948C17.066 30.4372 17.584 29.6103 19.2583 29.6103C20.9171 29.6103 21.4031 30.4948 22.8493 30.4614C24.3377 30.4372 25.2754 29.1302 26.1698 27.7923C26.8358 26.8479 27.3483 25.8042 27.6882 24.6997C26.8235 24.334 26.0856 23.7218 25.5665 22.9395C25.0474 22.1572 24.77 21.2394 24.769 20.3006Z" fill="white"/>
<path d="M22.0373 12.2108C22.8489 11.2366 23.2487 9.98445 23.1518 8.72021C21.912 8.85044 20.7668 9.44299 19.9443 10.3798C19.5421 10.8375 19.2341 11.3699 19.0379 11.9467C18.8416 12.5235 18.761 13.1333 18.8006 13.7412C19.4207 13.7476 20.0342 13.6132 20.5949 13.3481C21.1555 13.083 21.6487 12.6942 22.0373 12.2108Z" fill="white"/>
<path d="M42.3025 27.1396H37.5691L36.4324 30.496H34.4275L38.9109 18.078H40.9939L45.4773 30.496H43.4382L42.3025 27.1396ZM38.0593 25.5907H41.8113L39.9617 20.1435H39.91L38.0593 25.5907Z" fill="white"/>
<path d="M55.1599 25.9697C55.1599 28.7832 53.6541 30.5908 51.3816 30.5908C50.806 30.6209 50.2335 30.4883 49.7297 30.2082C49.2259 29.928 48.8112 29.5117 48.533 29.0068H48.49V33.4912H46.6316V21.4423H48.4305V22.9482H48.4646C48.7556 22.4457 49.1773 22.0316 49.6849 21.7497C50.1926 21.4679 50.7671 21.3289 51.3474 21.3476C53.6453 21.3476 55.1599 23.164 55.1599 25.9697ZM53.2498 25.9697C53.2498 24.1367 52.3025 22.9316 50.8572 22.9316C49.4373 22.9316 48.4822 24.1621 48.4822 25.9697C48.4822 27.7939 49.4373 29.0156 50.8572 29.0156C52.3025 29.0156 53.2498 27.8193 53.2498 25.9697Z" fill="white"/>
<path d="M65.1248 25.9697C65.1248 28.7832 63.6189 30.5908 61.3465 30.5908C60.7708 30.6209 60.1983 30.4883 59.6945 30.2081C59.1907 29.928 58.776 29.5117 58.4978 29.0068H58.4548V33.4912H56.5964V21.4423H58.3953V22.9482H58.4294C58.7204 22.4457 59.1421 22.0315 59.6498 21.7497C60.1574 21.4679 60.7319 21.3289 61.3123 21.3476C63.6101 21.3476 65.1248 23.164 65.1248 25.9697ZM63.2146 25.9697C63.2146 24.1367 62.2674 22.9316 60.822 22.9316C59.4021 22.9316 58.447 24.1621 58.447 25.9697C58.447 27.7939 59.4021 29.0156 60.822 29.0156C62.2674 29.0156 63.2146 27.8193 63.2146 25.9697H63.2146Z" fill="white"/>
<path d="M71.7107 27.0361C71.8484 28.2675 73.0447 29.0761 74.6795 29.0761C76.2459 29.0761 77.3728 28.2675 77.3728 27.1571C77.3728 26.1932 76.6931 25.6161 75.0838 25.2206L73.4744 24.8329C71.1941 24.2821 70.1355 23.2157 70.1355 21.4852C70.1355 19.3427 72.0027 17.871 74.6541 17.871C77.2781 17.871 79.0769 19.3427 79.1375 21.4852H77.2615C77.1492 20.246 76.1248 19.4979 74.6277 19.4979C73.1306 19.4979 72.1062 20.2548 72.1062 21.3563C72.1062 22.2343 72.7605 22.7509 74.3611 23.1463L75.7292 23.4823C78.2771 24.0848 79.3357 25.1083 79.3357 26.9247C79.3357 29.2479 77.4851 30.703 74.5417 30.703C71.7878 30.703 69.9285 29.2821 69.8083 27.036L71.7107 27.0361Z" fill="white"/>
<path d="M83.3464 19.2997V21.4423H85.0681V22.9139H83.3464V27.9052C83.3464 28.6805 83.6912 29.0419 84.448 29.0419C84.6524 29.0383 84.8564 29.024 85.0593 28.9989V30.4618C84.719 30.5253 84.3732 30.5541 84.0271 30.5477C82.1941 30.5477 81.4792 29.8592 81.4792 28.1034V22.9139H80.1628V21.4423H81.4792V19.2997H83.3464Z" fill="white"/>
<path d="M86.0652 25.9696C86.0652 23.121 87.7429 21.3309 90.3591 21.3309C92.9841 21.3309 94.6541 23.1209 94.6541 25.9696C94.6541 28.8261 92.9929 30.6083 90.3591 30.6083C87.7263 30.6083 86.0652 28.826 86.0652 25.9696ZM92.7605 25.9696C92.7605 24.0155 91.865 22.8622 90.3591 22.8622C88.8533 22.8622 87.9587 24.0243 87.9587 25.9696C87.9587 27.9315 88.8533 29.0761 90.3591 29.0761C91.865 29.0761 92.7605 27.9315 92.7605 25.9696H92.7605Z" fill="white"/>
<path d="M96.1863 21.4423H97.9587V22.9833H98.0017C98.1217 22.502 98.4036 22.0766 98.8002 21.7788C99.1968 21.4809 99.6838 21.3286 100.179 21.3475C100.394 21.3468 100.607 21.37 100.816 21.4169V23.1551C100.546 23.0725 100.264 23.0346 99.9812 23.0428C99.7112 23.0319 99.4421 23.0795 99.1922 23.1824C98.9424 23.2853 98.7178 23.441 98.5338 23.6389C98.3498 23.8368 98.2108 24.0721 98.1264 24.3288C98.042 24.5855 98.0141 24.8574 98.0447 25.1258V30.496H96.1863L96.1863 21.4423Z" fill="white"/>
<path d="M109.385 27.8368C109.135 29.4803 107.534 30.6083 105.486 30.6083C102.852 30.6083 101.218 28.8436 101.218 26.0126C101.218 23.1727 102.861 21.3309 105.408 21.3309C107.913 21.3309 109.488 23.0516 109.488 25.7968V26.4335H103.094V26.5458C103.064 26.879 103.106 27.2146 103.216 27.5305C103.326 27.8463 103.502 28.1351 103.733 28.3777C103.963 28.6202 104.242 28.811 104.552 28.9373C104.862 29.0636 105.195 29.1225 105.529 29.1102C105.968 29.1514 106.409 29.0497 106.786 28.8202C107.162 28.5908 107.455 28.2459 107.62 27.8368L109.385 27.8368ZM103.102 25.1346H107.629C107.645 24.835 107.6 24.5352 107.495 24.254C107.391 23.9728 107.229 23.7163 107.02 23.5005C106.812 23.2847 106.561 23.1144 106.284 23.0002C106.006 22.886 105.708 22.8303 105.408 22.8368C105.105 22.835 104.805 22.8931 104.525 23.0079C104.245 23.1226 103.991 23.2917 103.776 23.5053C103.562 23.7189 103.392 23.9729 103.276 24.2526C103.161 24.5322 103.102 24.832 103.102 25.1347V25.1346Z" fill="white"/>
<path d="M37.8262 8.73101C38.2158 8.70305 38.6067 8.76191 38.9709 8.90335C39.335 9.04478 39.6632 9.26526 39.9317 9.54889C40.2003 9.83251 40.4026 10.1722 40.524 10.5435C40.6454 10.9148 40.6829 11.3083 40.6338 11.6959C40.6338 13.6021 39.6035 14.6979 37.8262 14.6979H35.6709V8.73101H37.8262ZM36.5976 13.854H37.7226C38.0011 13.8707 38.2797 13.825 38.5382 13.7204C38.7967 13.6158 39.0287 13.4548 39.2172 13.2493C39.4057 13.0437 39.546 12.7987 39.6278 12.5321C39.7097 12.2655 39.7311 11.9839 39.6904 11.708C39.7281 11.4332 39.7046 11.1534 39.6215 10.8887C39.5383 10.6241 39.3977 10.3811 39.2096 10.1771C39.0216 9.97322 38.7907 9.81341 38.5337 9.70917C38.2766 9.60494 37.9996 9.55885 37.7226 9.57422H36.5976V13.854Z" fill="white"/>
<path d="M41.6807 12.4443C41.6524 12.1484 41.6862 11.8498 41.7801 11.5677C41.8739 11.2857 42.0257 11.0263 42.2256 10.8063C42.4256 10.5864 42.6693 10.4106 42.9411 10.2903C43.213 10.17 43.507 10.1079 43.8042 10.1079C44.1015 10.1079 44.3955 10.17 44.6673 10.2903C44.9392 10.4106 45.1829 10.5864 45.3828 10.8063C45.5828 11.0263 45.7345 11.2857 45.8284 11.5677C45.9222 11.8498 45.9561 12.1484 45.9278 12.4443C45.9566 12.7405 45.9232 13.0395 45.8296 13.322C45.736 13.6045 45.5843 13.8644 45.3843 14.0848C45.1843 14.3052 44.9404 14.4813 44.6683 14.6019C44.3962 14.7224 44.1019 14.7847 43.8042 14.7847C43.5066 14.7847 43.2123 14.7224 42.9402 14.6019C42.668 14.4813 42.4241 14.3052 42.2241 14.0848C42.0242 13.8644 41.8725 13.6045 41.7789 13.322C41.6853 13.0395 41.6519 12.7405 41.6807 12.4443ZM45.0137 12.4443C45.0137 11.4682 44.5752 10.8974 43.8057 10.8974C43.0332 10.8974 42.5987 11.4682 42.5987 12.4443C42.5987 13.4282 43.0333 13.9946 43.8057 13.9946C44.5752 13.9946 45.0137 13.4243 45.0137 12.4443H45.0137Z" fill="white"/>
<path d="M51.5732 14.6978H50.6514L49.7207 11.3813H49.6504L48.7236 14.6978H47.8105L46.5693 10.1948H47.4707L48.2773 13.6308H48.3438L49.2695 10.1948H50.1221L51.0479 13.6308H51.1182L51.9209 10.1948H52.8096L51.5732 14.6978Z" fill="white"/>
<path d="M53.8535 10.1947H54.709V10.9101H54.7754C54.888 10.6532 55.0781 10.4378 55.3189 10.294C55.5598 10.1502 55.8395 10.0851 56.1191 10.1078C56.3382 10.0914 56.5582 10.1244 56.7628 10.2045C56.9674 10.2846 57.1514 10.4097 57.3011 10.5705C57.4508 10.7314 57.5623 10.9238 57.6275 11.1337C57.6927 11.3435 57.7099 11.5653 57.6777 11.7826V14.6976H56.7891V12.0058C56.7891 11.2822 56.4746 10.9223 55.8174 10.9223C55.6686 10.9154 55.5201 10.9407 55.3821 10.9965C55.244 11.0523 55.1197 11.1374 55.0175 11.2457C54.9154 11.3541 54.8379 11.4833 54.7904 11.6244C54.7429 11.7656 54.7264 11.9153 54.7422 12.0634V14.6977H53.8535L53.8535 10.1947Z" fill="white"/>
<path d="M59.0938 8.43701H59.9824V14.6978H59.0938V8.43701Z" fill="white"/>
<path d="M61.2178 12.4443C61.1895 12.1483 61.2234 11.8497 61.3172 11.5676C61.4111 11.2856 61.5629 11.0262 61.7628 10.8062C61.9628 10.5862 62.2065 10.4105 62.4784 10.2902C62.7503 10.1699 63.0443 10.1078 63.3416 10.1078C63.6389 10.1078 63.9329 10.1699 64.2047 10.2902C64.4766 10.4105 64.7203 10.5862 64.9203 10.8062C65.1203 11.0262 65.272 11.2856 65.3659 11.5676C65.4598 11.8497 65.4936 12.1483 65.4653 12.4443C65.4942 12.7405 65.4607 13.0395 65.3671 13.322C65.2734 13.6045 65.1217 13.8643 64.9217 14.0847C64.7217 14.3051 64.4778 14.4813 64.2057 14.6018C63.9335 14.7223 63.6392 14.7846 63.3416 14.7846C63.0439 14.7846 62.7496 14.7223 62.4775 14.6018C62.2053 14.4813 61.9614 14.3051 61.7614 14.0847C61.5614 13.8643 61.4097 13.6045 61.3161 13.322C61.2225 13.0395 61.189 12.7405 61.2178 12.4443ZM64.5508 12.4443C64.5508 11.4682 64.1123 10.8974 63.3428 10.8974C62.5703 10.8974 62.1358 11.4682 62.1358 12.4443C62.1358 13.4282 62.5704 13.9946 63.3428 13.9946C64.1123 13.9945 64.5508 13.4242 64.5508 12.4443H64.5508Z" fill="white"/>
<path d="M66.4009 13.4243C66.4009 12.6138 67.0044 12.1465 68.0757 12.0801L69.2954 12.0098V11.6211C69.2954 11.1455 68.981 10.877 68.3735 10.877C67.8774 10.877 67.5337 11.0591 67.4351 11.3774H66.5747C66.6655 10.604 67.3931 10.1079 68.4146 10.1079C69.5435 10.1079 70.1802 10.6699 70.1802 11.6211V14.6978H69.3247V14.0649H69.2544C69.1117 14.2919 68.9113 14.477 68.6737 14.6012C68.436 14.7254 68.1697 14.7843 67.9019 14.7719C67.7128 14.7916 67.5218 14.7714 67.341 14.7127C67.1602 14.654 66.9938 14.5581 66.8524 14.4311C66.711 14.3042 66.5977 14.149 66.52 13.9756C66.4422 13.8021 66.4016 13.6144 66.4009 13.4243ZM69.2954 13.0395V12.6631L68.1958 12.7334C67.5757 12.7749 67.2944 12.9858 67.2944 13.3828C67.2944 13.7881 67.646 14.0239 68.1294 14.0239C68.2711 14.0382 68.4142 14.0239 68.5502 13.9819C68.6862 13.9398 68.8123 13.8707 68.9211 13.7789C69.0299 13.6871 69.1191 13.5743 69.1834 13.4473C69.2477 13.3202 69.2858 13.1816 69.2954 13.0395Z" fill="white"/>
<path d="M71.3481 12.4444C71.3481 11.0215 72.0796 10.1201 73.2173 10.1201C73.4987 10.1072 73.778 10.1746 74.0225 10.3145C74.267 10.4544 74.4667 10.661 74.5981 10.9101H74.6646V8.43701H75.5532V14.6978H74.7017V13.9863H74.6314C74.4897 14.2338 74.2831 14.4378 74.0339 14.5763C73.7846 14.7148 73.5022 14.7825 73.2173 14.772C72.0718 14.772 71.3481 13.8706 71.3481 12.4444ZM72.2661 12.4444C72.2661 13.3994 72.7163 13.9741 73.4693 13.9741C74.2183 13.9741 74.6812 13.3911 74.6812 12.4483C74.6812 11.5098 74.2134 10.9185 73.4693 10.9185C72.7212 10.9185 72.2661 11.4971 72.2661 12.4444H72.2661Z" fill="white"/>
<path d="M79.23 12.4444C79.23 11.0215 79.9614 10.1201 81.0991 10.1201C81.3805 10.1072 81.6598 10.1746 81.9044 10.3145C82.1489 10.4544 82.3485 10.661 82.48 10.9101H82.5464V8.43701H83.4351V14.6978H82.5835V13.9863H82.5132C82.3716 14.2338 82.165 14.4378 81.9157 14.5763C81.6665 14.7148 81.3841 14.7825 81.0991 14.772C79.9536 14.772 79.23 13.8706 79.23 12.4444ZM80.148 12.4444C80.148 13.3994 80.5982 13.9741 81.3511 13.9741C82.1001 13.9741 82.563 13.3911 82.563 12.4483C82.563 11.5098 82.0952 10.9185 81.3511 10.9185C80.603 10.9185 80.148 11.4971 80.148 12.4444Z" fill="white"/>
<path d="M84.7769 8.86324C84.77 8.74814 84.7979 8.63363 84.8569 8.53455C84.9159 8.43547 85.0032 8.35638 85.1077 8.30753C85.2121 8.25867 85.3288 8.24231 85.4427 8.26055C85.5565 8.27878 85.6623 8.33079 85.7462 8.40983C85.8302 8.48886 85.8885 8.59129 85.9135 8.70383C85.9386 8.81638 85.9293 8.93386 85.8869 9.04106C85.8444 9.14825 85.7707 9.24023 85.6754 9.30507C85.58 9.36992 85.4674 9.40464 85.3521 9.40474C85.2784 9.40849 85.2047 9.39731 85.1354 9.37186C85.0662 9.34641 85.0028 9.30721 84.949 9.25663C84.8953 9.20605 84.8524 9.14512 84.8228 9.07752C84.7932 9.00991 84.7776 8.93703 84.7769 8.86324ZM84.9087 10.1948H85.7945V14.6977H84.9087V10.1948Z" fill="white"/>
</g>
<defs>
<clipPath id="clip0_623_6696">
<rect width="119.664" height="40" fill="white"/>
</clipPath>
</defs>
</svg>
