<svg width="16" height="17" viewBox="0 0 16 17" fill="none" xmlns="http://www.w3.org/2000/svg">
<path d="M1.31633 4.72634C1.43493 3.90981 2.10277 3.27163 2.9246 3.19828C3.00576 3.19104 3.08709 3.18374 3.16861 3.17644C4.5206 3.05529 5.92213 2.92969 7.35853 2.92969C8.79493 2.92969 10.1965 3.05529 11.5485 3.17644C11.6299 3.18374 11.7113 3.19104 11.7925 3.19828C12.6143 3.27163 13.2822 3.90981 13.4007 4.72634C13.4233 4.88145 13.4459 5.03737 13.4681 5.19405C13.6118 5.20788 13.7542 5.22572 13.895 5.24538C14.4379 5.3211 14.859 5.77661 14.905 6.32289C14.951 6.86697 14.9945 7.42813 14.9945 8.00171C14.9945 8.57529 14.951 9.13644 14.905 9.68052C14.859 10.2268 14.4379 10.6823 13.895 10.758C13.7542 10.7777 13.6118 10.7955 13.4681 10.8094C13.4459 10.9661 13.4233 11.122 13.4007 11.2771C13.2822 12.0936 12.6143 12.7317 11.7925 12.8051C11.7113 12.8124 11.6299 12.8196 11.5485 12.8269C10.1965 12.9481 8.79493 13.0737 7.35853 13.0737C5.92212 13.0737 4.52059 12.9481 3.16859 12.8269C3.08708 12.8196 3.00575 12.8124 2.92459 12.8051C2.10277 12.7317 1.43493 12.0936 1.31633 11.2771C1.16265 10.2191 1.00391 9.1237 1.00391 8.0017C1.00391 6.87971 1.16265 5.78428 1.31633 4.72634Z" fill="#A0BBC5" stroke="#345F6E" stroke-width="1.14286"/>
<path d="M4.21875 5.54443V10.4587" stroke="#345F6E" stroke-width="1.14286" stroke-linecap="round" stroke-linejoin="round"/>
</svg>
