<svg width="16" height="16" viewBox="0 0 16 16" fill="none" xmlns="http://www.w3.org/2000/svg">
<path d="M10.635 1.5957H5.36554L4.05772 3.96471C3.79903 3.98653 3.54183 4.00881 3.28621 4.03089C2.19315 4.12528 1.29335 4.96745 1.13321 6.05283C0.988128 7.03611 0.857422 8.04878 0.857422 9.08303C0.857422 10.1173 0.988128 11.1299 1.13321 12.1132C1.29335 13.1986 2.19315 14.0407 3.28621 14.1351C4.8545 14.2707 6.42488 14.4057 8.00028 14.4057C9.57567 14.4057 11.1461 14.2707 12.7143 14.1351C13.8074 14.0407 14.7072 13.1986 14.8674 12.1132C15.0124 11.1299 15.1431 10.1173 15.1431 9.08303C15.1431 8.04878 15.0124 7.03611 14.8674 6.05283C14.7072 4.96745 13.8074 4.12528 12.7143 4.03089C12.4572 4.00867 12.2001 3.9864 11.9428 3.96471L10.635 1.5957Z" fill="#A0BBC5" stroke="#345F6E" stroke-width="1.14286" stroke-linejoin="round"/>
<path d="M7.99916 11.3167C9.41932 11.3167 10.5706 10.1654 10.5706 8.74526C10.5706 7.3251 9.41932 6.17383 7.99916 6.17383C6.579 6.17383 5.42773 7.3251 5.42773 8.74526C5.42773 10.1654 6.579 11.3167 7.99916 11.3167Z" fill="white" stroke="#345F6E" stroke-width="1.14286" stroke-linecap="round" stroke-linejoin="round"/>
</svg>
