<svg width="20" height="20" viewBox="0 0 20 20" fill="none" xmlns="http://www.w3.org/2000/svg">
<path d="M12.5001 0.833252H3.33341C2.41675 0.833252 1.66675 1.58325 1.66675 2.49992V13.3333C1.66675 13.7916 2.04175 14.1666 2.50008 14.1666C2.95841 14.1666 3.33341 13.7916 3.33341 13.3333V3.33325C3.33341 2.87492 3.70841 2.49992 4.16675 2.49992H12.5001C12.9584 2.49992 13.3334 2.12492 13.3334 1.66659C13.3334 1.20825 12.9584 0.833252 12.5001 0.833252ZM15.8334 4.16658H6.66675C5.75008 4.16658 5.00008 4.91658 5.00008 5.83325V17.4999C5.00008 18.4166 5.75008 19.1666 6.66675 19.1666H15.8334C16.7501 19.1666 17.5001 18.4166 17.5001 17.4999V5.83325C17.5001 4.91658 16.7501 4.16658 15.8334 4.16658ZM15.0001 17.4999H7.50008C7.04175 17.4999 6.66675 17.1249 6.66675 16.6666V6.66658C6.66675 6.20825 7.04175 5.83325 7.50008 5.83325H15.0001C15.4584 5.83325 15.8334 6.20825 15.8334 6.66658V16.6666C15.8334 17.1249 15.4584 17.4999 15.0001 17.4999Z" fill="currentColor"/>
</svg>