<svg width="16" height="16" viewBox="0 0 16 16" fill="none" xmlns="http://www.w3.org/2000/svg">
<path d="M12.9998 7.99967L14.6665 7.99967M12.9998 7.99967C12.9998 7.55765 12.8242 7.13372 12.5117 6.82116C12.1991 6.5086 11.7752 6.33301 11.3332 6.33301C10.8911 6.33301 10.4672 6.5086 10.1547 6.82116C9.8421 7.13372 9.6665 7.55765 9.6665 7.99967M12.9998 7.99967C12.9998 8.4417 12.8242 8.86562 12.5117 9.17819C12.1991 9.49075 11.7752 9.66634 11.3332 9.66634C10.8911 9.66634 10.4672 9.49075 10.1547 9.17819C9.8421 8.86562 9.6665 8.4417 9.6665 7.99967M2.99984 2.99967C2.99984 3.4417 3.17543 3.86562 3.48799 4.17819C3.80055 4.49075 4.22448 4.66634 4.6665 4.66634C5.10853 4.66634 5.53245 4.49075 5.84501 4.17819C6.15758 3.86562 6.33317 3.4417 6.33317 2.99967M2.99984 2.99967C2.99984 2.55765 3.17543 2.13372 3.48799 1.82116C3.80055 1.5086 4.22448 1.33301 4.6665 1.33301C5.10853 1.33301 5.53245 1.5086 5.84502 1.82116C6.15758 2.13372 6.33317 2.55765 6.33317 2.99967M2.99984 2.99967L1.33317 2.99967M6.33317 2.99967L14.6665 2.99967M9.6665 7.99967L1.33317 7.99967M2.99984 12.9997C2.99984 13.4417 3.17543 13.8656 3.48799 14.1782C3.80055 14.4907 4.22448 14.6663 4.6665 14.6663C5.10853 14.6663 5.53245 14.4907 5.84501 14.1782C6.15758 13.8656 6.33317 13.4417 6.33317 12.9997M2.99984 12.9997C2.99984 12.5576 3.17543 12.1337 3.48799 11.8212C3.80055 11.5086 4.22448 11.333 4.6665 11.333C5.10853 11.333 5.53245 11.5086 5.84501 11.8212C6.15758 12.1337 6.33317 12.5576 6.33317 12.9997M2.99984 12.9997L1.33317 12.9997M6.33317 12.9997L14.6665 12.9997" stroke="#41778A" stroke-width="1.66667" stroke-linecap="round" stroke-linejoin="round"/>
</svg>
