<svg width="16" height="17" viewBox="0 0 16 17" fill="none" xmlns="http://www.w3.org/2000/svg">
<g clip-path="url(#clip0_4335_71562)">
<path d="M15.0611 15.5316H14.518C13.9419 15.5316 13.3893 15.3028 12.982 14.8954C12.5746 14.4881 12.3458 13.9355 12.3458 13.3594C12.3458 13.9355 12.1169 14.4881 11.7095 14.8954C11.3021 15.3028 10.7496 15.5316 10.1735 15.5316C9.59738 15.5316 9.04485 15.3028 8.63748 14.8954C8.2301 14.4881 8.00124 13.9355 8.00124 13.3594C8.00124 13.9355 7.77237 14.4881 7.365 14.8954C6.95762 15.3028 6.4051 15.5316 5.82898 15.5316C5.25286 15.5316 4.70034 15.3028 4.29297 14.8954C3.88558 14.4881 3.65673 13.9355 3.65673 13.3594C3.65673 13.9355 3.42786 14.4881 3.02049 14.8954C2.6131 15.3028 2.06059 15.5316 1.48446 15.5316H0.941406" stroke="#345F6E" stroke-width="1.14286" stroke-linecap="round" stroke-linejoin="round"/>
<path d="M14.9419 9.63529C14.8228 10.2773 14.6389 10.9019 14.5205 11.5035H1.4767C1.35833 10.9019 1.17448 10.2773 1.05537 9.63529C0.940245 9.0147 1.45054 8.5 2.08171 8.5H13.9156C14.5467 8.5 15.057 9.0147 14.9419 9.63529Z" fill="white"/>
<path d="M1.4767 11.5035C1.35833 10.9019 1.17448 10.2773 1.05537 9.63529C0.940245 9.0147 1.45054 8.5 2.08171 8.5H13.9156C14.5467 8.5 15.057 9.0147 14.9419 9.63529C14.8228 10.2773 14.6389 10.9019 14.5205 11.5035" stroke="#345F6E" stroke-width="1.14286" stroke-linecap="round" stroke-linejoin="round"/>
<path d="M12.277 8.49967H3.72266C3.74142 7.56529 3.83599 6.65223 3.92755 5.76819C3.93675 5.67934 3.94592 5.59078 3.95499 5.50252C4.01134 4.95368 4.44415 4.51444 4.99164 4.44621C5.07066 4.43636 5.14992 4.4264 5.22944 4.4164C6.12421 4.30395 7.05076 4.1875 7.99985 4.1875C8.94893 4.1875 9.87549 4.30395 10.7702 4.4164C10.8498 4.4264 10.929 4.43636 11.0081 4.44621C11.5555 4.51444 11.9883 4.95368 12.0447 5.50252C12.0538 5.59078 12.063 5.67934 12.0721 5.7682C12.1637 6.65224 12.2583 7.56529 12.277 8.49967Z" fill="#A0BBC5" stroke="#345F6E" stroke-width="1.14286" stroke-linejoin="round"/>
<path d="M8.82875 1.93359L8 4.18653" stroke="#345F6E" stroke-width="1.14286" stroke-linecap="round" stroke-linejoin="round"/>
</g>
<defs>
<clipPath id="clip0_4335_71562">
<rect width="16" height="16" fill="white" transform="translate(0 0.5)"/>
</clipPath>
</defs>
</svg>
