<svg width="16" height="16" viewBox="0 0 16 16" fill="none" xmlns="http://www.w3.org/2000/svg">
<g clip-path="url(#clip0_2582_44359)">
<path d="M1.24948 12.0287C1.43387 13.6737 2.77094 14.9798 4.42433 15.0595C5.56713 15.1144 6.73455 15.1431 8.00157 15.1431C9.26859 15.1431 10.436 15.1144 11.5788 15.0595C13.2322 14.9798 14.5692 13.6737 14.7537 12.0287C14.8778 10.9209 14.9797 9.78514 14.9797 8.62817C14.9797 7.47121 14.8778 6.33546 14.7537 5.22768C14.5692 3.58266 13.2322 2.27656 11.5788 2.19693C10.436 2.14189 9.26859 2.11328 8.00157 2.11328C6.73455 2.11328 5.56713 2.14189 4.42433 2.19693C2.77094 2.27656 1.43387 3.58266 1.24948 5.22768C1.12531 6.33546 1.02344 7.47121 1.02344 8.62817C1.02344 9.78514 1.12531 10.9209 1.24948 12.0287Z" fill="white"/>
<path d="M5.43359 0.857422V3.75934" stroke="#345F6E" stroke-width="1.14286" stroke-linecap="round"/>
<path d="M10.5586 0.857422V3.75934" stroke="#345F6E" stroke-width="1.14286" stroke-linecap="round"/>
<path d="M14.4793 6.28607L1.52344 6.28605L1.7053 2.93745L7.92503 2.48633L14.4793 2.93745V6.28607Z" fill="#A0BBC5"/>
<path d="M1.24948 12.0287C1.43387 13.6737 2.77094 14.9798 4.42433 15.0595C5.56713 15.1144 6.73455 15.1431 8.00157 15.1431C9.26859 15.1431 10.436 15.1144 11.5788 15.0595C13.2322 14.9798 14.5692 13.6737 14.7537 12.0287C14.8778 10.9209 14.9797 9.78514 14.9797 8.62817C14.9797 7.47121 14.8778 6.33546 14.7537 5.22768C14.5692 3.58266 13.2322 2.27656 11.5788 2.19693C10.436 2.14189 9.26859 2.11328 8.00157 2.11328C6.73455 2.11328 5.56713 2.14189 4.42433 2.19693C2.77094 2.27656 1.43387 3.58266 1.24948 5.22768C1.12531 6.33546 1.02344 7.47121 1.02344 8.62817C1.02344 9.78514 1.12531 10.9209 1.24948 12.0287Z" stroke="#345F6E" stroke-width="1.14286"/>
<path d="M1.35547 6.28516H14.7126" stroke="#345F6E" stroke-width="1.14286"/>
</g>
<defs>
<clipPath id="clip0_2582_44359">
<rect width="16" height="16" fill="white"/>
</clipPath>
</defs>
</svg>
