<svg width="18" height="19" viewBox="0 0 18 19" fill="none" xmlns="http://www.w3.org/2000/svg">
<path d="M14.2572 7.23545C14.2514 7.0406 14.17 6.85567 14.0302 6.71983L9.53019 2.21983C9.38953 2.07923 9.1988 2.00024 8.99992 2.00024C8.80104 2.00024 8.6103 2.07923 8.46964 2.21983L3.96964 6.71983C3.89766 6.78894 3.8402 6.87171 3.80061 6.96331C3.76102 7.05491 3.7401 7.15348 3.73909 7.25326C3.73807 7.35304 3.75698 7.45202 3.79469 7.54441C3.83241 7.63679 3.88818 7.72072 3.95874 7.79128C4.0293 7.86184 4.11323 7.91761 4.20561 7.95533C4.29799 7.99304 4.39697 8.01195 4.49676 8.01093C4.59654 8.00992 4.69511 7.989 4.78671 7.94941C4.87831 7.90982 4.96108 7.85235 5.03019 7.78037L8.99992 3.81065L12.9696 7.78037C13.075 7.88875 13.2106 7.96277 13.3588 7.99274C13.5069 8.02271 13.6606 8.00723 13.7998 7.94832C13.939 7.88942 14.0572 7.78984 14.1388 7.66263C14.2204 7.53542 14.2617 7.38653 14.2572 7.23545ZM14.2572 11.742C14.2571 11.5929 14.2124 11.4472 14.129 11.3236C14.0456 11.1999 13.9273 11.1039 13.7891 11.0479C13.6509 10.9918 13.4991 10.9783 13.3531 11.0089C13.2072 11.0395 13.0737 11.113 12.9696 11.2198L8.99992 15.1896L5.03019 11.2198C4.96108 11.1478 4.87831 11.0904 4.78671 11.0508C4.69511 11.0112 4.59654 10.9903 4.49676 10.9893C4.39697 10.9883 4.29799 11.0072 4.20561 11.0449C4.11323 11.0826 4.0293 11.1384 3.95874 11.2089C3.88818 11.2795 3.83241 11.3634 3.79469 11.4558C3.75698 11.5482 3.73807 11.6472 3.73909 11.7469C3.7401 11.8467 3.76102 11.9453 3.80061 12.0369C3.8402 12.1285 3.89766 12.2113 3.96964 12.2804L8.46964 16.7804C8.6103 16.921 8.80104 17 8.99992 17C9.1988 17 9.38953 16.921 9.53019 16.7804L14.0302 12.2804C14.1021 12.2104 14.1593 12.1267 14.1983 12.0342C14.2373 11.9418 14.2573 11.8424 14.2572 11.742Z" fill="#9A9A9A"/>
</svg>
