<svg width="20" height="20" viewBox="0 0 20 20" fill="none" xmlns="http://www.w3.org/2000/svg">
<path d="M1.43212 15.9253C1.5853 17.2968 2.68153 18.3925 4.05226 18.551C5.60114 18.7302 7.20164 18.9069 8.8392 18.9069C10.4768 18.9069 12.0772 18.7302 13.6261 18.551C14.9969 18.3925 16.093 17.2968 16.2463 15.9253C16.4185 14.3839 16.5846 12.7911 16.5846 11.1615C16.5846 9.53186 16.4185 7.93907 16.2463 6.39753C16.093 5.02619 14.9969 3.93049 13.6261 3.77193C12.0772 3.59276 10.4768 3.41602 8.8392 3.41602C7.20164 3.41602 5.60114 3.59276 4.05226 3.77193C2.68153 3.93049 1.5853 5.02619 1.43212 6.39753C1.25991 7.93907 1.09375 9.53186 1.09375 11.1615C1.09375 12.7911 1.25991 14.3839 1.43212 15.9253Z" fill="#F0F4F5"/>
<path d="M7.69992 3.44336C6.45806 3.49929 5.23999 3.63526 4.05227 3.77265C2.68153 3.9312 1.5853 5.0269 1.43212 6.39824C1.25991 7.93979 1.09375 9.53257 1.09375 11.1622C1.09375 12.7918 1.25991 14.3846 1.43212 15.9261C1.5853 17.2974 2.68153 18.3931 4.05226 18.5517C5.60114 18.7308 7.20164 18.9077 8.8392 18.9077C10.4768 18.9077 12.0772 18.7308 13.6261 18.5517C14.9969 18.3931 16.093 17.2976 16.2463 15.9261C16.3702 14.8173 16.4909 13.6819 16.5489 12.5253" stroke="#345F6E" stroke-width="1.42857" stroke-linecap="round"/>
<path d="M14.4404 1.86077L9.17633 7.83386L8.45516 11.2257C8.33911 11.7715 8.90801 12.2879 9.44079 12.1204L12.8162 11.0593L18.2536 5.33799C19.1566 4.38774 18.999 2.7984 17.9059 1.83153C16.8384 0.887301 15.2869 0.900396 14.4404 1.86077Z" fill="#A0BBC5" stroke="#345F6E" stroke-width="1.42857" stroke-linecap="round" stroke-linejoin="round"/>
</svg>
