<svg width="22" height="22" viewBox="0 0 22 22" fill="none" xmlns="http://www.w3.org/2000/svg">
<path d="M4.80469 8.02845C4.80472 8.16528 4.84557 8.29898 4.92202 8.41245C4.99847 8.52592 5.10703 8.61401 5.23382 8.66544C5.36061 8.71686 5.49986 8.72929 5.63375 8.70114C5.76765 8.67298 5.8901 8.60551 5.98543 8.50738L10.9993 3.49346L16.0133 8.50738C16.0766 8.57336 16.1525 8.62603 16.2365 8.66232C16.3204 8.69861 16.4108 8.71778 16.5022 8.71871C16.5937 8.71964 16.6844 8.70231 16.7691 8.66774C16.8538 8.63316 16.9307 8.58204 16.9954 8.51736C17.0601 8.45268 17.1112 8.37575 17.1458 8.29106C17.1804 8.20638 17.1977 8.11565 17.1968 8.02419C17.1958 7.93272 17.1767 7.84236 17.1404 7.7584C17.1041 7.67444 17.0514 7.59856 16.9854 7.53521L11.4854 2.03521C11.3565 1.90633 11.1817 1.83393 10.9993 1.83393C10.817 1.83393 10.6422 1.90633 10.5133 2.03521L5.01326 7.53521C4.94727 7.59929 4.89481 7.67596 4.85898 7.76069C4.82315 7.84541 4.80469 7.93647 4.80469 8.02845ZM4.80558 13.9931C4.81079 14.1716 4.88527 14.3411 5.01326 14.4657L10.5133 19.9657C10.6422 20.0946 10.817 20.167 10.9993 20.167C11.1817 20.167 11.3565 20.0946 11.4854 19.9657L16.9854 14.4657C17.0514 14.4024 17.1041 14.3265 17.1404 14.2425C17.1767 14.1586 17.1958 14.0682 17.1968 13.9767C17.1977 13.8853 17.1804 13.7945 17.1458 13.7099C17.1112 13.6252 17.0601 13.5482 16.9954 13.4836C16.9307 13.4189 16.8538 13.3678 16.7691 13.3332C16.6844 13.2986 16.5937 13.2813 16.5022 13.2822C16.4108 13.2831 16.3204 13.3023 16.2365 13.3386C16.1525 13.3749 16.0766 13.4276 16.0133 13.4935L10.9993 18.5075L5.98543 13.4935C5.88884 13.3944 5.76455 13.3266 5.62883 13.2993C5.49312 13.2719 5.3523 13.2861 5.22481 13.3401C5.09731 13.3941 4.98908 13.4853 4.91428 13.6018C4.83948 13.7183 4.8016 13.8547 4.80558 13.9931Z" fill="#41778A"/>
</svg>
