<svg width="140" height="140" viewBox="0 0 140 140" fill="none" xmlns="http://www.w3.org/2000/svg">
<path fill-rule="evenodd" clip-rule="evenodd" d="M66.2335 10.2054C80.0607 7.85826 94.9603 8.52832 106.88 15.9146C119.243 23.5756 126.623 36.9345 131.481 50.6374C136.446 64.643 141.591 80.9166 134.568 94.0131C127.696 106.827 110.047 107.577 97.2444 114.48C86.697 120.166 78.1487 129.569 66.2335 130.854C53.5228 132.224 40.6311 128.753 29.9488 121.734C18.9171 114.485 10.4849 103.795 6.10797 91.3475C1.65746 78.6904 -0.0441075 64.3264 5.4606 52.0903C10.7328 40.3712 23.933 35.493 34.5173 28.1983C44.776 21.128 53.9478 12.2909 66.2335 10.2054Z" fill="#F2F2F2"/>
<circle cx="70" cy="70" r="32" fill="url(#paint0_linear_6367_84978)"/>
<path d="M73.5338 48.5343L72.7697 52.3504L75.7649 49.7727L79.3431 50.2559L77.2598 47.1118L78.0338 43.1686L74.9255 45.7823L71.1791 45.5895L73.5338 48.5343Z" fill="white"/>
<path d="M86.1308 50.1329L84.3804 51.6786L84.8163 49.348L83.488 47.6365L85.747 47.7709L87.5603 46.1819L87.1399 48.582L88.3681 50.4682L86.1308 50.1329Z" fill="white"/>
<circle cx="93" cy="33" r="3" fill="url(#paint1_linear_6367_84978)"/>
<circle cx="102" cy="100" r="5" fill="url(#paint2_linear_6367_84978)"/>
<path d="M25.1626 83.5801L21.3537 86.2826L26.0908 86.4981L28.8168 89.8659L29.5867 85.4059L33.5088 82.6006L28.6434 82.3233L25.5313 79.0706L25.1626 83.5801Z" fill="url(#paint3_linear_6367_84978)"/>
<path opacity="0.22" fill-rule="evenodd" clip-rule="evenodd" d="M78.6345 82.2904C80.1966 83.8525 82.7292 83.8525 84.2913 82.2904C85.8534 80.7283 85.8534 78.1957 84.2913 76.6336L77.8883 70.2305L84.2904 63.8284C85.8525 62.2663 85.8525 59.7337 84.2904 58.1716C82.7283 56.6095 80.1957 56.6095 78.6336 58.1716L72.2315 64.5737L64.8293 57.1716C63.2672 55.6095 60.7346 55.6095 59.1725 57.1716C57.6104 58.7337 57.6104 61.2663 59.1725 62.8284L66.5746 70.2305L59.1716 77.6336C57.6095 79.1957 57.6095 81.7283 59.1716 83.2904C60.7337 84.8525 63.2663 84.8525 64.8284 83.2904L72.2315 75.8874L78.6345 82.2904Z" fill="black"/>
<path d="M60 79.462L79.462 60" stroke="white" stroke-width="8" stroke-linecap="round" stroke-linejoin="round"/>
<path d="M60.0009 60L79.4629 79.462" stroke="white" stroke-width="8" stroke-linecap="round" stroke-linejoin="round"/>
<defs>
<linearGradient id="paint0_linear_6367_84978" x1="89" y1="84" x2="30.4998" y2="73.2266" gradientUnits="userSpaceOnUse">
<stop offset="0.315031" stop-color="#E21D2A"/>
<stop offset="1" stop-color="#FF7780"/>
</linearGradient>
<linearGradient id="paint1_linear_6367_84978" x1="89.9177" y1="30" x2="96.8279" y2="31.1892" gradientUnits="userSpaceOnUse">
<stop offset="0.315031" stop-color="#E21D2A"/>
<stop offset="1" stop-color="#FF7780"/>
</linearGradient>
<linearGradient id="paint2_linear_6367_84978" x1="96.8628" y1="95" x2="108.38" y2="96.9821" gradientUnits="userSpaceOnUse">
<stop offset="0.315031" stop-color="#E21D2A"/>
<stop offset="1" stop-color="#FF7780"/>
</linearGradient>
<linearGradient id="paint3_linear_6367_84978" x1="35.4297" y1="85.2473" x2="26.6399" y2="76.3552" gradientUnits="userSpaceOnUse">
<stop offset="0.315031" stop-color="#E21D2A"/>
<stop offset="1" stop-color="#FF7780"/>
</linearGradient>
</defs>
</svg>
