<svg width="20" height="20" viewBox="0 0 20 20" fill="none" xmlns="http://www.w3.org/2000/svg">
<path d="M14.9993 9.99967L16.666 9.99967M14.9993 9.99967C14.9993 9.55765 14.8238 9.13372 14.5112 8.82116C14.1986 8.5086 13.7747 8.33301 13.3327 8.33301C12.8907 8.33301 12.4667 8.5086 12.1542 8.82116C11.8416 9.13372 11.666 9.55765 11.666 9.99967M14.9993 9.99967C14.9993 10.4417 14.8238 10.8656 14.5112 11.1782C14.1986 11.4907 13.7747 11.6663 13.3327 11.6663C12.8907 11.6663 12.4667 11.4907 12.1542 11.1782C11.8416 10.8656 11.666 10.4417 11.666 9.99967M4.99935 4.99967C4.99935 5.4417 5.17494 5.86562 5.4875 6.17819C5.80007 6.49075 6.22399 6.66634 6.66602 6.66634C7.10804 6.66634 7.53197 6.49075 7.84453 6.17819C8.15709 5.86562 8.33268 5.4417 8.33268 4.99967M4.99935 4.99967C4.99935 4.55765 5.17494 4.13372 5.4875 3.82116C5.80007 3.5086 6.22399 3.33301 6.66602 3.33301C7.10804 3.33301 7.53197 3.5086 7.84453 3.82116C8.15709 4.13372 8.33268 4.55765 8.33268 4.99967M4.99935 4.99967L3.33268 4.99967M8.33268 4.99967L16.666 4.99967M11.666 9.99967L3.33268 9.99967M4.99935 14.9997C4.99935 15.4417 5.17494 15.8656 5.4875 16.1782C5.80006 16.4907 6.22399 16.6663 6.66602 16.6663C7.10804 16.6663 7.53197 16.4907 7.84453 16.1782C8.15709 15.8656 8.33268 15.4417 8.33268 14.9997M4.99935 14.9997C4.99935 14.5576 5.17494 14.1337 5.4875 13.8212C5.80007 13.5086 6.22399 13.333 6.66602 13.333C7.10804 13.333 7.53197 13.5086 7.84453 13.8212C8.15709 14.1337 8.33268 14.5576 8.33268 14.9997M4.99935 14.9997L3.33268 14.9997M8.33268 14.9997L16.666 14.9997" stroke="#41778A" stroke-width="1.66667" stroke-linecap="round" stroke-linejoin="round"/>
</svg>
