<svg width="18" height="18" viewBox="0 0 18 18" fill="none" xmlns="http://www.w3.org/2000/svg">
<g clip-path="url(#clip0_4512_80192)">
<path d="M1.23467 13.2029C1.43284 15.0552 2.9226 16.545 4.77398 16.7514C6.14911 16.9046 7.56103 17.0363 9.00056 17.0363C10.4401 17.0363 11.852 16.9046 13.2271 16.7514C15.0785 16.545 16.5683 15.0552 16.7664 13.2029C16.9127 11.8356 17.0363 10.4318 17.0363 9.00056C17.0363 7.56935 16.9127 6.16553 16.7664 4.79816C16.5683 2.9459 15.0785 1.45613 13.2271 1.24977C11.852 1.09649 10.4401 0.964844 9.00056 0.964844C7.56103 0.964844 6.14911 1.09649 4.77398 1.24977C2.9226 1.45613 1.43284 2.9459 1.23467 4.79816C1.08838 6.16553 0.964844 7.56935 0.964844 9.00056C0.964844 10.4318 1.08838 11.8356 1.23467 13.2029Z" fill="white"/>
<path d="M1.23467 13.2029C1.43284 15.0552 2.9226 16.545 4.77398 16.7514C6.14911 16.9046 7.56103 17.0363 9.00056 17.0363C10.4401 17.0363 11.852 16.9046 13.2271 16.7514C15.0785 16.545 16.5683 15.0552 16.7664 13.2029C16.9127 11.8356 17.0363 10.4318 17.0363 9.00056C17.0363 7.56935 16.9127 6.16553 16.7664 4.79816C16.5683 2.9459 15.0785 1.45613 13.2271 1.24977C11.852 1.09649 10.4401 0.964844 9.00056 0.964844C7.56103 0.964844 6.14911 1.09649 4.77398 1.24977C2.9226 1.45613 1.43284 2.9459 1.23467 4.79816C1.08838 6.16553 0.964844 7.56935 0.964844 9.00056C0.964844 10.4318 1.08838 11.8356 1.23467 13.2029Z" stroke="#345F6E" stroke-width="1.28571"/>
<path d="M11.25 8.35742C12.4926 8.35742 13.5 7.35006 13.5 6.10742C13.5 4.86478 12.4926 3.85742 11.25 3.85742C10.0074 3.85742 9 4.86478 9 6.10742C9 7.35006 10.0074 8.35742 11.25 8.35742Z" fill="#A0BBC5" stroke="#345F6E" stroke-width="1.28571" stroke-linecap="round" stroke-linejoin="round"/>
<path d="M4.77448 16.751C2.92311 16.5446 1.43335 15.0549 1.23518 13.2026C1.11497 12.0791 1.01013 10.9309 0.976562 9.76321C1.50012 9.68184 2.02942 9.64163 2.55963 9.64305C4.80258 9.59232 6.9906 10.3402 8.73328 11.7532C10.3495 13.0636 11.4852 14.867 11.9717 16.881C10.997 16.9718 10.0058 17.0359 9.00107 17.0359C7.56153 17.0359 6.14961 16.9043 4.77448 16.751Z" fill="#A0BBC5" stroke="#345F6E" stroke-width="1.28571" stroke-linecap="round" stroke-linejoin="round"/>
<path d="M11.9704 16.8813C12.3923 16.842 12.811 16.7976 13.2263 16.7514C15.0777 16.545 16.5675 15.0552 16.7656 13.2029C16.7876 12.9973 16.8092 12.7908 16.8298 12.5836C15.9515 12.3386 15.0431 12.2144 14.1298 12.2149C12.7462 12.2119 11.3767 12.4919 10.1055 13.0377V13.1231C10.9966 14.2157 11.6364 15.4989 11.9704 16.8813Z" fill="#A0BBC5" stroke="#345F6E" stroke-width="1.28571" stroke-linecap="round" stroke-linejoin="round"/>
</g>
<defs>
<clipPath id="clip0_4512_80192">
<rect width="18" height="18" fill="white"/>
</clipPath>
</defs>
</svg>
