<svg width="18" height="18" viewBox="0 0 18 18" fill="none" xmlns="http://www.w3.org/2000/svg">
<circle cx="9" cy="9" r="8.5" stroke="#41778A"/>
<path d="M13.9475 9C13.9475 11.4095 13.3553 13.5667 12.4242 15.1051C11.4875 16.6527 10.2619 17.5 9.0001 17.5C7.73832 17.5 6.5127 16.6527 5.57598 15.1051C4.64488 13.5667 4.05273 11.4095 4.05273 9C4.05273 6.59053 4.64488 4.43328 5.57598 2.89494C6.5127 1.34731 7.73832 0.5 9.0001 0.5C10.2619 0.5 11.4875 1.34731 12.4242 2.89494C13.3553 4.43328 13.9475 6.59053 13.9475 9Z" stroke="#41778A"/>
<line x1="9.26367" y1="0.238281" x2="9.26367" y2="17.7646" stroke="#41778A"/>
<line x1="0.710938" y1="5.89453" x2="17.2899" y2="5.89453" stroke="#41778A"/>
<line x1="0.710938" y1="11.8164" x2="17.2899" y2="11.8164" stroke="#41778A"/>
</svg>
