<svg width="40" height="32" viewBox="0 0 40 32" fill="none" xmlns="http://www.w3.org/2000/svg">
<g clip-path="url(#clip0_4251_66169)">
<path fill-rule="evenodd" clip-rule="evenodd" d="M12.8678 2.25582H27.1322C27.3529 2.25669 27.5644 2.34578 27.7205 2.50368C27.8766 2.66158 27.9646 2.87549 27.9655 3.09879V13.7808C27.9646 14.0041 27.8766 14.218 27.7205 14.3759C27.5644 14.5338 27.3529 14.6229 27.1322 14.6238H12.8678C12.6488 14.6203 12.4398 14.5301 12.2858 14.3725C12.1318 14.2149 12.0451 14.0024 12.0443 13.7808V3.09879C12.0451 2.87549 12.1332 2.66158 12.2893 2.50368C12.4454 2.34578 12.6569 2.25669 12.8776 2.25582H12.8678ZM10.8887 30.9531H29.03V1.04405H10.8887V30.9531ZM30.0619 30.9531H38.9681V12.5427H30.0619V30.9531ZM9.85678 30.9531V12.5427H1.03191V30.9531H9.85678ZM0.517585 32.0002C0.380315 32.0002 0.248667 31.9451 0.151602 31.8469C0.0545374 31.7487 7.04659e-06 31.6155 7.04659e-06 31.4766V12.2661C-0.00042373 12.1652 0.0189004 12.0653 0.0568642 11.972C0.094828 11.8787 0.15068 11.794 0.221195 11.7226C0.291711 11.6513 0.375495 11.5948 0.46771 11.5564C0.559926 11.518 0.658747 11.4984 0.758471 11.4989H9.87305V0.91892C9.87164 0.796652 9.89454 0.675345 9.94039 0.562209C9.98625 0.449073 10.0541 0.346418 10.14 0.260348C10.2248 0.17319 10.3263 0.104329 10.4382 0.0579215C10.5501 0.0115139 10.6701 -0.0114779 10.791 -0.00966632H29.1537C29.2746 -0.0114779 29.3946 0.0115139 29.5065 0.0579215C29.6184 0.104329 29.7198 0.17319 29.8047 0.260348L29.8438 0.303155C29.9902 0.470241 30.0713 0.685725 30.0716 0.909041V11.4989H39.2513C39.3505 11.4987 39.4487 11.5184 39.5404 11.5569C39.632 11.5953 39.7152 11.6517 39.7852 11.7228C39.8554 11.7936 39.9112 11.8777 39.9492 11.9704C39.9872 12.0631 40.0067 12.1625 40.0065 12.2628V31.4766C40.0065 31.6155 39.952 31.7487 39.8549 31.8469C39.7579 31.9451 39.6262 32.0002 39.4889 32.0002H0.517585ZM32.3893 24.9107H36.4811C36.53 24.9107 36.569 24.9436 36.569 24.9733V26.6724C36.569 26.7053 36.5267 26.7349 36.4811 26.7349H32.3893C32.3438 26.7349 32.3014 26.7086 32.3014 26.6724V24.9733C32.3014 24.9403 32.3405 24.9107 32.3893 24.9107ZM3.47657 24.9107H7.57162C7.62045 24.9107 7.65951 24.9403 7.65951 24.9733V26.6724C7.65951 26.7053 7.61719 26.7349 7.57162 26.7349H3.47657C3.431 26.7349 3.39193 26.7086 3.39193 26.6724V24.9733C3.39193 24.9403 3.431 24.9107 3.47657 24.9107ZM32.3893 21.1898H36.4811C36.53 21.1898 36.569 21.2194 36.569 21.2523V22.9547C36.569 22.9844 36.5267 23.0173 36.4811 23.0173H32.3893C32.3438 23.0173 32.3014 22.9877 32.3014 22.9547V21.2523C32.3014 21.2161 32.3405 21.1898 32.3893 21.1898ZM32.3893 17.4524H36.4811C36.53 17.4524 36.569 17.482 36.569 17.5149V19.2305C36.569 19.2634 36.5267 19.2931 36.4811 19.2931H32.3893C32.3438 19.2931 32.3014 19.2667 32.3014 19.2305V17.5281C32.3014 17.4952 32.3405 17.4655 32.3893 17.4655V17.4524ZM3.47657 21.1898H7.57162C7.62045 21.1898 7.65951 21.2194 7.65951 21.2523V22.9547C7.65951 22.9877 7.61719 23.0173 7.57162 23.0173H3.47657C3.431 23.0173 3.39193 22.9877 3.39193 22.9547V21.2523C3.39193 21.2161 3.431 21.1898 3.47657 21.1898ZM3.47657 17.4655H7.57162C7.62045 17.4655 7.65951 17.4952 7.65951 17.5281V19.2305C7.65951 19.2634 7.61719 19.2931 7.57162 19.2931H3.47657C3.431 19.2931 3.39193 19.2667 3.39193 19.2305V17.5281C3.39193 17.4952 3.431 17.4655 3.47657 17.4655ZM23.6589 23.2017H26.6927C26.7158 23.2025 26.7377 23.2121 26.754 23.2286C26.7703 23.2451 26.7798 23.2673 26.7806 23.2906V26.3661C26.7798 26.3891 26.7701 26.4109 26.7537 26.4269C26.7374 26.4428 26.7155 26.4518 26.6927 26.4517H23.6654C23.6426 26.4518 23.6207 26.4428 23.6043 26.4269C23.588 26.4109 23.5783 26.3891 23.5775 26.3661V23.2906C23.5775 23.267 23.5867 23.2444 23.6032 23.2277C23.6197 23.2111 23.6421 23.2017 23.6654 23.2017H23.6589ZM18.4343 23.2017H21.4844C21.5074 23.2025 21.5293 23.2121 21.5456 23.2286C21.5619 23.2451 21.5715 23.2673 21.5723 23.2906V26.3661C21.5714 26.3891 21.5618 26.4109 21.5454 26.4269C21.529 26.4428 21.5071 26.4518 21.4844 26.4517H18.4408C18.418 26.4518 18.3961 26.4428 18.3797 26.4269C18.3633 26.4109 18.3537 26.3891 18.3529 26.3661V23.2906C18.3529 23.267 18.3621 23.2444 18.3786 23.2277C18.3951 23.2111 18.4175 23.2017 18.4408 23.2017H18.4343ZM13.2259 23.2017H16.263C16.2861 23.2025 16.308 23.2121 16.3243 23.2286C16.3406 23.2451 16.3501 23.2673 16.3509 23.2906V26.3661C16.3501 26.3891 16.3404 26.4109 16.3241 26.4269C16.3077 26.4428 16.2858 26.4518 16.263 26.4517H13.2162C13.1934 26.4518 13.1715 26.4428 13.1551 26.4269C13.1387 26.4109 13.1291 26.3891 13.1283 26.3661V23.2906C13.1283 23.267 13.1375 23.2444 13.154 23.2277C13.1705 23.2111 13.1928 23.2017 13.2162 23.2017H13.2259ZM23.6654 17.235H26.6927C26.7155 17.235 26.7374 17.2439 26.7537 17.2599C26.7701 17.2759 26.7798 17.2976 26.7806 17.3206V20.3962C26.7806 20.4079 26.7783 20.4194 26.7739 20.4302C26.7695 20.441 26.763 20.4508 26.7549 20.459C26.7467 20.4673 26.737 20.4739 26.7264 20.4783C26.7157 20.4828 26.7043 20.4851 26.6927 20.4851H23.6654C23.6538 20.4851 23.6424 20.4828 23.6317 20.4783C23.6211 20.4739 23.6114 20.4673 23.6032 20.459C23.5951 20.4508 23.5886 20.441 23.5842 20.4302C23.5798 20.4194 23.5775 20.4079 23.5775 20.3962V17.3206C23.5783 17.2976 23.588 17.2759 23.6043 17.2599C23.6207 17.2439 23.6426 17.235 23.6654 17.235ZM18.4408 17.235H21.4844C21.5071 17.235 21.529 17.2439 21.5454 17.2599C21.5618 17.2759 21.5714 17.2976 21.5723 17.3206V20.3962C21.5723 20.4198 21.563 20.4424 21.5465 20.459C21.53 20.4757 21.5077 20.4851 21.4844 20.4851H18.4408C18.4292 20.4851 18.4178 20.4828 18.4071 20.4783C18.3965 20.4739 18.3868 20.4673 18.3786 20.459C18.3705 20.4508 18.364 20.441 18.3596 20.4302C18.3551 20.4194 18.3529 20.4079 18.3529 20.3962V17.3206C18.3537 17.2976 18.3633 17.2759 18.3797 17.2599C18.3961 17.2439 18.418 17.235 18.4408 17.235ZM13.2324 17.235H16.2695C16.2923 17.235 16.3142 17.2439 16.3306 17.2599C16.347 17.2759 16.3566 17.2976 16.3574 17.3206V20.3962C16.3574 20.4079 16.3552 20.4194 16.3507 20.4302C16.3463 20.441 16.3398 20.4508 16.3317 20.459C16.3235 20.4673 16.3138 20.4739 16.3032 20.4783C16.2925 20.4828 16.2811 20.4851 16.2695 20.4851H13.2162C13.2046 20.4851 13.1932 20.4828 13.1825 20.4783C13.1719 20.4739 13.1622 20.4673 13.154 20.459C13.1458 20.4508 13.1394 20.441 13.135 20.4302C13.1305 20.4194 13.1283 20.4079 13.1283 20.3962V17.3206C13.1291 17.2976 13.1387 17.2759 13.1551 17.2599C13.1715 17.2439 13.1934 17.235 13.2162 17.235H13.2324ZM17.5326 10.6493V8.6736H16.4193V10.6493H14.4662V4.9856H16.4193V7.07986H17.5163V4.9856H19.4694V10.6625L17.5326 10.6493ZM22.8678 10.7613C21.9369 10.7613 21.263 10.5308 20.8464 10.0698C20.4297 9.60877 20.2214 8.858 20.2214 7.81087C20.2214 6.76374 20.4102 6.02614 20.8333 5.56514C21.2565 5.10414 21.9206 4.87694 22.8646 4.87694C23.8086 4.87694 24.4922 5.10744 24.9089 5.56514C25.3255 6.02285 25.5371 6.80984 25.5371 7.91954C25.5371 9.02923 25.2702 9.80634 24.7331 10.2575L25.3906 11.2651L23.916 12.0027L23.112 10.7646C23.0307 10.7694 22.9492 10.7694 22.8678 10.7646V10.7613ZM22.1322 7.7977C22.1119 8.14855 22.1652 8.49977 22.2884 8.82837C22.3407 8.93759 22.425 9.02783 22.5299 9.08677C22.6348 9.1457 22.7551 9.17046 22.8744 9.15765C22.9915 9.17036 23.1096 9.14538 23.2119 9.08626C23.3141 9.02714 23.3954 8.93689 23.444 8.82837C23.553 8.49424 23.5994 8.14246 23.5807 7.79112C23.594 7.4503 23.5455 7.10991 23.4375 6.78679C23.3885 6.67858 23.3072 6.58862 23.205 6.52956C23.1028 6.4705 22.9849 6.4453 22.8678 6.45751C22.7486 6.44518 22.6285 6.47015 22.5237 6.52903C22.419 6.58791 22.3346 6.67788 22.2819 6.78679C22.1589 7.11431 22.1057 7.4644 22.1257 7.81417L22.1322 7.7977Z" fill="#41778A"/>
</g>
<defs>
<clipPath id="clip0_4251_66169">
<rect width="40" height="32" fill="white"/>
</clipPath>
</defs>
</svg>
