<svg width="18" height="18" viewBox="0 0 18 18" fill="none" xmlns="http://www.w3.org/2000/svg">
<path d="M14.25 15.75V3.75C14.25 3.35218 14.092 2.97064 13.8107 2.68934C13.5294 2.40804 13.1478 2.25 12.75 2.25H5.25C4.85218 2.25 4.47064 2.40804 4.18934 2.68934C3.90804 2.97064 3.75 3.35218 3.75 3.75V15.75M14.25 15.75H15.75M14.25 15.75H10.5M3.75 15.75H2.25M3.75 15.75H7.5M6.75 5.25H7.5M6.75 8.25H7.5M10.5 5.25H11.25M10.5 8.25H11.25M7.5 15.75V12C7.5 11.8011 7.57902 11.6103 7.71967 11.4697C7.86032 11.329 8.05109 11.25 8.25 11.25H9.75C9.94891 11.25 10.1397 11.329 10.2803 11.4697C10.421 11.6103 10.5 11.8011 10.5 12V15.75M7.5 15.75H10.5" stroke="#41778A" stroke-width="1.5" stroke-linecap="round" stroke-linejoin="round"/>
</svg>
