<svg width="16" height="16" viewBox="0 0 16 16" fill="none" xmlns="http://www.w3.org/2000/svg">
<g clip-path="url(#clip0_3968_62496)">
<path d="M3.51331 7.88727C2.10126 7.62264 1.03906 6.47846 1.03906 5.10707C1.03906 3.53978 2.42643 2.26923 4.13782 2.26923C4.54313 2.26923 4.93025 2.34049 5.28507 2.47007C5.84399 1.63541 6.84948 1.07861 7.99697 1.07861C9.14518 1.07861 10.1512 1.6361 10.7099 2.47165C11.0659 2.34107 11.4545 2.26923 11.8615 2.26923C13.5729 2.26923 14.9602 3.53978 14.9602 5.10707C14.9602 6.47839 13.8982 7.62253 12.4862 7.88722C12.5293 8.49007 12.5585 9.10221 12.5585 9.722C12.5585 10.9403 12.4456 12.1291 12.3367 13.2759C12.3219 13.4309 12.3073 13.5851 12.293 13.7386C12.2419 14.2872 11.8136 14.7299 11.2647 14.777C9.02369 14.9695 6.97585 14.9695 4.73483 14.777C4.18594 14.7299 3.75756 14.2872 3.7065 13.7387C3.69221 13.5853 3.67756 13.431 3.66284 13.2759C3.55395 12.1291 3.44106 10.9404 3.44106 9.722C3.44106 9.10223 3.47027 8.4901 3.51331 7.88727Z" fill="#A0BBC5" stroke="#345F6E" stroke-width="1.14286" stroke-linejoin="round"/>
<path d="M12.4701 11.7604C12.4309 12.2729 12.3829 12.7783 12.3357 13.2759C12.321 13.431 12.3063 13.5853 12.292 13.7388C12.241 14.2874 11.8125 14.7301 11.2637 14.7772C9.02265 14.9697 6.97481 14.9697 4.7338 14.7772C4.1849 14.7301 3.75653 14.2874 3.70547 13.7389C3.69117 13.5854 3.67652 13.4311 3.6618 13.2761C3.61454 12.7785 3.56654 12.2729 3.52734 11.7604C4.97499 11.7214 6.46985 11.6836 7.99877 11.6836C9.52766 11.6836 11.0225 11.7214 12.4701 11.7604Z" fill="white" stroke="#345F6E" stroke-width="1.14286"/>
</g>
<defs>
<clipPath id="clip0_3968_62496">
<rect width="16" height="16" fill="white"/>
</clipPath>
</defs>
</svg>
