<svg width="24" height="24" viewBox="0 0 24 24" fill="none" xmlns="http://www.w3.org/2000/svg">
<path d="M3.00488 4.1531C2.09393 9.2563 1.85499 16.5492 2.37615 21.2775C2.46797 22.1104 3.18601 22.7142 4.02403 22.7142H19.9768C20.8147 22.7142 21.5328 22.1104 21.6245 21.2775C22.1457 16.5492 21.9069 9.2563 20.9959 4.1531C20.7734 2.90659 19.8009 1.96304 18.5471 1.78556C16.7723 1.53429 14.262 1.28564 12.0004 1.28564C9.73873 1.28564 7.22845 1.53429 5.45364 1.78556C4.19991 1.96304 3.2274 2.90659 3.00488 4.1531Z" fill="#A0BBC5" stroke="#345F6E" stroke-width="1.71429" stroke-linecap="round" stroke-linejoin="round"/>
<path d="M14.5713 12.8569H16.2856" stroke="#345F6E" stroke-width="1.71429" stroke-linecap="round" stroke-linejoin="round"/>
<path d="M9.42871 19.7145V22.7145H14.5716V19.7145C14.5716 18.2944 13.4203 17.1431 12.0001 17.1431C10.58 17.1431 9.42871 18.2944 9.42871 19.7145Z" fill="white" stroke="#345F6E" stroke-width="1.71429" stroke-linecap="round" stroke-linejoin="round"/>
<path d="M7.71387 7.71436H9.42815" stroke="#345F6E" stroke-width="1.71429" stroke-linecap="round" stroke-linejoin="round"/>
<path d="M14.5713 7.71436H16.2856" stroke="#345F6E" stroke-width="1.71429" stroke-linecap="round" stroke-linejoin="round"/>
<path d="M7.71387 12.8569H9.42815" stroke="#345F6E" stroke-width="1.71429" stroke-linecap="round" stroke-linejoin="round"/>
</svg>
