<svg width="24" height="24" viewBox="0 0 24 24" fill="none" xmlns="http://www.w3.org/2000/svg">
<path d="M1.76851 18.0629C1.97235 19.7049 3.29882 21.0019 4.94441 21.174C7.2215 21.4119 9.58148 21.6633 11.9999 21.6633C14.4184 21.6633 16.7784 21.4119 19.0554 21.174C20.701 21.0019 22.0275 19.7049 22.2313 18.0629C22.4747 16.1025 22.7142 14.0752 22.7142 12C22.7142 9.92475 22.4747 7.89742 22.2313 5.93707C22.0275 4.29513 20.701 2.99803 19.0554 2.826C16.7784 2.58797 14.4184 2.33664 11.9999 2.33664C9.58148 2.33664 7.22148 2.58797 4.94441 2.826C3.29882 2.99803 1.97235 4.29513 1.76849 5.93707C1.52511 7.89742 1.28564 9.92475 1.28564 12C1.28564 14.0752 1.52511 16.1025 1.76851 18.0629Z" fill="#A0BBC5" stroke="#345F6E" stroke-width="1.71429"/>
<path d="M1.81641 5.49316L9.87718 11.8488C11.1222 12.8304 12.8778 12.8304 14.1228 11.8488L22.1835 5.49316" stroke="#345F6E" stroke-width="1.71429" stroke-linejoin="round"/>
</svg>
