<svg width="25" height="24" viewBox="0 0 25 24" fill="none" xmlns="http://www.w3.org/2000/svg">
<path d="M2.75893 5.9403C2.84584 5.21005 3.3517 4.65546 4.07455 4.52037C5.30913 4.28965 7.7128 4 12 4C16.2872 4 18.6908 4.28965 19.9254 4.52037C20.6483 4.65546 21.1542 5.21005 21.2411 5.9403C21.364 6.9728 21.5 8.83145 21.5 12C21.5 15.1686 21.364 17.0272 21.2411 18.0597C21.1542 18.79 20.6483 19.3446 19.9254 19.4797C18.6908 19.7104 16.2872 20 12 20C7.7128 20 5.30913 19.7104 4.07455 19.4797C3.3517 19.3446 2.84584 18.79 2.75893 18.0597C2.63605 17.0272 2.5 15.1686 2.5 12C2.5 8.83145 2.63605 6.9728 2.75893 5.9403Z" fill="#E0E0E0"/>
<path d="M17.9151 2.03126C18.2276 2.05703 18.4424 2.28598 18.4636 2.59889C18.4831 2.88636 18.5 3.32917 18.5 4C18.5 4.10874 18.4996 4.21148 18.4988 4.30854C19.0896 4.37827 19.5588 4.45191 19.9252 4.52037C20.648 4.65546 21.1539 5.21005 21.2408 5.9403C21.2987 6.42665 21.3595 7.0964 21.4076 8H2.5918C2.63993 7.0964 2.70074 6.42665 2.75863 5.9403C2.84553 5.21005 3.3514 4.65546 4.07425 4.52037C4.4407 4.45189 4.91014 4.37822 5.50125 4.30847C5.50045 4.21143 5.5 4.1087 5.5 4C5.5 3.32917 5.5169 2.88636 5.5364 2.59889C5.5576 2.28598 5.7724 2.05703 6.08495 2.03126C6.29765 2.01372 6.5938 2 7 2C7.4062 2 7.70235 2.01372 7.91505 2.03126C8.2276 2.05703 8.4424 2.28598 8.4636 2.59889C8.4831 2.88636 8.5 3.32917 8.5 4C8.5 4.02523 8.5 4.05012 8.49995 4.07471C9.49595 4.02848 10.6552 4 11.9997 4C13.3445 4 14.5039 4.0285 15.5001 4.07474L15.5 4C15.5 3.32917 15.5169 2.88636 15.5364 2.59889C15.5576 2.28598 15.7724 2.05703 16.085 2.03126C16.2977 2.01372 16.5938 2 17 2C17.4062 2 17.7024 2.01372 17.9151 2.03126Z" fill="#9E9E9E"/>
<path d="M5.52245 11.0996C5.5399 10.8124 5.72675 10.5899 6.01205 10.5527C6.2323 10.524 6.55065 10.5 7 10.5C7.44935 10.5 7.7677 10.524 7.98795 10.5527C8.27325 10.5899 8.4601 10.8124 8.47755 11.0996C8.49005 11.305 8.5 11.5956 8.5 12C8.5 12.4044 8.49005 12.695 8.47755 12.9004C8.4601 13.1876 8.27325 13.4101 7.98795 13.4473C7.7677 13.476 7.44935 13.5 7 13.5C6.55065 13.5 6.2323 13.476 6.01205 13.4473C5.72675 13.4101 5.5399 13.1876 5.52245 12.9004C5.50995 12.695 5.5 12.4044 5.5 12C5.5 11.5956 5.50995 11.305 5.52245 11.0996Z" fill="#9E9E9E"/>
<path d="M23.5 17.5C23.5 20.5376 21.0376 23 18 23C14.9624 23 12.5 20.5376 12.5 17.5C12.5 14.4624 14.9624 12 18 12C21.0376 12 23.5 14.4624 23.5 17.5Z" fill="#9E9E9E"/>
<path fill-rule="evenodd" clip-rule="evenodd" d="M17.8881 13.9243C18.3095 13.9243 18.6511 14.2679 18.6511 14.6918V17.2157C18.6511 17.288 18.6798 17.3574 18.731 17.4089L20.5259 19.2142C20.8239 19.5139 20.8239 19.9998 20.5259 20.2995C20.2279 20.5993 19.7448 20.5993 19.4469 20.2995L17.1969 18.4292C16.9921 18.2589 16.8822 18.0013 16.9016 17.7368L17.1251 14.6918C17.1251 14.2679 17.4667 13.9243 17.8881 13.9243Z" fill="#E0E0E0"/>
</svg>
