<svg width="24" height="24" viewBox="0 0 24 24" fill="none" xmlns="http://www.w3.org/2000/svg">
<path d="M2.25893 5.9403C2.34584 5.21005 2.8517 4.65546 3.57455 4.52037C4.80913 4.28965 7.2128 4 11.5 4C15.7872 4 18.1908 4.28965 19.4254 4.52037C20.1483 4.65546 20.6542 5.21005 20.7411 5.9403C20.864 6.9728 21 8.83145 21 12C21 15.1686 20.864 17.0272 20.7411 18.0597C20.6542 18.79 20.1483 19.3446 19.4254 19.4797C18.1908 19.7104 15.7872 20 11.5 20C7.2128 20 4.80913 19.7104 3.57455 19.4797C2.8517 19.3446 2.34584 18.79 2.25893 18.0597C2.13605 17.0272 2 15.1686 2 12C2 8.83145 2.13605 6.9728 2.25893 5.9403Z" fill="#A0BBC5"/>
<path d="M17.4151 2.03126C17.7276 2.05703 17.9424 2.28598 17.9636 2.59889C17.9831 2.88636 18 3.32917 18 4C18 4.10874 17.9996 4.21148 17.9988 4.30854C18.5896 4.37827 19.0588 4.45191 19.4252 4.52037C20.148 4.65546 20.6539 5.21005 20.7408 5.9403C20.7987 6.42665 20.8595 7.0964 20.9076 8H2.0918C2.13993 7.0964 2.20074 6.42665 2.25863 5.9403C2.34553 5.21005 2.8514 4.65546 3.57425 4.52037C3.9407 4.45189 4.41014 4.37822 5.00125 4.30847C5.00045 4.21143 5 4.10871 5 4C5 3.32917 5.0169 2.88636 5.0364 2.59889C5.0576 2.28598 5.2724 2.05703 5.58495 2.03126C5.79765 2.01372 6.0938 2 6.5 2C6.9062 2 7.20235 2.01372 7.41505 2.03126C7.7276 2.05703 7.9424 2.28598 7.9636 2.59889C7.9831 2.88636 8 3.32917 8 4C8 4.02522 8 4.05012 7.99995 4.07471C8.99595 4.02848 10.1552 4 11.4997 4C12.8445 4 14.0039 4.0285 15.0001 4.07474L15 4C15 3.32917 15.0169 2.88636 15.0364 2.59889C15.0576 2.28598 15.2724 2.05703 15.585 2.03126C15.7977 2.01372 16.0938 2 16.5 2C16.9062 2 17.2024 2.01372 17.4151 2.03126Z" fill="#345F6E"/>
<path d="M5.02245 11.0996C5.0399 10.8124 5.22675 10.5899 5.51205 10.5527C5.7323 10.524 6.05065 10.5 6.5 10.5C6.94935 10.5 7.2677 10.524 7.48795 10.5527C7.77325 10.5899 7.9601 10.8124 7.97755 11.0996C7.99005 11.305 8 11.5956 8 12C8 12.4044 7.99005 12.695 7.97755 12.9004C7.9601 13.1876 7.77325 13.4101 7.48795 13.4473C7.2677 13.476 6.94935 13.5 6.5 13.5C6.05065 13.5 5.7323 13.476 5.51205 13.4473C5.22675 13.4101 5.0399 13.1876 5.02245 12.9004C5.00995 12.695 5 12.4044 5 12C5 11.5956 5.00995 11.305 5.02245 11.0996Z" fill="#345F6E"/>
<path d="M23 17.5C23 20.5376 20.5376 23 17.5 23C14.4624 23 12 20.5376 12 17.5C12 14.4624 14.4624 12 17.5 12C20.5376 12 23 14.4624 23 17.5Z" fill="#345F6E"/>
<path fill-rule="evenodd" clip-rule="evenodd" d="M17.3881 13.9243C17.8095 13.9243 18.1511 14.2679 18.1511 14.6918V17.2157C18.1511 17.288 18.1798 17.3574 18.231 17.4089L20.0259 19.2142C20.3239 19.5139 20.3239 19.9998 20.0259 20.2995C19.7279 20.5993 19.2448 20.5993 18.9469 20.2995L16.6969 18.4292C16.4921 18.2589 16.3822 18.0013 16.4016 17.7368L16.6251 14.6918C16.6251 14.2679 16.9667 13.9243 17.3881 13.9243Z" fill="#A0BBC5"/>
</svg>
