<svg width="40" height="39" viewBox="0 0 40 39" fill="none" xmlns="http://www.w3.org/2000/svg">
<g clip-path="url(#clip0_4251_66171)">
<path fill-rule="evenodd" clip-rule="evenodd" d="M4.85026 2.47469H9.5638V0.929273C9.56592 0.68694 9.66414 0.45516 9.83724 0.284005C10.0096 0.111546 10.2434 0.0130653 10.4883 0.00976562H29.4987C29.7436 0.0130653 29.9774 0.111546 30.1497 0.284005L30.1921 0.325947C30.3422 0.495582 30.4255 0.713289 30.4264 0.938952V2.47469H35.0586C35.4506 2.47554 35.8263 2.63003 36.1038 2.90445C36.3813 3.17887 36.538 3.55094 36.5397 3.93945V14.6025C36.538 14.991 36.3813 15.3631 36.1038 15.6375C35.8263 15.9119 35.4506 16.0664 35.0586 16.0673H30.4362V17.5901H39.2253C39.4324 17.5906 39.6311 17.6717 39.7786 17.8159C39.8517 17.8878 39.9098 17.9732 39.9494 18.0673C39.9891 18.1614 40.0096 18.2624 40.0098 18.3644V38.4677C40.0098 38.6081 39.9535 38.7427 39.8534 38.8419C39.7533 38.9411 39.6175 38.9969 39.4759 38.9969H0.533854C0.463901 38.9973 0.394554 38.984 0.329803 38.9578C0.265052 38.9315 0.206174 38.8928 0.156558 38.844C0.106942 38.7951 0.067567 38.737 0.0406986 38.673C0.0138302 38.6089 -1.31638e-06 38.5403 0 38.471L0 18.3644C0.000861 18.1588 0.0838939 17.9618 0.230924 17.8167C0.377954 17.6716 0.577004 17.5901 0.784505 17.5901H9.57357V16.0673H4.85026C4.45857 16.0664 4.08317 15.9118 3.8062 15.6373C3.52924 15.3628 3.37326 14.9907 3.3724 14.6025V3.95558C3.37068 3.76199 3.40761 3.56997 3.48107 3.39059C3.55453 3.2112 3.66307 3.04799 3.80043 2.91035C3.93779 2.77271 4.10126 2.66335 4.28144 2.58858C4.46161 2.51382 4.65493 2.47511 4.85026 2.47469ZM9.58659 6.4689C9.92379 6.4486 10.2615 6.49999 10.577 6.61963C10.8925 6.73927 11.1786 6.92438 11.416 7.16256C11.8773 7.70905 12.1102 8.40972 12.0671 9.12095C12.1196 9.90915 11.863 10.687 11.3509 11.2923C11.0916 11.5548 10.7783 11.759 10.4323 11.8909C10.0863 12.0228 9.71571 12.0794 9.3457 12.0569C9.00762 12.0775 8.66906 12.0252 8.35327 11.9038C8.03748 11.7824 7.75194 11.5947 7.51628 11.3536C7.05291 10.7956 6.82026 10.0842 6.86523 9.36293C6.81482 8.58842 7.06785 7.8245 7.57161 7.23031C7.83325 6.97072 8.14771 6.76939 8.49405 6.63976C8.84038 6.51014 9.21062 6.45518 9.58008 6.47858L9.58659 6.4689ZM9.4401 7.80138C9.26794 7.78973 9.09606 7.82784 8.94531 7.91107C8.81946 8.0098 8.73483 8.15112 8.70768 8.30791C8.65136 8.57842 8.62732 8.85456 8.63607 9.13063C8.62642 9.48066 8.6515 9.83079 8.71094 10.176C8.73399 10.367 8.82383 10.5439 8.96484 10.676C9.12207 10.7806 9.30981 10.8305 9.4987 10.818C9.6712 10.8289 9.84315 10.7896 9.99349 10.7051C10.12 10.6056 10.2047 10.463 10.2311 10.305C10.2871 10.0334 10.3111 9.7562 10.3027 9.47907C10.3106 9.13122 10.2856 8.7834 10.2279 8.44019C10.2037 8.24886 10.1127 8.07194 9.9707 7.94011C9.81429 7.83674 9.62761 7.78793 9.4401 7.80138ZM14.5768 7.84977L14.5508 8.81767H15.1237L16.1003 8.79186L16.1947 8.90801L16.0938 10.1211L15.013 10.0953H14.5247V10.205L14.5833 11.9375H12.8971L12.9818 10.3566L12.8971 6.55924H16.5202L16.6113 6.67538L16.5039 7.88849L15.1595 7.84009L14.5768 7.84977ZM18.8932 7.84977L18.8672 8.81767H19.4401L20.4167 8.79186L20.5111 8.90801L20.4102 10.1211L19.3262 10.0953H18.8314V10.205L18.8997 11.9375H17.2135L17.2982 10.3566L17.2135 6.55924H20.8333L20.9245 6.67538L20.8333 7.89817L19.4922 7.84977H18.8932ZM23.151 10.2018L23.2161 11.9472H21.5299L21.6113 10.3663L21.5299 6.56891H23.2389L23.1478 10.2018H23.151ZM27.0182 6.47858C27.4805 6.47478 27.9399 6.55121 28.3757 6.70442L28.0924 8.02399L27.9818 8.09175C27.8236 8.00802 27.6551 7.94511 27.4805 7.90462C27.3073 7.85916 27.129 7.83531 26.9499 7.83364C26.8125 7.82069 26.674 7.84059 26.546 7.89168C26.418 7.94276 26.3042 8.02354 26.2142 8.12724C26.0392 8.4188 25.9596 8.75692 25.9863 9.09514C25.9552 9.50447 26.0457 9.91387 26.2467 10.2728C26.3379 10.3959 26.4585 10.4945 26.5977 10.5599C26.737 10.6252 26.8904 10.6552 27.0443 10.647C27.22 10.6453 27.3953 10.6291 27.5684 10.5986C27.742 10.5749 27.9124 10.5316 28.0762 10.4696L28.2096 10.5534L28.0762 11.8666C27.6982 11.9783 27.3052 12.0317 26.9108 12.0247C26.0102 12.0247 25.332 11.7924 24.8763 11.3278C24.4206 10.8632 24.1927 10.1824 24.1927 9.29195C24.1686 8.91295 24.2213 8.53301 24.3476 8.17451C24.474 7.816 24.6714 7.48619 24.9284 7.2045C25.2076 6.94756 25.5373 6.75047 25.8969 6.62556C26.2565 6.50066 26.6382 6.45062 27.0182 6.47858ZM32.9948 10.618L33.0859 10.7341L32.9883 11.9472H29.1471L29.2318 10.3663L29.1471 6.56891H33.0371L33.1283 6.68506L33.0208 7.89817L31.6862 7.84977H30.8236V8.60474H31.6536L32.526 8.58215L32.6172 8.6983L32.5163 9.9114L31.5397 9.88559H30.7747V10.2082V10.6728H31.5755L32.9655 10.6244L32.9948 10.618ZM10.6283 2.47469H29.3685V1.05833H10.6283V2.47469ZM29.3685 16.0673H10.6283V37.9451H29.3685V16.0673ZM23.8704 31.1569H26.9206C26.9385 31.1569 26.9563 31.1604 26.9729 31.1672C26.9895 31.174 27.0046 31.184 27.0172 31.1965C27.0299 31.2091 27.04 31.2241 27.0469 31.2405C27.0538 31.2569 27.0573 31.2746 27.0573 31.2924V34.309C27.0573 34.3268 27.0538 34.3444 27.0469 34.3608C27.04 34.3773 27.0299 34.3922 27.0172 34.4048C27.0046 34.4174 26.9895 34.4274 26.9729 34.4342C26.9563 34.441 26.9385 34.4445 26.9206 34.4445H23.8704C23.8525 34.4445 23.8347 34.441 23.8181 34.4342C23.8015 34.4274 23.7865 34.4174 23.7738 34.4048C23.7611 34.3922 23.751 34.3773 23.7441 34.3608C23.7373 34.3444 23.7337 34.3268 23.7337 34.309V31.2956C23.7337 31.2778 23.7373 31.2602 23.7441 31.2437C23.751 31.2273 23.7611 31.2124 23.7738 31.1998C23.7865 31.1872 23.8015 31.1772 23.8181 31.1704C23.8347 31.1636 23.8525 31.1601 23.8704 31.1601V31.1569ZM18.4733 31.1569H21.5234C21.5597 31.1569 21.5945 31.1711 21.6201 31.1965C21.6458 31.222 21.6602 31.2564 21.6602 31.2924V34.309C21.6602 34.3449 21.6458 34.3794 21.6201 34.4048C21.5945 34.4302 21.5597 34.4445 21.5234 34.4445H18.4733C18.437 34.4445 18.4023 34.4302 18.3766 34.4048C18.351 34.3794 18.3366 34.3449 18.3366 34.309V31.2956C18.3366 31.2596 18.351 31.2252 18.3766 31.1998C18.4023 31.1744 18.437 31.1601 18.4733 31.1601V31.1569ZM13.0762 31.1569H16.1263C16.1456 31.155 16.1651 31.1573 16.1834 31.1635C16.2018 31.1696 16.2186 31.1796 16.2327 31.1927C16.2469 31.2059 16.2581 31.2218 16.2656 31.2395C16.273 31.2573 16.2766 31.2764 16.276 31.2956V34.3122C16.276 34.3482 16.2616 34.3826 16.236 34.408C16.2104 34.4334 16.1756 34.4477 16.1393 34.4477H13.0762C13.0582 34.4477 13.0404 34.4442 13.0239 34.4374C13.0073 34.4306 12.9922 34.4206 12.9795 34.408C12.9668 34.3955 12.9567 34.3805 12.9499 34.3641C12.943 34.3476 12.9395 34.33 12.9395 34.3122V31.2956C12.9395 31.2778 12.943 31.2602 12.9499 31.2437C12.9567 31.2273 12.9668 31.2124 12.9795 31.1998C12.9922 31.1872 13.0073 31.1772 13.0239 31.1704C13.0404 31.1636 13.0582 31.1601 13.0762 31.1601V31.1569ZM30.4297 37.9322H38.9355V18.6451H30.4362V37.9451L30.4297 37.9322ZM9.5638 37.9322V18.6451H1.06771V37.9451L9.5638 37.9322ZM32.8418 31.1569H36.5723C36.5925 31.156 36.6125 31.1619 36.629 31.1736C36.6455 31.1853 36.6576 31.2021 36.6634 31.2214V32.941C36.6634 32.9668 36.6113 33.0088 36.5723 33.0088H32.8418C32.806 33.0088 32.7507 32.9765 32.7507 32.941V31.2311C32.7507 31.1956 32.793 31.1665 32.8418 31.1665V31.1569ZM3.34635 31.1569H7.16146C7.21029 31.1569 7.2526 31.1956 7.2526 31.2214V32.941C7.2526 32.9668 7.20052 33.0088 7.16146 33.0088H3.34635C3.30729 33.0088 3.25521 32.9765 3.25521 32.941V31.2311C3.25521 31.1956 3.29753 31.1665 3.34635 31.1665V31.1569ZM32.8418 26.9787H36.5723C36.5927 26.9773 36.6129 26.983 36.6296 26.9948C36.6462 27.0065 36.6582 27.0237 36.6634 27.0433V28.7629C36.6634 28.7887 36.6113 28.8274 36.5723 28.8274H32.8418C32.8027 28.8274 32.7507 28.7984 32.7507 28.7629V27.0529C32.7507 27.0175 32.793 26.9884 32.8418 26.9884V26.9787ZM32.8418 22.7845H36.5723C36.5925 22.7837 36.6125 22.7896 36.629 22.8013C36.6455 22.8129 36.6576 22.8298 36.6634 22.849V24.5719C36.6634 24.5945 36.6113 24.6364 36.5723 24.6364H32.8418C32.806 24.6364 32.7507 24.6074 32.7507 24.5719V22.8716C32.7507 22.8393 32.793 22.8071 32.8418 22.8071V22.7845ZM3.34635 26.9787H7.16146C7.21029 26.9787 7.2526 27.0175 7.2526 27.0433V28.7629C7.2526 28.7887 7.20052 28.8274 7.16146 28.8274H3.34635C3.30729 28.8274 3.25521 28.7984 3.25521 28.7629V27.0529C3.25521 27.0175 3.29753 26.9884 3.34635 26.9884V26.9787ZM3.34635 22.7845H7.16146C7.18161 22.7842 7.20133 22.7903 7.21773 22.8019C7.23413 22.8135 7.24635 22.83 7.2526 22.849V24.5719C7.2526 24.5977 7.20052 24.6364 7.16146 24.6364H3.34635C3.30729 24.6364 3.25521 24.6074 3.25521 24.5719V22.8716C3.25521 22.8393 3.29753 22.8071 3.34635 22.8071V22.7845ZM23.8281 25.1655H26.9661C26.9898 25.1671 27.0121 25.1771 27.0289 25.1937C27.0457 25.2103 27.0558 25.2324 27.0573 25.2559V28.3919C27.0539 28.4143 27.0431 28.435 27.0266 28.4507C27.0101 28.4665 26.9889 28.4764 26.9661 28.479H23.8281C23.8047 28.4782 23.7825 28.4689 23.7656 28.4528C23.7488 28.4367 23.7386 28.415 23.737 28.3919V25.2688C23.7351 25.2559 23.7361 25.2427 23.7398 25.2302C23.7435 25.2177 23.7499 25.2062 23.7586 25.1964C23.7673 25.1866 23.778 25.1787 23.79 25.1734C23.802 25.1681 23.815 25.1654 23.8281 25.1655ZM18.431 25.1655H21.569C21.5927 25.1671 21.615 25.1771 21.6318 25.1937C21.6485 25.2103 21.6586 25.2324 21.6602 25.2559V28.3919C21.6567 28.4143 21.6459 28.435 21.6295 28.4507C21.613 28.4665 21.5917 28.4764 21.569 28.479H18.431C18.4076 28.4782 18.3853 28.4689 18.3685 28.4528C18.3517 28.4367 18.3414 28.415 18.3398 28.3919V25.2688C18.3398 25.2448 18.3494 25.2218 18.3665 25.2049C18.3836 25.188 18.4068 25.1784 18.431 25.1784V25.1655ZM13.0208 25.1655H16.1621C16.1858 25.1671 16.2081 25.1771 16.2249 25.1937C16.2416 25.2103 16.2517 25.2324 16.2533 25.2559V28.3919C16.2493 28.4141 16.2384 28.4345 16.222 28.4502C16.2056 28.4658 16.1847 28.4759 16.1621 28.479H13.0208C12.998 28.4775 12.9765 28.4678 12.9604 28.4518C12.9442 28.4358 12.9345 28.4145 12.9329 28.3919V25.2688C12.9311 25.2562 12.932 25.2433 12.9355 25.231C12.9391 25.2187 12.9452 25.2073 12.9535 25.1976C12.9618 25.1878 12.9721 25.1799 12.9837 25.1744C12.9953 25.1689 13.008 25.1659 13.0208 25.1655ZM23.8281 19.1387H26.9661C26.9901 19.1395 27.0128 19.1493 27.0297 19.1661C27.0466 19.1829 27.0565 19.2054 27.0573 19.2291V22.3393C27.0545 22.3623 27.044 22.3837 27.0275 22.4001C27.011 22.4165 26.9894 22.4269 26.9661 22.4296H23.8281C23.8042 22.4288 23.7815 22.419 23.7646 22.4023C23.7477 22.3855 23.7378 22.363 23.737 22.3393V19.2291C23.7365 19.2171 23.7386 19.2051 23.743 19.194C23.7474 19.1828 23.7541 19.1727 23.7627 19.1642C23.7712 19.1557 23.7814 19.1491 23.7927 19.1447C23.804 19.1403 23.816 19.1383 23.8281 19.1387ZM18.431 19.1387H21.569C21.5929 19.1395 21.6156 19.1493 21.6326 19.1661C21.6495 19.1829 21.6593 19.2054 21.6602 19.2291V22.3393C21.6574 22.3623 21.6469 22.3837 21.6304 22.4001C21.6138 22.4165 21.5922 22.4269 21.569 22.4296H18.431C18.4071 22.4288 18.3844 22.419 18.3674 22.4023C18.3505 22.3855 18.3407 22.363 18.3398 22.3393V19.2291C18.3394 19.2171 18.3414 19.2051 18.3459 19.194C18.3503 19.1828 18.357 19.1727 18.3655 19.1642C18.3741 19.1557 18.3843 19.1491 18.3956 19.1447C18.4068 19.1403 18.4189 19.1383 18.431 19.1387ZM13.0208 19.1387H16.1621C16.186 19.1395 16.2087 19.1493 16.2257 19.1661C16.2426 19.1829 16.2524 19.2054 16.2533 19.2291V22.3393C16.25 22.3621 16.2393 22.3832 16.2229 22.3995C16.2064 22.4158 16.1851 22.4263 16.1621 22.4296H13.0208C12.9975 22.428 12.9756 22.4179 12.9593 22.4012C12.9431 22.3845 12.9337 22.3624 12.9329 22.3393V19.2291C12.9325 19.2174 12.9345 19.2057 12.9387 19.1947C12.9429 19.1838 12.9493 19.1738 12.9575 19.1654C12.9657 19.1569 12.9755 19.1502 12.9864 19.1457C12.9973 19.1411 13.009 19.1387 13.0208 19.1387ZM4.91536 3.49421H35.0846C35.1432 3.49421 35.2012 3.50565 35.2553 3.52786C35.3094 3.55007 35.3586 3.58263 35.4 3.62367C35.4414 3.66472 35.4742 3.71345 35.4967 3.76707C35.5191 3.8207 35.5306 3.87818 35.5306 3.93622V14.5831C35.5297 14.7001 35.4825 14.812 35.399 14.8948C35.3156 14.9775 35.2026 15.0243 35.0846 15.0252H4.91536C4.79709 15.0252 4.68366 14.9786 4.60002 14.8957C4.51639 14.8128 4.4694 14.7004 4.4694 14.5831V3.93622C4.4694 3.87818 4.48094 3.8207 4.50335 3.76707C4.52576 3.71345 4.55861 3.66472 4.60002 3.62367C4.64143 3.58263 4.6906 3.55007 4.7447 3.52786C4.79881 3.50565 4.8568 3.49421 4.91536 3.49421Z" fill="#41778A"/>
</g>
<defs>
<clipPath id="clip0_4251_66171">
<rect width="40" height="39" fill="white"/>
</clipPath>
</defs>
</svg>
