<svg width="27" height="27" viewBox="0 0 51 52" fill="none" xmlns="http://www.w3.org/2000/svg">
<path d="M41.3618 37.8174C41.6126 33.8196 41.7445 29.6768 41.7445 25.4317C41.7445 23.7124 41.723 22.0099 41.6805 20.327C41.6508 19.1447 41.2671 17.9958 40.5675 17.0424C37.9 13.4087 35.7752 11.1496 32.2731 8.44683C31.3108 7.70408 30.1298 7.3011 28.9145 7.27453C27.6958 7.2479 26.4232 7.23438 25.0637 7.23438C20.9482 7.23438 17.6284 7.35833 14.1929 7.59453C11.2703 7.79549 8.94914 10.1221 8.76562 13.0459C8.51471 17.0437 8.38281 21.1866 8.38281 25.4317C8.38281 29.6768 8.51471 33.8196 8.76562 37.8174C8.94914 40.7414 11.2703 43.0679 14.1929 43.2687C17.6284 43.5049 20.9482 43.629 25.0637 43.629C29.1791 43.629 32.4989 43.5049 35.9344 43.2687C38.8569 43.0679 41.1783 40.7414 41.3618 37.8174Z" fill="white" stroke="black" stroke-width="4.17021"/>
<path d="M19.2822 25.4792H30.8451" stroke="black" stroke-width="4.17021" stroke-linecap="round"/>
<path d="M19.2822 16.3325H26.2598M19.2822 34.2928H30.8091H19.2822Z" stroke="black" stroke-width="4.17021" stroke-linecap="round" stroke-linejoin="round"/>
</svg>
