<svg width="16" height="16" viewBox="0 0 16 16" fill="none" xmlns="http://www.w3.org/2000/svg">
<g clip-path="url(#clip0_4425_42700)">
<path d="M14.9834 14.9838H14.4463C13.8763 14.9838 13.3297 14.7574 12.9267 14.3544C12.5238 13.9514 12.2974 13.4048 12.2974 12.835C12.2974 13.4048 12.071 13.9514 11.668 14.3544C11.265 14.7574 10.7184 14.9838 10.1485 14.9838C9.57852 14.9838 9.03195 14.7574 8.62894 14.3544C8.22595 13.9514 7.99955 13.4048 7.99955 12.835C7.99955 13.4048 7.77315 13.9514 7.37015 14.3544C6.96715 14.7574 6.42058 14.9838 5.85065 14.9838C5.28073 14.9838 4.73414 14.7574 4.33115 14.3544C3.92815 13.9514 3.70175 13.4048 3.70175 12.835C3.70175 13.4048 3.47534 13.9514 3.07235 14.3544C2.66935 14.7574 2.12277 14.9838 1.55285 14.9838H1.01562" stroke="#345F6E" stroke-width="1.14286" stroke-linecap="round" stroke-linejoin="round"/>
<path d="M3.16504 3.16502C3.16504 2.59509 3.39144 2.0485 3.79443 1.64551C4.19743 1.24251 4.74401 1.01611 5.31393 1.01611C5.88386 1.01611 6.43044 1.24251 6.83344 1.64551C7.23643 2.0485 7.46283 2.59509 7.46283 3.16502V9.88205" stroke="#345F6E" stroke-width="1.14286" stroke-linecap="round" stroke-linejoin="round"/>
<path d="M10.6855 1.01611C11.2555 1.01611 11.802 1.24251 12.205 1.64551C12.6081 2.0485 12.8345 2.59509 12.8345 3.16502V9.85359" stroke="#345F6E" stroke-width="1.14286" stroke-linecap="round" stroke-linejoin="round"/>
<path d="M7.46289 5.31396H12.8352" stroke="#345F6E" stroke-width="1.14286" stroke-linecap="round" stroke-linejoin="round"/>
<path d="M7.46289 8.53711H12.8352" stroke="#345F6E" stroke-width="1.14286" stroke-linecap="round" stroke-linejoin="round"/>
</g>
<defs>
<clipPath id="clip0_4425_42700">
<rect width="16" height="16" fill="white"/>
</clipPath>
</defs>
</svg>
