<svg width="24" height="24" viewBox="0 0 24 24" fill="none" xmlns="http://www.w3.org/2000/svg">
<path d="M21.2123 19.0009C21.3541 16.7412 21.4287 14.3995 21.4287 12.0001C21.4287 11.0283 21.4165 10.066 21.3925 9.11472C21.3757 8.44648 21.1588 7.79705 20.7634 7.25818C19.2556 5.20426 18.0546 3.92736 16.0751 2.39968C15.5312 1.97985 14.8637 1.75207 14.1767 1.73705C13.4879 1.722 12.7685 1.71436 12.0001 1.71436C9.6739 1.71436 7.79745 1.78442 5.85559 1.91793C4.20364 2.03152 2.89164 3.3466 2.78791 4.9992C2.64609 7.25892 2.57153 9.6006 2.57153 12.0001C2.57153 14.3995 2.64609 16.7412 2.78791 19.0009C2.89164 20.6536 4.20364 21.9686 5.85559 22.0821C7.79745 22.2157 9.6739 22.2858 12.0001 22.2858C14.3263 22.2858 16.2028 22.2157 18.1446 22.0821C19.7965 21.9686 21.1086 20.6536 21.2123 19.0009Z" fill="white" stroke="#212121" stroke-width="1.71429"/>
<path d="M6.85718 1.85455V11.645C6.85718 12.4087 7.78044 12.7911 8.32041 12.2511L10.2857 10.2858L12.2511 12.2511C12.7911 12.7911 13.7143 12.4087 13.7143 11.645V1.72814C13.1668 1.71898 12.5983 1.71436 12 1.71436C10.0751 1.71436 8.4581 1.76234 6.85718 1.85455Z" fill="white" stroke="#212121" stroke-width="1.71429" stroke-linejoin="round"/>
</svg>
