<svg width="24" height="24" viewBox="0 0 24 24" fill="none" xmlns="http://www.w3.org/2000/svg">
<path d="M2.57129 4.88909C2.57129 3.09077 3.95947 1.59857 5.75508 1.49979C7.67573 1.39414 10.1086 1.28564 11.9999 1.28564C13.8912 1.28564 16.324 1.39414 18.2447 1.49979C20.0402 1.59857 21.4284 3.09077 21.4284 4.88909V19.1108C21.4284 20.9091 20.0402 22.4014 18.2447 22.5001C16.324 22.6057 13.8912 22.7142 11.9999 22.7142C10.1086 22.7142 7.67573 22.6057 5.75508 22.5001C3.95947 22.4014 2.57129 20.9091 2.57129 19.1108V4.88909Z" fill="#A0BBC5" stroke="#345F6E" stroke-width="1.71429"/>
<path d="M12 1.28564V22.7142" stroke="#345F6E" stroke-width="1.71429"/>
<path d="M7.71387 11.1431V12.8574" stroke="#345F6E" stroke-width="1.71429" stroke-linecap="round" stroke-linejoin="round"/>
<path d="M16.2861 11.1431V12.8574" stroke="#345F6E" stroke-width="1.71429" stroke-linecap="round" stroke-linejoin="round"/>
</svg>
