<svg width="16" height="16" viewBox="0 0 16 16" fill="none" xmlns="http://www.w3.org/2000/svg">
<path d="M12.0001 6.4001C12.4875 6.40012 12.9632 6.25178 13.3642 5.97482C13.7652 5.69786 14.0723 5.3054 14.2448 4.84962C14.4173 4.39385 14.447 3.89637 14.3299 3.42333C14.2128 2.95029 13.9544 2.52411 13.5892 2.20146C13.224 1.87881 12.7692 1.67499 12.2853 1.6171C11.8015 1.5592 11.3114 1.64998 10.8804 1.87736C10.4494 2.10474 10.0978 2.45794 9.87238 2.89C9.64698 3.32206 9.55844 3.8125 9.61854 4.2961L5.66654 6.2721C5.32752 5.94518 4.89982 5.72523 4.43669 5.63966C3.97357 5.55408 3.4955 5.60665 3.06205 5.79082C2.62859 5.975 2.2589 6.28263 1.99902 6.67541C1.73915 7.06818 1.60059 7.52874 1.60059 7.9997C1.60059 8.47066 1.73915 8.93122 1.99902 9.32399C2.2589 9.71677 2.62859 10.0244 3.06205 10.2086C3.4955 10.3928 3.97357 10.4453 4.43669 10.3597C4.89982 10.2742 5.32752 10.0542 5.66654 9.7273L9.61854 11.7033C9.54854 12.2651 9.67939 12.8335 9.98796 13.3082C10.2965 13.7828 10.763 14.1331 11.3048 14.2971C11.8467 14.4611 12.4291 14.4283 12.9491 14.2045C13.4691 13.9806 13.8932 13.5802 14.1465 13.0738C14.3998 12.5675 14.466 11.988 14.3333 11.4376C14.2006 10.8872 13.8776 10.4015 13.4215 10.0662C12.9653 9.73093 12.4053 9.5677 11.8404 9.60538C11.2755 9.64305 10.7421 9.87921 10.3345 10.2721L6.38254 8.2961C6.40675 8.09951 6.40675 7.90069 6.38254 7.7041L10.3345 5.7281C10.7649 6.1441 11.3521 6.4001 12.0001 6.4001Z" fill="#9A9A9A"/>
</svg>
