<svg width="16" height="17" viewBox="0 0 16 17" fill="none" xmlns="http://www.w3.org/2000/svg">
<path d="M7.36411 2.45122C7.56411 1.83722 8.43278 1.83722 8.63211 2.45122L9.64478 5.56722C9.68836 5.70088 9.77308 5.81734 9.88683 5.89996C10.0006 5.98258 10.1375 6.02712 10.2781 6.02722H13.5548C14.2008 6.02722 14.4688 6.85389 13.9468 7.23389L11.2961 9.15922C11.1822 9.242 11.0975 9.35869 11.054 9.49258C11.0106 9.62647 11.0106 9.77068 11.0541 9.90456L12.0661 13.0206C12.2661 13.6352 11.5628 14.1459 11.0408 13.7659L8.39011 11.8406C8.27619 11.7577 8.13896 11.7131 7.99811 11.7131C7.85726 11.7131 7.72004 11.7577 7.60611 11.8406L4.95544 13.7659C4.43344 14.1459 3.73011 13.6346 3.93011 13.0206L4.94211 9.90456C4.98563 9.77068 4.98565 9.62647 4.94218 9.49258C4.89871 9.35869 4.81397 9.242 4.70011 9.15922L2.04944 7.23389C1.52678 6.85389 1.79611 6.02722 2.44144 6.02722H5.71744C5.85814 6.02726 5.99525 5.98278 6.10913 5.90015C6.22301 5.81753 6.30783 5.70099 6.35144 5.56722L7.36411 2.45122V2.45122Z" stroke="#41778A" stroke-width="1.35116" stroke-linecap="round" stroke-linejoin="round"/>
</svg>
