<svg width="140" height="140" viewBox="0 0 140 140" fill="none" xmlns="http://www.w3.org/2000/svg">
<path fill-rule="evenodd" clip-rule="evenodd" d="M66.2335 10.2054C80.0607 7.85826 94.9603 8.52832 106.88 15.9146C119.243 23.5756 126.623 36.9345 131.481 50.6374C136.446 64.643 141.591 80.9166 134.568 94.0131C127.696 106.827 110.047 107.577 97.2444 114.48C86.697 120.166 78.1487 129.569 66.2335 130.854C53.5228 132.224 40.6311 128.753 29.9488 121.734C18.9171 114.485 10.4849 103.795 6.10797 91.3475C1.65746 78.6904 -0.0441074 64.3264 5.4606 52.0903C10.7328 40.3712 23.933 35.493 34.5173 28.1983C44.776 21.128 53.9478 12.2909 66.2335 10.2054Z" fill="#F2F2F2"/>
<circle cx="70" cy="70" r="32" fill="url(#paint0_linear_1133_29775)"/>
<path opacity="0.22" d="M56.668 74.2574L64.2362 81.8256C65.0173 82.6067 66.2836 82.6067 67.0646 81.8256L85.1124 63.7778" stroke="black" stroke-width="8" stroke-linecap="round" stroke-linejoin="round"/>
<path d="M55.7773 71.5909L63.3456 79.1591C64.1266 79.9402 65.393 79.9402 66.174 79.1591L84.2218 61.1113" stroke="white" stroke-width="8" stroke-linecap="round" stroke-linejoin="round"/>
<path d="M76.3756 53.0338L75.6115 56.8499L78.6067 54.2722L82.1849 54.7554L80.1016 51.6113L80.8756 47.6682L77.7673 50.2818L74.0209 50.089L76.3756 53.0338Z" fill="white"/>
<path d="M88.3534 52.9108L86.6031 54.4564L87.0389 52.1258L85.7107 50.4143L87.9697 50.5487L89.783 48.9597L89.3625 51.3598L90.5907 53.2461L88.3534 52.9108Z" fill="white"/>
<circle cx="93" cy="33" r="3" fill="url(#paint1_linear_1133_29775)"/>
<circle cx="102" cy="100" r="5" fill="url(#paint2_linear_1133_29775)"/>
<path d="M25.1626 83.5801L21.3537 86.2826L26.0908 86.4981L28.8168 89.8659L29.5867 85.4059L33.5088 82.6006L28.6434 82.3233L25.5313 79.0706L25.1626 83.5801Z" fill="url(#paint3_linear_1133_29775)"/>
<defs>
<linearGradient id="paint0_linear_1133_29775" x1="45.1111" y1="48.2222" x2="90.8889" y2="94" gradientUnits="userSpaceOnUse">
<stop stop-color="#60B864"/>
<stop offset="1" stop-color="#308A36"/>
</linearGradient>
<linearGradient id="paint1_linear_1133_29775" x1="90.6667" y1="30.9583" x2="94.9583" y2="35.25" gradientUnits="userSpaceOnUse">
<stop stop-color="#60B864"/>
<stop offset="1" stop-color="#308A36"/>
</linearGradient>
<linearGradient id="paint2_linear_1133_29775" x1="98.1111" y1="96.5972" x2="105.264" y2="103.75" gradientUnits="userSpaceOnUse">
<stop stop-color="#60B864"/>
<stop offset="1" stop-color="#308A36"/>
</linearGradient>
<linearGradient id="paint3_linear_1133_29775" x1="33.0964" y1="85.2955" x2="21.9574" y2="82.8473" gradientUnits="userSpaceOnUse">
<stop stop-color="#60B864"/>
<stop offset="1" stop-color="#308A36"/>
</linearGradient>
</defs>
</svg>
