<svg width="18" height="18" viewBox="0 0 18 18" fill="none" xmlns="http://www.w3.org/2000/svg">
<path d="M5.25 5.25H5.2575M5.25 2.25H9C9.384 2.25 9.768 2.39625 10.0605 2.6895L15.3105 7.9395C15.5917 8.22079 15.7497 8.60225 15.7497 9C15.7497 9.39775 15.5917 9.77921 15.3105 10.0605L10.0605 15.3105C9.77921 15.5917 9.39775 15.7497 9 15.7497C8.60225 15.7497 8.22079 15.5917 7.9395 15.3105L2.6895 10.0605C2.55 9.92139 2.43937 9.75609 2.36394 9.5741C2.28852 9.39211 2.2498 9.197 2.25 9V5.25C2.25 4.45435 2.56607 3.69129 3.12868 3.12868C3.69129 2.56607 4.45435 2.25 5.25 2.25V2.25Z" stroke="#41778A" stroke-width="1.5" stroke-linecap="round" stroke-linejoin="round"/>
</svg>
