<svg width="19" height="19" viewBox="0 0 19 19" fill="none" xmlns="http://www.w3.org/2000/svg">
<path d="M8.89668 5.08087L5.68555 8.52987L7.35058 14.5955C9.33277 14.7144 13.4874 14.9523 14.2486 14.9523C15.0097 14.9523 15.3586 14.1594 15.4379 13.763C16.2942 13.5727 16.2704 12.5737 16.1515 12.098C17.1981 11.6222 17.0633 10.3933 16.8651 9.83827C18.3874 7.84023 16.8651 6.94429 15.9136 6.74607H12.7025C11.5607 6.74607 11.4339 6.11177 11.5132 5.79462C11.6717 4.60525 11.7686 1.58242 11.1564 1.27507C10.6807 1.03624 10.086 0.799144 9.25348 1.27507C9.61027 2.82134 9.0949 4.40693 8.89668 5.08087Z" stroke="#41778A"/>
<rect x="0.619456" y="9.21404" width="4.5945" height="9.54246" transform="rotate(-16.1686 0.619456 9.21404)" stroke="#41778A"/>
</svg>
