<svg width="16" height="17" viewBox="0 0 16 17" fill="none" xmlns="http://www.w3.org/2000/svg">
<path d="M10.7396 8.51049C12.2537 8.51049 13.4812 7.28304 13.4812 5.76891C13.4812 4.25478 12.2537 3.02734 10.7396 3.02734C9.22549 3.02734 7.99805 4.25478 7.99805 5.76891C7.99805 7.28304 9.22549 8.51049 10.7396 8.51049Z" fill="#A0BBC5"/>
<path d="M10.7402 8.51034C12.2544 8.51034 13.4818 7.28288 13.4818 5.76876C13.4818 4.59749 12.7473 3.59778 11.7138 3.20508" stroke="#345F6E" stroke-width="1.14286" stroke-linecap="round" stroke-linejoin="round"/>
<path d="M14.4852 12.3618C15.8262 13.255 14.9207 14.9776 13.3094 14.9776H7.25869C5.64744 14.9776 4.74189 13.255 6.08293 12.3618C7.28581 11.5607 8.73041 11.0938 10.2841 11.0938C11.8377 11.0938 13.2823 11.5607 14.4852 12.3618Z" fill="#A0BBC5"/>
<path d="M6.12614 7.96711C7.76743 7.96711 9.09797 6.63657 9.09797 4.99528C9.09797 3.35397 7.76743 2.02344 6.12614 2.02344C4.48483 2.02344 3.1543 3.35397 3.1543 4.99528C3.1543 6.63657 4.48483 7.96711 6.12614 7.96711Z" fill="#A0BBC5" stroke="#345F6E" stroke-width="1.14286" stroke-linecap="round" stroke-linejoin="round"/>
<path d="M10.679 12.1421C12.1327 13.1103 11.1511 14.9776 9.4045 14.9776H2.84557C1.09899 14.9776 0.117394 13.1103 1.57106 12.1421C2.87498 11.2737 4.4409 10.7676 6.12504 10.7676C7.80918 10.7676 9.37511 11.2737 10.679 12.1421Z" fill="#A0BBC5" stroke="#345F6E" stroke-width="1.14286"/>
<path d="M9.15039 14.9775H13.3076C14.9189 14.9775 15.8244 13.2549 14.4834 12.3617C14.1131 12.115 13.7198 11.9001 13.3076 11.7207" stroke="#345F6E" stroke-width="1.14286" stroke-linecap="round"/>
</svg>
