<svg width="25" height="24" viewBox="0 0 25 24" fill="none" xmlns="http://www.w3.org/2000/svg">
<path d="M19.7172 1.57222C20.0423 1.62921 20.0267 2.12002 19.741 2.28853C18.2369 3.17599 17.7216 5.1415 18.59 6.6786C19.4584 8.2157 21.3817 8.74235 22.8858 7.8549C23.1714 7.6864 23.5952 7.918 23.4809 8.23415C23.0992 9.2907 22.3677 10.2222 21.3386 10.8294C18.9989 12.2099 16.0071 11.3907 14.6562 8.9996C13.3054 6.6085 14.107 3.55107 16.4468 2.17059C17.4758 1.56344 18.631 1.38179 19.7172 1.57222Z" fill="#9E9E9E"/>
<path d="M17.4462 11.0863C17.4759 11.0875 17.5055 11.0886 17.535 11.0898C20.6966 11.2176 23 13.3358 23 16.5C23 19.6642 20.6966 21.7824 17.535 21.9102C16.2057 21.9639 14.5498 22 12.5 22C10.4502 22 8.7943 21.9639 7.465 21.9102C4.30337 21.7824 2 19.6642 2 16.5C2 14.0317 3.40165 12.1999 5.519 11.4529C5.7406 8.2951 7.8872 6.02435 11.1413 6.00125C11.2585 6.00045 11.378 6 11.5 6C11.622 6 11.7415 6.00045 11.8587 6.00125C14.9855 6.02345 17.0897 8.1208 17.4462 11.0863Z" fill="#E0E0E0"/>
</svg>
