<svg width="24" height="24" viewBox="0 0 24 24" fill="none" xmlns="http://www.w3.org/2000/svg">
<path d="M19.2172 1.57222C19.5423 1.62921 19.5267 2.12002 19.241 2.28853C17.7369 3.17599 17.2216 5.1415 18.09 6.6786C18.9584 8.2157 20.8817 8.74235 22.3858 7.8549C22.6714 7.6864 23.0952 7.918 22.9809 8.23415C22.5992 9.2907 21.8677 10.2222 20.8386 10.8294C18.4989 12.2099 15.5071 11.3907 14.1562 8.9996C12.8054 6.6085 13.607 3.55107 15.9468 2.17059C16.9758 1.56344 18.131 1.38179 19.2172 1.57222Z" fill="#345F6E"/>
<path d="M16.9462 11.0863C16.9759 11.0875 17.0055 11.0886 17.035 11.0898C20.1966 11.2176 22.5 13.3358 22.5 16.5C22.5 19.6642 20.1966 21.7824 17.035 21.9102C15.7057 21.9639 14.0498 22 12 22C9.9502 22 8.2943 21.9639 6.965 21.9102C3.80337 21.7824 1.5 19.6642 1.5 16.5C1.5 14.0317 2.90165 12.1999 5.019 11.4529C5.2406 8.2951 7.3872 6.02435 10.6413 6.00125C10.7585 6.00045 10.878 6 11 6C11.122 6 11.2415 6.00045 11.3587 6.00125C14.4855 6.02345 16.5897 8.1208 16.9462 11.0863Z" fill="#A0BBC5"/>
</svg>
