<svg width="16" height="17" viewBox="0 0 16 17" fill="none" xmlns="http://www.w3.org/2000/svg">
<g clip-path="url(#clip0_1935_16351)">
<path d="M3.94301 2.22102L3.94301 2.22102L3.94217 2.22099C3.74907 2.21497 3.55556 2.2991 3.43427 2.4569L3.43422 2.45697C3.31391 2.61402 3.27744 2.82042 3.33723 3.00909L3.33724 3.00913C3.44923 3.36164 3.50603 3.72797 3.50603 4.09777C3.50603 5.88496 2.22376 7.37943 0.456702 7.65131L0.456659 7.65132C0.260883 7.68159 0.0919758 7.80525 0.00470412 7.98343C-0.0825278 8.16153 -0.0771976 8.3706 0.018886 8.5442L0.0189428 8.5443C0.435859 9.29393 1.06393 9.87858 1.79949 10.2577L1.84074 10.2789L1.87001 10.2429C2.12063 9.93469 2.42086 9.6694 2.759 9.45802L2.86019 9.39477L2.74747 9.35559C2.30365 9.20133 1.89942 8.94804 1.56869 8.61172C3.43901 7.93229 4.71768 6.16098 4.71768 4.09777C4.71768 3.92296 4.70833 3.74882 4.68963 3.5758C5.67302 3.89283 6.43098 4.69166 6.69573 5.69058L6.71338 5.75719L6.77557 5.72752C7.09977 5.57283 7.4435 5.45406 7.80223 5.37378L7.86131 5.36056L7.8447 5.30234C7.35455 3.58459 5.81681 2.30704 3.94301 2.22102ZM3.47958 2.49172C3.37057 2.63401 3.33757 2.821 3.3917 2.99182L3.94039 2.27811C3.76444 2.27262 3.58895 2.34943 3.47958 2.49172ZM8.86711 5.86957C6.7312 5.86957 5.02738 7.47758 4.72244 9.52746H4.66054C3.01929 9.52746 1.67708 10.8697 1.67708 12.5109C1.67708 14.1522 3.01929 15.4944 4.66054 15.4944H13.0737C14.7149 15.4944 16.0571 14.1522 16.0571 12.5109C16.0571 10.8697 14.7149 9.52746 13.0737 9.52746H13.0118C12.7068 7.47758 11.003 5.86957 8.86711 5.86957ZM8.86711 7.08122C10.5593 7.08122 11.9192 8.4411 11.9192 10.1333C11.9192 10.294 11.983 10.448 12.0966 10.5617C12.2102 10.6753 12.3643 10.7391 12.525 10.7391H13.0737C14.0588 10.7391 14.8455 11.5258 14.8455 12.5109C14.8455 13.496 14.0588 14.2827 13.0737 14.2827H4.66054C3.67542 14.2827 2.88873 13.496 2.88873 12.5109C2.88873 11.5258 3.67542 10.7391 4.66054 10.7391H5.20922C5.36989 10.7391 5.52398 10.6753 5.63759 10.5617C5.7512 10.448 5.81503 10.294 5.81505 10.1333C5.81505 8.4411 7.17493 7.08122 8.86711 7.08122Z" fill="#41778A" stroke="#41778A" stroke-width="0.114286"/>
</g>
<defs>
<clipPath id="clip0_1935_16351">
<rect width="16" height="16" fill="white" transform="translate(0 0.5)"/>
</clipPath>
</defs>
</svg>
