<svg width="16" height="17" viewBox="0 0 16 17" fill="none" xmlns="http://www.w3.org/2000/svg">
<path d="M6.70809 11.1328C6.62305 11.1686 6.53964 11.2079 6.45805 11.2504C5.91908 11.5313 5.91502 12.2446 6.32741 12.691L7.19322 13.6282C7.64571 14.1181 8.41974 14.1181 8.87222 13.6282L9.73803 12.691C10.1504 12.2446 10.1464 11.5313 9.60739 11.2504C9.52581 11.2079 9.44241 11.1686 9.35737 11.1328C8.93814 10.9559 8.48773 10.8647 8.03273 10.8647C7.57771 10.8647 7.12731 10.9559 6.70809 11.1328Z" fill="#A0BBC5" stroke="#345F6E" stroke-width="1.14286" stroke-linecap="round" stroke-linejoin="round"/>
<path d="M3.22656 8.75964C3.85284 8.12971 4.59747 7.62981 5.41763 7.28869C6.23779 6.94757 7.11728 6.77197 8.00556 6.77197C8.89382 6.77197 9.77333 6.94757 10.5935 7.28869C11.4136 7.62981 12.1582 8.12971 12.7845 8.75964" stroke="#345F6E" stroke-width="1.14286" stroke-linecap="round" stroke-linejoin="round"/>
<path d="M0.857422 5.70682C1.79526 4.7685 2.90878 4.02414 4.13438 3.5163C5.35998 3.00845 6.67363 2.74707 8.00028 2.74707C9.32693 2.74707 10.6406 3.00845 11.8662 3.5163C13.0918 4.02414 14.2053 4.7685 15.1431 5.70682" stroke="#345F6E" stroke-width="1.14286" stroke-linecap="round" stroke-linejoin="round"/>
</svg>
