<svg width="414" height="138" viewBox="0 0 414 138" fill="none" xmlns="http://www.w3.org/2000/svg">
<path d="M403.578 156.528L303.065 176.129C300.672 176.595 298.355 175.034 297.888 172.642L270.597 32.6931C270.131 30.3001 271.693 27.983 274.085 27.5161L374.6 7.91538C376.988 7.44933 379.308 9.01015 379.772 11.4035L407.063 151.351C407.534 153.743 405.974 156.061 403.578 156.528Z" fill="#3A6B7C"/>
<path d="M400.766 169.415L301.012 162.5C298.637 162.336 296.846 160.277 297.01 157.903L306.638 19.0119C306.804 16.6372 308.862 14.8464 311.236 15.0105L410.992 21.926C413.363 22.0901 415.156 24.1484 414.989 26.5231L405.361 165.414C405.201 167.789 403.144 169.58 400.766 169.415Z" fill="#345F6E"/>
<path d="M354.579 113.785C354.558 113.785 354.53 113.784 354.502 113.782C353.932 113.743 353.494 113.244 353.536 112.669L358.562 40.2046C358.604 39.6297 359.111 39.1952 359.674 39.2369C360.251 39.2765 360.682 39.7743 360.64 40.3492L355.614 112.814C355.58 113.364 355.121 113.785 354.579 113.785Z" fill="#41778A"/>
<path d="M354.579 113.785C354.558 113.785 354.53 113.784 354.502 113.782C333.953 112.357 318.392 94.4776 319.817 73.9257C320.507 63.9695 325.032 54.8782 332.563 48.3262C340.085 41.7743 349.72 38.5452 359.675 39.2369C360.245 39.2765 360.682 39.7743 360.641 40.3492C360.599 40.9234 360.099 41.3558 359.529 41.3175C350.13 40.6669 341.037 43.7138 333.933 49.8994C326.822 56.0857 322.548 64.6689 321.897 74.0696C320.552 93.4752 335.246 110.357 354.648 111.702C355.225 111.741 355.656 112.24 355.615 112.814C355.58 113.364 355.121 113.785 354.579 113.785" fill="#41778A"/>
<path d="M354.579 113.785C354.558 113.785 354.53 113.784 354.503 113.782C341.92 112.91 332.841 95.48 334.266 74.9268C335.692 54.3742 347.12 38.3624 359.675 39.2369C360.252 39.2765 360.683 39.7743 360.641 40.3492C360.599 40.9234 360.099 41.3558 359.529 41.3175C348.1 40.5258 337.694 55.6658 336.345 75.0714C335.003 94.4762 343.213 110.909 354.649 111.702C355.226 111.741 355.657 112.24 355.615 112.814C355.58 113.364 355.121 113.785 354.579 113.785" fill="#41778A"/>
<path d="M355.51 113.816C355.177 113.816 354.843 113.805 354.502 113.781C353.932 113.741 353.494 113.243 353.536 112.668C353.578 112.094 354.085 111.661 354.648 111.701C360.077 112.077 365.493 108.845 369.865 102.599C374.342 96.1926 377.179 87.4376 377.832 77.9458C378.492 68.4547 376.894 59.3925 373.341 52.4297C369.872 45.6394 364.971 41.6929 359.528 41.3161C358.951 41.2758 358.52 40.7774 358.562 40.2032C358.604 39.6283 359.111 39.1938 359.674 39.2355C365.868 39.6651 371.388 44.0141 375.197 51.4815C378.923 58.7766 380.599 68.2267 379.911 78.0904C379.229 87.9541 376.268 97.0824 371.569 103.794C367.022 110.291 361.357 113.816 355.51 113.816" fill="#41778A"/>
<path d="M373.326 61.2305C368.64 61.2305 363.496 61.0483 358.185 60.6806C345.651 59.8116 334.195 58.0459 327.533 55.9569C326.984 55.7845 326.679 55.1992 326.851 54.65C327.023 54.1008 327.607 53.7943 328.157 53.9674C334.668 56.0098 345.95 57.7421 358.331 58.6C370.712 59.4578 382.12 59.2993 388.849 58.1752C389.419 58.0793 389.954 58.4644 390.052 59.0317C390.149 59.5996 389.767 60.1377 389.197 60.2322C385.227 60.8947 379.701 61.2305 373.326 61.2305Z" fill="#41778A"/>
<path d="M386.332 99.0664C386.228 99.0664 386.124 99.0504 386.019 99.0177C379.506 96.9753 368.23 95.2437 355.849 94.3852C343.468 93.5266 332.06 93.6858 325.326 94.8099C324.753 94.9044 324.22 94.5214 324.126 93.9528C324.031 93.3855 324.414 92.8481 324.982 92.7529C331.866 91.6031 343.461 91.4356 355.988 92.3045C368.529 93.1735 379.985 94.9392 386.645 97.0282C387.194 97.1999 387.5 97.7852 387.326 98.3351C387.187 98.7807 386.777 99.0664 386.332 99.0664Z" fill="#41778A"/>
<path d="M357.116 113.871C356.247 113.871 355.378 113.841 354.502 113.78C353.932 113.74 353.494 113.242 353.536 112.667C353.578 112.093 354.085 111.66 354.648 111.7C355.475 111.757 356.296 111.785 357.116 111.785C375.468 111.786 390.991 97.5263 392.284 78.9466C393.626 59.5411 378.937 42.6597 359.528 41.3152C358.958 41.2749 358.52 40.7764 358.562 40.2022C358.604 39.6273 359.111 39.1929 359.674 39.2346C380.223 40.659 395.788 58.5386 394.363 79.0905C393.001 98.7679 376.553 113.87 357.116 113.871" fill="#41778A"/>
<path d="M393.321 80.0625C393.3 80.0625 393.272 80.0618 393.251 80.0597L320.785 75.0358C320.21 74.9968 319.777 74.4984 319.817 73.9242C319.856 73.3493 320.355 72.9155 320.929 72.9558L393.397 77.9798C393.967 78.0187 394.405 78.5171 394.363 79.0914C394.322 79.6412 393.87 80.0625 393.321 80.0625" fill="#41778A"/>
<path d="M322.861 131.508C323.27 131.107 323.501 130.549 323.551 129.836C323.601 129.11 323.45 128.517 323.1 128.056C322.75 127.595 322.26 127.344 321.629 127.3L319.131 127.127C319.083 127.123 319.058 127.146 319.054 127.193L318.735 131.797C318.732 131.844 318.754 131.869 318.802 131.873L321.3 132.046C321.931 132.09 322.451 131.911 322.861 131.508V131.508ZM324.11 127.319C324.654 127.997 324.891 128.859 324.818 129.905C324.747 130.94 324.394 131.75 323.762 132.334C323.131 132.917 322.339 133.176 321.388 133.111L318.729 132.926C318.682 132.922 318.656 132.945 318.652 132.993L318.281 138.345C318.273 138.464 318.209 138.519 318.091 138.511L317.18 138.448C317.061 138.44 317.006 138.376 317.014 138.257L317.857 126.106C317.865 125.987 317.929 125.931 318.048 125.94L321.867 126.205C322.818 126.271 323.566 126.642 324.11 127.319" fill="#41778A"/>
<path d="M327.639 135.65C327.656 135.669 327.676 135.68 327.7 135.682L331.395 135.938C331.415 135.94 331.436 135.931 331.457 135.915C331.478 135.898 331.478 135.884 331.471 135.871L330.091 128.604C330.08 128.579 330.07 128.566 330.057 128.565C330.045 128.565 330.033 128.576 330.019 128.599L327.634 135.605C327.62 135.616 327.623 135.632 327.639 135.65V135.65ZM332.124 139.323L331.693 137.051C331.68 137.015 331.652 136.995 331.61 136.992L327.343 136.697C327.294 136.693 327.263 136.709 327.25 136.744L326.506 138.934C326.475 139.039 326.406 139.087 326.299 139.08L325.371 139.016C325.311 139.012 325.268 138.991 325.241 138.953C325.214 138.915 325.208 138.868 325.224 138.809L329.383 126.906C329.415 126.8 329.485 126.751 329.591 126.759L330.734 126.838C330.838 126.846 330.901 126.903 330.922 127.012L333.417 139.377L333.431 139.431C333.424 139.526 333.355 139.57 333.237 139.561L332.312 139.498C332.201 139.49 332.145 139.431 332.124 139.323" fill="#41778A"/>
<path d="M335.725 138.987C335.106 138.352 334.835 137.541 334.897 136.555L334.932 136.055C334.946 135.936 335.009 135.88 335.127 135.889L336.003 135.948C336.121 135.957 336.177 136.021 336.163 136.14L336.135 136.568C336.093 137.234 336.274 137.785 336.691 138.22C337.108 138.655 337.692 138.899 338.429 138.95C339.131 138.999 339.694 138.847 340.125 138.494C340.556 138.142 340.792 137.656 340.834 137.037C340.862 136.633 340.792 136.275 340.626 135.965C340.452 135.654 340.195 135.362 339.847 135.086C339.506 134.812 338.999 134.46 338.339 134.032C337.629 133.588 337.073 133.202 336.67 132.876C336.267 132.55 335.947 132.163 335.711 131.716C335.474 131.269 335.377 130.736 335.419 130.117C335.481 129.154 335.85 128.42 336.503 127.916C337.157 127.412 338.005 127.196 339.041 127.266C340.146 127.344 341.008 127.708 341.62 128.36C342.231 129.012 342.503 129.837 342.433 130.837L342.405 131.248C342.398 131.367 342.329 131.421 342.211 131.413L341.321 131.351C341.203 131.343 341.147 131.28 341.154 131.161L341.182 130.768C341.23 130.102 341.05 129.549 340.653 129.109C340.25 128.669 339.68 128.423 338.943 128.372C338.276 128.326 337.741 128.462 337.338 128.781C336.934 129.1 336.712 129.574 336.663 130.204C336.635 130.609 336.705 130.954 336.865 131.24C337.025 131.526 337.268 131.793 337.588 132.043C337.914 132.293 338.408 132.632 339.089 133.061C339.861 133.57 340.459 133.996 340.869 134.341C341.286 134.687 341.606 135.074 341.828 135.501C342.058 135.93 342.148 136.441 342.106 137.036C342.044 138.023 341.661 138.792 340.973 139.341C340.285 139.891 339.388 140.128 338.297 140.053C337.205 139.976 336.343 139.622 335.725 138.987" fill="#41778A"/>
<path d="M344.936 139.628C344.31 138.992 344.039 138.182 344.108 137.195L344.143 136.695C344.15 136.576 344.213 136.521 344.331 136.529L345.207 136.59C345.325 136.598 345.38 136.662 345.373 136.781L345.346 137.208C345.297 137.875 345.485 138.426 345.902 138.861C346.319 139.297 346.896 139.54 347.633 139.591C348.335 139.639 348.898 139.487 349.329 139.135C349.76 138.782 350.003 138.296 350.045 137.678C350.073 137.274 349.996 136.916 349.829 136.606C349.663 136.295 349.405 136.002 349.058 135.727C348.71 135.452 348.21 135.101 347.542 134.672C346.833 134.228 346.277 133.843 345.874 133.517C345.471 133.19 345.151 132.803 344.915 132.357C344.678 131.91 344.581 131.377 344.623 130.758C344.692 129.794 345.054 129.06 345.707 128.556C346.368 128.052 347.209 127.836 348.245 127.908C349.35 127.985 350.212 128.349 350.824 129.001C351.435 129.653 351.706 130.478 351.637 131.477L351.609 131.888C351.602 132.007 351.54 132.063 351.421 132.054L350.525 131.992C350.406 131.984 350.351 131.92 350.358 131.801L350.386 131.409C350.434 130.743 350.261 130.189 349.857 129.75C349.461 129.309 348.891 129.063 348.154 129.012C347.487 128.967 346.952 129.103 346.548 129.421C346.138 129.74 345.916 130.215 345.874 130.845C345.846 131.249 345.909 131.595 346.069 131.881C346.229 132.166 346.472 132.435 346.792 132.684C347.118 132.933 347.619 133.273 348.293 133.702C349.072 134.211 349.663 134.637 350.08 134.982C350.49 135.327 350.81 135.714 351.039 136.143C351.262 136.57 351.359 137.082 351.317 137.677C351.248 138.664 350.872 139.432 350.177 139.982C349.489 140.532 348.599 140.769 347.501 140.693C346.409 140.617 345.554 140.262 344.936 139.628" fill="#41778A"/>
<path d="M359.333 134.036C359.743 133.634 359.973 133.077 360.021 132.363C360.07 131.637 359.924 131.044 359.57 130.583C359.222 130.123 358.728 129.87 358.103 129.827L355.6 129.654C355.552 129.65 355.531 129.672 355.524 129.72L355.204 134.324C355.204 134.371 355.225 134.397 355.273 134.399L357.769 134.573C358.402 134.616 358.923 134.438 359.333 134.036V134.036ZM360.585 129.846C361.127 130.524 361.363 131.386 361.294 132.432C361.217 133.467 360.87 134.276 360.237 134.86C359.604 135.444 358.812 135.703 357.859 135.637L355.197 135.453C355.155 135.449 355.127 135.471 355.127 135.519L354.752 140.872C354.745 140.99 354.683 141.047 354.564 141.038L353.654 140.975C353.536 140.967 353.48 140.903 353.487 140.785L354.328 128.633C354.335 128.514 354.398 128.459 354.523 128.467L358.339 128.732C359.292 128.797 360.035 129.17 360.585 129.846" fill="#41778A"/>
<path d="M368.128 140.329C368.6 139.908 368.865 139.328 368.913 138.59L369.303 132.987C369.351 132.238 369.177 131.619 368.767 131.131C368.357 130.643 367.794 130.373 367.064 130.322C366.355 130.273 365.757 130.463 365.291 130.889C364.819 131.317 364.555 131.905 364.499 132.654L364.117 138.258C364.061 138.995 364.242 139.605 364.652 140.088C365.062 140.57 365.618 140.837 366.334 140.886C367.057 140.936 367.655 140.751 368.128 140.329ZM364.374 141.404C363.838 141.063 363.442 140.608 363.178 140.039C362.907 139.471 362.803 138.83 362.851 138.116L363.234 132.602C363.282 131.889 363.477 131.266 363.818 130.734C364.158 130.202 364.617 129.804 365.194 129.539C365.771 129.273 366.418 129.166 367.141 129.216C367.87 129.266 368.496 129.462 369.031 129.804C369.56 130.146 369.963 130.604 370.234 131.179C370.505 131.753 370.616 132.397 370.568 133.111L370.185 138.625C370.137 139.338 369.935 139.959 369.588 140.484C369.24 141.01 368.781 141.405 368.204 141.67C367.634 141.935 366.981 142.042 366.258 141.992C365.535 141.942 364.902 141.746 364.374 141.404" fill="#41778A"/>
<path d="M374.793 131.056L374.487 135.552C374.48 135.6 374.501 135.626 374.55 135.629L377.011 135.8C377.63 135.842 378.144 135.666 378.554 135.27C378.964 134.874 379.194 134.331 379.242 133.641C379.291 132.939 379.138 132.361 378.79 131.907C378.436 131.452 377.956 131.203 377.338 131.16L374.87 130.99C374.821 130.986 374.8 131.009 374.793 131.056ZM378.679 142.566L376.83 136.863C376.823 136.826 376.802 136.807 376.761 136.804L374.48 136.646C374.432 136.643 374.404 136.665 374.404 136.712L374.022 142.208C374.015 142.327 373.952 142.382 373.834 142.375L372.923 142.311C372.805 142.302 372.749 142.239 372.756 142.119L373.598 129.969C373.605 129.85 373.667 129.795 373.792 129.803L377.574 130.065C378.526 130.131 379.27 130.5 379.805 131.17C380.348 131.841 380.584 132.688 380.508 133.711C380.452 134.532 380.209 135.214 379.771 135.757C379.326 136.3 378.763 136.639 378.074 136.769C378.026 136.79 378.012 136.819 378.033 136.856L379.965 142.584L379.979 142.657C379.972 142.753 379.917 142.796 379.812 142.788L378.86 142.723C378.77 142.717 378.707 142.664 378.679 142.566" fill="#41778A"/>
<path d="M389.871 131.114L389.815 131.865C389.808 131.983 389.746 132.038 389.628 132.03L386.715 131.829C386.673 131.825 386.645 131.847 386.645 131.895L385.874 143.029C385.86 143.148 385.797 143.203 385.679 143.194L384.769 143.132C384.65 143.124 384.595 143.06 384.602 142.941L385.373 131.807C385.38 131.76 385.352 131.734 385.311 131.731L382.509 131.537C382.391 131.528 382.335 131.464 382.342 131.345L382.391 130.596C382.398 130.477 382.468 130.422 382.586 130.431L389.704 130.924C389.822 130.932 389.878 130.996 389.871 131.114" fill="#41778A"/>
<path d="M302.091 157.518L400.383 164.332L409.907 26.9037L311.619 20.0897L302.091 157.518ZM401.029 165.074L301.35 158.164L301.373 157.817L310.973 19.3486L410.651 26.2593L410.63 26.6061L401.029 165.074" fill="#345F6E"/>
<path d="M129.793 44.0603C127.925 43.3065 124.512 42.308 121.833 42.987L111.815 45.5604L92.3174 31.2371C91.8881 30.8501 91.2183 30.95 90.9111 31.434L90.3609 32.3128C90.1702 32.6189 90.1732 33.0003 90.3646 33.3027L98.3181 48.8356L92.0917 50.3805C91.3122 50.5296 90.5461 50.7369 89.7997 50.976C89.5845 51.0435 89.3765 51.1159 89.1686 51.1883L83.2029 45.8107C82.8202 45.4678 82.2327 45.5004 81.8886 45.8769L81.2421 46.6031C80.9901 46.8791 80.9293 47.2759 81.0857 47.6108L83.8322 53.5667C82.938 54.088 83.3035 54.3848 82.7116 54.8737C81.9505 55.4986 82.2302 56.7093 83.1876 56.9375C83.9321 57.1129 83.7187 57.4735 84.7509 57.5508L123.547 50.4204C128.518 49.4274 129.5 47.5697 130.233 45.9689C130.58 45.2103 130.569 44.3731 129.793 44.0603" fill="#345F6E"/>
<path d="M0.772561 52.5923C0.132872 52.5923 -0.40623 52.0961 -0.450388 51.4484C-0.495774 50.7726 0.0144965 50.1874 0.690371 50.142C1.5392 50.0844 2.36719 50.0378 3.17186 50.0028C3.8367 49.9715 4.42118 50.4984 4.45062 51.1755C4.48006 51.852 3.95507 52.4248 3.27796 52.4543C2.49231 52.488 1.68457 52.5334 0.856592 52.5892C0.82838 52.591 0.80016 52.5923 0.772561 52.5923ZM14.8703 52.8057C14.8378 52.8057 14.8046 52.8045 14.7709 52.8014C13.9466 52.7352 13.1352 52.6751 12.3391 52.6217C11.6632 52.5763 11.1523 51.9918 11.1977 51.3153C11.2431 50.6395 11.8264 50.1304 12.5035 50.1739C13.31 50.2279 14.1318 50.2886 14.9678 50.3561C15.643 50.4107 16.1466 51.0019 16.092 51.6772C16.0405 52.3193 15.5038 52.8057 14.8703 52.8057V52.8057ZM-10.8246 53.8201C-11.4294 53.8201 -11.9556 53.3724 -12.0384 52.7566C-12.1292 52.0851 -11.6575 51.4674 -10.9866 51.3773C-10.161 51.2663 -9.34471 51.1608 -8.53943 51.0602C-7.8703 50.9762 -7.25452 51.4533 -7.1705 52.1255C-7.08709 52.7977 -7.56424 53.4104 -8.23644 53.4944C-9.03436 53.5938 -9.8421 53.6987 -10.6597 53.8091C-10.7148 53.8164 -10.7701 53.8201 -10.8246 53.8201ZM26.4717 53.9643C26.4257 53.9643 26.3797 53.9618 26.3325 53.9563C25.515 53.8643 24.7029 53.7741 23.8976 53.6858C23.2242 53.6128 22.7379 53.0068 22.8115 52.3334C22.8844 51.66 23.4886 51.173 24.1638 51.2472C24.9716 51.3356 25.7867 51.4257 26.6079 51.519C27.2807 51.5944 27.7652 52.2016 27.6892 52.875C27.6187 53.5012 27.0875 53.9643 26.4717 53.9643ZM38.0456 55.3123C37.9978 55.3123 37.9506 55.3092 37.9021 55.3037L35.466 55.0191C34.7932 54.94 34.3118 54.3304 34.3909 53.6576C34.47 52.9854 35.0784 52.5045 35.7524 52.5824L38.1855 52.867C38.8583 52.9455 39.3403 53.5539 39.2624 54.2274C39.1895 54.8517 38.6596 55.3123 38.0456 55.3123ZM-22.355 55.5644C-22.945 55.5644 -23.4651 55.1381 -23.5644 54.5371C-23.6742 53.8686 -23.221 53.2375 -22.5525 53.1277C-21.7386 52.994 -20.929 52.8621 -20.1244 52.7333C-19.4583 52.626 -18.8266 53.0817 -18.7193 53.7508C-18.6119 54.4199 -19.0676 55.0492 -19.7367 55.1559C-20.5377 55.2841 -21.3436 55.4148 -22.155 55.5485C-22.2219 55.5595 -22.2888 55.5644 -22.355 55.5644ZM49.6385 56.5751C49.5993 56.5751 49.5588 56.5733 49.5177 56.569C48.7038 56.4893 47.8869 56.4065 47.0688 56.3218C46.3947 56.2519 45.9053 55.649 45.9752 54.975C46.0445 54.3016 46.637 53.8097 47.3214 53.8815C48.1347 53.9661 48.9467 54.0476 49.7575 54.1274C50.4309 54.1936 50.9241 54.7934 50.8584 55.4675C50.7965 56.101 50.2629 56.5751 49.6385 56.5751V56.5751ZM61.2597 57.4865C61.2376 57.4865 61.2149 57.4859 61.1928 57.4847C60.3783 57.4411 59.5565 57.3921 58.7279 57.3375C58.052 57.2927 57.5399 56.7088 57.584 56.033C57.6294 55.3571 58.2219 54.8462 58.8886 54.8897C59.7073 54.9431 60.52 54.9916 61.3234 55.0351C62.0005 55.0707 62.5188 55.649 62.4832 56.3255C62.4483 56.9793 61.9067 57.4865 61.2597 57.4865V57.4865ZM-33.8553 57.5411C-34.4392 57.5411 -34.9562 57.1228 -35.0617 56.5285C-35.18 55.8612 -34.7348 55.2252 -34.0675 55.1069L-31.6412 54.6788C-30.9758 54.5616 -30.3385 55.0075 -30.2214 55.6748C-30.1042 56.3421 -30.5501 56.9781 -31.2174 57.0952L-33.64 57.5227C-33.7118 57.535 -33.7841 57.5411 -33.8553 57.5411ZM70.4576 57.6987C69.7885 57.6987 69.2407 57.1609 69.2315 56.4893C69.2217 55.8122 69.7633 55.2553 70.4404 55.2461C71.261 55.2344 72.0687 55.2123 72.8605 55.1798C73.5554 55.1498 74.1087 55.6785 74.1362 56.355C74.1645 57.0321 73.6376 57.6031 72.9611 57.6313C72.1479 57.6644 71.3187 57.6871 70.4754 57.6987C70.4692 57.6987 70.4631 57.6987 70.4576 57.6987V57.6987ZM-45.339 59.5871C-45.9229 59.5871 -46.4399 59.1688 -46.5454 58.5739C-46.6638 57.9072 -46.2185 57.2706 -45.5518 57.1523L-43.136 56.723C-42.4699 56.604 -41.8315 57.0486 -41.7131 57.7153C-41.5941 58.382 -42.0381 59.0192 -42.7054 59.1382L-45.1231 59.5681C-45.1961 59.581 -45.2679 59.5871 -45.339 59.5871V59.5871ZM-135.617 60.1679C-135.627 60.1679 -135.636 60.1679 -135.646 60.1679C-136.457 60.1495 -137.268 60.1379 -138.077 60.1336C-138.754 60.1293 -139.301 59.5773 -139.297 58.9002C-139.293 58.2225 -138.748 57.6785 -138.063 57.6803C-137.24 57.6852 -136.416 57.6969 -135.591 57.7153C-134.913 57.73 -134.377 58.2918 -134.392 58.9689C-134.407 59.6368 -134.953 60.1679 -135.617 60.1679V60.1679ZM-149.708 60.6218C-150.333 60.6218 -150.867 60.1471 -150.928 59.5129C-150.993 58.8383 -150.499 58.2391 -149.824 58.1747C-149.002 58.0949 -148.177 58.0262 -147.35 57.9667C-146.677 57.9183 -146.087 58.4274 -146.039 59.1032C-145.99 59.7785 -146.499 60.3654 -147.175 60.4139C-147.981 60.4715 -148.786 60.539 -149.589 60.6157C-149.629 60.6199 -149.669 60.6218 -149.708 60.6218ZM-123.982 60.7972C-124.015 60.7972 -124.048 60.7966 -124.081 60.7935C-124.892 60.7285 -125.704 60.6666 -126.516 60.6089C-127.192 60.5611 -127.701 59.9747 -127.653 59.2982C-127.605 58.6224 -127.02 58.1133 -126.343 58.1618C-125.523 58.2201 -124.703 58.282 -123.884 58.3482C-123.209 58.4022 -122.706 58.9934 -122.76 59.6693C-122.812 60.3109 -123.349 60.7972 -123.982 60.7972V60.7972ZM-56.8326 61.5638C-57.4226 61.5638 -57.9427 61.137 -58.0414 60.5359C-58.1512 59.8668 -57.6986 59.2357 -57.0301 59.1265C-56.2303 58.9953 -55.4244 58.8609 -54.613 58.7248C-53.9469 58.6113 -53.3127 59.0621 -53.1999 59.7307C-53.087 60.3986 -53.5378 61.0315 -54.2057 61.1437C-55.0208 61.2805 -55.8298 61.4154 -56.6326 61.5473C-56.6995 61.5583 -56.7669 61.5638 -56.8326 61.5638V61.5638ZM-112.376 61.914C-112.42 61.914 -112.463 61.9116 -112.508 61.9067C-113.319 61.8202 -114.132 61.7344 -114.947 61.6497C-115.62 61.5798 -116.11 60.9769 -116.04 60.3029C-115.97 59.6289 -115.369 59.14 -114.693 59.2093C-113.877 59.2946 -113.061 59.3804 -112.247 59.4675C-111.574 59.5399 -111.086 60.144 -111.158 60.8181C-111.225 61.4467 -111.757 61.914 -112.376 61.914V61.914ZM-161.2 62.5004C-161.758 62.5004 -162.262 62.1171 -162.394 61.5504C-162.547 60.8904 -162.136 60.2311 -161.476 60.0784C-160.674 59.8926 -159.864 59.7159 -159.047 59.5491C-158.382 59.4142 -157.735 59.8416 -157.6 60.5059C-157.464 61.1695 -157.893 61.8172 -158.557 61.9527C-159.352 62.1152 -160.141 62.287 -160.922 62.4679C-161.015 62.4893 -161.108 62.5004 -161.2 62.5004ZM-100.786 63.1468C-100.828 63.1468 -100.869 63.1444 -100.91 63.1407C-101.723 63.0591 -102.538 62.9751 -103.356 62.8898C-104.03 62.8193 -104.519 62.2158 -104.449 61.5424C-104.379 60.8684 -103.775 60.3801 -103.101 60.4494C-102.287 60.5347 -101.474 60.6181 -100.666 60.6997C-99.9916 60.7671 -99.5004 61.3682 -99.5672 62.0422C-99.631 62.6752 -100.165 63.1468 -100.786 63.1468V63.1468ZM-68.3678 63.2867C-68.975 63.2867 -69.5024 62.8359 -69.5828 62.2176C-69.6699 61.5454 -69.1958 60.9303 -68.5236 60.8432C-67.7294 60.7402 -66.9216 60.6316 -66.1022 60.5175C-65.4313 60.4225 -64.8112 60.8916 -64.718 61.5626C-64.6241 62.2336 -65.0927 62.8537 -65.7631 62.9469C-66.591 63.0622 -67.4061 63.1726 -68.209 63.2762C-68.2617 63.2836 -68.3151 63.2867 -68.3678 63.2867V63.2867ZM-89.1709 64.0877C-89.1936 64.0877 -89.2163 64.0864 -89.2384 64.0858C-90.0559 64.0416 -90.8772 63.9907 -91.7045 63.9349C-92.3804 63.8889 -92.8913 63.3038 -92.8453 62.6279C-92.7993 61.9521 -92.216 61.4381 -91.5383 61.4872C-90.7232 61.5424 -89.9118 61.5921 -89.1059 61.6356C-88.4294 61.6724 -87.9112 62.2508 -87.9473 62.9266C-87.9829 63.5804 -88.5245 64.0877 -89.1709 64.0877ZM-79.9767 64.2717C-80.6421 64.2717 -81.1886 63.7387 -81.2027 63.0708C-81.2168 62.3931 -80.6795 61.8325 -80.0024 61.8184C-79.1886 61.8006 -78.3827 61.773 -77.5841 61.7344C-76.9009 61.6976 -76.3323 62.2225 -76.2992 62.899C-76.2661 63.5755 -76.7874 64.1508 -77.4639 64.1845C-78.2851 64.2244 -79.1137 64.2533 -79.9503 64.2704C-79.9589 64.271 -79.9675 64.2717 -79.9767 64.2717V64.2717ZM-172.364 65.8233C-172.865 65.8233 -173.336 65.5136 -173.517 65.015C-173.748 64.3777 -173.42 63.6743 -172.782 63.443C-172.012 63.1634 -171.231 62.8898 -170.438 62.6237C-169.796 62.409 -169.101 62.7537 -168.884 63.3964C-168.669 64.038 -169.015 64.7341 -169.657 64.9494C-170.43 65.2094 -171.193 65.4762 -171.945 65.7491C-172.084 65.7994 -172.225 65.8233 -172.364 65.8233V65.8233ZM-183.081 70.3962C-183.535 70.3962 -183.97 70.1442 -184.183 69.7099C-184.482 69.1021 -184.231 68.3667 -183.623 68.0687C-182.893 67.7099 -182.147 67.3523 -181.384 66.9985C-180.77 66.7139 -180.041 66.98 -179.755 67.5946C-179.47 68.2091 -179.737 68.9384 -180.351 69.2236C-181.097 69.5701 -181.827 69.9197 -182.541 70.2705C-182.716 70.3557 -182.9 70.3962 -183.081 70.3962V70.3962ZM-193.265 76.0669C-193.673 76.0669 -194.073 75.8627 -194.306 75.491C-194.665 74.917 -194.491 74.1601 -193.917 73.8007C-193.243 73.3782 -192.536 72.9458 -191.799 72.506C-191.217 72.1589 -190.464 72.3496 -190.117 72.9317C-189.77 73.5137 -189.961 74.2662 -190.543 74.6134C-191.264 75.0433 -191.955 75.4659 -192.615 75.8799C-192.818 76.0062 -193.043 76.0669 -193.265 76.0669V76.0669ZM-202.773 82.8281C-203.118 82.8281 -203.461 82.6834 -203.704 82.4007C-204.145 81.8873 -204.087 81.1133 -203.573 80.6717C-203.545 80.6472 -202.866 80.0645 -201.594 79.0912C-201.055 78.6803 -200.285 78.7827 -199.874 79.3206C-199.462 79.8585 -199.565 80.6282 -200.103 81.0397C-201.313 81.9658 -201.968 82.5264 -201.974 82.5319C-202.205 82.7312 -202.49 82.8281 -202.773 82.8281" fill="#345F6E"/>
</svg>
