<svg width="25" height="24" viewBox="0 0 25 24" fill="none" xmlns="http://www.w3.org/2000/svg">
<g clip-path="url(#clip0_4651_42268)">
<path d="M2.34464 12.4553C2.48869 13.2571 3.1593 13.8681 3.97203 13.9232C6.61977 14.1029 9.3932 14.3499 12.2501 14.3499C15.1069 14.3499 17.8804 14.1029 20.5281 13.9232C21.3408 13.8681 22.0115 13.2571 22.1555 12.4553C22.4217 10.9735 22.7227 9.43147 22.7227 7.84804C22.7227 6.2646 22.4217 4.72259 22.1555 3.24076C22.0115 2.43902 21.3408 1.82801 20.5281 1.77287C17.8804 1.59319 15.1069 1.34619 12.2501 1.34619C9.3932 1.34619 6.61977 1.59319 3.97203 1.77287C3.1593 1.82801 2.48869 2.43902 2.34464 3.24076C2.07837 4.72259 1.77734 6.2646 1.77734 7.84804C1.77734 9.43147 2.07837 10.9735 2.34464 12.4553Z" fill="white" stroke="#345F6E" stroke-width="1.71429" stroke-linejoin="round"/>
<path d="M17.7827 14.1006C17.8712 13.5338 17.9408 12.954 17.9408 12.3642C17.9408 11.6711 17.8448 10.9919 17.7347 10.3315C17.6005 9.52532 16.9201 8.90857 16.1052 8.84706C16.0479 8.84274 15.9905 8.8384 15.933 8.83407C14.7435 8.74407 13.5115 8.65088 12.2497 8.65088C10.9879 8.65088 9.75598 8.74407 8.56636 8.83407C8.5089 8.8384 8.45152 8.84274 8.39425 8.84706C7.57933 8.90857 6.89898 9.52532 6.7647 10.3314C6.65468 10.9919 6.55859 11.6711 6.55859 12.3642C6.55859 12.954 6.62819 13.5338 6.71674 14.1006C8.50911 14.228 10.3586 14.3498 12.2496 14.3498C14.1406 14.3498 15.9902 14.2279 17.7827 14.1006Z" fill="#A0BBC5" stroke="#345F6E" stroke-width="1.71429" stroke-linejoin="round"/>
<path d="M12.5176 18.1665V22.6682" stroke="#345F6E" stroke-width="1.71429" stroke-linecap="round" stroke-linejoin="round"/>
<path d="M6.75392 18.0747C6.75392 19.8673 6.3059 21.3797 5.35352 22.6681" stroke="#345F6E" stroke-width="1.71429" stroke-linecap="round" stroke-linejoin="round"/>
<path d="M18.2793 18.0747C18.2793 19.8673 18.7272 21.3797 19.6797 22.6681" stroke="#345F6E" stroke-width="1.71429" stroke-linecap="round" stroke-linejoin="round"/>
</g>
<defs>
<clipPath id="clip0_4651_42268">
<rect width="24" height="24" fill="white" transform="translate(0.25)"/>
</clipPath>
</defs>
</svg>
