<svg width="25" height="24" viewBox="0 0 25 24" fill="none" xmlns="http://www.w3.org/2000/svg">
<g clip-path="url(#clip0_4651_42232)">
<path d="M2.67383 15.6785V12.8636C10.0687 12.536 14.2632 12.5341 21.8255 12.8636V15.6785C21.8255 17.1716 21.2045 18.6035 20.0995 19.6594C16.9508 22.3182 7.54708 22.3193 4.39979 19.6594C3.29467 18.6035 2.67383 17.1716 2.67383 15.6785Z" fill="#A0BBC5" stroke="#345F6E" stroke-width="1.71429" stroke-linecap="round" stroke-linejoin="round"/>
<path d="M1.55078 12.8636C9.86886 12.5007 14.4793 12.4888 22.9479 12.8636" stroke="#345F6E" stroke-width="1.71429" stroke-linecap="round" stroke-linejoin="round"/>
<path d="M5.89453 22.7176V20.9253" stroke="#345F6E" stroke-width="1.71429" stroke-linecap="round" stroke-linejoin="round"/>
<path d="M18.6035 22.7176V20.9253" stroke="#345F6E" stroke-width="1.71429" stroke-linecap="round" stroke-linejoin="round"/>
<path d="M2.69141 12.7396C2.69142 9.3184 2.93511 7.02845 3.32763 4.08079C3.54107 2.478 4.91386 1.28271 6.53081 1.28271C7.79905 1.28271 8.95001 2.02475 9.47352 3.1799L9.56825 3.38892" stroke="#345F6E" stroke-width="1.71429" stroke-linecap="round" stroke-linejoin="round"/>
<path d="M8.71875 4.994L11.4575 3.34131" stroke="#345F6E" stroke-width="1.71429" stroke-linecap="round" stroke-linejoin="round"/>
</g>
<defs>
<clipPath id="clip0_4651_42232">
<rect width="24" height="24" fill="white" transform="translate(0.25)"/>
</clipPath>
</defs>
</svg>
