<svg width="25" height="24" viewBox="0 0 25 24" fill="none" xmlns="http://www.w3.org/2000/svg">
<path d="M2.30741 3.0056C2.35663 2.21328 2.94336 1.54623 3.73245 1.45936C4.91232 1.32947 5.94458 1.34396 7.31594 1.50672C7.97443 1.58487 8.51757 2.05877 8.69527 2.69765C9.94781 7.20087 9.79188 9.41059 8.39234 13.2856H2.21753C1.97073 9.07097 2.07024 6.82411 2.30741 3.0056Z" fill="white" stroke="#345F6E" stroke-width="1.71429" stroke-linejoin="round"/>
<path d="M2.21875 13.2859C2.21873 17.2795 2.86913 19.3914 3.39437 22.7145H11.6177C11.3613 21.5838 11.2218 20.5921 11.2154 19.6552C12.0024 19.9699 13.3156 20.1431 14.2149 20.1431C17.4163 20.1431 19.5879 18.5181 20.3405 15.5617C20.5742 14.6442 20.045 13.3513 18.9135 13.2859C12.3851 12.9087 8.0531 12.884 2.21875 13.2859Z" fill="#A0BBC5" stroke="#345F6E" stroke-width="1.71429" stroke-linejoin="round"/>
</svg>
