<svg width="16" height="16" viewBox="0 0 16 16" fill="none" xmlns="http://www.w3.org/2000/svg">
<path d="M3.45411 14.6408C4.91171 14.833 6.43389 15.077 7.99963 15.077C9.56537 15.077 11.0875 14.833 12.5451 14.6408C13.1246 14.5644 13.5657 14.0738 13.5657 13.4893V2.51054C13.5657 1.92602 13.1246 1.43544 12.5451 1.35903C11.0875 1.16683 9.56537 0.922852 7.99963 0.922852C6.43389 0.922852 4.91172 1.16683 3.45411 1.35903C2.87462 1.43544 2.43359 1.92602 2.43359 2.51054V13.4893C2.43359 14.0738 2.87462 14.5644 3.45411 14.6408Z" fill="white" stroke="#345F6E" stroke-width="1.14286" stroke-linejoin="round"/>
<path d="M4.10018 14.7279C3.88348 14.6984 3.6681 14.6691 3.45411 14.6409C2.87462 14.5644 2.43359 14.0739 2.43359 13.4893V7.08789H13.5656V13.4893C13.5656 14.0739 13.1246 14.5644 12.5452 14.6409C12.3311 14.6691 12.1158 14.6984 11.8991 14.728C10.6397 14.8994 9.3355 15.077 7.99963 15.077C6.66375 15.077 5.35958 14.8994 4.10018 14.7279Z" fill="#A0BBC5" stroke="#345F6E" stroke-width="1.14286" stroke-linecap="round" stroke-linejoin="round"/>
<path d="M5.66853 3.41311C5.73603 3.95768 6.19587 4.38139 6.7427 4.42719C7.1502 4.46131 7.56864 4.49067 7.99528 4.49067C8.42193 4.49067 8.84036 4.46131 9.24787 4.42719C9.79469 4.38139 10.2545 3.95768 10.322 3.41311C10.3507 3.18168 10.3714 2.94594 10.3714 2.70676C10.3714 2.46759 10.3507 2.23185 10.322 2.00042C10.2545 1.45585 9.79469 1.03213 9.24787 0.986338C8.84036 0.952212 8.42193 0.922852 7.99528 0.922852C7.56864 0.922852 7.1502 0.952212 6.7427 0.986338C6.19587 1.03213 5.73603 1.45585 5.66853 2.00042C5.63984 2.23185 5.61914 2.46759 5.61914 2.70676C5.61914 2.94594 5.63984 3.18168 5.66853 3.41311Z" fill="#A0BBC5" stroke="#345F6E" stroke-width="1.14286" stroke-linejoin="round"/>
</svg>
