<svg width="25" height="24" viewBox="0 0 25 24" fill="none" xmlns="http://www.w3.org/2000/svg">
<path d="M4.15534 18.6335C4.30776 20.2782 5.5921 21.6172 7.22811 21.845C8.85571 22.0715 10.5343 22.2858 12.25 22.2858C13.9657 22.2858 15.6443 22.0715 17.2719 21.845C18.9078 21.6172 20.1924 20.2782 20.3448 18.6335C20.5433 16.4911 20.7442 14.2725 20.7442 12.0001C20.7442 9.72761 20.5433 7.50909 20.3448 5.36666C20.1924 3.7219 18.9078 2.38294 17.2719 2.15518C15.6443 1.92859 13.9657 1.71436 12.25 1.71436C10.5343 1.71436 8.85571 1.92859 7.22811 2.15518C5.5921 2.38294 4.30776 3.72192 4.15534 5.36666C3.95681 7.50909 3.75586 9.72761 3.75586 12.0001C3.75586 14.2725 3.95681 16.4911 4.15534 18.6335Z" fill="#A0BBC5" stroke="#345F6E" stroke-width="1.71429"/>
<path d="M20.6995 10.0589C20.6275 8.42188 20.4794 6.81705 20.3343 5.25307C20.1879 3.67413 18.9555 2.39035 17.385 2.17094C15.7221 1.93862 14.0056 1.71436 12.2502 1.71436C10.4947 1.71436 8.77816 1.93862 7.1153 2.17094C5.54484 2.39035 4.31239 3.67413 4.16601 5.25307C4.021 6.81708 3.87278 8.42194 3.80078 10.059C4.20823 10.2395 4.65928 10.3398 5.1341 10.3398H19.3659C19.8408 10.3398 20.292 10.2394 20.6995 10.0589Z" fill="white" stroke="#345F6E" stroke-width="1.71429"/>
<path d="M8.56641 5.88916V6.72484" stroke="#345F6E" stroke-width="1.71429" stroke-linecap="round" stroke-linejoin="round"/>
<path d="M8.56641 14.2183V15.0539" stroke="#345F6E" stroke-width="1.71429" stroke-linecap="round" stroke-linejoin="round"/>
</svg>
