<svg width="25" height="24" viewBox="0 0 25 24" fill="none" xmlns="http://www.w3.org/2000/svg">
<g clip-path="url(#clip0_4651_42207)">
<path d="M2.47942 20.1742C2.56794 20.9974 3.22117 21.65 4.04417 21.7404C6.66913 22.028 9.41795 22.4206 12.2491 22.4206C15.0803 22.4206 17.8292 22.028 20.4541 21.7404C21.2771 21.65 21.9303 20.9974 22.0189 20.1742C22.3002 17.5589 22.6701 14.8203 22.6701 11.9996C22.6701 9.17897 22.3002 6.44032 22.0189 3.82497C21.9303 3.0018 21.2771 2.34914 20.4541 2.25895C17.8292 1.97128 15.0803 1.57861 12.2491 1.57861C9.41795 1.57861 6.66913 1.97128 4.04417 2.25895C3.22117 2.34914 2.56794 3.0018 2.47942 3.82497C2.19812 6.44032 1.82812 9.17897 1.82812 11.9996C1.82812 14.8203 2.19812 17.5589 2.47942 20.1742Z" fill="white" stroke="#345F6E" stroke-width="1.71429" stroke-linejoin="round"/>
<path d="M9.67773 6.70312V17.2972" stroke="#345F6E" stroke-width="1.71429" stroke-linecap="round" stroke-linejoin="round"/>
<path d="M9.67773 13.5603H13.1063C14.0156 13.5603 14.8877 13.1991 15.5307 12.5561C16.1737 11.9131 16.5349 11.041 16.5349 10.1317C16.5349 9.22239 16.1737 8.35031 15.5307 7.70734C14.8877 7.06434 14.0156 6.70312 13.1063 6.70312H9.67773" stroke="#345F6E" stroke-width="1.71429" stroke-linecap="round" stroke-linejoin="round"/>
</g>
<defs>
<clipPath id="clip0_4651_42207">
<rect width="24" height="24" fill="white" transform="translate(0.25)"/>
</clipPath>
</defs>
</svg>
