<svg width="25" height="24" viewBox="0 0 25 24" fill="none" xmlns="http://www.w3.org/2000/svg">
<g clip-path="url(#clip0_4651_34591)">
<path d="M21.368 6.09241C21.1229 4.47685 19.7405 3.24373 18.111 3.12152C16.3751 2.99134 14.5828 2.86523 12.7497 2.86523C10.9167 2.86523 9.12438 2.99134 7.38842 3.12152C5.75894 3.24373 4.37656 4.47685 4.13142 6.09241C4.00665 6.91455 3.91211 7.75409 3.91211 8.60723C3.91211 10.4456 4.35116 12.2208 4.58538 13.8951C10.2774 14.2292 15.2221 14.2292 20.9141 13.8951C21.1484 12.2208 21.5874 10.4456 21.5874 8.60723C21.5874 7.75409 21.4928 6.91455 21.368 6.09241Z" fill="#A0BBC5" stroke="#345F6E" stroke-width="1.71429" stroke-linecap="round" stroke-linejoin="round"/>
<path d="M18.6267 15.1532C18.5828 14.3391 17.9123 13.7245 17.0991 13.6657C15.6989 13.5644 14.2432 13.4492 12.7491 13.4492C11.2549 13.4492 9.79925 13.5644 8.39907 13.6657C7.5859 13.7245 6.9153 14.3391 6.8714 15.1532C6.72882 17.7965 7.00097 21.1348 7.00097 21.1348H12.7491H18.4972C18.4972 21.1348 18.7693 17.7965 18.6267 15.1532Z" fill="#A0BBC5" stroke="#345F6E" stroke-width="1.71429" stroke-linecap="round" stroke-linejoin="round"/>
<path d="M7.71127 12.7759C7.66106 11.9695 7.06586 11.2747 6.27185 11.1255C5.85074 11.0463 5.42043 10.9849 4.98298 10.9849C4.54553 10.9849 4.11523 11.0463 3.6941 11.1255C2.90009 11.2747 2.30488 11.9695 2.25467 12.7759C2.18682 13.8655 2.11719 14.9945 2.11719 16.1514C2.11719 17.8055 2.33971 21.1333 2.33971 21.1333H7.63462C7.63462 21.1333 7.84875 17.8055 7.84875 16.1514C7.84875 14.9945 7.77912 13.8655 7.71127 12.7759Z" fill="#A0BBC5" stroke="#345F6E" stroke-width="1.71429" stroke-linecap="round" stroke-linejoin="round"/>
<path d="M23.2465 12.7759C23.1962 11.9695 22.601 11.2747 21.807 11.1255C21.386 11.0463 20.9557 10.9849 20.5182 10.9849C20.0807 10.9849 19.6504 11.0463 19.2292 11.1255C18.4353 11.2747 17.84 11.9695 17.7898 12.7759C17.722 13.8655 17.6523 14.9945 17.6523 16.1514C17.6523 17.8055 17.8749 21.1333 17.8749 21.1333H23.1698C23.1698 21.1333 23.384 17.8055 23.384 16.1514C23.384 14.9945 23.3144 13.8655 23.2465 12.7759Z" fill="#A0BBC5" stroke="#345F6E" stroke-width="1.71429" stroke-linecap="round" stroke-linejoin="round"/>
</g>
<defs>
<clipPath id="clip0_4651_34591">
<rect width="24" height="24" fill="white" transform="translate(0.75)"/>
</clipPath>
</defs>
</svg>
