<svg width="25" height="24" viewBox="0 0 25 24" fill="none" xmlns="http://www.w3.org/2000/svg">
<g clip-path="url(#clip0_4651_42200)">
<path d="M23.2166 17.6353C23.2166 20.308 18.5312 22.4656 12.7509 22.4656C6.97057 22.4656 2.28516 20.308 2.28516 17.6353" stroke="#345F6E" stroke-width="1.71429" stroke-linecap="round" stroke-linejoin="round"/>
<path d="M9.33651 6.99248C7.97197 6.49038 6.56788 6.10738 5.14 5.8471C4.08215 5.65426 3.19031 6.55026 3.37883 7.6089C3.7413 9.64433 4.49797 12.662 5.93917 14.0931C7.54928 15.7032 12.2025 15.7998 12.766 15.2362" fill="#A0BBC5"/>
<path d="M9.33651 6.99248C7.97197 6.49038 6.56788 6.10738 5.14 5.8471C4.08215 5.65426 3.19031 6.55026 3.37883 7.6089C3.7413 9.64433 4.49797 12.662 5.93917 14.0931C7.54928 15.7032 12.2025 15.7998 12.766 15.2362" stroke="#345F6E" stroke-width="1.71429" stroke-linecap="round" stroke-linejoin="round"/>
<path d="M16.1639 6.99248C17.5284 6.49038 18.9325 6.10738 20.3604 5.8471C21.4183 5.65426 22.31 6.55026 22.1216 7.6089C21.7591 9.64433 21.0024 12.662 19.5612 14.0931C17.9511 15.7032 13.2979 15.7998 12.7344 15.2362" fill="#A0BBC5"/>
<path d="M16.1639 6.99248C17.5284 6.49038 18.9325 6.10738 20.3604 5.8471C21.4183 5.65426 22.31 6.55026 22.1216 7.6089C21.7591 9.64433 21.0024 12.662 19.5612 14.0931C17.9511 15.7032 13.2979 15.7998 12.7344 15.2362" stroke="#345F6E" stroke-width="1.71429" stroke-linecap="round" stroke-linejoin="round"/>
<path d="M16.7752 9.58473C16.7752 11.8067 13.5549 15.2201 12.7499 15.2201C11.9448 15.2201 8.72461 11.8067 8.72461 9.58473C8.72461 7.55011 10.3315 4.87271 11.5148 3.17702C12.1274 2.29907 13.3723 2.29907 13.985 3.17702C15.1682 4.87271 16.7752 7.55011 16.7752 9.58473Z" fill="white" stroke="#345F6E" stroke-width="1.71429" stroke-linecap="round" stroke-linejoin="round"/>
</g>
<defs>
<clipPath id="clip0_4651_42200">
<rect width="24" height="24" fill="white" transform="translate(0.75)"/>
</clipPath>
</defs>
</svg>
