<svg width="25" height="24" viewBox="0 0 25 24" fill="none" xmlns="http://www.w3.org/2000/svg">
<g clip-path="url(#clip0_4651_42186)">
<path d="M23.2251 22.4756H22.4194C21.5645 22.4756 20.7446 22.136 20.1401 21.5316C19.5356 20.9271 19.196 20.1072 19.196 19.2524C19.196 20.1072 18.8564 20.9271 18.252 21.5316C17.6474 22.136 16.8276 22.4756 15.9727 22.4756C15.1178 22.4756 14.2979 22.136 13.6934 21.5316C13.0889 20.9271 12.7493 20.1072 12.7493 19.2524C12.7493 20.1072 12.4097 20.9271 11.8052 21.5316C11.2007 22.136 10.3809 22.4756 9.52597 22.4756C8.67109 22.4756 7.85121 22.136 7.24672 21.5316C6.64223 20.9271 6.30263 20.1072 6.30263 19.2524C6.30263 20.1072 5.96301 20.9271 5.35852 21.5316C4.75403 22.136 3.93416 22.4756 3.07928 22.4756H2.27344" stroke="#345F6E" stroke-width="1.71429" stroke-linecap="round" stroke-linejoin="round"/>
<path d="M5.49609 4.74728C5.49609 3.89238 5.83569 3.07251 6.44019 2.46802C7.04468 1.86353 7.86455 1.52393 8.71943 1.52393C9.57433 1.52393 10.3942 1.86353 10.9987 2.46802C11.6032 3.07251 11.9428 3.89238 11.9428 4.74728V14.8228" stroke="#345F6E" stroke-width="1.71429" stroke-linecap="round" stroke-linejoin="round"/>
<path d="M16.7793 1.52393C17.6342 1.52393 18.454 1.86353 19.0585 2.46802C19.6631 3.07251 20.0027 3.89238 20.0027 4.74728V14.7801" stroke="#345F6E" stroke-width="1.71429" stroke-linecap="round" stroke-linejoin="round"/>
<path d="M11.9453 7.9707H20.0037" stroke="#345F6E" stroke-width="1.71429" stroke-linecap="round" stroke-linejoin="round"/>
<path d="M11.9453 12.8062H20.0037" stroke="#345F6E" stroke-width="1.71429" stroke-linecap="round" stroke-linejoin="round"/>
</g>
<defs>
<clipPath id="clip0_4651_42186">
<rect width="24" height="24" fill="white" transform="translate(0.75)"/>
</clipPath>
</defs>
</svg>
