<svg width="25" height="24" viewBox="0 0 25 24" fill="none" xmlns="http://www.w3.org/2000/svg">
<g clip-path="url(#clip0_4651_42194)">
<path d="M10.3116 15.9489C10.1841 16.0027 10.059 16.0616 9.93659 16.1254C9.12813 16.5467 9.12205 17.6166 9.74063 18.2862L11.0393 19.6921C11.7181 20.4268 12.8791 20.4268 13.5578 19.6921L14.8566 18.2862C15.4751 17.6166 15.4691 16.5467 14.6606 16.1254C14.5382 16.0616 14.4131 16.0027 14.2856 15.9489C13.6567 15.6836 12.9811 15.5469 12.2986 15.5469C11.6161 15.5469 10.9405 15.6836 10.3116 15.9489Z" fill="#A0BBC5" stroke="#345F6E" stroke-width="1.71429" stroke-linecap="round" stroke-linejoin="round"/>
<path d="M5.08984 12.3897C6.02926 11.4448 7.1462 10.695 8.37644 10.1833C9.60668 9.6716 10.9259 9.4082 12.2583 9.4082C13.5907 9.4082 14.91 9.6716 16.1402 10.1833C17.3705 10.695 18.4873 11.4448 19.4268 12.3897" stroke="#345F6E" stroke-width="1.71429" stroke-linecap="round" stroke-linejoin="round"/>
<path d="M1.53516 7.81023C2.94192 6.40275 4.6122 5.28622 6.4506 4.52446C8.289 3.76268 10.2595 3.37061 12.2494 3.37061C14.2394 3.37061 16.2099 3.76268 18.0484 4.52446C19.8868 5.28622 21.557 6.40275 22.9637 7.81023" stroke="#345F6E" stroke-width="1.71429" stroke-linecap="round" stroke-linejoin="round"/>
</g>
<defs>
<clipPath id="clip0_4651_42194">
<rect width="24" height="24" fill="white" transform="translate(0.25)"/>
</clipPath>
</defs>
</svg>
